<svg width="24" height="24" viewBox="0 0 24 24" fill="none" xmlns="http://www.w3.org/2000/svg">
<path d="M12.1607 14.0611L7.26252 22.065L5.86717 19.9878L5.72886 19.7803L5.46924 19.771L2.86477 19.6696L7.76294 11.6656L12.1607 14.0611Z" fill="#FF2056" stroke="#A50036"/>
<path d="M11.8393 14.0611L16.7375 22.065L18.1328 19.9878L18.2711 19.7803L18.5308 19.771L21.1352 19.6696L16.2371 11.6656L11.8393 14.0611Z" fill="#FF2056" stroke="#A50036"/>
<g filter="url(#filter0_d_2153_3533)">
<path d="M10.3047 2.08936C11.0582 0.636881 12.9418 0.636878 13.6953 2.08936L19.7348 13.7319C20.4883 15.1844 19.5464 17 18.0395 17H5.96049C4.45355 17 3.51172 15.1844 4.26518 13.7319L10.3047 2.08936Z" fill="#FFDF20"/>
<path d="M12 1.5C12.409 1.5 12.8361 1.69478 13.1328 2.12207L13.252 2.31934L19.291 13.9619C19.5875 14.5335 19.5513 15.1789 19.291 15.6807C19.0312 16.1814 18.5732 16.5 18.0391 16.5H5.96094C5.42685 16.5 4.96879 16.1814 4.70898 15.6807C4.465 15.2103 4.41795 14.6139 4.65723 14.0703L4.70898 13.9619L10.748 2.31934C11.0412 1.75424 11.5325 1.5 12 1.5Z" stroke="#733E0A"/>
</g>
<path d="M16.6865 10.2646L13 16H7.28613L14.1348 5.3457L16.6865 10.2646Z" fill="#FFF085"/>
<path d="M11.9997 2.62012C12.081 2.70315 12.1789 2.83528 12.2868 3.01465C12.4012 3.20477 12.5028 3.40278 12.5983 3.5957L12.8718 4.14746L17.779 13.6074L17.7907 13.6309L17.8054 13.6543C18.2173 14.2919 18.369 14.7038 18.4001 14.9512C18.4258 15.1561 18.3687 15.2011 18.3376 15.2266C18.2607 15.2894 18.0969 15.356 17.8073 15.3936C17.5295 15.4295 17.22 15.4297 16.9069 15.4297H7.09247C6.76464 15.4297 6.5011 15.4313 6.28387 15.3857C6.13092 15.3536 6.06358 15.3113 6.02997 15.2734L6.00555 15.2373C5.87063 14.9772 5.81039 14.8367 5.80927 14.6582C5.80816 14.4774 5.87171 14.1745 6.19989 13.6445L6.21161 13.626L6.22137 13.6074L11.1286 4.14746C11.3062 3.80501 11.485 3.3946 11.7136 3.01465C11.8213 2.83558 11.9185 2.70314 11.9997 2.62012Z" stroke="#FEFCE8" stroke-width="1.14"/>
<path d="M14 10L13 8.24677" stroke="#733E0A" stroke-width="1.26316" stroke-linecap="round" stroke-linejoin="round"/>
<path d="M10 10L11 8.24677" stroke="#733E0A" stroke-width="1.26316" stroke-linecap="round" stroke-linejoin="round"/>
<path d="M14 12.5C14 13.3285 13.1046 14 12 14C10.8954 14 10 13.3285 10 12.5C10 11.6716 10.8954 12 12 12C13.1046 12 14 11.6716 14 12.5Z" fill="#733E0A"/>
<defs>
<filter id="filter0_d_2153_3533" x="4" y="1" width="16" height="17.1429" filterUnits="userSpaceOnUse" color-interpolation-filters="sRGB">
<feFlood flood-opacity="0" result="BackgroundImageFix"/>
<feColorMatrix in="SourceAlpha" type="matrix" values="0 0 0 0 0 0 0 0 0 0 0 0 0 0 0 0 0 0 127 0" result="hardAlpha"/>
<feOffset dy="1.14286"/>
<feComposite in2="hardAlpha" operator="out"/>
<feColorMatrix type="matrix" values="0 0 0 0 0 0 0 0 0 0 0 0 0 0 0 0 0 0 0.25 0"/>
<feBlend mode="normal" in2="BackgroundImageFix" result="effect1_dropShadow_2153_3533"/>
<feBlend mode="normal" in="SourceGraphic" in2="effect1_dropShadow_2153_3533" result="shape"/>
</filter>
</defs>
</svg>
