<svg width="24" height="24" viewBox="0 0 24 24" fill="none" xmlns="http://www.w3.org/2000/svg">
<path d="M12.1607 14.0611L7.26252 22.065L5.86717 19.9878L5.72886 19.7803L5.46924 19.771L2.86477 19.6696L7.76294 11.6656L12.1607 14.0611Z" fill="#FF2056" stroke="#A50036"/>
<path d="M11.8393 14.0611L16.7375 22.065L18.1328 19.9878L18.2711 19.7803L18.5308 19.771L21.1352 19.6696L16.2371 11.6656L11.8393 14.0611Z" fill="#FF2056" stroke="#A50036"/>
<g filter="url(#filter0_d_2153_3559)">
<path d="M10.7678 1.73799C11.3178 0.754005 12.6822 0.754005 13.2322 1.73799L14.8339 4.60316C15.0354 4.96361 15.3731 5.21921 15.7643 5.30749L18.8746 6.00924C19.9428 6.25024 20.3644 7.60218 19.6362 8.45132L17.5158 10.9238C17.2491 11.2349 17.1201 11.6485 17.1604 12.0635L17.481 15.3623C17.5911 16.4953 16.4873 17.3308 15.4872 16.8716L12.575 15.5346C12.2087 15.3664 11.7913 15.3664 11.425 15.5346L8.51281 16.8716C7.51269 17.3308 6.40892 16.4953 6.51901 15.3623L6.83959 12.0635C6.87992 11.6485 6.75095 11.2349 6.48419 10.9238L4.36381 8.45132C3.63561 7.60218 4.05721 6.25024 5.12537 6.00924L8.23565 5.30749C8.62694 5.21921 8.96458 4.96361 9.16608 4.60316L10.7678 1.73799Z" fill="#5EE9B5"/>
<path d="M11.2041 1.98242C11.5409 1.37994 12.3294 1.34191 12.7227 1.86914L12.7959 1.98242L14.3975 4.84668C14.6323 5.26685 15.0095 5.58545 15.458 5.73926L15.6543 5.79492L18.7646 6.49707C19.4006 6.64061 19.7143 7.4364 19.3408 8.01367L19.2568 8.12598L17.1367 10.5986C16.8243 10.9629 16.6551 11.4286 16.6533 11.9062L16.6631 12.1123L16.9834 15.4111C17.0549 16.15 16.4006 16.6353 15.8125 16.4609L15.6963 16.417L12.7832 15.0801C12.3468 14.8798 11.8562 14.8546 11.4062 15.0049L11.2168 15.0801L8.30371 16.417C7.72785 16.6811 7.03301 16.2583 7.01172 15.5547L7.0166 15.4111L7.33691 12.1123C7.38348 11.6331 7.26005 11.1523 6.98926 10.7607L6.86328 10.5986L4.74316 8.12598C4.27648 7.58178 4.52115 6.76093 5.1123 6.53418L5.23535 6.49707L8.3457 5.79492C8.81326 5.68941 9.21913 5.41037 9.49316 5.02051L9.60254 4.84668L11.2041 1.98242Z" stroke="#004F3B"/>
</g>
<path d="M8.32422 16.9424C8.31644 16.9447 8.30761 16.9452 8.2998 16.9473C8.35066 16.933 8.40152 16.9151 8.45215 16.8945L8.32422 16.9424ZM13.9609 5.09082L14.0977 5.30859C14.4407 5.79634 14.9516 6.1494 15.5439 6.2832L16.4688 6.49121L11.3125 14.5117C11.2911 14.5182 11.2693 14.5232 11.248 14.5303L11.0078 14.626L8.0957 15.9629C7.95891 16.0255 7.82194 16.0068 7.70312 15.917C7.58138 15.8248 7.49476 15.665 7.51465 15.459L7.83496 12.1602L7.84668 11.9053C7.84581 11.6598 7.80826 11.4168 7.73828 11.1836L12.8887 3.17285L13.9609 5.09082ZM6.5127 15.5615C6.51464 15.6263 6.52079 15.6898 6.53027 15.752C6.52129 15.6931 6.51477 15.6326 6.5127 15.5713V15.5615ZM15.2285 5.05762C15.268 5.08749 15.3093 5.1151 15.3516 5.14062C15.2668 5.08942 15.1872 5.02913 15.1143 4.96094L15.2285 5.05762Z" fill="#A4F4CF"/>
<mask id="path-6-inside-1_2153_3559" fill="white">
<path d="M15.4869 16.8715C15.6096 16.9278 15.7345 16.9636 15.858 16.9828C15.7974 16.9734 15.736 16.9609 15.6753 16.9427L15.4869 16.8715ZM8.45171 16.8949C8.40091 16.9155 8.35039 16.9334 8.29936 16.9476C8.30731 16.9454 8.31583 16.9451 8.32378 16.9427L8.45171 16.8949ZM8.51225 16.8724L8.45171 16.8949C8.47174 16.8868 8.49327 16.8806 8.51323 16.8715L10.4126 15.9994L8.51225 16.8724ZM11.6744 2.17322C11.8557 1.92636 12.201 1.94385 12.3589 2.22595L13.9605 5.09119L14.0972 5.30896C14.4402 5.79671 14.9512 6.14976 15.5435 6.28357L18.6539 6.98474L18.7574 7.0238C18.8551 7.07607 18.9332 7.16898 18.9742 7.30017C19.0221 7.45406 19.0033 7.61508 18.9175 7.74646L18.8765 7.80115L16.7564 10.2728C16.3092 10.7946 16.0985 11.4801 16.1646 12.1605L16.4849 15.4594L16.4878 15.5345C16.4828 15.7043 16.403 15.8367 16.2964 15.9174C16.2073 15.9846 16.1079 16.0124 16.0064 15.9955L15.9039 15.9633L12.9917 14.6263C12.4394 14.3728 11.8173 14.3404 11.2476 14.5306L11.0074 14.6263L8.09526 15.9633C7.95842 16.0259 7.82153 16.0073 7.70268 15.9174C7.58094 15.8251 7.49432 15.6653 7.51421 15.4594L7.83452 12.1605L7.84624 11.9056C7.84452 11.3961 7.68986 10.8961 7.39897 10.476L7.24272 10.2728L5.12261 7.80115C5.00284 7.66148 4.97029 7.47592 5.02495 7.30017C5.07942 7.12557 5.2001 7.01768 5.34526 6.98474L8.45561 6.28357L8.70366 6.21326C9.27127 6.01874 9.74507 5.61605 10.0386 5.09119L11.6402 2.22595L11.6744 2.17322ZM11.7076 15.4398C11.6113 15.4608 11.5168 15.4926 11.4253 15.5345C11.471 15.5136 11.5169 15.4946 11.564 15.4789L11.7076 15.4398ZM6.51909 15.3627C6.50603 15.4974 6.5108 15.6277 6.52983 15.7523C6.52083 15.6933 6.51433 15.6331 6.51225 15.5717L6.51909 15.3627ZM12.2925 15.4398C12.3888 15.4608 12.4833 15.4926 12.5748 15.5345C12.5289 15.5135 12.4824 15.4947 12.4351 15.4789L12.2925 15.4398ZM12.147 15.4164C12.098 15.4111 12.0488 15.4086 11.9996 15.4086L11.8531 15.4164C11.9018 15.4111 11.9506 15.4086 11.9996 15.4086L12.147 15.4164ZM6.57768 11.0453C6.63413 11.1269 6.68109 11.2142 6.72026 11.3051C6.70121 11.2609 6.68095 11.2173 6.65776 11.1752L6.57768 11.0453ZM19.7593 8.2865C19.7227 8.34312 19.6818 8.39845 19.6363 8.45154L17.5162 10.9242C17.4178 11.0389 17.3382 11.1675 17.2789 11.3051C17.318 11.2142 17.365 11.1269 17.4214 11.0453L17.5162 10.9242L19.6363 8.45154L19.7593 8.2865ZM19.9292 7.00232C20.0216 7.29858 20.0265 7.62463 19.9283 7.93103L19.856 8.11267C19.9963 7.8158 20.0299 7.48946 19.9732 7.18298L19.9292 7.00232ZM18.8746 6.00916C19.3419 6.11468 19.6854 6.43275 19.8628 6.82849C19.7105 6.48932 19.4366 6.20682 19.0669 6.06677L18.8746 6.00916ZM4.93218 6.06775C4.91588 6.07394 4.90025 6.08152 4.88432 6.08826C4.94275 6.06355 5.00357 6.04286 5.06694 6.02576L4.93218 6.06775ZM5.12553 6.00916C5.10566 6.01364 5.08636 6.02051 5.06694 6.02576L5.12553 6.00916ZM15.6207 5.26697C15.6675 5.28302 15.7155 5.29601 15.7642 5.30701L15.6207 5.26697ZM8.37065 5.26892C8.3263 5.28382 8.28088 5.29761 8.23491 5.30798L6.15971 5.77576L8.23589 5.30701C8.28164 5.29667 8.3265 5.28373 8.37065 5.26892ZM15.3511 5.14099C15.4361 5.19231 15.5264 5.23466 15.6207 5.26697C15.5734 5.25079 15.527 5.23238 15.482 5.2113L15.3511 5.14099ZM15.1138 4.9613C15.1868 5.02951 15.2663 5.08977 15.3511 5.14099C15.3088 5.11544 15.2676 5.08788 15.2281 5.05798L15.1138 4.9613ZM9.04643 4.78064C9.05853 4.76485 9.07205 4.7501 9.08354 4.73376L9.16557 4.60388L10.7671 1.73865C10.8014 1.67734 10.8392 1.61946 10.8794 1.5658L10.8804 1.56482C10.8401 1.61861 10.8025 1.6762 10.7681 1.73767L9.16655 4.60291C9.13134 4.66589 9.08951 4.72439 9.04643 4.78064ZM12.9908 1.41541C13.0817 1.50756 13.1633 1.61484 13.232 1.73767L14.8335 4.60291L14.9156 4.73376C14.8863 4.69215 14.8587 4.64792 14.8335 4.60291L13.232 1.73767C13.1976 1.6762 13.16 1.61959 13.1197 1.5658L12.9908 1.41541ZM12.6929 1.18494C12.7997 1.24636 12.8999 1.32333 12.9908 1.41541C12.9452 1.3692 12.8972 1.32694 12.8472 1.28845L12.6929 1.18494ZM17.481 15.3627L17.4888 15.558C17.4887 15.5616 17.487 15.5651 17.4869 15.5687C17.489 15.5013 17.4878 15.4326 17.481 15.3627Z"/>
</mask>
<path d="M7.16753 16.7592L6.84955 17.2322L7.16753 16.7592ZM7.05034 16.6722L6.68657 17.1111L6.68657 17.1111L7.05034 16.6722ZM6.8394 12.0638L6.27207 12.0087L6.27207 12.0088L6.8394 12.0638ZM17.1607 12.0638L17.728 12.0088L17.728 12.0087L17.1607 12.0638ZM4.7271 6.16638L5.01365 6.65912L5.01365 6.65912L4.7271 6.16638ZM11.9996 1.00037L11.9994 0.430366L11.9994 0.430366L11.9996 1.00037ZM16.0367 16.9984L16.0483 16.4285C16.0526 16.4286 16.0524 16.4288 16.0423 16.4279C16.0373 16.4274 16.0319 16.4269 16.0232 16.426C16.0155 16.4252 16.0048 16.4241 15.9935 16.423L15.941 16.9906L15.8884 17.5582C15.8909 17.5584 15.9658 17.5671 16.025 17.5683L16.0367 16.9984ZM8.07671 16.9896L8.01667 16.4228C7.98459 16.4262 7.96911 16.4274 7.95843 16.4277L7.97514 16.9974L7.99186 17.5672C8.04877 17.5655 8.10073 17.5603 8.13675 17.5565L8.07671 16.9896ZM7.88628 16.9965L7.90752 16.4269C7.88441 16.426 7.86863 16.4249 7.85652 16.4237L7.79741 16.9906L7.7383 17.5575C7.78514 17.5624 7.8285 17.5647 7.86503 17.5661L7.88628 16.9965ZM16.2183 16.9896L16.1526 16.4234C16.1586 16.4227 16.1601 16.4229 16.1506 16.4233C16.1456 16.4235 16.141 16.4236 16.1321 16.424C16.1244 16.4242 16.1136 16.4246 16.102 16.4252L16.1304 16.9945L16.1588 17.5638C16.1743 17.563 16.1676 17.5636 16.1984 17.5623C16.2182 17.5614 16.2489 17.5599 16.284 17.5558L16.2183 16.9896ZM12.5748 15.5345L12.3369 16.0526L15.249 17.3895L15.4869 16.8715L15.7247 16.3534L12.8126 15.0165L12.5748 15.5345ZM8.29936 16.9476L8.14611 16.3986C8.10984 16.4087 8.08112 16.4151 8.05729 16.4189L8.14702 16.9818L8.23675 17.5447C8.31454 17.5323 8.38703 17.515 8.45262 17.4966L8.29936 16.9476ZM7.72514 16.9808L7.81493 16.418C7.79556 16.4149 7.77587 16.4109 7.75556 16.406L7.62261 16.9603L7.48966 17.5146C7.5371 17.526 7.58559 17.5358 7.63536 17.5437L7.72514 16.9808ZM16.3902 16.9574L16.252 16.4044C16.2436 16.4065 16.2318 16.4089 16.1987 16.4147L16.2984 16.976L16.3981 17.5372C16.4267 17.5321 16.4761 17.5234 16.5284 17.5104L16.3902 16.9574ZM7.55425 16.9427L7.71562 16.3961C7.70436 16.3927 7.6891 16.3875 7.66065 16.3768L7.4605 16.9105L7.26034 17.4442C7.29382 17.4568 7.34059 17.474 7.39287 17.4894L7.55425 16.9427ZM16.5591 16.9037L16.3512 16.373C16.345 16.3754 16.3393 16.3771 16.2998 16.3897L16.4722 16.933L16.6446 17.4763C16.6635 17.4703 16.7163 17.4543 16.7671 17.4344L16.5591 16.9037ZM7.39116 16.8832L7.61949 16.3609C7.61063 16.357 7.59879 16.3512 7.57073 16.3367L7.30913 16.8431L7.04753 17.3496C7.07362 17.363 7.11585 17.3849 7.16283 17.4054L7.39116 16.8832ZM16.7212 16.8275L16.4478 16.3274C16.4285 16.3379 16.4114 16.3466 16.3958 16.3538L16.6343 16.8715L16.8728 17.3892C16.9163 17.3692 16.9569 17.3483 16.9947 17.3276L16.7212 16.8275ZM7.23589 16.8051L7.52632 16.3146C7.53193 16.3179 7.53356 16.3193 7.52575 16.3139C7.52118 16.3107 7.51845 16.3088 7.51061 16.3033C7.50417 16.2988 7.49533 16.2927 7.4855 16.2861L7.16753 16.7592L6.84955 17.2322C6.85735 17.2375 6.85622 17.2369 6.87706 17.2513C6.89183 17.2615 6.91623 17.2782 6.94546 17.2955L7.23589 16.8051ZM16.8667 16.7357L16.5356 16.2718C16.525 16.2793 16.5111 16.2885 16.4887 16.3024L16.7896 16.7865L17.0905 17.2706C17.1205 17.252 17.1582 17.228 17.1979 17.1996L16.8667 16.7357ZM7.05034 16.6722L6.68657 17.1111C6.74204 17.1571 6.79722 17.197 6.84955 17.2322L7.16753 16.7592L7.4855 16.2861C7.4571 16.267 7.43382 16.2498 7.41411 16.2334L7.05034 16.6722ZM17.0064 16.6215L16.6206 16.2019C16.6026 16.2184 16.5883 16.2308 16.5759 16.2408L16.9332 16.6849L17.2904 17.1291C17.3283 17.0986 17.3624 17.0685 17.3922 17.041L17.0064 16.6215ZM7.05034 16.6722L7.41411 16.2334C7.38906 16.2126 7.37541 16.2007 7.36549 16.1912L6.97124 16.6029L6.57698 17.0146C6.61787 17.0537 6.65766 17.0871 6.68657 17.1111L7.05034 16.6722ZM17.1343 16.4886L16.6992 16.1205C16.6811 16.1418 16.6668 16.1577 16.6543 16.1704L17.0611 16.5697L17.4678 16.969C17.5063 16.9298 17.5403 16.8913 17.5695 16.8568L17.1343 16.4886ZM6.90874 16.5375L7.32749 16.1508C7.30756 16.1292 7.29957 16.1203 7.29368 16.1131L6.85405 16.476L6.41442 16.8388C6.44358 16.8741 6.4727 16.9055 6.48998 16.9242L6.90874 16.5375ZM17.2378 16.351L16.7629 16.0358C16.7475 16.0591 16.7363 16.0748 16.727 16.087L17.1792 16.434L17.6315 16.7809C17.6633 16.7394 17.6906 16.6996 17.7128 16.6661L17.2378 16.351ZM6.80718 16.4154L7.26497 16.0758C7.24908 16.0544 7.23823 16.0389 7.22995 16.026L6.75054 16.3344L6.27112 16.6427C6.29866 16.6855 6.32606 16.7236 6.34939 16.755L6.80718 16.4154ZM17.3238 16.2015L16.8154 15.9437C16.811 15.9525 16.8068 15.9609 16.8037 15.9672C16.8002 15.9741 16.7979 15.9787 16.7958 15.983C16.7914 15.9916 16.7905 15.993 16.7914 15.9915L17.2837 16.2787L17.7761 16.5659C17.8019 16.5216 17.8295 16.4646 17.8321 16.4594L17.3238 16.2015ZM6.70366 16.2562L7.2011 15.9779C7.19112 15.9601 7.18332 15.9453 7.17697 15.9323L6.6646 16.182L6.15223 16.4318C6.17049 16.4692 6.18896 16.5037 6.20622 16.5345L6.70366 16.2562ZM17.4078 16.0033L16.8675 15.8217C16.8552 15.8581 16.8481 15.8775 16.842 15.8917L17.3658 16.1166L17.8895 16.3414C17.9151 16.282 17.9344 16.2255 17.9481 16.1849L17.4078 16.0033ZM6.63139 16.1097L7.1564 15.8878C7.15053 15.8739 7.14367 15.8553 7.1332 15.8244L6.59331 16.0072L6.05341 16.19C6.06649 16.2286 6.08398 16.2787 6.10639 16.3317L6.63139 16.1097ZM11.4253 15.5345L11.1876 15.0165L10.1749 15.4814L10.4126 15.9994L10.6504 16.5174L11.6631 16.0526L11.4253 15.5345ZM17.4644 15.7855L16.903 15.6869C16.8969 15.7217 16.8888 15.756 16.8787 15.7899L17.4253 15.9515L17.9719 16.1132C17.9939 16.0391 18.012 15.9628 18.0258 15.8842L17.4644 15.7855ZM6.57085 15.9359L7.11922 15.7804C7.11633 15.7702 7.11354 15.7576 7.10518 15.7179L6.54741 15.8353L5.98964 15.9528C5.99558 15.981 6.00667 16.0357 6.02248 16.0915L6.57085 15.9359ZM17.48 15.641L16.9118 15.5962C16.9107 15.6096 16.9099 15.6224 16.9092 15.632C16.9085 15.6426 16.908 15.6497 16.9075 15.6564C16.9064 15.6698 16.9059 15.6725 16.9062 15.6704L17.4693 15.7592L18.0323 15.8479C18.043 15.78 18.0476 15.6943 18.0483 15.6858L17.48 15.641ZM6.8394 12.0638L6.27207 12.0088L5.95176 15.3076L6.51909 15.3627L7.08642 15.4178L7.40673 12.1189L6.8394 12.0638ZM17.1607 12.0638L16.5934 12.1189L16.8268 14.5242L17.3941 14.4691L17.9614 14.4141L17.728 12.0088L17.1607 12.0638ZM17.1607 12.0638L17.728 12.0087C17.7246 11.9732 17.7229 11.942 17.7229 11.9148L17.1529 11.9154L16.5829 11.916C16.583 11.9873 16.5872 12.0556 16.5934 12.119L17.1607 12.0638ZM6.84624 11.9154L6.27624 11.9148C6.2762 11.9494 6.2748 11.9807 6.27207 12.0087L6.8394 12.0638L7.40673 12.119C7.41361 12.0481 7.41617 11.9798 7.41624 11.9161L6.84624 11.9154ZM6.83843 11.766L6.27103 11.8204C6.27349 11.846 6.27492 11.8687 6.27544 11.8895L6.84526 11.8754L7.41509 11.8613C7.41379 11.8087 7.41033 11.7586 7.40582 11.7116L6.83843 11.766ZM17.1539 11.8754L17.7237 11.8895C17.7242 11.8688 17.7256 11.846 17.7281 11.8204L17.1607 11.766L16.5933 11.7116C16.5888 11.7586 16.5853 11.8087 16.584 11.8613L17.1539 11.8754ZM6.81694 11.6185L6.25744 11.7274C6.26132 11.7474 6.2646 11.7676 6.26728 11.7884L6.83257 11.7152L7.39785 11.642C7.39213 11.5979 7.38503 11.5538 7.37644 11.5096L6.81694 11.6185ZM17.1675 11.7152L17.7328 11.7884C17.7373 11.7539 17.7394 11.739 17.7417 11.7274L17.1822 11.6185L16.6227 11.5097C16.6125 11.5621 16.6062 11.6117 16.6022 11.642L17.1675 11.7152ZM6.78179 11.475L6.23533 11.6371C6.24327 11.6639 6.24906 11.6859 6.25329 11.7052L6.81011 11.5834L7.36692 11.4615C7.35514 11.4077 7.34155 11.3577 7.32824 11.3128L6.78179 11.475ZM17.189 11.5834L17.7458 11.7052C17.75 11.686 17.7558 11.6639 17.7638 11.637L17.2173 11.475L16.6709 11.3129C16.6576 11.3576 16.644 11.4076 16.6322 11.4616L17.189 11.5834ZM6.73003 11.3285L6.2029 11.5454C6.21272 11.5692 6.22103 11.5917 6.22802 11.6132L6.77007 11.4369L7.31211 11.2606C7.29523 11.2087 7.27667 11.159 7.25715 11.1116L6.73003 11.3285ZM17.2291 11.4369L17.7711 11.6131C17.778 11.5918 17.7864 11.5693 17.7963 11.5453L17.2691 11.3285L16.7419 11.1117C16.7225 11.1589 16.7039 11.2086 16.687 11.2607L17.2291 11.4369ZM19.6363 8.45154L19.2036 8.08052L17.0834 10.5532L17.5162 10.9242L17.9489 11.2952L20.069 8.82256L19.6363 8.45154ZM4.36382 8.45154L4.79651 8.08049C4.77052 8.05019 4.74558 8.01652 4.72117 7.97908L4.2437 8.29041L3.76623 8.60173C3.81381 8.67469 3.86822 8.74923 3.93113 8.82259L4.36382 8.45154ZM4.20854 8.22888L4.70014 7.94038C4.67483 7.89726 4.66868 7.88673 4.66386 7.87677L4.15093 8.12537L3.63799 8.37397C3.6674 8.43463 3.70191 8.49177 3.71695 8.51738L4.20854 8.22888ZM4.10405 8.01404L4.63546 7.80788C4.63208 7.79917 4.62894 7.79136 4.62663 7.78565C4.6255 7.78287 4.62431 7.77994 4.62348 7.77789C4.62255 7.77561 4.62185 7.77389 4.62123 7.77235C4.61848 7.76551 4.61934 7.76734 4.6211 7.7725L4.08159 7.95642L3.54208 8.14034C3.55047 8.16497 3.55883 8.18597 3.56378 8.19825C3.57064 8.21528 3.57058 8.21488 3.57264 8.2202L4.10405 8.01404ZM4.03862 7.80115L4.59477 7.67627C4.59392 7.67248 4.59315 7.66914 4.59259 7.66673C4.59231 7.66553 4.59204 7.66437 4.59184 7.66351C4.59162 7.66257 4.59147 7.66193 4.59133 7.66133C4.59071 7.65865 4.59106 7.6601 4.59166 7.66294L4.03374 7.77966L3.47582 7.89639C3.47792 7.90641 3.47991 7.91502 3.48095 7.91949C3.48122 7.92068 3.48149 7.92183 3.48169 7.92267C3.48191 7.9236 3.48205 7.92423 3.48219 7.92482C3.48246 7.92599 3.48251 7.92622 3.48247 7.92603L4.03862 7.80115ZM4.01518 7.66931L4.5802 7.59412C4.57492 7.55444 4.57422 7.5506 4.57365 7.54338L4.00542 7.58826L3.43719 7.63314C3.4409 7.68011 3.44825 7.73009 3.45016 7.7445L4.01518 7.66931ZM4.00249 7.49744L4.57238 7.48621C4.57164 7.44901 4.5715 7.43595 4.57197 7.42512L4.00249 7.40076L3.43301 7.37639C3.43072 7.42992 3.43206 7.48126 3.4326 7.50867L4.00249 7.49744ZM4.00835 7.32263L4.57588 7.37562C4.57865 7.34593 4.5808 7.3274 4.58308 7.31294L4.02007 7.224L3.45705 7.13506C3.449 7.18597 3.44421 7.23327 3.44082 7.26964L4.00835 7.32263ZM4.03862 7.12927L4.59509 7.25274C4.59784 7.24032 4.60171 7.22516 4.60762 7.20373L4.05815 7.05212L3.50868 6.90052C3.50048 6.93025 3.49091 6.96634 3.48215 7.00581L4.03862 7.12927ZM4.08452 6.96423L4.62413 7.14788C4.63072 7.12849 4.63851 7.10802 4.64765 7.08612L4.12163 6.86658L3.59561 6.64703C3.57792 6.68942 3.56079 6.73395 3.54491 6.78059L4.08452 6.96423ZM4.14897 6.80408L4.66476 7.0467C4.67227 7.03072 4.68218 7.01175 4.69612 6.98686L4.19878 6.70837L3.70144 6.42989C3.68022 6.46778 3.65632 6.51227 3.63319 6.56145L4.14897 6.80408ZM4.24077 6.63806L4.72224 6.94317C4.72608 6.9371 4.72973 6.9321 4.75088 6.90242L4.28667 6.57166L3.82246 6.24089C3.81233 6.2551 3.78429 6.29352 3.7593 6.33295L4.24077 6.63806ZM4.34624 6.49158L4.7869 6.85313C4.79469 6.84363 4.80573 6.83132 4.82676 6.80897L4.41167 6.41833L3.99657 6.0277C3.97263 6.05315 3.93931 6.08891 3.90558 6.13003L4.34624 6.49158ZM4.4644 6.36267L4.85793 6.77503C4.86446 6.76879 4.8715 6.76315 4.91143 6.7309L4.55327 6.28748L4.19511 5.84405C4.17442 5.86077 4.12037 5.90308 4.07088 5.95031L4.4644 6.36267ZM4.7271 6.16638L5.01365 6.65912C5.04101 6.6432 5.07169 6.62789 5.10635 6.61324L4.88432 6.08826L4.66229 5.56328C4.58767 5.59484 4.51343 5.63126 4.44054 5.67365L4.7271 6.16638ZM5.12553 6.00916L5.25102 6.56517L6.2852 6.33177L6.15971 5.77576L6.03423 5.21974L5.00005 5.45314L5.12553 6.00916ZM15.7642 5.30701L15.6387 5.86302L18.749 6.56516L18.8746 6.00916L19.0001 5.45315L15.8897 4.751L15.7642 5.30701ZM8.49468 5.22009L8.26223 4.69964C8.26563 4.69812 8.26605 4.6981 8.25899 4.7008C8.25531 4.7022 8.25179 4.70353 8.24545 4.70591C8.23986 4.70802 8.2322 4.71091 8.22399 4.7141L8.43022 5.24548L8.63645 5.77687C8.64917 5.77193 8.643 5.77447 8.66627 5.76556C8.68076 5.76002 8.70262 5.75148 8.72712 5.74054L8.49468 5.22009ZM8.62651 5.15173L8.34029 4.6588C8.32793 4.66598 8.31451 4.67327 8.29966 4.68083L8.55815 5.18884L8.81665 5.69686C8.84809 5.68086 8.88018 5.66356 8.91273 5.64466L8.62651 5.15173ZM8.75151 5.07068L8.41516 4.61049C8.40063 4.62112 8.38492 4.63178 8.36776 4.64264L8.67241 5.12439L8.97706 5.60614C9.01379 5.58292 9.05082 5.55794 9.08786 5.53086L8.75151 5.07068ZM8.8521 4.98865L8.47553 4.56075C8.44755 4.58537 8.44204 4.59023 8.43634 4.59468L8.78667 5.04431L9.137 5.49394C9.17647 5.46319 9.21353 5.42987 9.22866 5.41655L8.8521 4.98865ZM8.93804 4.90662L8.52767 4.51101C8.52081 4.51813 8.51493 4.52446 8.51081 4.52892C8.50874 4.53116 8.50682 4.53326 8.5054 4.5348C8.5038 4.53655 8.5029 4.53754 8.50194 4.53858C8.5001 4.54058 8.50009 4.54057 8.50087 4.53976C8.50174 4.53884 8.5042 4.53628 8.50785 4.53274L8.90483 4.94177L9.30181 5.35081C9.31989 5.33326 9.33452 5.31737 9.34119 5.31012C9.34296 5.30819 9.34478 5.3062 9.3459 5.30498C9.34721 5.30355 9.34801 5.30268 9.34867 5.30196C9.35003 5.30049 9.34965 5.30092 9.3484 5.30222L8.93804 4.90662ZM13.232 1.73767L12.7344 2.01578L14.336 4.88102L14.8335 4.60291L15.3311 4.32479L13.7295 1.45956L13.232 1.73767ZM11.9996 1.00037L11.9994 0.430366C11.8319 0.43042 11.6634 0.451636 11.4986 0.495144L11.6441 1.04626L11.7896 1.59738C11.8575 1.57946 11.9282 1.57039 11.9997 1.57037L11.9996 1.00037ZM11.9996 1.00037L11.9997 1.57037C12.0717 1.57034 12.1425 1.57941 12.2104 1.59735L12.356 1.04626L12.5016 0.495176C12.3361 0.451459 12.1672 0.430313 11.9994 0.430366L11.9996 1.00037ZM4.60405 6.24548L4.9409 6.7053C4.95728 6.6933 4.97966 6.67888 5.01365 6.65912L4.7271 6.16638L4.44054 5.67365C4.38957 5.70329 4.32905 5.74036 4.2672 5.78566L4.60405 6.24548ZM12.5748 15.5345L12.0993 16.5707L13.0502 14.4984L12.5748 15.5345ZM15.4869 16.8715L15.8902 15.8052L15.0112 17.9075L15.4869 16.8715ZM15.858 16.9828L15.6828 18.1093L16.0332 15.8563L15.858 16.9828ZM15.6753 16.9427L15.272 18.009L15.31 18.0234L15.3489 18.035L15.6753 16.9427ZM8.29936 16.9476L7.99285 15.8496L8.60586 18.0457L8.29936 16.9476ZM8.32378 16.9427L8.64978 18.0351L8.68689 18.0241L8.72316 18.0105L8.32378 16.9427ZM8.51225 16.8724L8.90875 17.9413L8.94908 17.9263L8.98816 17.9083L8.51225 16.8724ZM8.51323 16.8715L8.03757 15.8354L8.03756 15.8354L8.51323 16.8715ZM10.4126 15.9994L10.8885 17.0353L9.93698 14.9634L10.4126 15.9994ZM11.6744 2.17322L10.7556 1.49837L10.7358 1.52522L10.7177 1.55318L11.6744 2.17322ZM12.3589 2.22595L13.354 1.66973L13.3537 1.66913L12.3589 2.22595ZM13.9605 5.09119L12.9654 5.64741L12.9796 5.67275L12.995 5.69733L13.9605 5.09119ZM14.0972 5.30896L13.1317 5.9151L13.1476 5.94035L13.1647 5.96474L14.0972 5.30896ZM15.5435 6.28357L15.2923 7.39555L15.2928 7.39566L15.5435 6.28357ZM18.6539 6.98474L19.0563 5.91816L18.982 5.89011L18.9046 5.87265L18.6539 6.98474ZM18.7574 7.0238L19.295 6.01856L19.2295 5.98348L19.1599 5.95722L18.7574 7.0238ZM18.9742 7.30017L20.0626 6.96115L20.0624 6.96067L18.9742 7.30017ZM18.9175 7.74646L19.8295 8.43046L19.8518 8.40075L19.8721 8.36965L18.9175 7.74646ZM18.8765 7.80115L19.7418 8.54336L19.7661 8.51502L19.7885 8.48515L18.8765 7.80115ZM16.7564 10.2728L15.8911 9.53062L15.8909 9.5309L16.7564 10.2728ZM16.1646 12.1605L17.2993 12.0503L17.2993 12.0503L16.1646 12.1605ZM16.4849 15.4594L17.624 15.415L17.6228 15.382L17.6196 15.3492L16.4849 15.4594ZM16.4878 15.5345L17.6273 15.5681L17.6285 15.5291L17.627 15.4902L16.4878 15.5345ZM16.2964 15.9174L16.9832 16.8273L16.9845 16.8263L16.2964 15.9174ZM16.0064 15.9955L15.6646 17.083L15.7404 17.1069L15.8187 17.1199L16.0064 15.9955ZM15.9039 15.9633L15.4282 16.9993L15.4935 17.0293L15.5621 17.0508L15.9039 15.9633ZM12.9917 14.6263L13.4674 13.5903L13.4673 13.5903L12.9917 14.6263ZM11.2476 14.5306L10.8866 13.4493L10.8558 13.4596L10.8257 13.4716L11.2476 14.5306ZM11.0074 14.6263L10.5855 13.5673L10.5583 13.5781L10.5317 13.5903L11.0074 14.6263ZM8.09526 15.9633L8.5697 16.9998L8.57089 16.9993L8.09526 15.9633ZM7.70268 15.9174L7.01434 16.8261L7.0149 16.8265L7.70268 15.9174ZM7.51421 15.4594L6.37954 15.3492L6.37948 15.3498L7.51421 15.4594ZM7.83452 12.1605L8.96918 12.2707L8.97198 12.2418L8.97332 12.2129L7.83452 12.1605ZM7.84624 11.9056L8.98504 11.958L8.98633 11.9299L8.98623 11.9018L7.84624 11.9056ZM7.39897 10.476L8.33623 9.82699L8.31997 9.80351L8.30256 9.78088L7.39897 10.476ZM7.24272 10.2728L8.14631 9.57776L8.12779 9.55368L8.10801 9.53062L7.24272 10.2728ZM5.12261 7.80115L4.2572 8.54322L4.25732 8.54336L5.12261 7.80115ZM5.02495 7.30017L3.93667 6.96067L3.93637 6.96164L5.02495 7.30017ZM5.34526 6.98474L5.09456 5.87265L5.09302 5.873L5.34526 6.98474ZM8.45561 6.28357L8.70631 7.39566L8.73662 7.38883L8.76651 7.38036L8.45561 6.28357ZM8.70366 6.21326L9.01456 7.31004L9.04414 7.30166L9.07323 7.29169L8.70366 6.21326ZM10.0386 5.09119L11.0336 5.64766L11.0337 5.64741L10.0386 5.09119ZM11.6402 2.22595L10.6835 1.60591L10.6633 1.63719L10.6451 1.66973L11.6402 2.22595ZM11.7076 15.4398L12.0069 16.5398L11.4645 14.326L11.7076 15.4398ZM11.4253 15.5345L10.9497 14.4985L11.9008 16.5707L11.4253 15.5345ZM11.564 15.4789L11.2647 14.3789L11.2333 14.3874L11.2025 14.3977L11.564 15.4789ZM6.51909 15.3627L7.65848 15.3999L5.38441 15.2526L6.51909 15.3627ZM6.52983 15.7523L5.40291 15.9245L7.65677 15.5803L6.52983 15.7523ZM6.51225 15.5717L5.37286 15.5344L5.37162 15.5723L5.3729 15.6102L6.51225 15.5717ZM12.2925 15.4398L12.5356 14.326L11.9913 16.5393L12.2925 15.4398ZM12.4351 15.4789L12.796 14.3975L12.7664 14.3876L12.7363 14.3794L12.4351 15.4789ZM12.147 15.4164L12.0867 16.5548L12.2694 14.283L12.147 15.4164ZM11.9996 15.4086L11.9992 14.2686L11.9992 14.2686L11.9996 15.4086ZM11.8531 15.4164L11.7309 14.283L11.9138 16.5548L11.8531 15.4164ZM6.57768 11.0453L7.51527 10.3968L5.60729 11.6436L6.57768 11.0453ZM6.72026 11.3051L5.67354 11.7567L7.7671 10.8537L6.72026 11.3051ZM6.65776 11.1752L7.65663 10.6258L7.643 10.601L7.62815 10.5769L6.65776 11.1752ZM19.7593 8.2865L20.7163 8.90607L18.8454 7.6051L19.7593 8.2865ZM19.6363 8.45154L18.7223 7.77014L20.5016 9.19366L19.6363 8.45154ZM17.5162 10.9242L18.4141 11.6266L16.6508 10.1821L17.5162 10.9242ZM17.2789 11.3051L16.2319 10.8539L18.3257 11.7564L17.2789 11.3051ZM17.4214 11.0453L16.5235 10.3429L16.5028 10.3694L16.4836 10.3971L17.4214 11.0453ZM19.9292 7.00232L21.0176 6.66303L18.8215 7.27176L19.9292 7.00232ZM19.9283 7.93103L20.9875 8.35245L21.0019 8.31619L21.0139 8.27902L19.9283 7.93103ZM19.856 8.11267L18.7968 7.69125L20.8866 8.59988L19.856 8.11267ZM19.9732 7.18298L21.0942 6.97566L21.0884 6.94442L21.0809 6.91354L19.9732 7.18298ZM18.8746 6.00916L19.1257 4.89715L18.5475 7.10123L18.8746 6.00916ZM19.8628 6.82849L18.8229 7.29555L20.903 6.36201L19.8628 6.82849ZM19.0669 6.06677L19.4708 5.0007L19.4329 4.98633L19.394 4.9747L19.0669 6.06677ZM4.88432 6.08826L4.44025 5.03831L5.32838 7.13822L4.88432 6.08826ZM4.93218 6.06775L4.59304 4.97936L4.55989 4.98969L4.52744 5.00202L4.93218 6.06775ZM5.12553 6.00916L5.4363 7.10598L4.87463 4.89711L5.12553 6.00916ZM6.15971 5.77576L5.90865 4.66375L6.41039 6.88785L6.15971 5.77576ZM15.6207 5.26697L15.2512 6.34545L15.6207 5.26697ZM15.7642 5.30701L15.5131 6.41901L16.0705 4.20892L15.7642 5.30701ZM8.37065 5.26892L8.73356 6.34961L8.00812 4.1881L8.37065 5.26892ZM8.23491 5.30798L8.48559 6.42008L8.48581 6.42003L8.23491 5.30798ZM8.23589 5.30701L8.48695 6.41902L8.48706 6.41899L8.23589 5.30701ZM15.3511 5.14099L14.7619 6.1169L14.7619 6.1169L15.3511 5.14099ZM15.482 5.2113L14.9424 6.21552L14.9703 6.23052L14.999 6.24394L15.482 5.2113ZM15.1138 4.9613L15.8502 4.09104L14.3353 5.79412L15.1138 4.9613ZM15.2281 5.05798L14.4917 5.92824L14.5155 5.9484L14.5404 5.96723L15.2281 5.05798ZM9.04643 4.78064L8.14139 4.08747L9.95146 5.47384L9.04643 4.78064ZM9.08354 4.73376L10.0158 5.38983L10.0322 5.36657L10.0474 5.34252L9.08354 4.73376ZM9.16557 4.60388L10.1294 5.21263L10.1458 5.18679L10.1607 5.1601L9.16557 4.60388ZM10.7671 1.73865L9.77206 1.18238L9.77204 1.18242L10.7671 1.73865ZM10.8794 1.5658L10.0733 0.759694L10.0158 0.817213L9.96705 0.882316L10.8794 1.5658ZM10.8804 1.56482L11.7924 2.24888L10.0743 0.758718L10.8804 1.56482ZM10.7681 1.73767L9.77319 1.18113L9.77302 1.18145L10.7681 1.73767ZM9.16655 4.60291L10.1616 5.15917L10.1616 5.15913L9.16655 4.60291ZM13.232 1.73767L12.237 2.29418L14.2271 1.18141L13.232 1.73767ZM14.8335 4.60291L15.7995 3.99741L13.8386 5.15945L14.8335 4.60291ZM14.9156 4.73376L13.9831 5.38965L15.8815 4.12827L14.9156 4.73376ZM13.1197 1.5658L14.0318 0.88199L14.0095 0.852181L13.9852 0.823894L13.1197 1.5658ZM12.6929 1.18494L13.2615 0.196828L12.0578 2.13163L12.6929 1.18494ZM12.8472 1.28845L13.5428 0.385289L13.5133 0.362536L13.4823 0.341762L12.8472 1.28845ZM17.481 15.3627L18.6157 15.2526L16.3419 15.4082L17.481 15.3627ZM17.4888 15.558L18.6285 15.5866L18.6294 15.5495L18.6279 15.5124L17.4888 15.558ZM17.4869 15.5687L16.3474 15.5323L18.6263 15.6052L17.4869 15.5687ZM15.4869 16.8715L15.0112 17.9075C15.235 18.0102 15.4617 18.0749 15.6828 18.1093L15.858 16.9828L16.0331 15.8563C16.0073 15.8523 15.9843 15.8454 15.9625 15.8354L15.4869 16.8715ZM15.858 16.9828L16.0332 15.8563C16.007 15.8523 15.999 15.8496 16.0018 15.8505L15.6753 16.9427L15.3489 18.035C15.4731 18.0721 15.5878 18.0945 15.6827 18.1092L15.858 16.9828ZM15.6753 16.9427L16.0786 15.8765L15.8902 15.8052L15.4869 16.8715L15.0836 17.9377L15.272 18.009L15.6753 16.9427ZM8.45171 16.8949L8.02252 15.8388C8.0033 15.8466 7.99425 15.8492 7.99287 15.8496L8.29936 16.9476L8.60586 18.0457C8.70652 18.0176 8.79852 17.9845 8.8809 17.951L8.45171 16.8949ZM8.29936 16.9476L8.60587 18.0457C8.56434 18.0572 8.53076 18.0639 8.51225 18.0673C8.50273 18.0691 8.4953 18.0703 8.49162 18.0709C8.48871 18.0714 8.48561 18.0719 8.48852 18.0714C8.48984 18.0712 8.49576 18.0703 8.50289 18.0691C8.51036 18.0679 8.52143 18.0659 8.53471 18.0634C8.56077 18.0583 8.60133 18.0496 8.64978 18.0351L8.32378 16.9427L7.99778 15.8504C8.02036 15.8436 8.04058 15.8384 8.0577 15.8343C8.07477 15.8303 8.08942 15.8272 8.10075 15.825C8.11198 15.8229 8.121 15.8213 8.12642 15.8204C8.1315 15.8195 8.13536 15.8189 8.13462 15.8191C8.13431 15.8191 8.13462 15.8191 8.13394 15.8192C8.13356 15.8192 8.13291 15.8193 8.13217 15.8195C8.1307 15.8197 8.12827 15.8201 8.12535 15.8205C8.11962 15.8215 8.11014 15.8231 8.09858 15.8252C8.0869 15.8273 8.0718 15.8303 8.05431 15.8342C8.03676 15.8381 8.01601 15.8431 7.99285 15.8496L8.29936 16.9476ZM8.32378 16.9427L8.72316 18.0105L8.85109 17.9626L8.45171 16.8949L8.05232 15.8271L7.92439 15.875L8.32378 16.9427ZM8.51225 16.8724L8.11575 15.8036L8.05521 15.8261L8.45171 16.8949L8.84821 17.9637L8.90875 17.9413L8.51225 16.8724ZM8.45171 16.8949L8.8809 17.951C8.86689 17.9567 8.85681 17.9604 8.85491 17.961C8.85383 17.9614 8.85355 17.9615 8.85545 17.9609C8.85612 17.9606 8.86124 17.9588 8.86485 17.9575C8.87317 17.9546 8.88999 17.9485 8.90987 17.9408C8.93018 17.933 8.95752 17.9219 8.9889 17.9075L8.51323 16.8715L8.03756 15.8354C8.05896 15.8256 8.07612 15.8187 8.08616 15.8148C8.09131 15.8128 8.09527 15.8114 8.09752 15.8105C8.0997 15.8098 8.10088 15.8093 8.10014 15.8096C8.09979 15.8097 8.09924 15.8099 8.09816 15.8103C8.09749 15.8105 8.09539 15.8113 8.09398 15.8118C8.0907 15.8129 8.08525 15.8149 8.07902 15.8171C8.06683 15.8215 8.04654 15.829 8.02252 15.8388L8.45171 16.8949ZM8.51323 16.8715L8.9889 17.9075L10.8883 17.0354L10.4126 15.9994L9.93698 14.9634L8.03757 15.8354L8.51323 16.8715ZM10.4126 15.9994L9.93674 14.9635L8.03635 15.8365L8.51225 16.8724L8.98816 17.9083L10.8885 17.0353L10.4126 15.9994ZM11.6744 2.17322L12.5932 2.84807C12.462 3.02665 12.2238 3.1574 11.9479 3.13858C11.6691 3.11958 11.4616 2.95677 11.3642 2.78277L12.3589 2.22595L13.3537 1.66913C13.0984 1.21303 12.6392 0.900429 12.103 0.863866C11.5696 0.827497 11.0681 1.07293 10.7556 1.49837L11.6744 2.17322ZM12.3589 2.22595L11.3638 2.78218L12.9654 5.64741L13.9605 5.09119L14.9556 4.53496L13.354 1.66973L12.3589 2.22595ZM13.9605 5.09119L12.995 5.69733L13.1317 5.9151L14.0972 5.30896L15.0627 4.70282L14.926 4.48504L13.9605 5.09119ZM14.0972 5.30896L13.1647 5.96474C13.6647 6.67572 14.4147 7.1973 15.2923 7.39555L15.5435 6.28357L15.7947 5.17159C15.4876 5.10223 15.2157 4.9177 15.0297 4.65318L14.0972 5.30896ZM15.5435 6.28357L15.2928 7.39566L18.4032 8.09683L18.6539 6.98474L18.9046 5.87265L15.7942 5.17148L15.5435 6.28357ZM18.6539 6.98474L18.2514 8.05133L18.3549 8.09039L18.7574 7.0238L19.1599 5.95722L19.0563 5.91816L18.6539 6.98474ZM18.7574 7.0238L18.2197 8.02904C18.0295 7.92729 17.9255 7.76675 17.8859 7.63967L18.9742 7.30017L20.0624 6.96067C19.9409 6.57121 19.6807 6.22484 19.295 6.01856L18.7574 7.0238ZM18.9742 7.30017L17.8857 7.6392C17.84 7.49223 17.8496 7.29685 17.9629 7.12327L18.9175 7.74646L19.8721 8.36965C20.157 7.93332 20.2042 7.4159 20.0626 6.96115L18.9742 7.30017ZM18.9175 7.74646L18.0055 7.06246L17.9645 7.11715L18.8765 7.80115L19.7885 8.48515L19.8295 8.43046L18.9175 7.74646ZM18.8765 7.80115L18.0112 7.05894L15.8911 9.53062L16.7564 10.2728L17.6217 11.015L19.7418 8.54336L18.8765 7.80115ZM16.7564 10.2728L15.8909 9.5309C15.2378 10.2927 14.9344 11.2874 15.0299 12.2708L16.1646 12.1605L17.2993 12.0503C17.2626 11.6727 17.3805 11.2964 17.6219 11.0148L16.7564 10.2728ZM16.1646 12.1605L15.0299 12.2707L15.3502 15.5695L16.4849 15.4594L17.6196 15.3492L17.2993 12.0503L16.1646 12.1605ZM16.4849 15.4594L15.3458 15.5037L15.3487 15.5789L16.4878 15.5345L17.627 15.4902L17.624 15.415L16.4849 15.4594ZM16.4878 15.5345L15.3483 15.501C15.3539 15.3115 15.4511 15.1275 15.6084 15.0084L16.2964 15.9174L16.9845 16.8263C17.3549 16.5459 17.6118 16.097 17.6273 15.5681L16.4878 15.5345ZM16.2964 15.9174L15.6097 15.0074C15.7363 14.9119 15.9474 14.8299 16.1941 14.871L16.0064 15.9955L15.8187 17.1199C16.2685 17.195 16.6784 17.0573 16.9832 16.8273L16.2964 15.9174ZM16.0064 15.9955L16.3482 14.9079L16.2457 14.8757L15.9039 15.9633L15.5621 17.0508L15.6646 17.083L16.0064 15.9955ZM15.9039 15.9633L16.3795 14.9272L13.4674 13.5903L12.9917 14.6263L12.5161 15.6624L15.4282 16.9993L15.9039 15.9633ZM12.9917 14.6263L13.4673 13.5903C12.6521 13.2161 11.7308 13.1674 10.8866 13.4493L11.2476 14.5306L11.6087 15.612C11.9037 15.5134 12.2268 15.5296 12.5162 15.6624L12.9917 14.6263ZM11.2476 14.5306L10.8257 13.4716L10.5855 13.5673L11.0074 14.6263L11.4293 15.6854L11.6695 15.5897L11.2476 14.5306ZM11.0074 14.6263L10.5317 13.5903L7.61963 14.9272L8.09526 15.9633L8.57089 16.9993L11.483 15.6624L11.0074 14.6263ZM8.09526 15.9633L7.62083 14.9267C7.72744 14.8779 7.87014 14.8464 8.03012 14.8659C8.1878 14.8851 8.31002 14.9473 8.39047 15.0082L7.70268 15.9174L7.0149 16.8265C7.45103 17.1564 8.0323 17.2458 8.56969 16.9998L8.09526 15.9633ZM7.70268 15.9174L8.39103 15.0086C8.57665 15.1492 8.66804 15.371 8.64893 15.5689L7.51421 15.4594L6.37948 15.3498C6.3206 15.9596 6.58522 16.501 7.01434 16.8261L7.70268 15.9174ZM7.51421 15.4594L8.64887 15.5695L8.96918 12.2707L7.83452 12.1605L6.69986 12.0503L6.37954 15.3492L7.51421 15.4594ZM7.83452 12.1605L8.97332 12.2129L8.98504 11.958L7.84624 11.9056L6.70744 11.8533L6.69572 12.1082L7.83452 12.1605ZM7.84624 11.9056L8.98623 11.9018C8.98374 11.1651 8.76031 10.4395 8.33623 9.82699L7.39897 10.476L6.46172 11.1249C6.6194 11.3526 6.70529 11.6271 6.70624 11.9095L7.84624 11.9056ZM7.39897 10.476L8.30256 9.78088L8.14631 9.57776L7.24272 10.2728L6.33913 10.9679L6.49538 11.171L7.39897 10.476ZM7.24272 10.2728L8.10801 9.53062L5.98789 7.05894L5.12261 7.80115L4.25732 8.54336L6.37744 11.015L7.24272 10.2728ZM5.12261 7.80115L5.98801 7.05907C6.1417 7.2383 6.16687 7.46717 6.11352 7.63871L5.02495 7.30017L3.93637 6.96164C3.77372 7.48467 3.86398 8.08465 4.2572 8.54322L5.12261 7.80115ZM5.02495 7.30017L6.11322 7.63967C6.08841 7.71921 6.03631 7.81982 5.94055 7.91174C5.84428 8.00415 5.72432 8.06771 5.59751 8.09648L5.34526 6.98474L5.09302 5.873C4.51913 6.00321 4.10201 6.43068 3.93667 6.96067L5.02495 7.30017ZM5.34526 6.98474L5.59596 8.09683L8.70631 7.39566L8.45561 6.28357L8.20491 5.17148L5.09456 5.87265L5.34526 6.98474ZM8.45561 6.28357L8.76651 7.38036L9.01456 7.31004L8.70366 6.21326L8.39276 5.11647L8.14471 5.18678L8.45561 6.28357ZM8.70366 6.21326L9.07323 7.29169C9.91399 7.00357 10.6069 6.41057 11.0336 5.64766L10.0386 5.09119L9.04366 4.53472C8.88325 4.82154 8.62856 5.03391 8.33409 5.13482L8.70366 6.21326ZM10.0386 5.09119L11.0337 5.64741L12.6353 2.78218L11.6402 2.22595L10.6451 1.66973L9.04352 4.53496L10.0386 5.09119ZM11.6402 2.22595L12.5968 2.84599L12.631 2.79326L11.6744 2.17322L10.7177 1.55318L10.6835 1.60591L11.6402 2.22595ZM11.7076 15.4398L11.4645 14.326C11.2862 14.3649 11.1139 14.4232 10.9499 14.4984L11.4253 15.5345L11.9008 16.5707C11.9197 16.562 11.9365 16.5567 11.9507 16.5536L11.7076 15.4398ZM11.4253 15.5345L11.901 16.5706C11.9207 16.5615 11.9275 16.5594 11.9255 16.56L11.564 15.4789L11.2025 14.3977C11.1064 14.4299 11.0213 14.4656 10.9497 14.4985L11.4253 15.5345ZM11.564 15.4789L11.8633 16.5789L12.0069 16.5398L11.7076 15.4398L11.4082 14.3398L11.2647 14.3789L11.564 15.4789ZM6.51909 15.3627L5.38441 15.2526C5.36189 15.4849 5.37015 15.7101 5.40291 15.9245L6.52983 15.7523L7.65676 15.5802C7.65144 15.5453 7.65017 15.5098 7.65377 15.4727L6.51909 15.3627ZM6.52983 15.7523L7.65677 15.5803C7.65283 15.5544 7.65183 15.5399 7.6516 15.5331L6.51225 15.5717L5.3729 15.6102C5.37683 15.7263 5.38883 15.8322 5.40289 15.9244L6.52983 15.7523ZM6.51225 15.5717L7.65164 15.6089L7.65848 15.3999L6.51909 15.3627L5.3797 15.3254L5.37286 15.5344L6.51225 15.5717ZM12.2925 15.4398L12.0495 16.5536C12.0637 16.5567 12.0804 16.562 12.0993 16.5707L12.5748 15.5345L13.0502 14.4984C12.8862 14.4232 12.7139 14.3649 12.5356 14.326L12.2925 15.4398ZM12.5748 15.5345L13.0502 14.4984C12.9735 14.4632 12.8885 14.4284 12.796 14.3975L12.4351 15.4789L12.0742 16.5602C12.0763 16.5609 12.0843 16.5638 12.0993 16.5707L12.5748 15.5345ZM12.4351 15.4789L12.7363 14.3794L12.5938 14.3403L12.2925 15.4398L11.9913 16.5393L12.1339 16.5784L12.4351 15.4789ZM12.147 15.4164L12.2694 14.283C12.178 14.2731 12.0878 14.2685 11.9992 14.2686L11.9996 15.4086L11.9999 16.5486C12.0098 16.5486 12.018 16.5491 12.0247 16.5498L12.147 15.4164ZM11.9996 15.4086L11.9388 14.2702L11.7924 14.278L11.8531 15.4164L11.9138 16.5548L12.0603 16.547L11.9996 15.4086ZM11.8531 15.4164L11.9753 16.5498C11.9822 16.5491 11.9903 16.5486 11.9999 16.5486L11.9996 15.4086L11.9992 14.2686C11.911 14.2686 11.8214 14.2732 11.7309 14.283L11.8531 15.4164ZM11.9996 15.4086L11.9392 16.547L12.0867 16.5548L12.147 15.4164L12.2073 14.278L12.0599 14.2702L11.9996 15.4086ZM6.57768 11.0453L5.64009 11.6938C5.64845 11.7059 5.66018 11.7257 5.67342 11.7564L6.72026 11.3051L7.7671 10.8537C7.70201 10.7027 7.61981 10.5479 7.51527 10.3968L6.57768 11.0453ZM6.72026 11.3051L7.76699 10.8534C7.74015 10.7912 7.70383 10.7116 7.65663 10.6258L6.65776 11.1752L5.65889 11.7246C5.65819 11.7233 5.65909 11.7249 5.66168 11.7303C5.66431 11.7358 5.66811 11.7441 5.67354 11.7567L6.72026 11.3051ZM6.65776 11.1752L7.62815 10.5769L7.54807 10.447L6.57768 11.0453L5.60729 11.6436L5.68737 11.7735L6.65776 11.1752ZM19.7593 8.2865L18.8024 7.66692C18.7916 7.68358 18.781 7.69761 18.7709 7.70942L19.6363 8.45154L20.5016 9.19366C20.5826 9.09929 20.6537 9.00266 20.7163 8.90607L19.7593 8.2865ZM17.5162 10.9242L16.6508 10.1821C16.4761 10.3858 16.3359 10.6127 16.232 10.8537L17.2789 11.3051L18.3257 11.7564C18.3404 11.7223 18.3594 11.6921 18.3815 11.6663L17.5162 10.9242ZM17.2789 11.3051L18.3258 11.7562C18.3388 11.7261 18.3505 11.706 18.3592 11.6934L17.4214 11.0453L16.4836 10.3971C16.3795 10.5477 16.2972 10.7024 16.2319 10.8539L17.2789 11.3051ZM17.4214 11.0453L18.3193 11.7477L18.4141 11.6266L17.5162 10.9242L16.6183 10.2218L16.5235 10.3429L17.4214 11.0453ZM19.6363 8.45154L20.5502 9.13294L20.6733 8.9679L19.7593 8.2865L18.8454 7.6051L18.7223 7.77014L19.6363 8.45154ZM19.9292 7.00232L18.8409 7.3416C18.8669 7.4249 18.8659 7.51068 18.8427 7.58304L19.9283 7.93103L21.0139 8.27902C21.1871 7.73859 21.1763 7.17226 21.0176 6.66303L19.9292 7.00232ZM19.9283 7.93103L18.869 7.50961L18.7968 7.69125L19.856 8.11267L20.9153 8.53409L20.9875 8.35245L19.9283 7.93103ZM19.856 8.11267L20.8866 8.59988C21.1359 8.0726 21.1914 7.50156 21.0942 6.97566L19.9732 7.18298L18.8522 7.39031C18.8683 7.47736 18.8568 7.559 18.8254 7.62546L19.856 8.11267ZM19.9732 7.18298L21.0809 6.91354L21.0369 6.73288L19.9292 7.00232L18.8215 7.27176L18.8655 7.45242L19.9732 7.18298ZM18.8746 6.00916L18.6235 7.12116C18.6718 7.13208 18.7076 7.15172 18.737 7.17687C18.7684 7.20369 18.7993 7.24285 18.8226 7.29497L19.8628 6.82849L20.903 6.36201C20.5938 5.67247 19.9773 5.08946 19.1257 4.89715L18.8746 6.00916ZM19.8628 6.82849L20.9028 6.36143C20.6387 5.77351 20.1506 5.25823 19.4708 5.0007L19.0669 6.06677L18.6631 7.13284C18.7226 7.1554 18.7823 7.20513 18.8229 7.29555L19.8628 6.82849ZM19.0669 6.06677L19.394 4.9747L19.2016 4.91708L18.8746 6.00916L18.5475 7.10123L18.7399 7.15885L19.0669 6.06677ZM4.93218 6.06775L4.52744 5.00202C4.48985 5.01629 4.4593 5.02978 4.44679 5.03531C4.44335 5.03683 4.44017 5.03825 4.43826 5.0391C4.43596 5.04012 4.43508 5.04051 4.43431 5.04086C4.43281 5.04152 4.43558 5.04028 4.44027 5.0383L4.88432 6.08826L5.32838 7.13822C5.34103 7.13286 5.35172 7.12815 5.35814 7.12531C5.36133 7.12389 5.36441 7.12252 5.36607 7.12178C5.36812 7.12087 5.3689 7.12052 5.36943 7.12029C5.3705 7.11981 5.36745 7.12118 5.36242 7.12329C5.3572 7.12549 5.34836 7.12914 5.33691 7.13348L4.93218 6.06775ZM4.88432 6.08826L5.3284 7.13821C5.33543 7.13524 5.34682 7.13101 5.36402 7.12637L5.06694 6.02576L4.76986 4.92515C4.66033 4.95471 4.55007 4.99186 4.44025 5.03831L4.88432 6.08826ZM5.06694 6.02576L4.72781 4.93737L4.59304 4.97936L4.93218 6.06775L5.27131 7.15614L5.40608 7.11414L5.06694 6.02576ZM5.12553 6.00916L4.87463 4.89711C4.8232 4.90871 4.78127 4.9214 4.76709 4.92567C4.76315 4.92686 4.75912 4.92809 4.75745 4.92859C4.75636 4.92892 4.7557 4.92912 4.75518 4.92928C4.75469 4.92943 4.75455 4.92947 4.75463 4.92945C4.75475 4.92941 4.75629 4.92895 4.75872 4.92825C4.76119 4.92754 4.76501 4.92645 4.76986 4.92515L5.06694 6.02576L5.36402 7.12637C5.38297 7.12125 5.39881 7.11658 5.40836 7.11372C5.4132 7.11227 5.41755 7.11095 5.4201 7.11017C5.42329 7.1092 5.42412 7.10895 5.42505 7.10867C5.4267 7.10817 5.422 7.10961 5.41456 7.11167C5.40681 7.11381 5.39354 7.11734 5.37644 7.1212L5.12553 6.00916ZM5.06694 6.02576L5.37771 7.12258L5.4363 7.10598L5.12553 6.00916L4.81477 4.91233L4.75617 4.92893L5.06694 6.02576ZM15.6207 5.26697L15.2512 6.34545C15.345 6.37758 15.4338 6.40109 15.5131 6.41901L15.7642 5.30701L16.0153 4.195C15.9973 4.19093 15.99 4.18846 15.9901 4.18849L15.6207 5.26697ZM15.7642 5.30701L16.0705 4.20892L15.9269 4.16888L15.6207 5.26697L15.3144 6.36506L15.4579 6.4051L15.7642 5.30701ZM8.37065 5.26892L8.00775 4.18823C7.99592 4.1922 7.98847 4.1945 7.98407 4.19578C7.97972 4.19705 7.98 4.19684 7.98401 4.19594L8.23491 5.30798L8.48581 6.42003C8.58414 6.39784 8.66992 6.37098 8.73356 6.34961L8.37065 5.26892ZM8.23491 5.30798L7.98423 4.19589L5.90903 4.66366L6.15971 5.77576L6.41039 6.88785L8.48559 6.42008L8.23491 5.30798ZM6.15971 5.77576L6.41078 6.88777L8.48695 6.41902L8.23589 5.30701L7.98482 4.195L5.90865 4.66375L6.15971 5.77576ZM8.23589 5.30701L8.48706 6.41899C8.576 6.3989 8.6583 6.37486 8.73318 6.34974L8.37065 5.26892L8.00812 4.1881C7.9947 4.1926 7.98728 4.19444 7.98471 4.19502L8.23589 5.30701ZM15.3511 5.14099L14.7619 6.1169C14.9151 6.2094 15.0789 6.28637 15.251 6.34537L15.6207 5.26697L15.9903 4.18856C15.9739 4.18294 15.9571 4.17521 15.9404 4.16509L15.3511 5.14099ZM15.6207 5.26697L15.9901 4.18849C15.9771 4.18402 15.969 4.18056 15.9649 4.17867L15.482 5.2113L14.999 6.24394C15.0851 6.2842 15.1698 6.31755 15.2512 6.34545L15.6207 5.26697ZM15.482 5.2113L16.0216 4.20709L15.8907 4.13677L15.3511 5.14099L14.8115 6.14521L14.9424 6.21552L15.482 5.2113ZM15.1138 4.9613L14.3353 5.79412C14.4654 5.91568 14.6082 6.02409 14.7619 6.11689L15.3511 5.14099L15.9404 4.1651C15.9244 4.15546 15.9082 4.14334 15.8923 4.12848L15.1138 4.9613ZM15.3511 5.14099L15.9404 4.16509C15.9282 4.15771 15.9203 4.15217 15.9157 4.14874L15.2281 5.05798L14.5404 5.96723C14.615 6.0236 14.6894 6.07316 14.7619 6.1169L15.3511 5.14099ZM15.2281 5.05798L15.9644 4.18772L15.8502 4.09104L15.1138 4.9613L14.3774 5.83156L14.4917 5.92824L15.2281 5.05798ZM9.04643 4.78064L9.95148 5.47381C9.9446 5.4828 9.93963 5.48888 9.93905 5.48959C9.93871 5.49001 9.93878 5.48992 9.94008 5.48834C9.94083 5.48743 9.94366 5.48401 9.94605 5.4811C9.9549 5.47033 9.98408 5.43497 10.0158 5.38983L9.08354 4.73376L8.15124 4.0777C8.16224 4.06207 8.17138 4.05015 8.17684 4.04317C8.18205 4.03651 8.18556 4.03227 8.18438 4.03372C8.1836 4.03466 8.18325 4.03508 8.18083 4.03801C8.17897 4.04028 8.17587 4.04403 8.17239 4.04831C8.16551 4.05674 8.15431 4.07059 8.14139 4.08747L9.04643 4.78064ZM9.08354 4.73376L10.0474 5.34252L10.1294 5.21263L9.16557 4.60388L8.20172 3.99513L8.11969 4.12501L9.08354 4.73376ZM9.16557 4.60388L10.1607 5.1601L11.7622 2.29487L10.7671 1.73865L9.77204 1.18242L8.17048 4.04766L9.16557 4.60388ZM10.7671 1.73865L11.7622 2.29491C11.7714 2.2785 11.7815 2.26307 11.7918 2.24928L10.8794 1.5658L9.96705 0.882316C9.89698 0.975858 9.83143 1.07618 9.77206 1.18238L10.7671 1.73865ZM10.8794 1.5658L11.6855 2.3719L11.6865 2.37092L10.8804 1.56482L10.0743 0.758718L10.0733 0.759694L10.8794 1.5658ZM10.8804 1.56482L9.96846 0.880757C9.89752 0.975337 9.83225 1.07555 9.77319 1.18113L10.7681 1.73767L11.763 2.29421C11.7727 2.27685 11.7826 2.26187 11.7924 2.24888L10.8804 1.56482ZM10.7681 1.73767L9.77302 1.18145L8.17145 4.04668L9.16655 4.60291L10.1616 5.15913L11.7632 2.29389L10.7681 1.73767ZM9.16655 4.60291L8.17148 4.04664C8.17417 4.04183 8.17416 4.04243 8.16916 4.04973C8.164 4.05726 8.15562 4.06888 8.1414 4.08744L9.04643 4.78064L9.95146 5.47384C10.0076 5.40057 10.0873 5.29208 10.1616 5.15917L9.16655 4.60291ZM12.9908 1.41541L12.1793 2.21606C12.1985 2.23556 12.2183 2.26075 12.237 2.29418L13.232 1.73767L14.2269 1.18116C14.1082 0.968927 13.9649 0.779555 13.8023 0.614746L12.9908 1.41541ZM14.8335 4.60291L13.8676 5.2084L13.9497 5.33926L14.9156 4.73376L15.8815 4.12827L15.7995 3.99741L14.8335 4.60291ZM14.9156 4.73376L15.848 4.07788C15.8431 4.07095 15.8362 4.06018 15.8285 4.04636L14.8335 4.60291L13.8386 5.15945C13.8813 5.23565 13.9295 5.31334 13.9831 5.38965L14.9156 4.73376ZM13.232 1.73767L14.2271 1.18141C14.1649 1.07025 14.0987 0.971164 14.0318 0.88199L13.1197 1.5658L12.2075 2.2496C12.2213 2.26801 12.2303 2.28214 12.2369 2.29394L13.232 1.73767ZM13.1197 1.5658L13.9852 0.823894L13.8563 0.673503L12.9908 1.41541L12.1252 2.15731L12.2541 2.3077L13.1197 1.5658ZM12.6929 1.18494L12.1244 2.17305C12.1413 2.18276 12.16 2.19653 12.1795 2.21631L12.9908 1.41541L13.802 0.614501C13.6398 0.450136 13.4581 0.309966 13.2615 0.196828L12.6929 1.18494ZM12.9908 1.41541L13.8023 0.614746C13.7197 0.531077 13.6329 0.454669 13.5428 0.385289L12.8472 1.28845L12.1516 2.19162C12.1615 2.19922 12.1706 2.20732 12.1793 2.21606L12.9908 1.41541ZM12.8472 1.28845L13.4823 0.341762L13.328 0.238247L12.6929 1.18494L12.0578 2.13163L12.2121 2.23514L12.8472 1.28845ZM17.481 15.3627L16.3419 15.4082L16.3497 15.6035L17.4888 15.558L18.6279 15.5124L18.6201 15.3171L17.481 15.3627ZM17.4888 15.558L16.3492 15.5293C16.3503 15.4862 16.3537 15.4482 16.3577 15.4165C16.3617 15.3849 16.3664 15.3582 16.3705 15.3379C16.3745 15.3178 16.3783 15.3017 16.3806 15.2922C16.3818 15.2874 16.3827 15.2835 16.3833 15.2811C16.3839 15.2789 16.3843 15.2772 16.3843 15.2775C16.3842 15.2777 16.3843 15.2774 16.3842 15.2776C16.3842 15.2777 16.3842 15.2777 16.3842 15.2778C16.3841 15.278 16.3841 15.2783 16.384 15.2786C16.3838 15.2792 16.3836 15.2802 16.3832 15.2815C16.3826 15.2839 16.3816 15.288 16.3804 15.293C16.378 15.3027 16.3741 15.319 16.37 15.3393C16.3658 15.3598 16.3609 15.3868 16.3567 15.4186C16.3525 15.4505 16.3488 15.4888 16.3474 15.5322L17.4869 15.5687L18.6263 15.6052C18.6249 15.6477 18.6213 15.6852 18.6172 15.7162C18.6132 15.7471 18.6084 15.7731 18.6044 15.7927C18.6005 15.8121 18.5968 15.8276 18.5947 15.8364C18.5935 15.841 18.5926 15.8446 18.5921 15.8466C18.5917 15.8483 18.5912 15.8499 18.5914 15.8492C18.5915 15.8491 18.592 15.8469 18.5927 15.8443C18.5934 15.8415 18.5945 15.8371 18.5958 15.8318C18.5983 15.8214 18.6023 15.8045 18.6065 15.7834C18.6107 15.7623 18.6156 15.7347 18.6197 15.7022C18.6238 15.6696 18.6273 15.6306 18.6285 15.5866L17.4888 15.558ZM17.4869 15.5687L18.6263 15.6051C18.6297 15.4994 18.6281 15.3806 18.6157 15.2526L17.481 15.3627L16.3463 15.4727C16.3475 15.4845 16.3484 15.5033 16.3474 15.5323L17.4869 15.5687Z" fill="#ECFDF5" mask="url(#path-6-inside-1_2153_3559)"/>
<path d="M10.6479 10.7369C10.6479 10.7369 10.3099 12 12 12C13.6901 12 13.3521 10.7369 13.3521 10.7369" fill="#004F3B"/>
<path d="M11.0282 8.26318H10H9M15 8.26318H14H12.9718M10.6479 10.7369C10.6479 10.7369 10.3099 12 12 12C13.6901 12 13.3521 10.7369 13.3521 10.7369L12 11L10.6479 10.7369Z" stroke="#004F3B" stroke-width="1.26316" stroke-linecap="round" stroke-linejoin="round"/>
<defs>
<filter id="filter0_d_2153_3559" x="4" y="1" width="16" height="17.1429" filterUnits="userSpaceOnUse" color-interpolation-filters="sRGB">
<feFlood flood-opacity="0" result="BackgroundImageFix"/>
<feColorMatrix in="SourceAlpha" type="matrix" values="0 0 0 0 0 0 0 0 0 0 0 0 0 0 0 0 0 0 127 0" result="hardAlpha"/>
<feOffset dy="1.14286"/>
<feComposite in2="hardAlpha" operator="out"/>
<feColorMatrix type="matrix" values="0 0 0 0 0 0 0 0 0 0 0 0 0 0 0 0 0 0 0.25 0"/>
<feBlend mode="normal" in2="BackgroundImageFix" result="effect1_dropShadow_2153_3559"/>
<feBlend mode="normal" in="SourceGraphic" in2="effect1_dropShadow_2153_3559" result="shape"/>
</filter>
</defs>
</svg>
