<svg width="272" height="144" viewBox="0 0 272 144" fill="none" xmlns="http://www.w3.org/2000/svg">
<g clip-path="url(#clip0_1741_2597)">
<mask id="mask0_1741_2597" style="mask-type:alpha" maskUnits="userSpaceOnUse" x="8" y="8" width="256" height="128">
<path d="M8 24C8 15.1634 15.1634 8 24 8H248C256.837 8 264 15.1634 264 24V120C264 128.837 256.837 136 248 136H24C15.1634 136 8 128.837 8 120V24Z" fill="#74D4FF"/>
</mask>
<g mask="url(#mask0_1741_2597)">
<path d="M-2 -3H274V147H-2V-3Z" fill="#DFF2FE"/>
<path opacity="0.2" fill-rule="evenodd" clip-rule="evenodd" d="M162.086 -127L134 71.9739L134.004 72L216.917 -107.869L162.086 -127ZM34.5 -107.38L133.988 72L134 71.9908L99.1379 -127L34.5 -107.38ZM134 71.9936L134.002 72L316.417 -24.362L278.483 -77.25L134 71.9936ZM-48.4161 -23.3664L133.977 72L134.001 71.9741L-11.0373 -77.25L-48.4161 -23.3664ZM134 73.0589L134.002 73.0638L333 105.167L332.782 38.8335L134 73.0589ZM-64.7848 105.167L133.962 70.9569L134 70.9164L-65 38.8335L-64.7848 105.167ZM133.946 72.0138L133.97 72.0092L133.94 72.0261L51.0839 251.915L105.92 271L134.001 72.0077L133.953 72L133.946 72.0138ZM133.996 71.9642L133.908 72.0521L134.085 71.9609L134.092 71.9476L133.996 71.9642ZM134.002 72.0113L279.037 221.25L316.417 167.361L134 72L134.002 72.0113ZM168.796 271L233.5 251.391L134 72L168.796 271ZM-48.4161 168.304L-10.4442 221.25L134.001 72L-48.4161 168.304Z" fill="url(#paint0_radial_1741_2597)"/>
</g>
<g filter="url(#filter0_d_1741_2597)">
<path d="M20.6466 4.86401C22.0513 -0.203406 27.9952 -1.42851 31.3456 2.65883L58.2007 35.4214C61.5511 39.5087 59.7952 45.843 55.0401 46.8231L16.925 54.679C12.17 55.6591 7.982 50.5499 9.38674 45.4825L20.6466 4.86401Z" fill="#FFD230"/>
</g>
<path d="M21.3718 31.0632C21.6594 30.7252 22.099 30.5596 22.51 30.8286C22.8498 31.0505 23.0385 31.6282 22.7515 31.9653C22.0703 32.7655 21.326 33.5155 20.7451 34.395C20.1633 35.2761 18.7836 34.3739 19.3653 33.4928C19.9473 32.6113 20.6896 31.8642 21.3718 31.0632ZM24.9059 30.3348C25.1935 29.9968 25.6331 29.8312 26.0441 30.1002C26.3839 30.3221 26.5726 30.8998 26.2857 31.2369C25.6044 32.0371 24.8602 32.7871 24.2792 33.6665C23.6974 34.5477 22.3177 33.6455 22.8994 32.7644C23.4814 31.8829 24.2237 31.1358 24.9059 30.3348Z" fill="#FB64B6"/>
<path d="M20.7849 27.6671C20.1586 26.3203 19.2844 22.8493 21.558 22.5526C23.4511 22.3052 23.7218 25.8536 23.8579 27.1882C23.9654 28.2382 25.5739 27.8987 25.4673 26.8565C25.2165 24.4007 24.3583 19.9701 20.9006 21.035C17.7156 22.016 18.1899 25.9766 19.3239 28.4147C19.7701 29.3744 21.2314 28.6279 20.7849 27.6671Z" fill="#0F172B"/>
<path d="M40.4724 27.1264C40.7601 26.7884 41.1997 26.6228 41.6106 26.8918C41.9505 27.1138 42.1393 27.6914 41.8522 28.0286C41.171 28.8286 40.4265 29.5779 39.8455 30.4572C39.2639 31.3387 37.8843 30.4372 38.466 29.5561C39.048 28.6746 39.7903 27.9275 40.4724 27.1264ZM44.0066 26.398C44.2942 26.06 44.7338 25.8944 45.1447 26.1634C45.4847 26.3854 45.6734 26.963 45.3863 27.3002C44.7051 28.1002 43.9606 28.8495 43.3796 29.7288C42.798 30.6103 41.4185 29.7088 42.0001 28.8277C42.5821 27.9462 43.3244 27.199 44.0066 26.398Z" fill="#FB64B6"/>
<path d="M41.8083 23.3339C41.8337 21.8528 41.221 18.3279 39.0174 18.954C37.1825 19.475 38.3795 22.8325 38.7983 24.1089C39.1274 25.1132 37.5156 25.4374 37.1889 24.4406C36.4186 22.0918 35.4005 17.6942 39.0016 17.3042C42.3188 16.945 43.4972 20.7605 43.4512 23.4418C43.4332 24.4972 41.7905 24.3904 41.8083 23.3339Z" fill="#0F172B"/>
<path d="M34.4515 27.4846C35.0164 29.0234 35.7057 31.9227 32.5625 32.3381C29.6671 32.7206 28.8129 30.2177 28.9713 28.4214C28.9724 28.4093 34.3553 27.2223 34.4515 27.4846Z" fill="#EC003F"/>
<path d="M30.3925 28.4232C30.305 29.4154 30.681 31.7481 32.6216 31.2346C34.2375 30.8073 33.3468 28.6117 33.0397 27.7756C32.7984 27.1176 34.2118 26.8315 34.4514 27.4846C35.0162 29.0234 35.7056 31.9227 32.5624 32.338C29.667 32.7206 28.8127 30.2177 28.9712 28.4214C29.0334 27.7143 30.4547 27.7154 30.3925 28.4232Z" fill="#0F172B"/>
<line y1="-0.52501" x2="9.92315" y2="-0.52501" transform="matrix(0.979413 -0.201867 0.207882 0.978154 26.9196 28.9858)" stroke="#0F172B" stroke-width="1.05002"/>
<line y1="-0.262505" x2="1.80421" y2="-0.262505" transform="matrix(0.207882 0.978154 -0.979413 0.201867 31.3373 28.0753)" stroke="#0F172B" stroke-width="0.52501"/>
<g filter="url(#filter1_d_1741_2597)">
<path d="M238.505 7.89579C240.092 5.76968 243.282 6.20649 244.267 8.68484L247.135 15.9013C247.496 16.8092 248.207 17.5153 249.095 17.8471L256.151 20.4848C258.575 21.3907 259.147 24.6889 257.185 26.4424L251.472 31.5486C250.753 32.1909 250.325 33.1172 250.293 34.1012L250.033 41.9222C249.944 44.6082 247.108 46.2098 244.911 44.8152L238.512 40.7544C237.707 40.2436 236.731 40.11 235.823 40.3862L228.606 42.5822C226.128 43.3364 223.803 41.028 224.407 38.4126L226.165 30.7968C226.386 29.8387 226.211 28.8298 225.682 28.0166L221.481 21.5527C220.039 19.3328 221.438 16.3047 224.009 16.0828L231.494 15.4367C232.436 15.3554 233.304 14.8655 233.885 14.0867L238.505 7.89579Z" fill="#7CCF00"/>
<path d="M233.197 26.0588C233.478 25.8956 233.822 25.8883 234.04 26.1742C234.22 26.4103 234.21 26.8557 233.929 27.0186C233.264 27.405 232.567 27.7407 231.951 28.2064C231.335 28.6733 230.602 27.7143 231.219 27.2476C231.836 26.7807 232.531 26.4457 233.197 26.0588ZM235.815 26.4173C236.096 26.2541 236.44 26.2469 236.658 26.5327C236.839 26.7689 236.828 27.2143 236.548 27.3771C235.882 27.7635 235.185 28.0993 234.569 28.565C233.953 29.0317 233.22 28.0728 233.837 27.6061C234.454 27.1392 235.149 26.8042 235.815 26.4173Z" fill="#FB64B6"/>
<path d="M233.619 23.5702C233.515 22.4874 233.758 19.8771 235.4 20.2265C236.768 20.5172 236.09 23.0338 235.858 23.9887C235.676 24.74 236.87 24.8977 237.051 24.152C237.476 22.3948 237.964 19.1257 235.316 19.0181C232.877 18.9191 232.239 21.77 232.428 23.7303C232.502 24.5019 233.693 24.3426 233.619 23.5702Z" fill="#0F172B"/>
<path d="M244.075 27.5485C244.356 27.3852 244.699 27.3782 244.918 27.6639C245.098 27.9 245.088 28.3454 244.807 28.5083C244.142 28.8946 243.445 29.2307 242.83 29.6963C242.213 30.1632 241.48 29.204 242.096 28.7373C242.713 28.2704 243.408 27.9354 244.075 27.5485ZM246.693 27.907C246.974 27.7437 247.318 27.7366 247.537 28.0226C247.717 28.2588 247.707 28.7041 247.426 28.867C246.761 29.2534 246.064 29.5891 245.448 30.0548C244.832 30.5217 244.099 29.5626 244.715 29.0959C245.331 28.629 246.027 28.2939 246.693 27.907Z" fill="#FB64B6"/>
<path d="M245.922 25.2551C246.3 24.2384 246.737 21.6546 245.062 21.5498C243.668 21.4622 243.676 24.0728 243.654 25.0564C243.637 25.8302 242.444 25.6612 242.462 24.8931C242.502 23.0832 242.872 19.7979 245.454 20.4065C247.832 20.9672 247.716 23.8896 247.03 25.7301C246.76 26.4546 245.652 25.9804 245.922 25.2551Z" fill="#0F172B"/>
<path d="M238.748 26.1173C238.536 26.6012 238.314 27.8399 239.329 27.9191C240.174 27.9852 240.126 26.7259 240.124 26.2519C240.122 25.879 240.846 25.9809 240.848 26.3511C240.853 27.2233 240.683 28.8015 239.111 28.4638C237.663 28.1527 237.685 26.7452 238.07 25.8692C238.221 25.5244 238.9 25.7721 238.748 26.1173Z" fill="#0F172B"/>
</g>
<g filter="url(#filter2_d_1741_2597)">
<rect width="45.2331" height="45.2331" rx="8" transform="matrix(0.968901 0.247448 -0.241489 0.970404 224.709 85.6703)" fill="#FDA5D5"/>
<path d="M231.936 114.863C232.293 114.707 232.703 114.745 232.924 115.115C233.106 115.421 233.034 115.949 232.678 116.105C231.833 116.474 230.957 116.779 230.161 117.25C229.363 117.721 228.622 116.48 229.419 116.008C230.217 115.536 231.09 115.233 231.936 114.863ZM235.004 115.646C235.36 115.49 235.771 115.528 235.991 115.899C236.174 116.204 236.101 116.732 235.745 116.888C234.9 117.257 234.025 117.563 233.229 118.033C232.432 118.505 231.69 117.263 232.487 116.792C233.285 116.32 234.158 116.016 235.004 115.646Z" fill="#FB64B6"/>
<path d="M232.778 111.958C232.801 110.655 233.446 107.581 235.353 108.22C236.942 108.753 235.792 111.656 235.386 112.761C235.067 113.631 236.467 113.981 236.783 113.118C237.529 111.084 238.555 107.259 235.418 106.77C232.528 106.32 231.381 109.627 231.338 111.986C231.321 112.915 232.761 112.887 232.778 111.958Z" fill="#0F172B"/>
<path d="M247.749 118.901C248.106 118.745 248.516 118.784 248.737 119.154C248.92 119.459 248.847 119.987 248.491 120.143C247.646 120.512 246.771 120.818 245.975 121.288C245.177 121.76 244.436 120.518 245.233 120.047C246.031 119.575 246.903 119.271 247.749 118.901ZM250.818 119.685C251.175 119.529 251.585 119.567 251.806 119.937C251.988 120.243 251.915 120.771 251.559 120.927C250.714 121.296 249.839 121.601 249.042 122.072C248.245 122.543 247.504 121.302 248.301 120.83C249.099 120.358 249.972 120.055 250.818 119.685Z" fill="#FB64B6"/>
<path d="M250.261 116.423C250.85 115.264 251.721 112.248 249.742 111.895C248.094 111.601 247.749 114.71 247.588 115.877C247.462 116.796 246.066 116.432 246.191 115.52C246.486 113.372 247.373 109.511 250.364 110.587C253.119 111.579 252.582 115.042 251.515 117.139C251.095 117.965 249.841 117.249 250.261 116.423Z" fill="#0F172B"/>
<path d="M238.57 116.297C238.578 115.762 239.147 115.484 239.665 115.616C240.697 115.878 241.733 116.126 242.764 116.391C243.3 116.529 243.658 117.085 243.38 117.562C242.142 119.685 238.538 118.651 238.57 116.297Z" fill="#0F172B"/>
</g>
<g filter="url(#filter3_d_1741_2597)">
<path d="M5.8374 127.398C4.27823 118.627 10.1324 110.296 18.9129 108.791V108.791C27.6935 107.286 36.0755 113.176 37.6347 121.947V121.947C39.1939 130.718 33.3398 139.049 24.5592 140.554V140.554C15.7786 142.06 7.39656 136.169 5.8374 127.398V127.398Z" fill="#53EAFD"/>
</g>
<path d="M15.8254 127.892C16.0124 127.687 16.2911 127.592 16.5425 127.769C16.7501 127.915 16.8558 128.28 16.6696 128.484C16.2268 128.971 15.745 129.424 15.3631 129.962C14.9808 130.501 14.1375 129.908 14.5199 129.369C14.9023 128.83 15.3821 128.379 15.8254 127.892ZM18.0517 127.51C18.2387 127.305 18.5164 127.211 18.7678 127.388C18.9758 127.534 19.0816 127.898 18.895 128.103C18.4522 128.589 17.9712 129.042 17.5895 129.58C17.2072 130.119 16.3629 129.527 16.7452 128.988C17.1277 128.448 17.6082 127.997 18.0517 127.51Z" fill="#FB64B6"/>
<path d="M15.5296 125.755C15.166 124.9 14.6919 122.71 16.1203 122.572C17.3096 122.457 17.4045 124.682 17.4617 125.52C17.5069 126.179 18.5201 126 18.4753 125.346C18.3699 123.805 17.9259 121.016 15.7409 121.609C13.7281 122.156 13.9418 124.643 14.6 126.192C14.859 126.802 15.7887 126.365 15.5296 125.755Z" fill="#0F172B"/>
<path d="M27.8554 125.83C28.0424 125.624 28.3201 125.53 28.5715 125.707C28.7794 125.853 28.8853 126.217 28.6987 126.422C28.2559 126.908 27.7749 127.362 27.3931 127.899C27.0108 128.439 26.1666 127.846 26.5489 127.307C26.9314 126.768 27.4119 126.316 27.8554 125.83ZM30.0807 125.448C30.2677 125.243 30.5464 125.148 30.7978 125.325C31.0054 125.471 31.1111 125.836 30.925 126.041C30.4821 126.527 30.0003 126.98 29.6185 127.518C29.2362 128.057 28.3928 127.464 28.7752 126.925C29.1576 126.386 29.6374 125.935 30.0807 125.448Z" fill="#FB64B6"/>
<path d="M28.77 123.485C28.8169 122.559 28.5076 120.342 27.1161 120.687C25.9575 120.975 26.6358 123.1 26.871 123.907C27.0558 124.542 26.0409 124.711 25.8574 124.081C25.4248 122.595 24.8802 119.823 27.1408 119.655C29.2232 119.5 29.8803 121.911 29.7953 123.587C29.762 124.247 28.7367 124.146 28.77 123.485Z" fill="#0F172B"/>
<ellipse cx="1.41143" cy="1.55257" rx="1.41143" ry="1.55257" transform="matrix(0.985623 -0.168962 0.175016 0.984565 20.8602 125.589)" fill="#82181A"/>
<path fill-rule="evenodd" clip-rule="evenodd" d="M22.0684 124.816C23.6272 124.432 24.1087 125.568 24.2535 126.557C24.4589 127.537 24.3983 128.766 22.7985 128.923C21.3773 129.063 20.7721 128.127 20.6406 127.177C20.4368 126.239 20.6837 125.158 22.0684 124.816ZM22.3626 125.445C21.7472 125.515 21.496 125.905 21.4333 126.348C21.4109 127.213 21.7681 128.506 22.9093 128.244C24.0821 127.976 23.3944 126.242 23.2796 126.002C23.1101 125.649 22.8299 125.391 22.3626 125.445Z" fill="#0F172B"/>
<path d="M198.761 49.0999C198.708 48.8923 198.599 48.7028 198.448 48.5512C198.296 48.3996 198.107 48.2913 197.899 48.2378L194.218 47.2886C194.155 47.2708 194.1 47.2329 194.061 47.1809C194.021 47.1288 194 47.0653 194 47C194 46.9347 194.021 46.8712 194.061 46.8191C194.1 46.7671 194.155 46.7292 194.218 46.7114L197.899 45.7616C198.107 45.7081 198.296 45.6 198.448 45.4485C198.599 45.2969 198.708 45.1076 198.761 44.9001L199.71 41.2191C199.728 41.1561 199.766 41.1006 199.818 41.061C199.87 41.0214 199.934 41 199.999 41C200.065 41 200.128 41.0214 200.181 41.061C200.233 41.1006 200.27 41.1561 200.288 41.2191L201.237 44.9001C201.29 45.1077 201.398 45.2972 201.55 45.4488C201.702 45.6004 201.891 45.7087 202.099 45.7622L205.78 46.7108C205.843 46.7283 205.899 46.766 205.939 46.8182C205.978 46.8705 206 46.9343 206 47C206 47.0657 205.978 47.1295 205.939 47.1817C205.899 47.234 205.843 47.2717 205.78 47.2892L202.099 48.2378C201.891 48.2913 201.702 48.3996 201.55 48.5512C201.398 48.7028 201.29 48.8923 201.237 49.0999L200.288 52.7809C200.27 52.8439 200.232 52.8994 200.18 52.939C200.128 52.9786 200.064 53 199.999 53C199.933 53 199.869 52.9786 199.817 52.939C199.765 52.8994 199.727 52.8439 199.71 52.7809L198.761 49.0999Z" fill="white"/>
<path d="M250.76 67.0505C250.771 66.9081 250.745 66.765 250.683 66.6363C250.62 66.5076 250.525 66.398 250.406 66.3187L248.296 64.9142C248.261 64.8892 248.234 64.8533 248.221 64.8119C248.208 64.7704 248.208 64.7258 248.222 64.6847C248.237 64.6436 248.264 64.6083 248.3 64.5841C248.336 64.5599 248.38 64.5483 248.423 64.5508L250.949 64.7597C251.091 64.7716 251.234 64.745 251.363 64.6828C251.491 64.6207 251.601 64.5252 251.68 64.4063L253.085 62.2969C253.11 62.2611 253.146 62.2344 253.187 62.2209C253.229 62.2074 253.274 62.2079 253.315 62.2223C253.356 62.2366 253.391 62.2641 253.416 62.3004C253.44 62.3368 253.451 62.38 253.449 62.4236L253.239 64.949C253.227 65.0915 253.254 65.2345 253.316 65.3632C253.378 65.4919 253.474 65.6016 253.593 65.6808L255.702 67.085C255.738 67.1098 255.765 67.1458 255.779 67.1874C255.792 67.2291 255.792 67.274 255.778 67.3153C255.763 67.3567 255.736 67.3921 255.699 67.4163C255.663 67.4405 255.619 67.452 255.575 67.4491L253.05 67.2394C252.908 67.2276 252.765 67.2542 252.636 67.3164C252.507 67.3787 252.397 67.4742 252.318 67.5932L250.914 69.7026C250.889 69.7384 250.853 69.7651 250.811 69.7786C250.77 69.7921 250.725 69.7916 250.684 69.7773C250.643 69.7629 250.607 69.7355 250.583 69.6991C250.559 69.6628 250.547 69.6195 250.55 69.576L250.76 67.0505Z" fill="white"/>
<path d="M54.7612 127.1C54.7076 126.892 54.5994 126.703 54.4477 126.551C54.2961 126.4 54.1066 126.291 53.899 126.238L50.2181 125.289C50.1553 125.271 50.1 125.233 50.0607 125.181C50.0213 125.129 50 125.065 50 125C50 124.935 50.0213 124.871 50.0607 124.819C50.1 124.767 50.1553 124.729 50.2181 124.711L53.899 123.762C54.1065 123.708 54.296 123.6 54.4476 123.448C54.5992 123.297 54.7075 123.108 54.7612 122.9L55.7103 119.219C55.728 119.156 55.7658 119.101 55.8179 119.061C55.8701 119.021 55.9338 119 55.9992 119C56.0647 119 56.1284 119.021 56.1805 119.061C56.2327 119.101 56.2705 119.156 56.2881 119.219L57.2367 122.9C57.2903 123.108 57.3985 123.297 57.5501 123.449C57.7017 123.6 57.8912 123.709 58.0989 123.762L61.7798 124.711C61.8431 124.728 61.8989 124.766 61.9387 124.818C61.9785 124.87 62 124.934 62 125C62 125.066 61.9785 125.13 61.9387 125.182C61.8989 125.234 61.8431 125.272 61.7798 125.289L58.0989 126.238C57.8912 126.291 57.7017 126.4 57.5501 126.551C57.3985 126.703 57.2903 126.892 57.2367 127.1L56.2875 130.781C56.2699 130.844 56.2321 130.899 56.1799 130.939C56.1278 130.979 56.0641 131 55.9986 131C55.9332 131 55.8695 130.979 55.8173 130.939C55.7652 130.899 55.7274 130.844 55.7097 130.781L54.7612 127.1Z" fill="white"/>
<path d="M201.761 115.1C201.708 114.892 201.599 114.703 201.448 114.551C201.296 114.4 201.107 114.291 200.899 114.238L197.218 113.289C197.155 113.271 197.1 113.233 197.061 113.181C197.021 113.129 197 113.065 197 113C197 112.935 197.021 112.871 197.061 112.819C197.1 112.767 197.155 112.729 197.218 112.711L200.899 111.762C201.107 111.708 201.296 111.6 201.448 111.448C201.599 111.297 201.708 111.108 201.761 110.9L202.71 107.219C202.728 107.156 202.766 107.101 202.818 107.061C202.87 107.021 202.934 107 202.999 107C203.065 107 203.128 107.021 203.181 107.061C203.233 107.101 203.27 107.156 203.288 107.219L204.237 110.9C204.29 111.108 204.398 111.297 204.55 111.449C204.702 111.6 204.891 111.709 205.099 111.762L208.78 112.711C208.843 112.728 208.899 112.766 208.939 112.818C208.978 112.87 209 112.934 209 113C209 113.066 208.978 113.13 208.939 113.182C208.899 113.234 208.843 113.272 208.78 113.289L205.099 114.238C204.891 114.291 204.702 114.4 204.55 114.551C204.398 114.703 204.29 114.892 204.237 115.1L203.288 118.781C203.27 118.844 203.232 118.899 203.18 118.939C203.128 118.979 203.064 119 202.999 119C202.933 119 202.869 118.979 202.817 118.939C202.765 118.899 202.727 118.844 202.71 118.781L201.761 115.1Z" fill="white"/>
<path d="M236.761 62.0999C236.708 61.8923 236.599 61.7028 236.448 61.5512C236.296 61.3996 236.107 61.2913 235.899 61.2378L232.218 60.2886C232.155 60.2708 232.1 60.2329 232.061 60.1809C232.021 60.1288 232 60.0653 232 60C232 59.9347 232.021 59.8712 232.061 59.8191C232.1 59.7671 232.155 59.7292 232.218 59.7114L235.899 58.7616C236.107 58.7081 236.296 58.6 236.448 58.4485C236.599 58.2969 236.708 58.1076 236.761 57.9001L237.71 54.2191C237.728 54.1561 237.766 54.1006 237.818 54.061C237.87 54.0214 237.934 54 237.999 54C238.065 54 238.128 54.0214 238.181 54.061C238.233 54.1006 238.27 54.1561 238.288 54.2191L239.237 57.9001C239.29 58.1077 239.398 58.2972 239.55 58.4488C239.702 58.6004 239.891 58.7087 240.099 58.7622L243.78 59.7108C243.843 59.7283 243.899 59.766 243.939 59.8182C243.978 59.8705 244 59.9343 244 60C244 60.0657 243.978 60.1295 243.939 60.1817C243.899 60.234 243.843 60.2717 243.78 60.2892L240.099 61.2378C239.891 61.2913 239.702 61.3996 239.55 61.5512C239.398 61.7028 239.29 61.8923 239.237 62.0999L238.288 65.7809C238.27 65.8439 238.232 65.8994 238.18 65.939C238.128 65.9786 238.064 66 237.999 66C237.933 66 237.869 65.9786 237.817 65.939C237.765 65.8994 237.727 65.8439 237.71 65.7809L236.761 62.0999Z" fill="white"/>
<path d="M48.6062 79.4061C48.4811 79.232 48.3116 79.0946 48.1153 79.0082C47.919 78.9218 47.7032 78.8896 47.4903 78.9149L43.7156 79.3639C43.6506 79.3701 43.5853 79.3548 43.5298 79.3206C43.4742 79.2863 43.4314 79.2348 43.4077 79.174C43.3841 79.1131 43.3809 79.0462 43.3987 78.9834C43.4165 78.9206 43.4543 78.8653 43.5064 78.826L46.5931 76.607C46.7672 76.4819 46.9045 76.3125 46.991 76.1164C47.0774 75.9202 47.1097 75.7045 47.0845 75.4916L46.6355 71.7169C46.6291 71.6517 46.6442 71.5863 46.6785 71.5305C46.7127 71.4747 46.7643 71.4317 46.8254 71.408C46.8864 71.3843 46.9535 71.3811 47.0164 71.3991C47.0794 71.4171 47.1347 71.4552 47.174 71.5076L49.3918 74.5947C49.517 74.7688 49.6865 74.9062 49.8828 74.9926C50.079 75.0789 50.2949 75.1112 50.5078 75.0859L54.2823 74.6363C54.3476 74.6296 54.4133 74.6446 54.4693 74.6789C54.5253 74.7131 54.5685 74.7648 54.5923 74.826C54.6161 74.8872 54.6192 74.9546 54.601 75.0177C54.5829 75.0808 54.5445 75.1362 54.4919 75.1754L51.4048 77.3932C51.2306 77.5183 51.0932 77.6879 51.0069 77.8841C50.9205 78.0804 50.8883 78.2962 50.9136 78.5092L51.3626 82.2839C51.369 82.349 51.3539 82.4145 51.3196 82.4703C51.2853 82.526 51.2337 82.5691 51.1727 82.5928C51.1117 82.6165 51.0446 82.6196 50.9816 82.6017C50.9187 82.5837 50.8633 82.5456 50.8241 82.4932L48.6062 79.4061Z" fill="white"/>
<path d="M49.3725 16.1724C49.2473 15.9983 49.0778 15.8609 48.8815 15.7745C48.6853 15.6881 48.4694 15.6559 48.2565 15.6812L44.4818 16.1302C44.4168 16.1363 44.3516 16.1211 44.296 16.0868C44.2405 16.0525 44.1976 16.0011 44.174 15.9402C44.1503 15.8794 44.1471 15.8125 44.165 15.7497C44.1828 15.6869 44.2206 15.6316 44.2727 15.5922L47.3593 13.3733C47.5334 13.2482 47.6708 13.0788 47.7572 12.8826C47.8436 12.6865 47.8759 12.4707 47.8507 12.2579L47.4017 8.48317C47.3953 8.41801 47.4104 8.35255 47.4447 8.29678C47.479 8.241 47.5306 8.19797 47.5916 8.17424C47.6526 8.15052 47.7197 8.14741 47.7827 8.16539C47.8456 8.18337 47.901 8.22145 47.9403 8.27382L50.1581 11.3609C50.2832 11.535 50.4528 11.6724 50.649 11.7588C50.8453 11.8452 51.0611 11.8774 51.274 11.8521L55.0485 11.4026C55.1139 11.3959 55.1796 11.4109 55.2356 11.4451C55.2916 11.4794 55.3348 11.5311 55.3586 11.5923C55.3824 11.6535 55.3854 11.7208 55.3673 11.7839C55.3491 11.847 55.3108 11.9024 55.2581 11.9416L52.171 14.1595C51.9969 14.2846 51.8595 14.4541 51.7731 14.6504C51.6867 14.8467 51.6545 15.0625 51.6798 15.2754L52.1288 19.0501C52.1352 19.1153 52.1201 19.1808 52.0858 19.2365C52.0516 19.2923 52 19.3354 51.939 19.3591C51.8779 19.3828 51.8108 19.3859 51.7479 19.3679C51.6849 19.3499 51.6296 19.3119 51.5903 19.2595L49.3725 16.1724Z" fill="white"/>
<path d="M23.4442 79.2328C23.5012 78.935 23.4775 78.6273 23.3753 78.3418C23.2732 78.0563 23.0964 77.8034 22.8633 77.6094L18.732 74.1705C18.6625 74.1098 18.6147 74.028 18.5959 73.9376C18.577 73.8473 18.5882 73.7532 18.6277 73.6698C18.6671 73.5863 18.7328 73.518 18.8146 73.4752C18.8964 73.4325 18.9899 73.4175 19.0809 73.4327L24.3605 74.4441C24.6581 74.5012 24.9657 74.4775 25.2511 74.3755C25.5365 74.2735 25.7894 74.0969 25.9835 73.8641L29.4224 69.7327C29.483 69.6628 29.5649 69.6146 29.6555 69.5956C29.7461 69.5765 29.8405 69.5876 29.9241 69.6272C30.0078 69.6668 30.0763 69.7327 30.119 69.8148C30.1618 69.8969 30.1765 69.9908 30.1609 70.082L29.148 75.3608C29.0909 75.6586 29.1147 75.9663 29.2168 76.2518C29.319 76.5373 29.4958 76.7902 29.7288 76.9842L33.8605 80.4223C33.9309 80.4829 33.9794 80.5649 33.9987 80.6557C34.018 80.7466 34.0069 80.8412 33.9672 80.9252C33.9275 81.0091 33.8614 81.0777 33.7789 81.1204C33.6965 81.1631 33.6023 81.1776 33.5108 81.1617L28.232 80.1487C27.9342 80.0916 27.6266 80.1154 27.3411 80.2176C27.0556 80.3197 26.8026 80.4965 26.6086 80.7295L23.1698 84.8609C23.1091 84.9308 23.0272 84.979 22.9366 84.998C22.846 85.0171 22.7517 85.006 22.668 84.9664C22.5843 84.9268 22.5159 84.8609 22.4731 84.7788C22.4303 84.6967 22.4156 84.6028 22.4312 84.5116L23.4442 79.2328Z" fill="white"/>
<path d="M61.5686 85.9737C61.5058 85.8863 61.4207 85.8174 61.3222 85.774C61.2238 85.7307 61.1155 85.7145 61.0086 85.7272L59.1144 85.9525C59.0818 85.9556 59.0491 85.948 59.0212 85.9308C58.9933 85.9135 58.9718 85.8877 58.9599 85.8572C58.9481 85.8267 58.9465 85.7931 58.9554 85.7616C58.9644 85.7301 58.9833 85.7023 59.0095 85.6826L60.5584 84.5691C60.6457 84.5063 60.7147 84.4213 60.758 84.3228C60.8014 84.2244 60.8176 84.1162 60.805 84.0093L60.5797 82.1151C60.5765 82.0825 60.584 82.0496 60.6012 82.0216C60.6184 81.9936 60.6443 81.972 60.6749 81.9601C60.7056 81.9482 60.7392 81.9467 60.7708 81.9557C60.8024 81.9647 60.8302 81.9838 60.8499 82.0101L61.9628 83.5592C62.0256 83.6466 62.1107 83.7156 62.2092 83.7589C62.3077 83.8023 62.416 83.8184 62.5228 83.8057L64.4169 83.5801C64.4497 83.5768 64.4827 83.5843 64.5108 83.6015C64.5389 83.6187 64.5606 83.6446 64.5725 83.6753C64.5844 83.7061 64.586 83.7398 64.5769 83.7715C64.5678 83.8032 64.5485 83.831 64.5221 83.8506L62.9729 84.9636C62.8856 85.0264 62.8166 85.1115 62.7733 85.2099C62.7299 85.3084 62.7138 85.4167 62.7265 85.5236L62.9518 87.4178C62.955 87.4505 62.9474 87.4833 62.9302 87.5113C62.913 87.5393 62.8871 87.5609 62.8565 87.5728C62.8259 87.5847 62.7922 87.5863 62.7606 87.5772C62.729 87.5682 62.7013 87.5491 62.6815 87.5228L61.5686 85.9737Z" fill="white"/>
<path d="M45.6996 117.105C45.6368 117.017 45.5517 116.948 45.4532 116.905C45.3547 116.862 45.2464 116.845 45.1396 116.858L43.2454 117.083C43.2128 117.087 43.18 117.079 43.1522 117.062C43.1243 117.044 43.1028 117.019 43.0909 116.988C43.0791 116.958 43.0775 116.924 43.0864 116.893C43.0953 116.861 43.1143 116.833 43.1404 116.813L44.6894 115.7C44.7767 115.637 44.8457 115.552 44.889 115.454C44.9324 115.355 44.9486 115.247 44.936 115.14L44.7107 113.246C44.7074 113.213 44.715 113.181 44.7322 113.153C44.7494 113.125 44.7753 113.103 44.8059 113.091C44.8365 113.079 44.8702 113.078 44.9018 113.087C44.9334 113.096 44.9612 113.115 44.9809 113.141L46.0938 114.69C46.1566 114.778 46.2417 114.846 46.3402 114.89C46.4387 114.933 46.547 114.949 46.6538 114.937L48.5479 114.711C48.5807 114.708 48.6137 114.715 48.6418 114.732C48.6699 114.75 48.6916 114.776 48.7035 114.806C48.7154 114.837 48.717 114.871 48.7079 114.902C48.6987 114.934 48.6795 114.962 48.6531 114.982L47.1039 116.095C47.0166 116.157 46.9476 116.242 46.9043 116.341C46.8609 116.439 46.8447 116.548 46.8574 116.655L47.0828 118.549C47.086 118.581 47.0784 118.614 47.0612 118.642C47.044 118.67 47.0181 118.692 46.9875 118.704C46.9569 118.716 46.9232 118.717 46.8916 118.708C46.86 118.699 46.8322 118.68 46.8125 118.654L45.6996 117.105Z" fill="white"/>
<path d="M113.7 87.1046C113.637 87.0172 113.552 86.9483 113.453 86.905C113.355 86.8616 113.246 86.8454 113.14 86.8581L111.245 87.0835C111.213 87.0865 111.18 87.0789 111.152 87.0617C111.124 87.0445 111.103 87.0187 111.091 86.9881C111.079 86.9576 111.077 86.924 111.086 86.8925C111.095 86.861 111.114 86.8332 111.14 86.8135L112.689 85.7C112.777 85.6372 112.846 85.5522 112.889 85.4538C112.932 85.3553 112.949 85.2471 112.936 85.1403L112.711 83.2461C112.707 83.2134 112.715 83.1805 112.732 83.1525C112.749 83.1246 112.775 83.103 112.806 83.0911C112.837 83.0792 112.87 83.0776 112.902 83.0866C112.933 83.0956 112.961 83.1147 112.981 83.141L114.094 84.6902C114.157 84.7775 114.242 84.8465 114.34 84.8898C114.439 84.9332 114.547 84.9494 114.654 84.9367L116.548 84.7111C116.581 84.7077 116.614 84.7152 116.642 84.7324C116.67 84.7496 116.692 84.7756 116.703 84.8063C116.715 84.837 116.717 84.8708 116.708 84.9024C116.699 84.9341 116.68 84.9619 116.653 84.9816L115.104 86.0945C115.017 86.1573 114.948 86.2424 114.904 86.3409C114.861 86.4394 114.845 86.5477 114.857 86.6545L115.083 88.5487C115.086 88.5814 115.078 88.6143 115.061 88.6423C115.044 88.6702 115.018 88.6918 114.987 88.7037C114.957 88.7156 114.923 88.7172 114.892 88.7082C114.86 88.6992 114.832 88.68 114.813 88.6538L113.7 87.1046Z" fill="white"/>
<path d="M159.883 58.5812C159.903 58.4756 159.895 58.3664 159.859 58.2649C159.823 58.1635 159.761 58.0736 159.678 58.0045L158.215 56.7801C158.191 56.7585 158.174 56.7294 158.167 56.6973C158.161 56.6652 158.165 56.6319 158.179 56.6023C158.193 56.5727 158.216 56.5486 158.245 56.5335C158.275 56.5184 158.308 56.5132 158.34 56.5186L160.213 56.8827C160.318 56.9033 160.427 56.8952 160.529 56.8593C160.63 56.8234 160.72 56.7609 160.789 56.6785L162.014 55.2158C162.035 55.191 162.064 55.174 162.096 55.1673C162.129 55.1607 162.162 55.1647 162.192 55.1788C162.221 55.193 162.246 55.2164 162.261 55.2456C162.276 55.2748 162.281 55.3081 162.275 55.3405L161.911 57.2128C161.89 57.3184 161.898 57.4276 161.934 57.529C161.97 57.6304 162.033 57.7203 162.115 57.7894L163.578 59.0136C163.603 59.0351 163.62 59.0643 163.627 59.0965C163.634 59.1288 163.63 59.1623 163.615 59.1921C163.601 59.2218 163.578 59.2461 163.548 59.2612C163.519 59.2763 163.486 59.2813 163.453 59.2756L161.581 58.9109C161.475 58.8904 161.366 58.8985 161.265 58.9345C161.163 58.9704 161.073 59.0329 161.004 59.1154L159.78 60.5782C159.758 60.6029 159.729 60.6199 159.697 60.6266C159.665 60.6333 159.631 60.6292 159.602 60.6151C159.572 60.601 159.548 60.5775 159.533 60.5483C159.518 60.5192 159.512 60.4858 159.518 60.4535L159.883 58.5812Z" fill="white"/>
<path d="M101.999 63.6971C102.019 63.5914 102.011 63.4822 101.975 63.3808C101.939 63.2794 101.877 63.1895 101.794 63.1204L100.331 61.896C100.307 61.8744 100.29 61.8453 100.283 61.8132C100.277 61.7811 100.281 61.7478 100.295 61.7182C100.309 61.6886 100.332 61.6645 100.361 61.6493C100.391 61.6342 100.424 61.629 100.456 61.6345L102.329 61.9986C102.434 62.0192 102.543 62.0111 102.645 61.9752C102.746 61.9392 102.836 61.8768 102.905 61.7944L104.13 60.3317C104.151 60.3069 104.18 60.2899 104.212 60.2832C104.245 60.2766 104.278 60.2806 104.308 60.2947C104.337 60.3089 104.362 60.3323 104.377 60.3615C104.392 60.3907 104.397 60.424 104.391 60.4564L104.027 62.3286C104.006 62.4343 104.014 62.5435 104.05 62.6449C104.086 62.7463 104.149 62.8362 104.231 62.9053L105.694 64.1294C105.719 64.151 105.736 64.1802 105.743 64.2124C105.75 64.2447 105.746 64.2782 105.731 64.308C105.717 64.3377 105.694 64.362 105.664 64.3771C105.635 64.3922 105.602 64.3972 105.569 64.3915L103.697 64.0268C103.591 64.0063 103.482 64.0144 103.381 64.0504C103.279 64.0863 103.189 64.1488 103.12 64.2313L101.896 65.6941C101.874 65.7188 101.845 65.7358 101.813 65.7425C101.781 65.7492 101.747 65.7451 101.718 65.731C101.688 65.7169 101.664 65.6934 101.649 65.6642C101.634 65.6351 101.628 65.6017 101.634 65.5694L101.999 63.6971Z" fill="white"/>
<path d="M154.999 88.6971C155.019 88.5914 155.011 88.4822 154.975 88.3808C154.939 88.2794 154.877 88.1895 154.794 88.1204L153.331 86.896C153.307 86.8744 153.29 86.8453 153.283 86.8132C153.277 86.7811 153.281 86.7478 153.295 86.7182C153.309 86.6886 153.332 86.6645 153.361 86.6493C153.391 86.6342 153.424 86.629 153.456 86.6345L155.329 86.9986C155.434 87.0192 155.543 87.0111 155.645 86.9752C155.746 86.9392 155.836 86.8768 155.905 86.7944L157.13 85.3317C157.151 85.3069 157.18 85.2899 157.212 85.2832C157.245 85.2766 157.278 85.2806 157.308 85.2947C157.337 85.3089 157.362 85.3323 157.377 85.3615C157.392 85.3907 157.397 85.424 157.391 85.4564L157.027 87.3286C157.006 87.4343 157.014 87.5435 157.05 87.6449C157.086 87.7463 157.149 87.8362 157.231 87.9053L158.694 89.1294C158.719 89.151 158.736 89.1802 158.743 89.2124C158.75 89.2447 158.746 89.2782 158.731 89.308C158.717 89.3377 158.694 89.362 158.664 89.3771C158.635 89.3922 158.602 89.3972 158.569 89.3915L156.697 89.0268C156.591 89.0063 156.482 89.0144 156.381 89.0504C156.279 89.0863 156.189 89.1488 156.12 89.2313L154.896 90.6941C154.874 90.7188 154.845 90.7358 154.813 90.7425C154.781 90.7492 154.747 90.7451 154.718 90.731C154.688 90.7169 154.664 90.6934 154.649 90.6642C154.634 90.6351 154.628 90.6017 154.634 90.5694L154.999 88.6971Z" fill="white"/>
<path d="M73.6996 37.1046C73.6368 37.0172 73.5517 36.9483 73.4532 36.905C73.3547 36.8616 73.2464 36.8454 73.1396 36.8581L71.2454 37.0835C71.2128 37.0865 71.18 37.0789 71.1522 37.0617C71.1243 37.0445 71.1028 37.0187 71.0909 36.9881C71.0791 36.9576 71.0775 36.924 71.0864 36.8925C71.0953 36.861 71.1143 36.8332 71.1404 36.8135L72.6894 35.7C72.7767 35.6372 72.8457 35.5522 72.889 35.4538C72.9324 35.3553 72.9486 35.2471 72.936 35.1403L72.7107 33.2461C72.7074 33.2134 72.715 33.1805 72.7322 33.1525C72.7494 33.1246 72.7753 33.103 72.8059 33.0911C72.8365 33.0792 72.8702 33.0776 72.9018 33.0866C72.9334 33.0956 72.9612 33.1147 72.9809 33.141L74.0938 34.6902C74.1566 34.7775 74.2417 34.8465 74.3402 34.8898C74.4387 34.9332 74.547 34.9494 74.6538 34.9367L76.5479 34.7111C76.5807 34.7077 76.6137 34.7152 76.6418 34.7324C76.6699 34.7496 76.6916 34.7756 76.7035 34.8063C76.7154 34.837 76.717 34.8708 76.7079 34.9024C76.6987 34.9341 76.6795 34.9619 76.6531 34.9816L75.1039 36.0945C75.0166 36.1573 74.9476 36.2424 74.9043 36.3409C74.8609 36.4394 74.8447 36.5477 74.8574 36.6545L75.0828 38.5487C75.086 38.5814 75.0784 38.6143 75.0612 38.6423C75.044 38.6702 75.0181 38.6918 74.9875 38.7037C74.9569 38.7156 74.9232 38.7172 74.8916 38.7082C74.86 38.6992 74.8322 38.68 74.8125 38.6538L73.6996 37.1046Z" fill="white"/>
<path d="M67.6996 48.1046C67.6368 48.0172 67.5517 47.9483 67.4532 47.905C67.3547 47.8616 67.2464 47.8454 67.1396 47.8581L65.2454 48.0835C65.2128 48.0865 65.18 48.0789 65.1522 48.0617C65.1243 48.0445 65.1028 48.0187 65.0909 47.9881C65.0791 47.9576 65.0775 47.924 65.0864 47.8925C65.0953 47.861 65.1143 47.8332 65.1404 47.8135L66.6894 46.7C66.7767 46.6372 66.8457 46.5522 66.889 46.4538C66.9324 46.3553 66.9486 46.2471 66.936 46.1403L66.7107 44.2461C66.7074 44.2134 66.715 44.1805 66.7322 44.1525C66.7494 44.1246 66.7753 44.103 66.8059 44.0911C66.8365 44.0792 66.8702 44.0776 66.9018 44.0866C66.9334 44.0956 66.9612 44.1147 66.9809 44.141L68.0938 45.6902C68.1566 45.7775 68.2417 45.8465 68.3402 45.8898C68.4387 45.9332 68.547 45.9494 68.6538 45.9367L70.5479 45.7111C70.5807 45.7077 70.6137 45.7152 70.6418 45.7324C70.6699 45.7496 70.6916 45.7756 70.7035 45.8063C70.7154 45.837 70.717 45.8708 70.7079 45.9024C70.6987 45.9341 70.6795 45.9619 70.6531 45.9816L69.1039 47.0945C69.0166 47.1573 68.9476 47.2424 68.9043 47.3409C68.8609 47.4394 68.8447 47.5477 68.8574 47.6545L69.0828 49.5487C69.086 49.5814 69.0784 49.6143 69.0612 49.6423C69.044 49.6702 69.0181 49.6918 68.9875 49.7037C68.9569 49.7156 68.9232 49.7172 68.8916 49.7082C68.86 49.6992 68.8322 49.68 68.8125 49.6538L67.6996 48.1046Z" fill="white"/>
<path d="M199.7 127.105C199.637 127.017 199.552 126.948 199.453 126.905C199.355 126.862 199.246 126.845 199.14 126.858L197.245 127.083C197.213 127.087 197.18 127.079 197.152 127.062C197.124 127.044 197.103 127.019 197.091 126.988C197.079 126.958 197.077 126.924 197.086 126.893C197.095 126.861 197.114 126.833 197.14 126.813L198.689 125.7C198.777 125.637 198.846 125.552 198.889 125.454C198.932 125.355 198.949 125.247 198.936 125.14L198.711 123.246C198.707 123.213 198.715 123.181 198.732 123.153C198.749 123.125 198.775 123.103 198.806 123.091C198.837 123.079 198.87 123.078 198.902 123.087C198.933 123.096 198.961 123.115 198.981 123.141L200.094 124.69C200.157 124.778 200.242 124.846 200.34 124.89C200.439 124.933 200.547 124.949 200.654 124.937L202.548 124.711C202.581 124.708 202.614 124.715 202.642 124.732C202.67 124.75 202.692 124.776 202.703 124.806C202.715 124.837 202.717 124.871 202.708 124.902C202.699 124.934 202.68 124.962 202.653 124.982L201.104 126.095C201.017 126.157 200.948 126.242 200.904 126.341C200.861 126.439 200.845 126.548 200.857 126.655L201.083 128.549C201.086 128.581 201.078 128.614 201.061 128.642C201.044 128.67 201.018 128.692 200.987 128.704C200.957 128.716 200.923 128.717 200.892 128.708C200.86 128.699 200.832 128.68 200.813 128.654L199.7 127.105Z" fill="white"/>
<path d="M200.93 31.852C200.622 31.6081 200.254 31.4513 199.864 31.3979C199.475 31.3445 199.078 31.3965 198.716 31.5483L192.288 34.2416C192.176 34.2851 192.054 34.2911 191.939 34.2587C191.823 34.2263 191.722 34.1571 191.65 34.0618C191.577 33.9664 191.538 33.8501 191.538 33.7304C191.537 33.6107 191.576 33.4943 191.648 33.3986L195.971 27.9321C196.215 27.6239 196.372 27.256 196.426 26.8667C196.479 26.4774 196.427 26.0809 196.276 25.7183L193.582 19.2907C193.538 19.179 193.532 19.056 193.564 18.9405C193.597 18.8249 193.666 18.723 193.761 18.6505C193.857 18.5779 193.974 18.5386 194.094 18.5386C194.214 18.5386 194.331 18.5778 194.426 18.6503L199.891 22.9748C200.199 23.2186 200.567 23.3754 200.957 23.4288C201.346 23.4822 201.743 23.4303 202.106 23.2784L208.533 20.5843C208.644 20.5396 208.768 20.5329 208.884 20.5651C209 20.5973 209.102 20.6667 209.175 20.7626C209.248 20.8585 209.287 20.9756 209.287 21.096C209.286 21.2164 209.247 21.3333 209.174 21.429L204.849 26.8937C204.605 27.2021 204.449 27.5702 204.395 27.9596C204.342 28.3491 204.394 28.7458 204.546 29.1084L207.239 35.5361C207.283 35.6477 207.289 35.7707 207.257 35.8863C207.225 36.0019 207.155 36.1037 207.06 36.1763C206.964 36.2488 206.847 36.2881 206.727 36.2881C206.607 36.2882 206.491 36.2489 206.395 36.1764L200.93 31.852Z" fill="white"/>
</g>
<defs>
<filter id="filter0_d_1741_2597" x="9.11121" y="0.209068" width="50.8214" height="54.5916" filterUnits="userSpaceOnUse" color-interpolation-filters="sRGB">
<feFlood flood-opacity="0" result="BackgroundImageFix"/>
<feColorMatrix in="SourceAlpha" type="matrix" values="0 0 0 0 0 0 0 0 0 0 0 0 0 0 0 0 0 0 127 0" result="hardAlpha"/>
<feMorphology radius="5" operator="erode" in="SourceAlpha" result="effect1_dropShadow_1741_2597"/>
<feOffset dx="5" dy="1"/>
<feColorMatrix type="matrix" values="0 0 0 0 0.454902 0 0 0 0 0.831373 0 0 0 0 1 0 0 0 0.25 0"/>
<feBlend mode="normal" in2="BackgroundImageFix" result="effect1_dropShadow_1741_2597"/>
<feBlend mode="normal" in="SourceGraphic" in2="effect1_dropShadow_1741_2597" result="shape"/>
</filter>
<filter id="filter1_d_1741_2597" x="218" y="4" width="42.7649" height="42.6221" filterUnits="userSpaceOnUse" color-interpolation-filters="sRGB">
<feFlood flood-opacity="0" result="BackgroundImageFix"/>
<feColorMatrix in="SourceAlpha" type="matrix" values="0 0 0 0 0 0 0 0 0 0 0 0 0 0 0 0 0 0 127 0" result="hardAlpha"/>
<feMorphology radius="5" operator="erode" in="SourceAlpha" result="effect1_dropShadow_1741_2597"/>
<feOffset dx="-4" dy="2"/>
<feColorMatrix type="matrix" values="0 0 0 0 0.454902 0 0 0 0 0.831373 0 0 0 0 1 0 0 0 0.25 0"/>
<feBlend mode="normal" in2="BackgroundImageFix" result="effect1_dropShadow_1741_2597"/>
<feBlend mode="normal" in="SourceGraphic" in2="effect1_dropShadow_1741_2597" result="shape"/>
</filter>
<filter id="filter2_d_1741_2597" x="213.766" y="85.6652" width="55.2975" height="55.2271" filterUnits="userSpaceOnUse" color-interpolation-filters="sRGB">
<feFlood flood-opacity="0" result="BackgroundImageFix"/>
<feColorMatrix in="SourceAlpha" type="matrix" values="0 0 0 0 0 0 0 0 0 0 0 0 0 0 0 0 0 0 127 0" result="hardAlpha"/>
<feMorphology radius="5" operator="erode" in="SourceAlpha" result="effect1_dropShadow_1741_2597"/>
<feOffset dx="-4" dy="2"/>
<feColorMatrix type="matrix" values="0 0 0 0 0.454902 0 0 0 0 0.831373 0 0 0 0 1 0 0 0 0.25 0"/>
<feBlend mode="normal" in2="BackgroundImageFix" result="effect1_dropShadow_1741_2597"/>
<feBlend mode="normal" in="SourceGraphic" in2="effect1_dropShadow_1741_2597" result="shape"/>
</filter>
<filter id="filter3_d_1741_2597" x="3.01428" y="106.066" width="37.4436" height="37.2141" filterUnits="userSpaceOnUse" color-interpolation-filters="sRGB">
<feFlood flood-opacity="0" result="BackgroundImageFix"/>
<feColorMatrix in="SourceAlpha" type="matrix" values="0 0 0 0 0 0 0 0 0 0 0 0 0 0 0 0 0 0 127 0" result="hardAlpha"/>
<feMorphology radius="5" operator="erode" in="SourceAlpha" result="effect1_dropShadow_1741_2597"/>
<feOffset dx="2" dy="2"/>
<feColorMatrix type="matrix" values="0 0 0 0 0.454902 0 0 0 0 0.831373 0 0 0 0 1 0 0 0 0.25 0"/>
<feBlend mode="normal" in2="BackgroundImageFix" result="effect1_dropShadow_1741_2597"/>
<feBlend mode="normal" in="SourceGraphic" in2="effect1_dropShadow_1741_2597" result="shape"/>
</filter>
<radialGradient id="paint0_radial_1741_2597" cx="0" cy="0" r="1" gradientUnits="userSpaceOnUse" gradientTransform="translate(131.67 72) rotate(88.0456) scale(184.103)">
<stop stop-color="#00A6F4"/>
<stop offset="1" stop-color="#D8F999" stop-opacity="0"/>
</radialGradient>
<clipPath id="clip0_1741_2597">
<path d="M0 24C0 10.7452 10.7452 0 24 0H248C261.255 0 272 10.7452 272 24V120C272 133.255 261.255 144 248 144H24C10.7452 144 0 133.255 0 120V24Z" fill="white"/>
</clipPath>
</defs>
</svg>
