<svg width="272" height="144" viewBox="0 0 272 144" fill="none" xmlns="http://www.w3.org/2000/svg">
<path opacity="0.2" fill-rule="evenodd" clip-rule="evenodd" d="M164.086 -127L136 71.9739L136.004 72L218.917 -107.869L164.086 -127ZM36.5 -107.38L135.988 72L136 71.9908L101.138 -127L36.5 -107.38ZM136 71.9936L136.002 72L318.417 -24.362L280.483 -77.25L136 71.9936ZM-46.4161 -23.3664L135.977 72L136.001 71.9741L-9.03729 -77.25L-46.4161 -23.3664ZM136 73.0589L136.002 73.0638L335 105.167L334.782 38.8335L136 73.0589ZM-62.7848 105.167L135.962 70.9569L136 70.9164L-63 38.8335L-62.7848 105.167ZM135.946 72.0138L135.97 72.0092L135.94 72.0261L53.0839 251.915L107.92 271L136.001 72.0077L135.953 72L135.946 72.0138ZM135.996 71.9642L135.908 72.0521L136.085 71.9609L136.092 71.9476L135.996 71.9642ZM136.002 72.0113L281.037 221.25L318.417 167.361L136 72L136.002 72.0113ZM170.796 271L235.5 251.391L136 72L170.796 271ZM-46.4161 168.304L-8.44416 221.25L136.001 72L-46.4161 168.304Z" fill="url(#paint0_radial_2519_1881)"/>
<defs>
<radialGradient id="paint0_radial_2519_1881" cx="0" cy="0" r="1" gradientUnits="userSpaceOnUse" gradientTransform="translate(133.67 72) rotate(88.0456) scale(184.103)">
<stop stop-color="#00A6F4"/>
<stop offset="1" stop-color="#D8F999" stop-opacity="0"/>
</radialGradient>
</defs>
</svg>
