<svg width="66" height="40" viewBox="0 0 66 40" fill="none" xmlns="http://www.w3.org/2000/svg">
<path d="M14.6997 34.1046C14.6369 34.0172 14.5518 33.9483 14.4534 33.905C14.3549 33.8616 14.2466 33.8454 14.1397 33.8581L12.2455 34.0835C12.2129 34.0865 12.1802 34.0789 12.1523 34.0617C12.1244 34.0445 12.1029 34.0187 12.091 33.9881C12.0792 33.9576 12.0776 33.924 12.0865 33.8925C12.0955 33.861 12.1144 33.8332 12.1406 33.8135L13.6895 32.7C13.7768 32.6372 13.8458 32.5522 13.8892 32.4538C13.9325 32.3553 13.9487 32.2471 13.9361 32.1403L13.7108 30.2461C13.7076 30.2134 13.7151 30.1805 13.7323 30.1525C13.7495 30.1246 13.7754 30.103 13.806 30.0911C13.8367 30.0792 13.8703 30.0776 13.9019 30.0866C13.9335 30.0956 13.9613 30.1147 13.981 30.141L15.0939 31.6902C15.1567 31.7775 15.2418 31.8465 15.3403 31.8898C15.4388 31.9332 15.5471 31.9494 15.654 31.9367L17.548 31.7111C17.5808 31.7077 17.6138 31.7152 17.6419 31.7324C17.67 31.7496 17.6917 31.7756 17.7036 31.8063C17.7156 31.837 17.7171 31.8708 17.708 31.9024C17.6989 31.9341 17.6796 31.9619 17.6532 31.9816L16.1041 33.0945C16.0167 33.1573 15.9477 33.2424 15.9044 33.3409C15.861 33.4394 15.8449 33.5477 15.8576 33.6545L16.0829 35.5487C16.0861 35.5814 16.0785 35.6143 16.0613 35.6423C16.0441 35.6702 16.0182 35.6918 15.9876 35.7037C15.957 35.7156 15.9233 35.7172 15.8917 35.7082C15.8601 35.6992 15.8324 35.68 15.8126 35.6538L14.6997 34.1046Z" fill="white"/>
<path d="M60.8827 5.58119C60.9033 5.47556 60.8952 5.36636 60.8592 5.26494C60.8232 5.16352 60.7607 5.0736 60.6782 5.00452L59.2155 3.78011C59.1909 3.75849 59.174 3.72942 59.1674 3.69733C59.1608 3.66524 59.1649 3.63188 59.179 3.60231C59.1931 3.57273 59.2164 3.54856 59.2455 3.53346C59.2746 3.51836 59.3078 3.51315 59.3401 3.51863L61.2126 3.88275C61.3182 3.9033 61.4274 3.89519 61.5287 3.85927C61.6301 3.82335 61.72 3.76093 61.7891 3.67849L63.0136 2.21577C63.0352 2.19101 63.0643 2.17401 63.0964 2.16734C63.1286 2.16067 63.1621 2.16471 63.1917 2.17884C63.2214 2.19297 63.2456 2.21641 63.2607 2.24559C63.2758 2.27478 63.2809 2.30809 63.2753 2.34046L62.9106 4.21275C62.8901 4.31838 62.8982 4.42758 62.9342 4.529C62.9702 4.63042 63.0327 4.72034 63.1152 4.78942L64.578 6.01355C64.6029 6.03512 64.6201 6.06427 64.6268 6.09652C64.6336 6.12877 64.6295 6.16235 64.6154 6.1921C64.6012 6.22184 64.5777 6.24612 64.5484 6.2612C64.5191 6.27628 64.4856 6.28133 64.4532 6.27558L62.5809 5.91092C62.4753 5.89038 62.3661 5.89851 62.2647 5.93448C62.1632 5.97045 62.0733 6.03294 62.0042 6.11544L60.7798 7.57817C60.7582 7.60292 60.7291 7.61993 60.697 7.6266C60.6648 7.63327 60.6313 7.62923 60.6017 7.6151C60.572 7.60097 60.5478 7.57753 60.5327 7.54835C60.5176 7.51916 60.5125 7.48585 60.5181 7.45348L60.8827 5.58119Z" fill="white"/>
<path d="M2.99883 10.6971C3.01938 10.5914 3.01124 10.4822 2.97527 10.3808C2.9393 10.2794 2.87682 10.1895 2.79431 10.1204L1.33159 8.896C1.30698 8.87438 1.29011 8.84531 1.28352 8.81322C1.27693 8.78113 1.28098 8.74777 1.29507 8.7182C1.30916 8.68862 1.33251 8.66445 1.36158 8.64935C1.39065 8.63425 1.42385 8.62904 1.45615 8.63452L3.3287 8.99864C3.43428 9.01919 3.54344 9.01108 3.64483 8.97516C3.74622 8.93924 3.83614 8.87682 3.90524 8.79439L5.12964 7.33166C5.15124 7.3069 5.18035 7.2899 5.21252 7.28323C5.24469 7.27656 5.27815 7.2806 5.30781 7.29473C5.33747 7.30886 5.3617 7.3323 5.37679 7.36148C5.39188 7.39067 5.39701 7.42398 5.3914 7.45635L5.02673 9.32864C5.00619 9.43427 5.01433 9.54347 5.05029 9.64489C5.08626 9.74631 5.14875 9.83623 5.23126 9.90531L6.69411 11.1294C6.71902 11.151 6.73616 11.1802 6.74291 11.2124C6.74966 11.2447 6.74564 11.2782 6.73147 11.308C6.7173 11.3377 6.69376 11.362 6.66446 11.3771C6.63516 11.3922 6.60173 11.3972 6.56929 11.3915L4.697 11.0268C4.59137 11.0063 4.48217 11.0144 4.38075 11.0504C4.27933 11.0863 4.18941 11.1488 4.12033 11.2313L2.89593 12.6941C2.87433 12.7188 2.84522 12.7358 2.81305 12.7425C2.78088 12.7492 2.74741 12.7451 2.71775 12.731C2.68809 12.7169 2.66387 12.6934 2.64878 12.6642C2.63369 12.6351 2.62856 12.6017 2.63417 12.5694L2.99883 10.6971Z" fill="white"/>
<path d="M55.9987 35.6971C56.0193 35.5914 56.0111 35.4822 55.9752 35.3808C55.9392 35.2794 55.8767 35.1895 55.7942 35.1204L54.3315 33.896C54.3069 33.8744 54.29 33.8453 54.2834 33.8132C54.2768 33.7811 54.2809 33.7478 54.2949 33.7182C54.309 33.6886 54.3324 33.6645 54.3615 33.6493C54.3905 33.6342 54.4237 33.629 54.456 33.6345L56.3286 33.9986C56.4342 34.0192 56.5433 34.0111 56.6447 33.9752C56.7461 33.9392 56.836 33.8768 56.9051 33.7944L58.1295 32.3317C58.1511 32.3069 58.1802 32.2899 58.2124 32.2832C58.2446 32.2766 58.278 32.2806 58.3077 32.2947C58.3374 32.3089 58.3616 32.3323 58.3767 32.3615C58.3918 32.3907 58.3969 32.424 58.3913 32.4564L58.0266 34.3286C58.0061 34.4343 58.0142 34.5435 58.0502 34.6449C58.0861 34.7463 58.1486 34.8362 58.2311 34.9053L59.694 36.1294C59.7189 36.151 59.736 36.1802 59.7428 36.2124C59.7495 36.2447 59.7455 36.2782 59.7313 36.308C59.7172 36.3377 59.6936 36.362 59.6643 36.3771C59.635 36.3922 59.6016 36.3972 59.5692 36.3915L57.6969 36.0268C57.5912 36.0063 57.482 36.0144 57.3806 36.0504C57.2792 36.0863 57.1893 36.1488 57.1202 36.2313L55.8958 37.6941C55.8742 37.7188 55.8451 37.7358 55.8129 37.7425C55.7808 37.7492 55.7473 37.7451 55.7176 37.731C55.688 37.7169 55.6637 37.6934 55.6487 37.6642C55.6336 37.6351 55.6284 37.6017 55.634 37.5694L55.9987 35.6971Z" fill="white"/>
</svg>
