<svg width="45" height="70" viewBox="0 0 45 70" fill="none" xmlns="http://www.w3.org/2000/svg">
<path d="M13.7612 37.0999C13.7076 36.8923 13.5994 36.7028 13.4477 36.5512C13.2961 36.3996 13.1066 36.2913 12.899 36.2378L9.21808 35.2886C9.15528 35.2708 9.10001 35.2329 9.06065 35.1809C9.02129 35.1288 9 35.0653 9 35C9 34.9347 9.02129 34.8712 9.06065 34.8191C9.10001 34.7671 9.15528 34.7292 9.21808 34.7114L12.899 33.7616C13.1065 33.7081 13.296 33.6 13.4476 33.4485C13.5992 33.2969 13.7075 33.1076 13.7612 32.9L14.7103 29.2191C14.728 29.1561 14.7658 29.1005 14.8179 29.061C14.8701 29.0214 14.9338 29 14.9992 29C15.0647 29 15.1284 29.0214 15.1805 29.061C15.2327 29.1005 15.2705 29.1561 15.2881 29.2191L16.2367 32.9C16.2903 33.1077 16.3985 33.2972 16.5501 33.4488C16.7017 33.6004 16.8912 33.7087 17.0989 33.7622L20.7798 34.7108C20.8431 34.7283 20.8989 34.766 20.9387 34.8182C20.9785 34.8705 21 34.9343 21 35C21 35.0657 20.9785 35.1295 20.9387 35.1817C20.8989 35.234 20.8431 35.2717 20.7798 35.2892L17.0989 36.2378C16.8912 36.2913 16.7017 36.3996 16.5501 36.5512C16.3985 36.7028 16.2903 36.8923 16.2367 37.0999L15.2875 40.7809C15.2699 40.8439 15.2321 40.8994 15.1799 40.939C15.1278 40.9786 15.0641 41 14.9986 41C14.9332 41 14.8695 40.9786 14.8173 40.939C14.7652 40.8994 14.7274 40.8439 14.7097 40.7809L13.7612 37.0999Z" fill="white"/>
<path d="M37.7597 65.0505C37.7714 64.9081 37.7448 64.765 37.6826 64.6363C37.6204 64.5076 37.5248 64.398 37.4058 64.3187L35.2964 62.9142C35.2608 62.8892 35.2343 62.8533 35.2209 62.8119C35.2076 62.7704 35.2081 62.7258 35.2224 62.6847C35.2367 62.6436 35.264 62.6083 35.3002 62.5841C35.3364 62.5599 35.3795 62.5483 35.423 62.5508L37.9487 62.7597C38.0911 62.7716 38.234 62.745 38.3627 62.6828C38.4914 62.6207 38.6011 62.5252 38.6803 62.4063L40.0849 60.2969C40.1098 60.2611 40.1458 60.2344 40.1873 60.2209C40.2288 60.2074 40.2736 60.2079 40.3148 60.2223C40.356 60.2366 40.3914 60.2641 40.4156 60.3004C40.4397 60.3368 40.4513 60.38 40.4486 60.4236L40.2389 62.949C40.2271 63.0915 40.2537 63.2345 40.316 63.3632C40.3782 63.4919 40.4738 63.6016 40.5927 63.6808L42.7023 65.085C42.7383 65.1098 42.7652 65.1458 42.7788 65.1874C42.7924 65.2291 42.7919 65.274 42.7775 65.3153C42.7631 65.3567 42.7356 65.3921 42.6991 65.4163C42.6626 65.4405 42.6192 65.452 42.5755 65.4491L40.0501 65.2394C39.9076 65.2276 39.7646 65.2542 39.6359 65.3164C39.5072 65.3787 39.3975 65.4742 39.3182 65.5932L37.9137 67.7026C37.8888 67.7384 37.8528 67.7651 37.8113 67.7786C37.7698 67.7921 37.725 67.7916 37.6838 67.7773C37.6426 67.7629 37.6072 67.7355 37.583 67.6991C37.5588 67.6628 37.5472 67.6195 37.5499 67.576L37.7597 65.0505Z" fill="white"/>
<path d="M23.7612 60.0999C23.7076 59.8923 23.5994 59.7028 23.4477 59.5512C23.2961 59.3996 23.1066 59.2913 22.899 59.2378L19.2181 58.2886C19.1553 58.2708 19.1 58.2329 19.0607 58.1809C19.0213 58.1288 19 58.0653 19 58C19 57.9347 19.0213 57.8712 19.0607 57.8191C19.1 57.7671 19.1553 57.7292 19.2181 57.7114L22.899 56.7616C23.1065 56.7081 23.296 56.6 23.4476 56.4485C23.5992 56.2969 23.7075 56.1076 23.7612 55.9001L24.7103 52.2191C24.728 52.1561 24.7658 52.1006 24.8179 52.061C24.8701 52.0214 24.9338 52 24.9992 52C25.0647 52 25.1284 52.0214 25.1805 52.061C25.2327 52.1006 25.2705 52.1561 25.2881 52.2191L26.2367 55.9001C26.2903 56.1077 26.3985 56.2972 26.5501 56.4488C26.7017 56.6004 26.8912 56.7087 27.0989 56.7622L30.7798 57.7108C30.8431 57.7283 30.8989 57.766 30.9387 57.8182C30.9785 57.8705 31 57.9343 31 58C31 58.0657 30.9785 58.1295 30.9387 58.1817C30.8989 58.234 30.8431 58.2717 30.7798 58.2892L27.0989 59.2378C26.8912 59.2913 26.7017 59.3996 26.5501 59.5512C26.3985 59.7028 26.2903 59.8923 26.2367 60.0999L25.2875 63.7809C25.2699 63.8439 25.2321 63.8994 25.1799 63.939C25.1278 63.9786 25.0641 64 24.9986 64C24.9332 64 24.8695 63.9786 24.8173 63.939C24.7652 63.8994 24.7274 63.8439 24.7097 63.7809L23.7612 60.0999Z" fill="white"/>
<path d="M15.9302 19.852C15.6219 19.6081 15.2538 19.4513 14.8643 19.3979C14.4749 19.3445 14.0782 19.3965 13.7156 19.5483L7.28793 22.2416C7.17646 22.2851 7.05382 22.2911 6.93862 22.2587C6.82342 22.2263 6.72195 22.1571 6.6496 22.0618C6.57725 21.9664 6.53798 21.8501 6.53773 21.7304C6.53749 21.6107 6.57629 21.4942 6.64825 21.3986L10.9713 15.9321C11.2152 15.6239 11.372 15.256 11.4255 14.8667C11.479 14.4774 11.4273 14.0809 11.2756 13.7183L8.58242 7.29067C8.53831 7.17904 8.53193 7.05604 8.56426 6.94045C8.59659 6.82486 8.66584 6.72301 8.76145 6.65045C8.85707 6.5779 8.97379 6.53861 9.09382 6.53859C9.21385 6.53856 9.33059 6.57781 9.42623 6.65033L14.891 10.9748C15.1993 11.2186 15.5674 11.3754 15.9569 11.4288C16.3464 11.4822 16.7431 11.4303 17.1057 11.2784L23.5326 8.5843C23.6444 8.53964 23.7678 8.5329 23.8838 8.56511C23.9998 8.59731 24.102 8.66668 24.1748 8.76258C24.2475 8.85847 24.2868 8.97559 24.2866 9.09597C24.2864 9.21635 24.2467 9.33334 24.1736 9.42899L19.8492 14.8937C19.6053 15.2021 19.4485 15.5702 19.3951 15.9596C19.3418 16.3491 19.3937 16.7458 19.5456 17.1084L22.2388 23.5361C22.2829 23.6477 22.2893 23.7707 22.257 23.8863C22.2246 24.0019 22.1554 24.1037 22.0598 24.1763C21.9642 24.2488 21.8474 24.2881 21.7274 24.2881C21.6074 24.2882 21.4906 24.2489 21.395 24.1764L15.9302 19.852Z" fill="white"/>
</svg>
