<svg width="13" height="23" viewBox="0 0 13 23" fill="none" xmlns="http://www.w3.org/2000/svg">
<path d="M5.76116 8.09995C5.7076 7.89231 5.59937 7.70282 5.44774 7.55119C5.29611 7.39956 5.10662 7.29133 4.89898 7.23777L1.21808 6.28859C1.15528 6.27077 1.10001 6.23294 1.06065 6.18086C1.02129 6.12878 1 6.06528 1 6C1 5.93472 1.02129 5.87122 1.06065 5.81914C1.10001 5.76705 1.15528 5.72923 1.21808 5.71141L4.89898 4.76163C5.10655 4.70812 5.29599 4.59998 5.44761 4.44846C5.59923 4.29694 5.7075 4.10758 5.76116 3.90005L6.71034 0.219144C6.72798 0.156097 6.76576 0.100552 6.81792 0.0609847C6.87009 0.0214174 6.93376 0 6.99923 0C7.0647 0 7.12837 0.0214174 7.18053 0.0609847C7.23269 0.100552 7.27048 0.156097 7.28812 0.219144L8.2367 3.90005C8.29026 4.10769 8.39849 4.29718 8.55012 4.44881C8.70175 4.60044 8.89124 4.70867 9.09887 4.76223L12.7798 5.71081C12.8431 5.72827 12.8989 5.76601 12.9387 5.81825C12.9785 5.87049 13 5.93434 13 6C13 6.06566 12.9785 6.12951 12.9387 6.18175C12.8989 6.23399 12.8431 6.27173 12.7798 6.28919L9.09887 7.23777C8.89124 7.29133 8.70175 7.39956 8.55012 7.55119C8.39849 7.70282 8.29026 7.89231 8.2367 8.09995L7.28752 11.7809C7.26988 11.8439 7.23209 11.8994 7.17993 11.939C7.12777 11.9786 7.0641 12 6.99863 12C6.93316 12 6.86949 11.9786 6.81733 11.939C6.76516 11.8994 6.72738 11.8439 6.70974 11.7809L5.76116 8.09995Z" fill="white"/>
<path d="M3.6996 20.1046C3.63679 20.0172 3.55172 19.9483 3.45323 19.905C3.35474 19.8616 3.24644 19.8454 3.13958 19.8581L1.24539 20.0835C1.21278 20.0865 1.18005 20.0789 1.15217 20.0617C1.12429 20.0445 1.10279 20.0187 1.09092 19.9881C1.07905 19.9576 1.07747 19.924 1.0864 19.8925C1.09534 19.861 1.11432 19.8332 1.14045 19.8135L2.68937 18.7C2.77672 18.6372 2.84566 18.5522 2.88903 18.4538C2.9324 18.3553 2.94861 18.2471 2.93597 18.1403L2.71065 16.2461C2.70744 16.2134 2.71501 16.1805 2.73221 16.1525C2.74942 16.1246 2.7753 16.103 2.80592 16.0911C2.83655 16.0792 2.87022 16.0776 2.90181 16.0866C2.9334 16.0956 2.96117 16.1147 2.98089 16.141L4.09381 17.6902C4.15662 17.7775 4.24169 17.8465 4.34018 17.8898C4.43867 17.9332 4.54697 17.9494 4.65383 17.9367L6.54791 17.7111C6.58069 17.7077 6.61366 17.7152 6.64176 17.7324C6.66987 17.7496 6.69155 17.7756 6.70349 17.8063C6.71543 17.837 6.71696 17.8708 6.70786 17.9024C6.69875 17.9341 6.6795 17.9619 6.65307 17.9816L5.10393 19.0945C5.01655 19.1573 4.94761 19.2424 4.90426 19.3409C4.86091 19.4394 4.84474 19.5477 4.85744 19.6545L5.08276 21.5487C5.08597 21.5814 5.0784 21.6143 5.06119 21.6423C5.04399 21.6702 5.01811 21.6918 4.98749 21.7037C4.95686 21.7156 4.92319 21.7172 4.8916 21.7082C4.86001 21.6992 4.83224 21.68 4.81252 21.6538L3.6996 20.1046Z" fill="white"/>
</svg>
