<svg width="20" height="19" viewBox="0 0 20 19" fill="none" xmlns="http://www.w3.org/2000/svg">
<path d="M12.7613 15.0999C12.7077 14.8923 12.5995 14.7028 12.4479 14.5512C12.2962 14.3996 12.1067 14.2913 11.8991 14.2378L8.2182 13.2886C8.1554 13.2708 8.10013 13.2329 8.06077 13.1809C8.02142 13.1288 8.00012 13.0653 8.00012 13C8.00012 12.9347 8.02142 12.8712 8.06077 12.8191C8.10013 12.7671 8.1554 12.7292 8.2182 12.7114L11.8991 11.7616C12.1067 11.7081 12.2961 11.6 12.4477 11.4485C12.5994 11.2969 12.7076 11.1076 12.7613 10.9001L13.7105 7.21914C13.7281 7.1561 13.7659 7.10055 13.818 7.06098C13.8702 7.02142 13.9339 7 13.9993 7C14.0648 7 14.1285 7.02142 14.1807 7.06098C14.2328 7.10055 14.2706 7.1561 14.2882 7.21914L15.2368 10.9001C15.2904 11.1077 15.3986 11.2972 15.5502 11.4488C15.7019 11.6004 15.8914 11.7087 16.099 11.7622L19.7799 12.7108C19.8432 12.7283 19.899 12.766 19.9388 12.8182C19.9786 12.8705 20.0001 12.9343 20.0001 13C20.0001 13.0657 19.9786 13.1295 19.9388 13.1817C19.899 13.234 19.8432 13.2717 19.7799 13.2892L16.099 14.2378C15.8914 14.2913 15.7019 14.3996 15.5502 14.5512C15.3986 14.7028 15.2904 14.8923 15.2368 15.0999L14.2876 18.7809C14.27 18.8439 14.2322 18.8994 14.1801 18.939C14.1279 18.9786 14.0642 19 13.9988 19C13.9333 19 13.8696 18.9786 13.8174 18.939C13.7653 18.8994 13.7275 18.8439 13.7099 18.7809L12.7613 15.0999Z" fill="white"/>
<path d="M3.69972 5.10463C3.63691 5.01725 3.55184 4.9483 3.45335 4.90495C3.35486 4.8616 3.24656 4.84543 3.1397 4.85813L1.24551 5.08345C1.2129 5.08653 1.18017 5.07889 1.15229 5.06169C1.12442 5.04449 1.10291 5.01866 1.09104 4.98812C1.07917 4.95759 1.07759 4.92402 1.08653 4.89251C1.09546 4.86099 1.11444 4.83325 1.14057 4.81349L2.68949 3.70001C2.77684 3.63724 2.84579 3.55222 2.88915 3.45378C2.93252 3.35535 2.94873 3.24709 2.93609 3.14027L2.71077 1.24608C2.70756 1.21339 2.71513 1.18054 2.73234 1.15255C2.74954 1.12456 2.77543 1.10296 2.80605 1.09106C2.83667 1.07916 2.87034 1.0776 2.90193 1.08662C2.93352 1.09564 2.9613 1.11475 2.98101 1.14103L4.09394 2.69017C4.15674 2.77755 4.24181 2.8465 4.3403 2.88985C4.43879 2.9332 4.5471 2.94936 4.65395 2.93666L6.54803 2.71106C6.58081 2.70772 6.61378 2.71523 6.64189 2.73243C6.66999 2.74963 6.69168 2.77557 6.70361 2.80628C6.71555 2.83699 6.71709 2.87077 6.70798 2.90244C6.69887 2.93411 6.67962 2.96191 6.65319 2.98158L5.10405 4.09451C5.01668 4.15731 4.94773 4.24239 4.90438 4.34088C4.86103 4.43936 4.84486 4.54767 4.85756 4.65452L5.08288 6.54872C5.08609 6.58141 5.07852 6.61426 5.06132 6.64225C5.04411 6.67024 5.01823 6.69184 4.98761 6.70374C4.95699 6.71564 4.92331 6.7172 4.89172 6.70818C4.86013 6.69916 4.83236 6.68005 4.81264 6.65377L3.69972 5.10463Z" fill="white"/>
</svg>
