<svg width="68" height="70" viewBox="0 0 68 70" fill="none" xmlns="http://www.w3.org/2000/svg">
<path d="M33.6062 60.4061C33.4811 60.232 33.3116 60.0946 33.1153 60.0082C32.919 59.9218 32.7032 59.8896 32.4903 59.9149L28.7156 60.3639C28.6506 60.3701 28.5853 60.3548 28.5298 60.3206C28.4742 60.2863 28.4314 60.2348 28.4077 60.174C28.3841 60.1131 28.3809 60.0462 28.3987 59.9834C28.4165 59.9206 28.4543 59.8653 28.5064 59.826L31.5931 57.607C31.7672 57.4819 31.9045 57.3125 31.991 57.1164C32.0774 56.9202 32.1097 56.7045 32.0845 56.4916L31.6355 52.7169C31.6291 52.6517 31.6442 52.5863 31.6785 52.5305C31.7127 52.4747 31.7643 52.4317 31.8254 52.408C31.8864 52.3843 31.9535 52.3811 32.0164 52.3991C32.0794 52.4171 32.1347 52.4552 32.174 52.5076L34.3918 55.5947C34.517 55.7688 34.6865 55.9062 34.8828 55.9926C35.079 56.0789 35.2949 56.1112 35.5078 56.0859L39.2823 55.6363C39.3476 55.6296 39.4133 55.6446 39.4693 55.6789C39.5253 55.7131 39.5685 55.7648 39.5923 55.826C39.6161 55.8872 39.6192 55.9546 39.601 56.0177C39.5829 56.0808 39.5445 56.1362 39.4919 56.1754L36.4048 58.3932C36.2306 58.5183 36.0932 58.6879 36.0069 58.8841C35.9205 59.0804 35.8883 59.2962 35.9136 59.5092L36.3626 63.2839C36.369 63.349 36.3539 63.4145 36.3196 63.4703C36.2853 63.526 36.2337 63.5691 36.1727 63.5928C36.1117 63.6165 36.0446 63.6196 35.9816 63.6017C35.9187 63.5837 35.8633 63.5456 35.8241 63.4932L33.6062 60.4061Z" fill="white"/>
<path d="M39.3725 10.1724C39.2473 9.99827 39.0778 9.86087 38.8815 9.77448C38.6853 9.68809 38.4694 9.65588 38.2565 9.68119L34.4818 10.1302C34.4168 10.1363 34.3516 10.1211 34.296 10.0868C34.2405 10.0525 34.1976 10.0011 34.174 9.94023C34.1503 9.87938 34.1471 9.81248 34.165 9.74968C34.1828 9.68688 34.2206 9.6316 34.2727 9.59223L37.3593 7.3733C37.5334 7.24821 37.6708 7.07879 37.7572 6.88263C37.8436 6.68647 37.8759 6.47074 37.8507 6.25787L37.4017 2.48317C37.3953 2.41801 37.4104 2.35255 37.4447 2.29677C37.479 2.24099 37.5306 2.19796 37.5916 2.17424C37.6526 2.15052 37.7197 2.14741 37.7827 2.16539C37.8456 2.18337 37.901 2.22145 37.9403 2.27382L40.1581 5.36092C40.2832 5.53504 40.4528 5.67244 40.649 5.75883C40.8453 5.84521 41.0611 5.87743 41.274 5.85212L45.0485 5.40255C45.1139 5.39589 45.1796 5.41085 45.2356 5.44512C45.2916 5.4794 45.3348 5.5311 45.3586 5.5923C45.3824 5.6535 45.3854 5.72082 45.3673 5.78392C45.3491 5.84702 45.3108 5.90243 45.2581 5.94164L42.171 8.15945C41.9969 8.28461 41.8595 8.45414 41.7731 8.65041C41.6867 8.84667 41.6545 9.0625 41.6798 9.27544L42.1288 13.0501C42.1352 13.1153 42.1201 13.1808 42.0858 13.2365C42.0516 13.2923 42 13.3353 41.939 13.3591C41.8779 13.3828 41.8108 13.3859 41.7479 13.3679C41.6849 13.3499 41.6296 13.3119 41.5903 13.2595L39.3725 10.1724Z" fill="white"/>
<path d="M8.44417 60.2328C8.50124 59.935 8.47747 59.6273 8.37532 59.3418C8.27317 59.0563 8.09638 58.8034 7.86335 58.6094L3.73196 55.1705C3.66246 55.1098 3.61467 55.028 3.59585 54.9376C3.57703 54.8473 3.58821 54.7532 3.62768 54.6698C3.66715 54.5863 3.73276 54.518 3.81456 54.4752C3.89636 54.4325 3.98988 54.4175 4.08093 54.4327L9.36046 55.4441C9.65814 55.5012 9.96568 55.4775 10.2511 55.3755C10.5365 55.2735 10.7894 55.0969 10.9835 54.8641L14.4224 50.7327C14.483 50.6628 14.5649 50.6146 14.6555 50.5956C14.7461 50.5765 14.8405 50.5876 14.9241 50.6272C15.0078 50.6668 15.0763 50.7327 15.119 50.8148C15.1618 50.8969 15.1765 50.9908 15.1609 51.082L14.148 56.3608C14.0909 56.6586 14.1147 56.9663 14.2168 57.2518C14.319 57.5373 14.4958 57.7902 14.7288 57.9842L18.8605 61.4223C18.9309 61.4829 18.9794 61.5649 18.9987 61.6557C19.018 61.7466 19.0069 61.8412 18.9672 61.9252C18.9275 62.0091 18.8614 62.0777 18.7789 62.1204C18.6965 62.1631 18.6023 62.1776 18.5108 62.1617L13.232 61.1487C12.9342 61.0916 12.6266 61.1154 12.3411 61.2176C12.0556 61.3197 11.8026 61.4965 11.6086 61.7295L8.16977 65.8609C8.1091 65.9308 8.02722 65.979 7.93662 65.998C7.84602 66.0171 7.75168 66.006 7.66799 65.9664C7.5843 65.9268 7.51585 65.8609 7.4731 65.7788C7.43035 65.6967 7.41563 65.6028 7.4312 65.5116L8.44417 60.2328Z" fill="white"/>
<path d="M46.5686 66.9737C46.5058 66.8863 46.4207 66.8174 46.3222 66.774C46.2238 66.7307 46.1155 66.7145 46.0086 66.7272L44.1144 66.9525C44.0818 66.9556 44.0491 66.948 44.0212 66.9308C43.9933 66.9135 43.9718 66.8877 43.9599 66.8572C43.9481 66.8267 43.9465 66.7931 43.9554 66.7616C43.9644 66.7301 43.9833 66.7023 44.0095 66.6826L45.5584 65.5691C45.6457 65.5063 45.7147 65.4213 45.758 65.3228C45.8014 65.2244 45.8176 65.1162 45.805 65.0093L45.5797 63.1151C45.5765 63.0825 45.584 63.0496 45.6012 63.0216C45.6184 62.9936 45.6443 62.972 45.6749 62.9601C45.7056 62.9482 45.7392 62.9467 45.7708 62.9557C45.8024 62.9647 45.8302 62.9838 45.8499 63.0101L46.9628 64.5592C47.0256 64.6466 47.1107 64.7156 47.2092 64.7589C47.3077 64.8023 47.416 64.8184 47.5228 64.8057L49.4169 64.5801C49.4497 64.5768 49.4827 64.5843 49.5108 64.6015C49.5389 64.6187 49.5606 64.6446 49.5725 64.6753C49.5844 64.7061 49.586 64.7398 49.5769 64.7715C49.5678 64.8032 49.5485 64.831 49.5221 64.8506L47.9729 65.9636C47.8856 66.0264 47.8166 66.1115 47.7733 66.2099C47.7299 66.3084 47.7138 66.4167 47.7265 66.5236L47.9518 68.4178C47.955 68.4505 47.9474 68.4833 47.9302 68.5113C47.913 68.5393 47.8871 68.5609 47.8565 68.5728C47.8259 68.5847 47.7922 68.5863 47.7606 68.5772C47.729 68.5682 47.7013 68.5491 47.6815 68.5228L46.5686 66.9737Z" fill="white"/>
<path d="M63.6996 31.1046C63.6368 31.0172 63.5517 30.9483 63.4532 30.905C63.3547 30.8616 63.2464 30.8454 63.1396 30.8581L61.2454 31.0835C61.2128 31.0865 61.18 31.0789 61.1522 31.0617C61.1243 31.0445 61.1028 31.0187 61.0909 30.9881C61.0791 30.9576 61.0775 30.924 61.0864 30.8925C61.0953 30.861 61.1143 30.8332 61.1404 30.8135L62.6894 29.7C62.7767 29.6372 62.8457 29.5522 62.889 29.4538C62.9324 29.3553 62.9486 29.2471 62.936 29.1403L62.7107 27.2461C62.7074 27.2134 62.715 27.1805 62.7322 27.1525C62.7494 27.1246 62.7753 27.103 62.8059 27.0911C62.8365 27.0792 62.8702 27.0776 62.9018 27.0866C62.9334 27.0956 62.9612 27.1147 62.9809 27.141L64.0938 28.6902C64.1566 28.7775 64.2417 28.8465 64.3402 28.8898C64.4387 28.9332 64.547 28.9494 64.6538 28.9367L66.5479 28.7111C66.5807 28.7077 66.6137 28.7152 66.6418 28.7324C66.6699 28.7496 66.6916 28.7756 66.7035 28.8063C66.7154 28.837 66.717 28.8708 66.7079 28.9024C66.6987 28.9341 66.6795 28.9619 66.6531 28.9816L65.1039 30.0945C65.0166 30.1573 64.9476 30.2424 64.9043 30.3409C64.8609 30.4394 64.8447 30.5477 64.8574 30.6545L65.0828 32.5487C65.086 32.5814 65.0784 32.6143 65.0612 32.6423C65.044 32.6702 65.0181 32.6918 64.9875 32.7037C64.9569 32.7156 64.9232 32.7172 64.8916 32.7082C64.86 32.6992 64.8322 32.68 64.8125 32.6538L63.6996 31.1046Z" fill="white"/>
<path d="M57.6996 42.1046C57.6368 42.0172 57.5517 41.9483 57.4532 41.905C57.3547 41.8616 57.2464 41.8454 57.1396 41.8581L55.2454 42.0835C55.2128 42.0865 55.18 42.0789 55.1522 42.0617C55.1243 42.0445 55.1028 42.0187 55.0909 41.9881C55.0791 41.9576 55.0775 41.924 55.0864 41.8925C55.0953 41.861 55.1143 41.8332 55.1404 41.8135L56.6894 40.7C56.7767 40.6372 56.8457 40.5522 56.889 40.4538C56.9324 40.3553 56.9486 40.2471 56.936 40.1403L56.7107 38.2461C56.7074 38.2134 56.715 38.1805 56.7322 38.1525C56.7494 38.1246 56.7753 38.103 56.8059 38.0911C56.8365 38.0792 56.8702 38.0776 56.9018 38.0866C56.9334 38.0956 56.9612 38.1147 56.9809 38.141L58.0938 39.6902C58.1566 39.7775 58.2417 39.8465 58.3402 39.8898C58.4387 39.9332 58.547 39.9494 58.6538 39.9367L60.5479 39.7111C60.5807 39.7077 60.6137 39.7152 60.6418 39.7324C60.6699 39.7496 60.6916 39.7756 60.7035 39.8063C60.7154 39.837 60.717 39.8708 60.7079 39.9024C60.6987 39.9341 60.6795 39.9619 60.6531 39.9816L59.1039 41.0945C59.0166 41.1573 58.9476 41.2424 58.9043 41.3409C58.8609 41.4394 58.8447 41.5477 58.8574 41.6545L59.0828 43.5487C59.086 43.5814 59.0784 43.6143 59.0612 43.6423C59.044 43.6702 59.0181 43.6918 58.9875 43.7037C58.9569 43.7156 58.9232 43.7172 58.8916 43.7082C58.86 43.6992 58.8322 43.68 58.8125 43.6538L57.6996 42.1046Z" fill="white"/>
</svg>
