<svg width="1064" height="511" viewBox="0 0 1064 511" fill="none" xmlns="http://www.w3.org/2000/svg">
<path d="M749.5 175.644L702 67.1437L678 166.644L749.5 175.644Z" fill="#162456"/>
<path d="M340 151.644L334.5 74.1437H315.5L297.5 127.644L340 151.644Z" fill="#162456"/>
<path d="M215.5 264.644L189.5 247.144L178 302.644L215.5 264.644Z" fill="#162456"/>
<path d="M297.5 302.644L340 175.644L453 166.644L496 204.644L665 214.144L809 264.644H954L884.5 384.644L624 402.144L421.5 349.644L297.5 302.644Z" fill="#162456"/>
<path d="M840.811 73.1328C844.173 73.0878 847.353 74.7447 849.254 77.5541C851.156 80.3635 851.514 83.9309 850.224 87.0371L850.094 87.3363L800.576 196.348C798.656 200.576 794.073 202.902 789.52 201.961L786.616 201.361L810.622 242.639C812.206 245.364 812.425 248.67 811.212 251.566C809.999 254.461 807.495 256.608 804.452 257.363L788.848 261.236C787.403 261.594 785.895 261.624 784.433 261.322L737.826 251.69C732.418 250.573 728.912 245.276 729.996 239.861L742.964 175.07L706.265 64.4631C705.254 61.4139 705.757 58.0715 707.621 55.4745C709.485 52.8775 712.483 51.34 715.683 51.3399L731.943 51.3406L732.271 51.3454C735.656 51.4566 738.774 53.2828 740.539 56.208L780.389 122.272L817.068 77.5081L817.412 77.1106C819.18 75.1726 821.648 74.0095 824.286 73.8881L840.485 73.1423L840.811 73.1328Z" fill="#162456" stroke="#162456" stroke-width="20" stroke-linejoin="round"/>
<path d="M640.894 44.9927C643.966 43.6217 647.539 43.8977 650.388 45.7441C653.33 47.6502 655.073 50.9537 654.985 54.454L651.992 173.389L719.479 207.72C722.599 209.307 724.676 212.408 724.956 215.897C725.236 219.387 723.679 222.76 720.849 224.793L706.182 235.332C703.928 236.951 701.097 237.551 698.37 236.988L598.872 216.427C593.463 215.309 589.958 210.013 591.042 204.598L620.089 59.4733C620.7 56.4238 622.693 53.8406 625.481 52.4843L640.599 45.1311L640.894 44.9927Z" fill="#162456" stroke="#162456" stroke-width="20" stroke-linejoin="round"/>
<path d="M584.291 28.9364L584.805 28.9491C590.089 29.2167 594.291 33.586 594.291 38.9364L594.291 210.977C594.291 216.5 589.814 220.977 584.291 220.977L536.729 220.977C531.207 220.977 526.73 216.5 526.729 210.977L526.729 38.9364L526.742 38.4218C527.01 33.1381 531.379 28.9364 536.729 28.9364L584.291 28.9364Z" fill="#162456" stroke="#162456" stroke-width="20" stroke-linejoin="round"/>
<path d="M367.172 44.3633L367.479 44.343C370.664 44.1809 373.743 45.5485 375.757 48.0355L422.387 105.597L458.874 41.2478L459.031 40.9802C460.691 38.2517 463.562 36.4746 466.758 36.213L497.745 33.6769L498.259 33.6476C503.546 33.4838 508.091 37.4957 508.527 42.8279L520.98 194.985C521.43 200.489 517.333 205.317 511.829 205.768L469.515 209.231C464.011 209.681 459.184 205.584 458.733 200.08L455.481 160.342L449.614 170.421C447.969 173.247 445.046 175.09 441.787 175.357L414.433 177.596C411.163 177.863 407.969 176.51 405.887 173.973L398.476 164.941L401.733 204.745C402.183 210.249 398.086 215.076 392.582 215.527L350.269 218.99C344.764 219.44 339.937 215.343 339.486 209.839L327.033 57.6817L327.004 57.1677C326.84 51.8798 330.852 47.3358 336.184 46.8993L367.172 44.3633Z" fill="#162456" stroke="#162456" stroke-width="20" stroke-linejoin="round"/>
<path d="M225.718 72.5348C238.642 67.7671 251.554 65.417 264.396 65.6211C270.026 65.6172 275.143 65.5885 280.756 66.6616C286.472 67.7545 292.249 69.8801 299.917 73.5287L300.371 73.7587C304.824 76.162 306.747 81.5824 304.83 86.3204L304.625 86.7924L285.025 129.038C284.566 130.026 283.967 130.903 283.266 131.66C283.691 131.701 284.117 131.744 284.543 131.788C284.83 131.811 285.029 131.816 285.156 131.816C285.282 131.776 285.481 131.714 285.779 131.623C287.281 131.166 289.213 130.815 291.645 131.144C293.527 131.399 295.325 132.018 296.965 132.682C300.679 134.067 305.952 136.762 310.719 139.561C315.426 142.325 320.895 145.916 324.232 149.272L324.791 149.845C330.53 155.815 334.857 163.46 338.032 172.348C344.724 191.074 343.615 209.03 333.821 225.162L333.349 225.928L333.339 225.944C323.441 241.678 306.547 253.232 284.354 261.419C270.363 266.58 256.984 269.291 244.313 269.251L243.089 269.239L242.909 269.234C230.325 268.789 217.845 265.551 205.525 259.74L204.333 259.17C203.869 258.944 203.422 258.682 202.999 258.386L192.277 250.903C189.484 248.954 187.887 245.694 188.043 242.263C188.199 238.832 190.088 235.705 193.048 233.976L198 242.644C193.122 234.106 193.049 233.978 193.049 233.976C193.049 233.975 193.051 233.975 193.052 233.975C193.053 233.974 193.055 233.972 193.058 233.97C193.065 233.966 193.074 233.961 193.086 233.954C193.109 233.94 193.143 233.921 193.186 233.896C193.274 233.845 193.402 233.77 193.568 233.674C193.901 233.481 194.387 233.199 195.005 232.843C196.242 232.13 198.012 231.116 200.159 229.902C204.446 227.477 210.26 224.24 216.329 221.015C222.366 217.807 228.8 214.534 234.284 212.081C237.011 210.861 239.682 209.763 242.049 208.975C243.871 208.368 247.078 207.377 250.232 207.606L250.233 207.604C256.214 208.016 262.179 207.152 268.215 204.925C273.455 202.992 275.838 201.214 276.745 200.209C276.784 200.155 276.817 200.106 276.845 200.063C276.819 200.007 276.799 199.971 276.787 199.953C276.778 199.938 276.772 199.93 276.768 199.925C276.775 199.932 276.758 199.912 276.69 199.873C276.619 199.831 276.471 199.755 276.214 199.671C276.107 199.636 276.002 199.599 275.896 199.56C273.79 198.788 270.725 198.23 266.425 198.216C266.288 198.216 266.15 198.213 266.014 198.207C261.908 198.023 257.374 197.976 252.403 198.072L250.246 198.122L250.16 198.124C244.259 198.231 238.257 197.982 232.158 197.381L230.936 197.257C224.499 196.575 218.225 195.233 212.128 193.231L210.91 192.822L210.566 192.697C203.817 190.09 197.736 186.194 192.341 181.115L191.822 180.62L191.745 180.546C185.734 174.626 181.265 166.892 178.034 157.851C173.753 145.869 172.712 133.961 175.438 122.398L175.701 121.328C178.512 110.325 184.362 100.682 192.906 92.4777L192.906 92.4787C201.598 83.9281 212.655 77.3537 225.718 72.5348ZM244.985 127.873C242.805 128.677 241.278 129.486 240.224 130.2C242.429 130.735 245.374 131.101 249.192 131.157C254.15 131.172 259.511 131.127 265.277 131.022L265.276 131.022C265.279 131.022 265.282 131.022 265.285 131.022C261.963 129.558 259.681 128.725 257.466 128.489L257.135 128.458C257.052 128.451 256.969 128.444 256.887 128.435C255.2 128.258 253.581 128.011 252.322 127.829C250.975 127.634 249.962 127.499 249.027 127.431C247.325 127.308 246.18 127.432 244.985 127.873Z" fill="#162456" stroke="#162456" stroke-width="20" stroke-linejoin="round"/>
<path d="M787.332 61.9675L787.667 62.0418C791.118 62.8675 793.882 65.4656 794.912 68.8786L806.793 108.263L833.115 76.6483L833.34 76.3882C835.703 73.7409 839.3 72.5368 842.794 73.2472L895.226 83.9108L895.553 83.9833C898.914 84.7843 901.632 87.2681 902.725 90.5621C903.817 93.856 903.123 97.4726 900.907 100.123L900.688 100.376L825.537 184.411L812.195 250.013C811.095 255.424 805.815 258.919 800.403 257.819L753.796 248.34C748.384 247.239 744.889 241.96 745.989 236.548L758.943 172.855L722.264 64.0614C721.122 60.6723 721.876 56.9306 724.243 54.2491C726.61 51.5676 730.229 50.3541 733.733 51.0669L787.332 61.9675Z" fill="#162456" stroke="#162456" stroke-width="20" stroke-linejoin="round"/>
<path d="M686.869 52.1718L687.371 52.2868C692.495 53.6022 695.742 58.7212 694.676 63.9641L674.556 162.89L724.135 172.973C729.547 174.074 733.042 179.354 731.942 184.766L725.006 218.868C723.905 224.28 718.626 227.775 713.214 226.675L613.715 206.439C608.303 205.338 604.808 200.059 605.909 194.647L634.957 51.8187L635.072 51.3169C636.387 46.1926 641.506 42.946 646.749 44.0123L686.869 52.1718Z" fill="#162456" stroke="#162456" stroke-width="20" stroke-linejoin="round"/>
<path d="M584.291 20.9318L584.805 20.9445C590.089 21.2121 594.291 25.5814 594.291 30.9318L594.291 200.249C594.291 205.772 589.814 210.249 584.291 210.249L536.729 210.249C531.207 210.249 526.729 205.772 526.729 200.249L526.729 30.9318L526.742 30.4172C527.01 25.1335 531.379 20.9318 536.729 20.9318L584.291 20.9318Z" fill="#162456" stroke="#162456" stroke-width="20" stroke-linejoin="round"/>
<path d="M366.326 31.3633L366.634 31.343C369.818 31.1809 372.897 32.5486 374.912 35.0356L421.542 92.5967L458.029 28.2478L458.185 27.9803C459.846 25.2517 462.716 23.4746 465.912 23.213L496.899 20.677L497.412 20.6477C502.7 20.4834 507.245 24.4954 507.681 29.8279L520.134 181.985C520.585 187.489 516.487 192.317 510.983 192.768L468.67 196.231C463.165 196.681 458.338 192.584 457.887 187.08L454.635 147.342L448.769 157.421C447.124 160.247 444.2 162.09 440.941 162.357L413.587 164.596C410.419 164.855 407.323 163.592 405.24 161.207L405.042 160.973L397.63 151.941L400.887 191.745C401.338 197.249 397.241 202.076 391.736 202.527L349.423 205.99C343.918 206.44 339.091 202.343 338.64 196.839L326.188 44.6817L326.158 44.1678C325.994 38.8798 330.006 34.3358 335.339 33.8994L366.326 31.3633Z" fill="#162456" stroke="#162456" stroke-width="20" stroke-linejoin="round"/>
<path d="M213.67 67.6133C226.592 62.9215 239.503 60.61 252.346 60.8148C265.291 60.8166 277.256 63.3684 288.03 68.6911C292.919 71.1069 294.971 76.9946 292.643 81.9261L274.623 120.092C273.284 122.929 270.778 124.844 267.946 125.536C269.459 125.647 270.975 125.782 272.494 125.938C279.488 126.511 286.28 128.117 292.84 130.734C300.08 133.369 306.538 137.575 312.194 143.173L312.756 143.739C318.521 149.641 322.864 157.197 326.05 165.971C332.769 184.479 331.644 202.211 321.839 218.105L321.366 218.861L321.356 218.876C311.458 234.361 294.575 245.72 272.401 253.77C258.42 258.846 245.053 261.512 232.392 261.473L231.168 261.461C231.109 261.46 231.049 261.459 230.989 261.457C218.007 261.005 205.126 257.626 192.41 251.548C187.458 249.181 185.338 243.265 187.662 238.293L205.459 200.207L205.684 199.755C208.114 195.164 213.698 193.176 218.512 195.273C225.425 198.284 231.989 199.996 238.236 200.554C244.196 200.947 250.146 200.094 256.167 197.908C261.421 196 263.817 194.242 264.73 193.246C264.743 193.227 264.757 193.21 264.769 193.192C264.766 193.191 264.763 193.189 264.76 193.187C264.712 193.16 264.619 193.111 264.468 193.054L264.297 192.995C264.19 192.96 264.083 192.923 263.978 192.885C261.876 192.127 258.81 191.577 254.503 191.564L254.094 191.553C249.987 191.372 245.452 191.326 240.48 191.421L238.323 191.47L238.237 191.472C232.339 191.578 226.339 191.332 220.24 190.741L219.02 190.618C212.584 189.947 206.31 188.628 200.211 186.657L198.993 186.254C198.877 186.215 198.761 186.174 198.647 186.13C191.891 183.563 185.796 179.72 180.384 174.706L179.862 174.217L179.784 174.143C173.745 168.289 169.257 160.644 166.017 151.718C161.719 139.881 160.676 128.114 163.411 116.697L163.674 115.642C166.492 104.786 172.351 95.2903 180.887 87.2232L180.887 87.2241C189.573 78.8152 200.619 72.3515 213.67 67.6133ZM233.033 122.34C231.029 123.067 229.574 123.799 228.528 124.46C230.685 124.937 233.505 125.26 237.102 125.313C242.063 125.328 247.43 125.283 253.202 125.18C256.183 125.102 259.175 125.118 262.178 125.224C261.946 125.14 261.714 125.05 261.486 124.947C255.983 122.478 251.19 121.153 247.049 120.718L246.23 120.642C246.148 120.636 246.065 120.628 245.983 120.62C241.797 120.186 237.516 120.712 233.033 122.34Z" fill="#162456" stroke="#162456" stroke-width="20" stroke-linejoin="round"/>
<path d="M1018.28 264.809C1018.34 266.989 1017.69 269.13 1016.42 270.905L942.914 373.841L1008.75 371.963L1009.12 371.959C1012.95 371.991 1016.45 374.215 1018.09 377.702L1036.05 415.887C1038.23 420.528 1036.54 426.039 1032.21 428.68L1031.78 428.927L1015.17 437.973C1013.78 438.725 1012.24 439.141 1010.67 439.186L849.509 443.783C843.988 443.941 839.385 439.593 839.228 434.072L838.093 394.283C838.031 392.107 838.68 389.971 839.942 388.198L913.225 285.257L849.622 287.072C844.102 287.229 839.499 282.881 839.341 277.361L837.994 230.129C837.887 226.363 839.905 222.856 843.215 221.058L859.225 212.357L859.518 212.204C860.996 211.464 862.636 211.1 864.291 211.148L1007.44 215.308L1007.93 215.335C1013 215.73 1017 219.887 1017.14 225.019L1018.28 264.809Z" fill="#193CB8" stroke="#162456" stroke-width="20" stroke-linejoin="round"/>
<path d="M647.258 254.761L647.653 254.757C649.627 254.779 651.554 255.385 653.188 256.503L667.645 266.389L668.044 266.677C668.959 267.371 669.748 268.218 670.377 269.182L717.547 341.518L772.512 255.565L772.683 255.306C774.486 252.669 777.446 251.047 780.652 250.956L822.158 249.772L822.576 249.769C824.665 249.797 826.696 250.478 828.383 251.722L842.439 262.098L842.686 262.286C845.207 264.271 846.628 267.351 846.491 270.569L838.248 464.006C838.063 468.351 835.091 472.077 830.896 473.225L788.639 484.789C785.794 485.568 782.751 485.05 780.322 483.375L765.901 473.429C763.278 471.619 761.674 468.667 761.583 465.481L759.497 392.342L722.03 435.224C718.712 439.021 713.085 439.754 708.905 436.932L694.766 427.387C693.935 426.826 693.194 426.143 692.567 425.362L692.305 425.022L676.697 403.795L678.524 467.85C678.656 472.491 675.577 476.612 671.09 477.802L629.562 488.81C626.903 489.515 624.07 489.092 621.731 487.643L606.581 478.253C603.726 476.482 601.95 473.396 601.854 470.037L596.04 266.226L596.038 265.711C596.156 260.422 600.403 256.097 605.751 255.945L647.258 254.761Z" fill="#193CB8" stroke="#162456" stroke-width="20" stroke-linejoin="round"/>
<path d="M519.297 220.672C534.639 220.234 548.657 222.64 561.1 228.208L562.251 228.732C574.062 234.23 583.729 242.075 590.977 252.304L591.682 253.319C598.85 263.861 602.504 276.073 602.889 289.6C603.288 303.576 600.024 316.344 592.836 327.521L592.837 327.522C586.13 338.232 576.679 346.623 564.841 352.772L563.688 353.36C553.75 358.337 542.545 361.366 530.223 362.631L615.265 413.565C618.281 415.371 620.127 418.628 620.127 422.144L620.127 432.063C620.127 437.474 615.822 441.904 610.412 442.058L545.433 443.912C542.02 444.009 538.793 442.359 536.875 439.534L501.095 386.842L502.473 435.133C502.63 440.654 498.282 445.257 492.762 445.414L435.512 447.047C429.991 447.205 425.388 442.857 425.231 437.336L419.417 233.525L419.415 233.01C419.532 227.721 423.78 223.396 429.128 223.244L519.297 220.672ZM498.742 304.339L512.506 303.946C518.829 303.766 521.816 302.139 523.274 300.669L523.44 300.506L523.773 300.171C525.395 298.46 526.346 296.232 526.244 292.646C526.142 289.059 525.065 286.888 523.348 285.272L522.996 284.957L522.822 284.803C521.282 283.419 518.207 281.965 511.884 282.145L498.12 282.538L498.742 304.339Z" fill="#193CB8" stroke="#162456" stroke-width="20" stroke-linejoin="round"/>
<path d="M301.6 237.175C317.596 236.719 332.581 238.958 346.441 244.035C360.347 248.884 372.614 256.065 383.123 265.608L384.103 266.51C394.116 275.841 401.97 286.891 407.646 299.575L408.211 300.806C413.96 313.563 416.989 327.477 417.416 342.422C417.851 357.667 415.459 372.108 410.15 385.639L410.151 385.64C405.201 398.504 397.985 409.987 388.546 420.029L387.626 420.996L387.557 421.066C377.951 430.845 366.661 438.609 353.777 444.367L352.525 444.918L352.411 444.967C338.879 450.635 324.146 453.635 308.321 454.086C292.79 454.529 278.147 452.433 264.49 447.686L263.171 447.218L263.126 447.202C249.855 442.328 237.987 435.375 227.596 426.338L226.595 425.457C226.572 425.436 226.548 425.415 226.524 425.394C216.353 416.158 208.269 405.202 202.285 392.61L201.712 391.386C195.621 378.162 192.401 363.857 191.966 348.587C191.527 333.206 193.814 318.761 198.964 305.377L199.01 305.259L199.513 304.022C204.781 291.279 212.228 279.985 221.832 270.209L222.769 269.267C232.51 259.598 243.947 252.037 256.985 246.576L256.985 246.577C270.687 240.727 285.595 237.631 301.6 237.175ZM303.506 304.005C295.292 304.239 288.705 306.123 283.395 309.303L282.886 309.615C282.834 309.647 282.782 309.68 282.729 309.711C277.538 312.821 273.536 317.182 270.674 323.081L270.4 323.656C270.387 323.684 270.374 323.712 270.36 323.74C267.49 329.768 265.985 337.238 266.248 346.468C266.449 353.524 267.558 359.555 269.416 364.681C271.438 369.774 274.14 373.961 277.467 377.383C280.796 380.638 284.711 383.177 289.311 385C294.056 386.636 299.538 387.452 305.882 387.271C314.362 387.029 321.107 385.029 326.503 381.66C331.951 378.259 336.086 373.579 338.98 367.353L339.25 366.762C341.981 360.62 343.381 353.209 343.126 344.276C342.943 337.876 341.901 332.403 340.151 327.735L339.792 326.813C339.749 326.708 339.709 326.603 339.67 326.497C337.935 321.746 335.555 317.917 332.604 314.838L332.006 314.233L331.867 314.094C328.791 310.947 325.158 308.56 320.854 306.922L319.984 306.604C319.871 306.564 319.758 306.523 319.646 306.479C315.166 304.728 309.844 303.824 303.506 304.005Z" fill="#193CB8" stroke="#162456" stroke-width="20" stroke-linejoin="round"/>
<path d="M193.207 299.819C193.364 305.34 189.017 309.942 183.496 310.1L99.8866 312.485L100.865 346.783L164.085 315.672L164.453 315.499C168.286 313.801 172.793 314.675 175.715 317.721L187.169 329.657L187.483 329.999C189.008 331.744 189.883 333.97 189.95 336.296L191.305 383.814C191.462 389.334 187.115 393.937 181.594 394.095L102.279 396.357L104.06 458.783C104.217 464.304 99.8693 468.907 94.3487 469.064L37.0986 470.697C34.0887 470.783 31.2059 469.508 29.2448 467.237L29.0576 467.014L19.2441 454.956C17.7472 453.117 16.9521 450.805 17.0015 448.435L21.0017 256.68L21.0247 256.184C21.3812 251.086 25.5525 247.041 30.7149 246.893L87.965 245.26L88.4798 245.258C93.7692 245.375 98.0935 249.623 98.2461 254.971L98.4919 263.59L167.335 232.053L167.709 231.89C171.592 230.298 176.078 231.3 178.914 234.433L189.27 245.876L189.561 246.213C190.979 247.927 191.788 250.069 191.852 252.301L193.207 299.819Z" fill="#193CB8" stroke="#162456" stroke-width="20" stroke-linejoin="round"/>
<path d="M1022.86 206.308L1023.38 206.306C1028.67 206.424 1032.99 210.671 1033.14 216.019L1034.28 255.809C1034.28 255.85 1034.28 255.892 1034.28 255.934C1034.28 256.005 1034.28 256.076 1034.28 256.148C1034.28 256.209 1034.28 256.271 1034.28 256.332C1034.28 256.404 1034.27 256.475 1034.27 256.546C1034.27 256.601 1034.26 256.656 1034.26 256.711C1034.26 256.814 1034.25 256.917 1034.24 257.019C1034.23 257.1 1034.22 257.18 1034.21 257.259C1034.2 257.324 1034.2 257.388 1034.19 257.453C1034.18 257.531 1034.16 257.609 1034.15 257.687C1034.14 257.73 1034.14 257.772 1034.13 257.815C1034.12 257.892 1034.1 257.969 1034.09 258.046C1034.08 258.097 1034.07 258.148 1034.06 258.2C1034.04 258.271 1034.02 258.342 1034.01 258.412C1034 258.455 1033.99 258.498 1033.98 258.541C1033.94 258.694 1033.9 258.845 1033.85 258.995C1033.84 259.035 1033.83 259.075 1033.81 259.115C1033.8 259.173 1033.78 259.23 1033.76 259.287C1033.73 259.354 1033.71 259.421 1033.69 259.487C1033.67 259.536 1033.65 259.585 1033.63 259.633C1033.6 259.707 1033.58 259.78 1033.55 259.853C1033.53 259.903 1033.51 259.952 1033.48 260.002C1033.46 260.069 1033.43 260.135 1033.4 260.202C1033.37 260.254 1033.35 260.306 1033.33 260.357C1033.22 260.586 1033.1 260.812 1032.97 261.034C1032.96 261.065 1032.94 261.096 1032.92 261.128C1032.88 261.203 1032.83 261.277 1032.79 261.351C1032.75 261.407 1032.72 261.462 1032.68 261.518C1032.65 261.567 1032.62 261.616 1032.58 261.665C1032.55 261.718 1032.51 261.77 1032.48 261.822C1032.46 261.849 1032.44 261.878 1032.42 261.905L958.913 364.84L1024.75 362.962C1030.27 362.804 1034.87 367.152 1035.03 372.673L1036.38 419.904C1036.54 425.425 1032.19 430.028 1026.67 430.185L865.508 434.782C859.988 434.94 855.385 430.592 855.227 425.071L854.092 385.283C854.092 385.259 854.093 385.234 854.092 385.21C854.09 385.12 854.09 385.029 854.09 384.939C854.091 384.887 854.091 384.835 854.092 384.783C854.094 384.687 854.097 384.592 854.102 384.496C854.104 384.462 854.106 384.428 854.108 384.394C854.116 384.267 854.124 384.141 854.136 384.016C854.142 383.957 854.15 383.899 854.157 383.841C854.164 383.775 854.172 383.71 854.181 383.644C854.191 383.574 854.201 383.504 854.212 383.434C854.221 383.381 854.23 383.328 854.239 383.275C854.252 383.201 854.266 383.127 854.281 383.053C854.291 383 854.303 382.946 854.314 382.893C854.329 382.825 854.343 382.757 854.359 382.689C854.372 382.633 854.387 382.578 854.401 382.522C854.467 382.267 854.541 382.015 854.626 381.767C854.642 381.721 854.657 381.674 854.674 381.627C854.697 381.564 854.721 381.501 854.745 381.438C854.765 381.384 854.786 381.33 854.807 381.277C854.833 381.214 854.858 381.152 854.884 381.09C854.911 381.025 854.94 380.962 854.969 380.898C854.99 380.85 855.011 380.801 855.034 380.753C855.195 380.41 855.376 380.074 855.578 379.747C855.606 379.701 855.637 379.655 855.666 379.609C855.706 379.547 855.745 379.486 855.786 379.425C855.82 379.374 855.855 379.325 855.889 379.275C855.907 379.25 855.924 379.224 855.942 379.198L929.224 276.258L865.622 278.072C860.102 278.229 855.499 273.882 855.341 268.361L853.994 221.129L853.992 220.614C854.109 215.325 858.357 211.001 863.705 210.848L1022.86 206.308Z" fill="white" stroke="#162456" stroke-width="20" stroke-linejoin="round"/>
<path d="M661.258 264.761L661.567 264.757C664.755 264.764 667.757 266.294 669.636 268.884L730.634 352.944L786.512 265.565L786.683 265.306C788.486 262.669 791.446 261.047 794.652 260.956L836.158 259.772L836.673 259.77C841.962 259.887 846.287 264.135 846.439 269.483L852.253 473.294C852.41 478.815 848.062 483.418 842.542 483.575L785.864 485.192C780.343 485.35 775.74 481.002 775.583 475.481L773.76 411.577L759.364 433.536C757.572 436.271 754.555 437.956 751.287 438.049L714.646 439.095C711.366 439.188 708.249 437.666 706.305 435.022L690.697 413.795L692.524 477.85C692.681 483.371 688.333 487.974 682.813 488.132L626.135 489.748C620.614 489.906 616.011 485.558 615.854 480.037L610.04 276.226L610.038 275.711C610.155 270.422 614.403 266.097 619.751 265.945L661.258 264.761Z" fill="white" stroke="#162456" stroke-width="20" stroke-linejoin="round"/>
<path d="M519.297 220.672C534.639 220.234 548.657 222.64 561.1 228.208L562.251 228.732C574.062 234.23 583.729 242.075 590.977 252.304L591.682 253.319C598.85 263.861 602.504 276.073 602.889 289.6C603.288 303.576 600.024 316.344 592.836 327.521L592.837 327.522C585.94 338.535 576.141 347.096 563.829 353.288L618.142 426.083C620.374 429.074 620.754 433.059 619.129 436.418C617.504 439.777 614.143 441.952 610.412 442.058L545.433 443.912C542.02 444.009 538.793 442.359 536.875 439.534L501.095 386.842L502.473 435.133C502.63 440.654 498.282 445.257 492.762 445.414L435.512 447.047C429.991 447.205 425.388 442.857 425.231 437.336L419.417 233.525L419.415 233.01C419.532 227.721 423.78 223.396 429.128 223.244L519.297 220.672ZM498.742 304.339L512.506 303.946C518.829 303.766 521.816 302.139 523.274 300.669L523.44 300.506L523.773 300.171C525.395 298.46 526.346 296.232 526.244 292.646C526.142 289.059 525.065 286.888 523.348 285.272L522.996 284.957L522.822 284.803C521.282 283.419 518.207 281.965 511.884 282.145L498.12 282.538L498.742 304.339Z" fill="white" stroke="#162456" stroke-width="20" stroke-linejoin="round"/>
<path d="M287.6 238.175C303.596 237.719 318.581 239.958 332.441 245.035C346.347 249.884 358.614 257.065 369.123 266.608L370.103 267.51C380.116 276.841 387.97 287.891 393.646 300.575L394.211 301.806C399.96 314.563 402.989 328.477 403.416 343.422C403.851 358.667 401.459 373.108 396.15 386.639L396.151 386.64C391.201 399.504 383.985 410.987 374.546 421.029L373.626 421.996L373.557 422.066C363.951 431.845 352.661 439.609 339.777 445.367L338.525 445.918L338.411 445.967C324.879 451.635 310.146 454.635 294.321 455.086C278.79 455.529 264.147 453.433 250.49 448.686L249.171 448.218L249.126 448.202C235.855 443.328 223.987 436.375 213.596 427.338L212.595 426.457C212.572 426.436 212.548 426.415 212.524 426.394C202.353 417.158 194.269 406.202 188.285 393.61L187.712 392.386C181.621 379.162 178.401 364.857 177.966 349.587C177.527 334.206 179.814 319.761 184.964 306.377L185.01 306.259L185.513 305.022C190.781 292.279 198.228 280.985 207.832 271.209L208.769 270.266C218.51 260.598 229.947 253.037 242.985 247.576L242.985 247.577C256.687 241.727 271.595 238.631 287.6 238.175ZM289.506 305.005C281.292 305.239 274.705 307.123 269.395 310.303L268.886 310.615C268.834 310.647 268.782 310.68 268.729 310.711C263.538 313.821 259.536 318.182 256.674 324.081L256.4 324.656C256.387 324.684 256.374 324.712 256.36 324.74C253.49 330.768 251.985 338.238 252.248 347.468C252.449 354.524 253.558 360.555 255.416 365.681C257.438 370.774 260.14 374.961 263.467 378.383C266.796 381.638 270.711 384.177 275.311 386C280.056 387.636 285.538 388.452 291.882 388.271C300.362 388.029 307.107 386.029 312.503 382.66C317.951 379.259 322.086 374.579 324.98 368.353L325.25 367.762C327.981 361.62 329.381 354.209 329.126 345.276C328.943 338.876 327.901 333.403 326.151 328.735L325.792 327.813C325.749 327.708 325.709 327.603 325.67 327.497C323.935 322.746 321.555 318.917 318.604 315.838L318.006 315.233L317.867 315.094C314.791 311.947 311.158 309.56 306.854 307.922L305.984 307.604C305.871 307.564 305.758 307.523 305.646 307.479C301.166 305.728 295.844 304.824 289.506 305.005Z" fill="white" stroke="#162456" stroke-width="20" stroke-linejoin="round"/>
<path d="M171.57 230.59L172.085 230.588C177.374 230.705 181.699 234.953 181.851 240.301L183.207 287.819C183.364 293.339 179.016 297.942 173.496 298.1L89.8865 300.485L90.3532 316.847L169.669 314.585C175.189 314.427 179.792 318.775 179.95 324.296L181.305 371.813C181.462 377.334 177.115 381.937 171.594 382.094L92.2788 384.357L94.0594 446.783C94.2169 452.303 89.8692 456.906 84.3486 457.064L27.0984 458.697C21.5778 458.854 16.9748 454.506 16.8174 448.986L11.0039 245.174L11.002 244.659C11.1191 239.37 15.3667 235.046 20.7148 234.893L171.57 230.59Z" fill="white" stroke="#162456" stroke-width="20" stroke-linejoin="round"/>
<path d="M756.76 187.98L715.24 61.1437L731.5 61.1437L799.054 175.515L758.972 167.232L824.801 86.8895L841 86.1437L791.482 195.156L756.76 187.98ZM739.789 244.885L754.86 169.588L802 250.644L786.396 254.516L739.789 244.885Z" fill="#1447E6"/>
<path d="M600.835 209.622L629.883 64.4966L645 57.1437L640.955 217.913L600.835 209.622ZM633.533 216.379L640.468 181.728L715 219.644L700.333 230.183L633.533 216.379Z" fill="#1447E6"/>
<path d="M536.729 213.977V41.9364H584.291V213.977H536.729Z" fill="#1447E6"/>
<path d="M349.453 212.023L337 59.866L367.987 57.33L431.405 135.612L417.941 136.714L467.573 49.1797L498.56 46.6437L511.013 198.801L468.7 202.264L461.983 120.201L468.321 121.404L440.972 168.39L413.618 170.629L379.206 128.697L385.05 126.498L391.766 208.56L349.453 212.023Z" fill="#1447E6"/>
<path d="M280.989 255.002C267.428 260.004 254.878 262.406 243.338 262.207C231.892 261.802 220.354 258.776 208.722 253.127L198 245.644C198 245.644 241.984 219.949 249.474 220.613C256.91 221.126 264.278 220.036 271.58 217.342C277.69 215.088 281.985 212.476 284.465 209.504C286.891 206.381 287.509 203.154 286.319 199.823C285.129 196.492 282.814 194.261 279.374 193.131C275.88 191.849 271.6 191.2 266.535 191.184C261.564 190.961 256.071 190.931 250.057 191.093C244.193 191.2 238.192 190.928 232.057 190.278C225.922 189.628 219.969 188.311 214.2 186.326C208.526 184.135 203.374 180.809 198.744 176.347C194.06 171.734 190.284 165.415 187.416 157.39C183.683 146.942 182.923 137.026 185.136 127.641C187.348 118.256 192.222 109.946 199.756 102.711C207.236 95.3243 217.012 89.4046 229.083 84.9518C241.004 80.5539 252.735 78.4543 264.275 78.653C275.91 78.6452 280.989 78.653 295.6 85.6055L276 127.851C269.351 124.82 263.729 121.914 258 121.457C252.217 120.848 247.432 119.313 241.62 121.457C237.001 123.161 233.546 125.292 231.255 127.851C229.114 130.355 228.584 133.121 229.666 136.149C230.803 139.329 233.09 141.484 236.53 142.614C239.916 143.593 244.067 144.118 248.984 144.189C254.05 144.206 259.515 144.16 265.38 144.053C271.394 143.891 277.468 144.135 283.604 144.785C289.685 145.284 287.59 142.705 293.318 145.047C299.141 147.183 312.422 154.634 317.16 159.398C321.899 164.162 325.729 170.633 328.65 178.809C334.547 195.313 333.307 210.252 324.93 223.625C316.648 236.791 302 247.25 280.989 255.002Z" fill="#1447E6"/>
<path d="M756.76 184.98L715.741 61.1437L732 61.1437L799.054 172.515L758.972 164.232L824.801 83.8895L841 83.1437L791.482 192.156L756.76 184.98ZM739.789 241.885L754.86 166.588L802 247.644L786.396 251.516L739.789 241.885Z" fill="#193CB8"/>
<path d="M600.835 206.622L629.883 61.4966L645 54.1437L640.955 214.913L600.835 206.622ZM633.533 213.379L640.468 178.728L715 216.644L700.333 227.183L633.533 213.379Z" fill="#193CB8"/>
<path d="M536.729 210.977V38.9364H584.291V210.977H536.729Z" fill="#193CB8"/>
<path d="M349.453 209.023L337 56.866L367.987 54.33L431.405 132.612L417.941 133.714L467.573 46.1797L498.56 43.6437L511.013 195.801L468.7 199.264L461.983 117.201L468.321 118.404L440.972 165.39L413.618 167.629L379.206 125.697L385.05 123.498L391.766 205.56L349.453 209.023Z" fill="#193CB8"/>
<path d="M280.989 252.002C267.428 257.004 254.878 259.406 243.338 259.207C231.892 258.802 220.354 255.776 208.722 250.127L198 242.644C198 242.644 241.984 216.949 249.474 217.613C256.91 218.126 264.278 217.036 271.58 214.342C277.69 212.088 281.985 209.476 284.465 206.504C286.891 203.381 287.509 200.154 286.319 196.823C285.129 193.492 282.814 191.261 279.374 190.131C275.88 188.849 271.6 188.2 266.535 188.184C261.564 187.961 256.071 187.931 250.057 188.093C244.193 188.2 238.192 187.928 232.057 187.278C225.922 186.628 219.969 185.311 214.2 183.326C208.526 181.135 203.374 177.809 198.744 173.347C194.06 168.734 190.284 162.415 187.416 154.39C183.683 143.942 182.923 134.026 185.136 124.641C187.348 115.256 192.222 106.946 199.756 99.711C207.236 92.3243 217.012 86.4046 229.083 81.9518C241.004 77.5539 252.735 75.4543 264.275 75.653C275.91 75.6452 280.989 75.653 295.6 82.6055L276 124.851C269.351 121.82 263.729 118.914 258 118.457C252.217 117.848 247.432 116.313 241.62 118.457C237.001 120.161 233.546 122.292 231.255 124.851C229.114 127.355 228.584 130.121 229.666 133.149C230.803 136.329 233.09 138.484 236.53 139.614C239.916 140.593 244.067 141.118 248.984 141.189C254.05 141.206 259.515 141.16 265.38 141.053C271.394 140.891 277.468 141.135 283.604 141.785C289.685 142.284 287.59 139.705 293.318 142.047C299.141 144.183 312.422 151.634 317.16 156.398C321.899 161.162 325.729 167.633 328.65 175.809C334.547 192.313 333.307 207.252 324.93 220.625C316.648 233.791 302 244.25 280.989 252.002Z" fill="#193CB8"/>
<path d="M772.76 182.537L731.741 60.8663L785.339 71.7669L815.054 170.269L774.972 162.117L840.801 83.0466L893.234 93.7102L807.482 189.599L772.76 182.537ZM755.789 238.541L770.86 164.436L817.467 173.915L802.396 248.02L755.789 238.541Z" fill="white"/>
<path d="M615.708 196.64L644.756 53.8117L684.876 61.9712L655.828 204.799L615.708 196.64ZM648.406 203.29L655.342 169.187L722.142 182.773L715.206 216.875L648.406 203.29Z" fill="white"/>
<path d="M536.729 200.249V30.9318H584.291V200.249H536.729Z" fill="white"/>
<path d="M348.607 196.023L336.154 43.8661L367.141 41.33L430.559 119.612L417.096 120.714L466.727 33.1797L497.714 30.6437L510.167 182.801L467.854 186.264L461.138 104.201L467.475 105.404L440.126 152.39L412.772 154.629L378.361 112.697L384.204 110.498L390.921 192.56L348.607 196.023Z" fill="white"/>
<path d="M268.989 244.371C255.428 249.294 242.877 251.658 231.337 251.463C219.892 251.064 208.354 248.085 196.722 242.526L214.519 204.44C222.332 207.844 229.984 209.873 237.474 210.527C244.91 211.032 252.278 209.959 259.58 207.308C265.69 205.09 269.985 202.518 272.465 199.594C274.891 196.52 275.509 193.344 274.319 190.066C273.129 186.788 270.814 184.592 267.374 183.48C263.88 182.218 259.6 181.58 254.535 181.563C249.564 181.344 244.071 181.314 238.057 181.474C232.193 181.579 226.192 181.312 220.057 180.672C213.921 180.033 207.969 178.736 202.2 176.783C196.526 174.626 191.374 171.352 186.744 166.962C182.06 162.422 178.284 156.203 175.416 148.305C171.683 138.022 170.923 128.263 173.136 119.027C175.348 109.79 180.221 101.612 187.756 94.491C195.236 87.2213 205.012 81.3953 217.082 77.0129C229.004 72.6847 240.735 70.6183 252.275 70.8138C263.91 70.8062 274.352 73.087 283.6 77.6563L265.58 115.823C258.931 112.84 252.742 111.123 247.013 110.673C241.229 110.074 235.432 110.83 229.62 112.94C225.001 114.617 221.546 116.715 219.255 119.233C217.114 121.697 216.584 124.419 217.666 127.4C218.802 130.529 221.09 132.65 224.53 133.762C227.916 134.726 232.067 135.243 236.984 135.313C242.05 135.329 247.515 135.284 253.38 135.179C259.394 135.019 265.468 135.26 271.604 135.899C277.685 136.39 283.59 137.788 289.318 140.094C295.141 142.196 300.422 145.592 305.16 150.281C309.899 154.969 313.729 161.337 316.65 169.385C322.547 185.628 321.307 200.33 312.93 213.491C304.648 226.449 290 236.742 268.989 244.371Z" fill="white"/>
<path d="M848.089 393.998L938.436 267.086L1008.28 265.094L917.648 392.014L848.089 393.998ZM849.223 433.787L848.089 393.998L879.078 385.665L1009.04 381.958L1027 420.144L1010.38 429.19L849.223 433.787ZM849.337 277.076L847.99 229.844L864 221.144L1007.15 225.304L1008.28 265.094L976.72 273.442L849.337 277.076Z" fill="#193CB8"/>
<path d="M611.85 469.753L606.036 265.941L647.543 264.757L662 274.644L726.568 373.659L708.534 374.173L780.937 260.952L822.444 259.768L836.5 270.144L828.257 463.58L786 475.144L771.579 465.197L768.444 355.276L776.81 357.329L714.5 428.644L700.362 419.098L657.443 360.734L665.393 358.215L668.528 468.136L627 479.144L611.85 469.753Z" fill="#193CB8"/>
<path d="M479.281 354.433L478.154 314.93L512.791 313.942C520.615 313.719 526.476 311.642 530.375 307.711C534.465 303.775 536.42 298.658 536.24 292.36C536.06 286.062 533.817 281.065 529.51 277.368C525.393 273.666 519.423 271.926 511.599 272.149L476.962 273.137L475.786 231.917L519.583 230.668C533.705 230.265 546.183 232.487 557.016 237.335C567.85 242.183 576.451 249.1 582.819 258.086C589.187 267.071 592.545 277.671 592.894 289.885C593.242 302.098 590.398 312.875 584.362 322.214C578.516 331.549 570.133 338.95 559.211 344.418C548.29 349.886 535.291 352.836 520.215 353.266L479.281 354.433ZM435.227 437.052L429.413 233.24L486.664 231.607L492.477 435.419L435.227 437.052ZM545.148 433.916L487.133 348.48L610.127 422.144L610.127 432.063L545.148 433.916Z" fill="#193CB8"/>
<path d="M308.035 444.09C293.132 444.515 279.311 442.423 266.573 437.815C254.012 433.201 242.903 426.593 233.247 417.991C223.769 409.383 216.284 399.12 210.795 387.202C205.306 375.285 202.361 362.318 201.962 348.302C201.557 334.108 203.669 320.997 208.297 308.969C213.103 296.935 219.993 286.351 228.966 277.217C237.938 268.083 248.566 260.943 260.849 255.799C273.304 250.472 286.983 247.596 301.886 247.171C316.789 246.746 330.521 248.84 343.082 253.453C355.815 257.884 366.921 264.404 376.4 273.011C385.879 281.619 393.274 291.884 398.586 303.807C404.07 315.547 407.015 328.514 407.42 342.708C407.819 356.724 405.619 369.837 400.818 382.049C396.189 394.077 389.391 404.747 380.423 414.059C371.451 423.193 360.825 430.421 348.548 435.743C336.265 440.888 322.761 443.67 308.035 444.09ZM306.167 397.267C316.103 396.983 324.647 394.609 331.799 390.143C338.952 385.678 344.369 379.486 348.049 371.568C351.73 363.651 353.421 354.458 353.122 343.99C352.899 336.184 351.546 329.209 349.063 323.065C346.752 316.738 343.404 311.418 339.019 307.104C334.629 302.613 329.386 299.3 323.288 297.166C317.362 294.849 310.673 293.797 303.222 294.009C293.286 294.293 284.742 296.667 277.59 301.133C270.432 305.421 265.013 311.524 261.332 319.441C257.647 327.182 255.953 336.286 256.252 346.753C256.479 354.737 257.749 361.892 260.06 368.219C262.549 374.54 265.988 379.946 270.377 384.438C274.762 388.752 279.917 392.067 285.843 394.384C291.941 396.518 298.716 397.479 306.167 397.267Z" fill="#193CB8"/>
<path d="M36.8135 460.701L26.9999 448.644L31.0001 256.889L88.2507 255.256L94.0641 459.068L36.8135 460.701ZM81.1208 386.956L81.1208 367.644L168.5 324.644L179.954 336.581L181.309 384.099L81.1208 386.956ZM78.7284 303.084L78.7284 283.644L171.5 241.144L181.855 252.586L183.211 300.104L78.7284 303.084Z" fill="#193CB8"/>
<path d="M864.088 384.998L954.436 258.086L1024.28 256.094L933.648 383.014L864.088 384.998ZM865.223 424.787L864.088 384.998L895.078 376.665L1025.04 372.958L1026.38 420.19L865.223 424.787ZM865.337 268.076L863.99 220.844L1023.15 216.304L1024.28 256.094L992.72 264.442L865.337 268.076Z" fill="white"/>
<path d="M625.85 479.753L620.036 275.941L661.543 274.757L740.568 383.659L722.534 384.173L794.937 270.952L836.444 269.768L842.257 473.58L785.579 475.197L782.444 365.276L790.81 367.329L751.002 428.053L714.362 429.098L671.443 370.734L679.393 368.215L682.528 478.136L625.85 479.753Z" fill="white"/>
<path d="M479.281 354.433L478.154 314.93L512.791 313.942C520.615 313.719 526.476 311.642 530.375 307.711C534.465 303.775 536.42 298.658 536.24 292.36C536.06 286.062 533.817 281.065 529.51 277.368C525.393 273.666 519.423 271.926 511.599 272.149L476.962 273.137L475.786 231.917L519.583 230.668C533.705 230.265 546.183 232.487 557.016 237.335C567.85 242.183 576.451 249.1 582.819 258.086C589.187 267.071 592.545 277.671 592.894 289.885C593.242 302.098 590.398 312.875 584.362 322.214C578.516 331.549 570.133 338.95 559.211 344.418C548.29 349.886 535.291 352.836 520.215 353.266L479.281 354.433ZM435.227 437.052L429.413 233.24L486.664 231.607L492.477 435.419L435.227 437.052ZM545.148 433.916L487.133 348.48L538.34 335.846L610.127 432.063L545.148 433.916Z" fill="white"/>
<path d="M294.035 445.09C279.132 445.515 265.311 443.423 252.573 438.815C240.012 434.201 228.903 427.593 219.247 418.991C209.769 410.383 202.284 400.12 196.795 388.202C191.306 376.285 188.361 363.318 187.962 349.302C187.557 335.108 189.669 321.997 194.297 309.969C199.103 297.935 205.993 287.351 214.966 278.217C223.938 269.083 234.566 261.943 246.849 256.799C259.304 251.472 272.983 248.596 287.886 248.171C302.789 247.746 316.521 249.84 329.082 254.453C341.815 258.884 352.921 265.404 362.4 274.011C371.879 282.619 379.274 292.884 384.586 304.807C390.07 316.547 393.015 329.514 393.42 343.708C393.819 357.724 391.619 370.837 386.818 383.049C382.189 395.077 375.391 405.747 366.423 415.059C357.451 424.193 346.825 431.421 334.548 436.743C322.265 441.888 308.761 444.67 294.035 445.09ZM292.167 398.267C302.103 397.983 310.647 395.609 317.799 391.143C324.952 386.678 330.369 380.486 334.049 372.568C337.73 364.651 339.421 355.458 339.122 344.99C338.899 337.184 337.546 330.209 335.063 324.065C332.752 317.738 329.404 312.418 325.019 308.104C320.629 303.613 315.386 300.3 309.288 298.166C303.362 295.849 296.673 294.797 289.222 295.009C279.286 295.293 270.742 297.667 263.59 302.133C256.432 306.421 251.013 312.524 247.332 320.441C243.647 328.182 241.953 337.286 242.252 347.753C242.479 355.737 243.749 362.892 246.06 369.219C248.549 375.54 251.988 380.946 256.377 385.438C260.762 389.752 265.917 393.067 271.843 395.384C277.941 397.518 284.716 398.479 292.167 398.267Z" fill="white"/>
<path d="M26.8134 448.701L21 244.889L78.2506 243.256L84.064 447.068L26.8134 448.701ZM71.1207 374.956L69.7653 327.438L169.954 324.581L171.309 372.099L71.1207 374.956ZM68.7284 291.084L67.373 243.566L171.855 240.586L173.211 288.104L68.7284 291.084Z" fill="white"/>
<circle cx="299.5" cy="347.144" r="65.5" fill="white"/>
<path d="M241.916 371.548C243.416 369.928 245.626 369.194 247.599 370.61C249.231 371.778 250.034 374.679 248.537 376.294C244.985 380.128 241.132 383.698 238.058 387.944C234.981 392.201 228.358 387.455 231.436 383.2C234.515 378.943 238.359 375.386 241.916 371.548ZM259.569 368.634C261.069 367.015 263.28 366.281 265.253 367.696C266.885 368.864 267.687 371.766 266.191 373.381C262.639 377.214 258.786 380.785 255.712 385.032C252.634 389.288 246.011 384.541 249.088 380.286C252.168 376.029 256.012 372.472 259.569 368.634Z" fill="#FB64B6"/>
<path d="M239.779 354.588C236.984 347.785 233.443 330.398 244.761 329.377C254.185 328.524 254.722 346.176 255.093 352.821C255.388 358.05 263.424 356.685 263.132 351.495C262.447 339.266 259.202 317.123 241.851 321.72C225.869 325.955 227.32 345.691 232.38 358.007C234.371 362.855 241.771 359.442 239.779 354.588Z" fill="#0F172B"/>
<path d="M337.324 355.801C338.824 354.182 341.035 353.448 343.008 354.863C344.64 356.031 345.443 358.933 343.946 360.548C340.394 364.382 336.541 367.952 333.467 372.199C330.389 376.455 323.766 371.708 326.844 367.453C329.924 363.197 333.767 359.639 337.324 355.801ZM354.978 352.888C356.478 351.268 358.688 350.534 360.661 351.95C362.293 353.118 363.096 356.019 361.599 357.635C358.047 361.468 354.194 365.038 351.12 369.285C348.042 373.541 341.419 368.795 344.497 364.54C347.577 360.283 351.421 356.726 354.978 352.888Z" fill="#FB64B6"/>
<path d="M344.791 337.257C345.252 329.917 343.017 312.314 331.972 314.983C322.773 317.204 327.937 334.092 329.721 340.505C331.122 345.551 323.073 346.84 321.682 341.832C318.402 330.031 314.359 308.02 332.267 306.798C348.763 305.673 353.73 324.828 352.896 338.117C352.568 343.348 344.464 342.493 344.791 337.257Z" fill="#0F172B"/>
<path d="M307.447 356.387C309.895 364.13 312.65 378.645 297.002 380.083C282.588 381.408 278.927 368.826 280.117 359.949C280.125 359.889 307.031 355.067 307.447 356.387Z" fill="#EC003F"/>
<path d="M287.15 360.239C286.493 365.142 287.826 376.785 297.545 374.623C305.637 372.823 301.726 361.758 300.396 357.551C299.351 354.24 306.409 353.1 307.447 356.387C309.894 364.13 312.65 378.645 297.002 380.083C282.588 381.408 278.927 368.826 280.117 359.949C280.585 356.454 287.618 356.741 287.15 360.239Z" fill="#0F172B"/>
<line x1="269.407" y1="359.734" x2="317.953" y2="351.722" stroke="#0F172B" stroke-width="5.28571"/>
<line x1="293.208" y1="358.485" x2="294.664" y2="367.311" stroke="#0F172B" stroke-width="2.64286"/>
</svg>
