<svg width="361" height="272" viewBox="0 0 361 272" fill="none" xmlns="http://www.w3.org/2000/svg">
<path fill-rule="evenodd" clip-rule="evenodd" d="M47.8837 125.208L28.5608 125.324L55.3511 13.9158L75.3674 12.3739L47.8837 125.208Z" fill="#90A1B9"/>
<path d="M116.476 124.862L96.0759 124.977L99.156 104.354L85.9138 104.584L79.0632 125.054L58.7009 125.17L100.657 10.4085L130.258 8.09503L116.476 124.862ZM91.3796 87.3909L101.465 87.0823L109.202 34.7337L91.3796 87.3909Z" fill="#90A1B9"/>
<path fill-rule="evenodd" clip-rule="evenodd" d="M210.438 1.88918L184.569 46.0658L180.682 4.20148L158.626 5.89866L128.141 124.822L149.541 124.707L166.941 58.2874L171.598 95.4868L196.464 56.9766L178.566 124.591L201.352 124.475L234.879 0L210.438 1.88918Z" fill="#90A1B9"/>
<path fill-rule="evenodd" clip-rule="evenodd" d="M0 247.757L17.014 249.069L27.6376 206.317L29.253 250.031L44.3037 251.188L71.6727 140.86L52.8871 140.783L42.4173 183.379L41.802 140.744L25.8282 140.667L0 247.757Z" fill="#314158"/>
<path d="M126.254 141.168L112.55 256.546L92.2275 254.966L95.3066 234.65L82.1426 233.802L75.3291 253.656L55.082 252.076L96.8086 141.014L126.254 141.168ZM87.6084 217.111L97.6162 217.651L105.314 166.032L87.6084 217.111Z" fill="#314158"/>
<path fill-rule="evenodd" clip-rule="evenodd" d="M196.348 165.339L171.135 164.297C168.788 164.259 167.748 164.915 167.018 167.844L150.351 231.836C149.35 235.498 150.505 237.04 153.507 237.233L177.949 238.775L169.981 261.018L141.496 258.82C131.874 258.089 123.906 251.381 127.833 236.424L149.811 152.386C152.121 143.636 156.585 141.361 163.707 141.399L205.509 141.631L196.348 165.339Z" fill="#314158"/>
<path fill-rule="evenodd" clip-rule="evenodd" d="M246.349 266.916L222.522 265.065L236.764 213.603L224.756 213.024L210.59 264.102L187.726 262.329L220.483 141.668L244.27 141.785L230.721 191.36L242.847 191.783L256.741 141.862L281.569 141.978L246.349 266.916Z" fill="#314158"/>
<path fill-rule="evenodd" clip-rule="evenodd" d="M317.675 166.341L294.541 246.062C294.041 247.989 294.887 249.261 296.928 249.416L303.625 249.839C305.705 249.993 307.244 248.836 307.783 246.909L331.07 166.765C331.609 164.798 330.877 163.335 328.415 163.296L321.716 163.179C319.061 163.141 318.213 164.567 317.675 166.341V166.341ZM349.701 142.324C358.245 142.364 362.633 149.725 360.44 157.628L330.339 259.593C327.145 270.193 318.56 272.584 309.822 271.889L279.337 269.538C270.831 268.882 264.402 261.943 267.366 251.343L294.887 154.621C296.775 147.22 302.587 142.094 311.054 142.132L349.701 142.324Z" fill="#314158"/>
</svg>
