<svg width="256" height="160" viewBox="0 0 256 160" fill="none" xmlns="http://www.w3.org/2000/svg">
<path d="M76 23.5C76 21.2909 77.7909 19.5 80 19.5H100C102.209 19.5 104 21.2909 104 23.5V43.5C104 45.7091 102.209 47.5 100 47.5H80C77.7909 47.5 76 45.7091 76 43.5V23.5Z" fill="#53EAFD"/>
<path d="M84.4 35.6C84.4 35.6 86.5 38.4 90 38.4C93.5 38.4 95.6 35.6 95.6 35.6M85.8 28.6H85.814M94.2 28.6H94.214" stroke="#62748E" stroke-width="2" stroke-linecap="round" stroke-linejoin="round"/>
<path d="M152 23.5C152 21.2909 153.791 19.5 156 19.5H176C178.209 19.5 180 21.2909 180 23.5V43.5C180 45.7091 178.209 47.5 176 47.5H156C153.791 47.5 152 45.7091 152 43.5V23.5Z" fill="#E2E8F0"/>
<path d="M162 27L158 31M158 27L162 31" stroke="#62748E" stroke-width="2" stroke-linecap="round" stroke-linejoin="round"/>
<path d="M160.4 38.4C160.4 38.4 162.5 35.6 166 35.6C169.5 35.6 171.6 38.4 171.6 38.4" stroke="#62748E" stroke-width="2" stroke-linecap="round" stroke-linejoin="round"/>
<path d="M174 27L170 31M170 27L174 31" stroke="#62748E" stroke-width="2" stroke-linecap="round" stroke-linejoin="round"/>
<path d="M88.7071 50.7929C88.3166 50.4024 87.6834 50.4024 87.2929 50.7929L80.9289 57.1569C80.5384 57.5474 80.5384 58.1805 80.9289 58.5711C81.3195 58.9616 81.9526 58.9616 82.3431 58.5711L88 52.9142L93.6569 58.5711C94.0474 58.9616 94.6805 58.9616 95.0711 58.5711C95.4616 58.1805 95.4616 57.5474 95.0711 57.1569L88.7071 50.7929ZM88 68.5L89 68.5L89 51.5L88 51.5L87 51.5L87 68.5L88 68.5Z" fill="#1D293D"/>
<path d="M168.707 50.7929C168.317 50.4024 167.683 50.4024 167.293 50.7929L160.929 57.1569C160.538 57.5474 160.538 58.1805 160.929 58.5711C161.319 58.9616 161.953 58.9616 162.343 58.5711L168 52.9142L173.657 58.5711C174.047 58.9616 174.681 58.9616 175.071 58.5711C175.462 58.1805 175.462 57.5474 175.071 57.1569L168.707 50.7929ZM168 68.5L169 68.5L169 51.5L168 51.5L167 51.5L167 68.5L168 68.5Z" fill="#1D293D"/>
<mask id="path-10-inside-1_1751_2280" fill="white">
<path d="M76 86.5C76 78.768 82.268 72.5 90 72.5V72.5C97.732 72.5 104 78.768 104 86.5V86.5C104 94.232 97.732 100.5 90 100.5V100.5C82.268 100.5 76 94.232 76 86.5V86.5Z"/>
</mask>
<path d="M90 101.5C90.5523 101.5 91 101.052 91 100.5C91 99.9477 90.5523 99.5 90 99.5V101.5ZM77 86.5C77 85.9477 76.5523 85.5 76 85.5C75.4477 85.5 75 85.9477 75 86.5H77ZM105 86.5C105 85.9477 104.552 85.5 104 85.5C103.448 85.5 103 85.9477 103 86.5H105ZM90 99.5C89.4477 99.5 89 99.9477 89 100.5C89 101.052 89.4477 101.5 90 101.5V99.5ZM90 71.5C89.4477 71.5 89 71.9477 89 72.5C89 73.0523 89.4477 73.5 90 73.5V71.5ZM103 86.5C103 87.0523 103.448 87.5 104 87.5C104.552 87.5 105 87.0523 105 86.5H103ZM90 73.5C90.5523 73.5 91 73.0523 91 72.5C91 71.9477 90.5523 71.5 90 71.5V73.5ZM75 86.5C75 87.0523 75.4477 87.5 76 87.5C76.5523 87.5 77 87.0523 77 86.5H75ZM87.4618 99.2525C86.92 99.1454 86.3939 99.4977 86.2867 100.039C86.1796 100.581 86.5319 101.107 87.0737 101.215L87.4618 99.2525ZM81.6651 98.9729C82.124 99.2801 82.7451 99.1572 83.0523 98.6982C83.3596 98.2393 83.2366 97.6182 82.7777 97.3109L81.6651 98.9729ZM79.1891 93.7223C78.8818 93.2634 78.2607 93.1404 77.8018 93.4477C77.3428 93.7549 77.2199 94.376 77.5271 94.8349L79.1891 93.7223ZM75.2855 89.4263C75.3927 89.9681 75.9188 90.3204 76.4605 90.2133C77.0023 90.1061 77.3546 89.58 77.2475 89.0382L75.2855 89.4263ZM77.2475 83.9618C77.3546 83.42 77.0023 82.8939 76.4605 82.7867C75.9188 82.6796 75.3927 83.0319 75.2855 83.5737L77.2475 83.9618ZM77.5271 78.1651C77.2199 78.624 77.3428 79.2451 77.8018 79.5523C78.2607 79.8596 78.8818 79.7366 79.1891 79.2777L77.5271 78.1651ZM82.7777 75.6891C83.2366 75.3818 83.3596 74.7607 83.0523 74.3018C82.7451 73.8428 82.124 73.7199 81.6651 74.0271L82.7777 75.6891ZM87.0737 71.7855C86.5319 71.8927 86.1796 72.4188 86.2867 72.9605C86.3939 73.5023 86.92 73.8546 87.4618 73.7475L87.0737 71.7855ZM92.5382 73.7475C93.08 73.8546 93.6061 73.5023 93.7133 72.9605C93.8204 72.4188 93.4681 71.8927 92.9263 71.7855L92.5382 73.7475ZM98.3349 74.0271C97.876 73.7199 97.2549 73.8428 96.9477 74.3018C96.6404 74.7607 96.7634 75.3818 97.2223 75.6891L98.3349 74.0271ZM100.811 79.2777C101.118 79.7366 101.739 79.8596 102.198 79.5523C102.657 79.2451 102.78 78.624 102.473 78.1651L100.811 79.2777ZM104.715 83.5737C104.607 83.0319 104.081 82.6796 103.539 82.7867C102.998 82.8939 102.645 83.42 102.753 83.9618L104.715 83.5737ZM102.753 89.0382C102.645 89.58 102.998 90.1061 103.539 90.2133C104.081 90.3204 104.607 89.9681 104.715 89.4263L102.753 89.0382ZM102.473 94.8349C102.78 94.376 102.657 93.7549 102.198 93.4477C101.739 93.1404 101.118 93.2634 100.811 93.7223L102.473 94.8349ZM97.2223 97.3109C96.7634 97.6182 96.6404 98.2393 96.9477 98.6982C97.2549 99.1572 97.876 99.2801 98.3349 98.9729L97.2223 97.3109ZM92.9263 101.215C93.4681 101.107 93.8204 100.581 93.7133 100.039C93.6061 99.4977 93.08 99.1454 92.5382 99.2525L92.9263 101.215ZM90 100.5V99.5C89.1305 99.5 88.2819 99.4148 87.4618 99.2525L87.2677 100.234L87.0737 101.215C88.0209 101.402 88.9995 101.5 90 101.5V100.5ZM82.2214 98.1419L82.7777 97.3109C81.3596 96.3616 80.1384 95.1404 79.1891 93.7223L78.3581 94.2786L77.5271 94.8349C78.6219 96.4703 80.0297 97.8781 81.6651 98.9729L82.2214 98.1419ZM76.2665 89.2323L77.2475 89.0382C77.0852 88.2181 77 87.3695 77 86.5H76H75C75 87.5005 75.0981 88.4791 75.2855 89.4263L76.2665 89.2323ZM76 86.5H77C77 85.6305 77.0852 84.7819 77.2475 83.9618L76.2665 83.7677L75.2855 83.5737C75.0981 84.5209 75 85.4995 75 86.5H76ZM78.3581 78.7214L79.1891 79.2777C80.1384 77.8596 81.3596 76.6384 82.7777 75.6891L82.2214 74.8581L81.6651 74.0271C80.0297 75.1219 78.6219 76.5297 77.5271 78.1651L78.3581 78.7214ZM87.2677 72.7665L87.4618 73.7475C88.2819 73.5852 89.1305 73.5 90 73.5V72.5V71.5C88.9995 71.5 88.0209 71.5981 87.0737 71.7855L87.2677 72.7665ZM90 72.5V73.5C90.8695 73.5 91.7181 73.5852 92.5382 73.7475L92.7323 72.7665L92.9263 71.7855C91.9791 71.5981 91.0005 71.5 90 71.5V72.5ZM97.7786 74.8581L97.2223 75.6891C98.6404 76.6384 99.8616 77.8596 100.811 79.2777L101.642 78.7214L102.473 78.1651C101.378 76.5297 99.9703 75.1219 98.3349 74.0271L97.7786 74.8581ZM103.734 83.7677L102.753 83.9618C102.915 84.7819 103 85.6305 103 86.5H104H105C105 85.4995 104.902 84.5209 104.715 83.5737L103.734 83.7677ZM104 86.5H103C103 87.3695 102.915 88.2181 102.753 89.0382L103.734 89.2323L104.715 89.4263C104.902 88.4791 105 87.5005 105 86.5H104ZM101.642 94.2786L100.811 93.7223C99.8616 95.1404 98.6404 96.3616 97.2223 97.3109L97.7786 98.1419L98.3349 98.9729C99.9703 97.8781 101.378 96.4703 102.473 94.8349L101.642 94.2786ZM92.7323 100.234L92.5382 99.2525C91.7181 99.4148 90.8695 99.5 90 99.5V100.5V101.5C91.0005 101.5 91.9791 101.402 92.9263 101.215L92.7323 100.234ZM90 102.5C91.1046 102.5 92 101.605 92 100.5C92 99.3954 91.1046 98.5 90 98.5V102.5ZM78 86.5C78 85.3954 77.1046 84.5 76 84.5C74.8954 84.5 74 85.3954 74 86.5H78ZM106 86.5C106 85.3954 105.105 84.5 104 84.5C102.895 84.5 102 85.3954 102 86.5H106ZM90 98.5C88.8954 98.5 88 99.3954 88 100.5C88 101.605 88.8954 102.5 90 102.5V98.5ZM90 70.5C88.8954 70.5 88 71.3954 88 72.5C88 73.6046 88.8954 74.5 90 74.5V70.5ZM102 86.5C102 87.6046 102.895 88.5 104 88.5C105.105 88.5 106 87.6046 106 86.5H102ZM90 74.5C91.1046 74.5 92 73.6046 92 72.5C92 71.3954 91.1046 70.5 90 70.5V74.5ZM74 86.5C74 87.6046 74.8954 88.5 76 88.5C77.1046 88.5 78 87.6046 78 86.5H74ZM87.6559 98.2715C86.5723 98.0572 85.5201 98.7618 85.3058 99.8454C85.0914 100.929 85.796 101.981 86.8796 102.195L87.6559 98.2715ZM81.1087 99.8039C82.0266 100.418 83.2688 100.172 83.8833 99.2546C84.4978 98.3367 84.2519 97.0945 83.334 96.48L81.1087 99.8039ZM80.02 93.166C79.4055 92.2481 78.1633 92.0022 77.2454 92.6167C76.3276 93.2312 76.0817 94.4734 76.6961 95.3913L80.02 93.166ZM74.3045 89.6204C74.5189 90.704 75.571 91.4086 76.6546 91.1942C77.7382 90.9799 78.4428 89.9277 78.2285 88.8441L74.3045 89.6204ZM78.2285 84.1559C78.4428 83.0723 77.7382 82.0201 76.6546 81.8058C75.571 81.5914 74.5189 82.296 74.3045 83.3796L78.2285 84.1559ZM76.6961 77.6087C76.0817 78.5266 76.3276 79.7688 77.2454 80.3833C78.1633 80.9978 79.4055 80.7519 80.02 79.834L76.6961 77.6087ZM83.334 76.52C84.2519 75.9055 84.4978 74.6633 83.8833 73.7454C83.2688 72.8276 82.0266 72.5817 81.1087 73.1961L83.334 76.52ZM86.8796 70.8045C85.796 71.0189 85.0914 72.071 85.3058 73.1546C85.5201 74.2382 86.5723 74.9428 87.6559 74.7285L86.8796 70.8045ZM92.3441 74.7285C93.4277 74.9428 94.4799 74.2382 94.6942 73.1546C94.9086 72.071 94.204 71.0189 93.1204 70.8045L92.3441 74.7285ZM98.8913 73.1961C97.9734 72.5817 96.7312 72.8276 96.1167 73.7454C95.5022 74.6633 95.7481 75.9055 96.666 76.52L98.8913 73.1961ZM99.98 79.834C100.594 80.7519 101.837 80.9978 102.755 80.3833C103.672 79.7688 103.918 78.5266 103.304 77.6087L99.98 79.834ZM105.695 83.3796C105.481 82.296 104.429 81.5914 103.345 81.8058C102.262 82.0201 101.557 83.0723 101.772 84.1559L105.695 83.3796ZM101.772 88.8441C101.557 89.9277 102.262 90.9799 103.345 91.1942C104.429 91.4086 105.481 90.704 105.695 89.6204L101.772 88.8441ZM103.304 95.3913C103.918 94.4734 103.672 93.2312 102.755 92.6167C101.837 92.0022 100.594 92.2481 99.98 93.166L103.304 95.3913ZM96.666 96.48C95.7481 97.0945 95.5022 98.3367 96.1167 99.2546C96.7312 100.172 97.9734 100.418 98.8913 99.8039L96.666 96.48ZM93.1204 102.195C94.204 101.981 94.9086 100.929 94.6942 99.8454C94.4799 98.7618 93.4277 98.0572 92.3441 98.2715L93.1204 102.195ZM90 100.5V98.5C89.196 98.5 88.4124 98.4212 87.6559 98.2715L87.2677 100.234L86.8796 102.195C87.8904 102.395 88.934 102.5 90 102.5V100.5ZM82.2214 98.1419L83.334 96.48C82.0245 95.6033 80.8967 94.4755 80.02 93.166L78.3581 94.2786L76.6961 95.3913C77.8637 97.1352 79.3648 98.6363 81.1087 99.8039L82.2214 98.1419ZM76.2665 89.2323L78.2285 88.8441C78.0788 88.0876 78 87.304 78 86.5H76H74C74 87.566 74.1045 88.6096 74.3045 89.6204L76.2665 89.2323ZM76 86.5H78C78 85.696 78.0788 84.9124 78.2285 84.1559L76.2665 83.7677L74.3045 83.3796C74.1045 84.3904 74 85.434 74 86.5H76ZM78.3581 78.7214L80.02 79.834C80.8967 78.5245 82.0245 77.3967 83.334 76.52L82.2214 74.8581L81.1087 73.1961C79.3648 74.3637 77.8637 75.8648 76.6961 77.6087L78.3581 78.7214ZM87.2677 72.7665L87.6559 74.7285C88.4124 74.5788 89.196 74.5 90 74.5V72.5V70.5C88.934 70.5 87.8904 70.6045 86.8796 70.8045L87.2677 72.7665ZM90 72.5V74.5C90.804 74.5 91.5876 74.5788 92.3441 74.7285L92.7323 72.7665L93.1204 70.8045C92.1096 70.6045 91.066 70.5 90 70.5V72.5ZM97.7786 74.8581L96.666 76.52C97.9755 77.3967 99.1033 78.5245 99.98 79.834L101.642 78.7214L103.304 77.6087C102.136 75.8648 100.635 74.3637 98.8913 73.1961L97.7786 74.8581ZM103.734 83.7677L101.772 84.1559C101.921 84.9124 102 85.696 102 86.5H104H106C106 85.434 105.895 84.3904 105.695 83.3796L103.734 83.7677ZM104 86.5H102C102 87.304 101.921 88.0876 101.772 88.8441L103.734 89.2323L105.695 89.6204C105.895 88.6096 106 87.566 106 86.5H104ZM101.642 94.2786L99.98 93.166C99.1033 94.4755 97.9755 95.6033 96.666 96.48L97.7786 98.1419L98.8913 99.8039C100.635 98.6363 102.136 97.1352 103.304 95.3913L101.642 94.2786ZM92.7323 100.234L92.3441 98.2715C91.5876 98.4212 90.804 98.5 90 98.5V100.5V102.5C91.066 102.5 92.1096 102.395 93.1204 102.195L92.7323 100.234Z" fill="#CAD5E2" mask="url(#path-10-inside-1_1751_2280)"/>
<path d="M88 91C88 91 87.5 88 90 88C92.5 88 92 91 92 91M85.5 85.5L84 83.5M96 83.5L94.5 85.5" stroke="#CAD5E2" stroke-width="2" stroke-linecap="round" stroke-linejoin="round"/>
<mask id="path-13-inside-2_1751_2280" fill="white">
<path d="M152 86.5C152 78.768 158.268 72.5 166 72.5V72.5C173.732 72.5 180 78.768 180 86.5V86.5C180 94.232 173.732 100.5 166 100.5V100.5C158.268 100.5 152 94.232 152 86.5V86.5Z"/>
</mask>
<path d="M152 86.5C152 78.768 158.268 72.5 166 72.5V72.5C173.732 72.5 180 78.768 180 86.5V86.5C180 94.232 173.732 100.5 166 100.5V100.5C158.268 100.5 152 94.232 152 86.5V86.5Z" fill="#CEFAFE"/>
<path d="M166 101.5C166.552 101.5 167 101.052 167 100.5C167 99.9477 166.552 99.5 166 99.5V101.5ZM153 86.5C153 85.9477 152.552 85.5 152 85.5C151.448 85.5 151 85.9477 151 86.5H153ZM181 86.5C181 85.9477 180.552 85.5 180 85.5C179.448 85.5 179 85.9477 179 86.5H181ZM166 99.5C165.448 99.5 165 99.9477 165 100.5C165 101.052 165.448 101.5 166 101.5V99.5ZM166 71.5C165.448 71.5 165 71.9477 165 72.5C165 73.0523 165.448 73.5 166 73.5V71.5ZM179 86.5C179 87.0523 179.448 87.5 180 87.5C180.552 87.5 181 87.0523 181 86.5H179ZM166 73.5C166.552 73.5 167 73.0523 167 72.5C167 71.9477 166.552 71.5 166 71.5V73.5ZM151 86.5C151 87.0523 151.448 87.5 152 87.5C152.552 87.5 153 87.0523 153 86.5H151ZM163.462 99.2525C162.92 99.1454 162.394 99.4977 162.287 100.039C162.18 100.581 162.532 101.107 163.074 101.215L163.462 99.2525ZM157.665 98.9729C158.124 99.2801 158.745 99.1572 159.052 98.6982C159.36 98.2393 159.237 97.6182 158.778 97.3109L157.665 98.9729ZM155.189 93.7223C154.882 93.2634 154.261 93.1404 153.802 93.4477C153.343 93.7549 153.22 94.376 153.527 94.8349L155.189 93.7223ZM151.285 89.4263C151.393 89.9681 151.919 90.3204 152.461 90.2133C153.002 90.1061 153.355 89.58 153.247 89.0382L151.285 89.4263ZM153.247 83.9618C153.355 83.42 153.002 82.8939 152.461 82.7867C151.919 82.6796 151.393 83.0319 151.285 83.5737L153.247 83.9618ZM153.527 78.1651C153.22 78.624 153.343 79.2451 153.802 79.5523C154.261 79.8596 154.882 79.7366 155.189 79.2777L153.527 78.1651ZM158.778 75.6891C159.237 75.3818 159.36 74.7607 159.052 74.3018C158.745 73.8428 158.124 73.7199 157.665 74.0271L158.778 75.6891ZM163.074 71.7855C162.532 71.8927 162.18 72.4188 162.287 72.9605C162.394 73.5023 162.92 73.8546 163.462 73.7475L163.074 71.7855ZM168.538 73.7475C169.08 73.8546 169.606 73.5023 169.713 72.9605C169.82 72.4188 169.468 71.8927 168.926 71.7855L168.538 73.7475ZM174.335 74.0271C173.876 73.7199 173.255 73.8428 172.948 74.3018C172.64 74.7607 172.763 75.3818 173.222 75.6891L174.335 74.0271ZM176.811 79.2777C177.118 79.7366 177.739 79.8596 178.198 79.5523C178.657 79.2451 178.78 78.624 178.473 78.1651L176.811 79.2777ZM180.715 83.5737C180.607 83.0319 180.081 82.6796 179.539 82.7867C178.998 82.8939 178.645 83.42 178.753 83.9618L180.715 83.5737ZM178.753 89.0382C178.645 89.58 178.998 90.1061 179.539 90.2133C180.081 90.3204 180.607 89.9681 180.715 89.4263L178.753 89.0382ZM178.473 94.8349C178.78 94.376 178.657 93.7549 178.198 93.4477C177.739 93.1404 177.118 93.2634 176.811 93.7223L178.473 94.8349ZM173.222 97.3109C172.763 97.6182 172.64 98.2393 172.948 98.6982C173.255 99.1572 173.876 99.2801 174.335 98.9729L173.222 97.3109ZM168.926 101.215C169.468 101.107 169.82 100.581 169.713 100.039C169.606 99.4977 169.08 99.1454 168.538 99.2525L168.926 101.215ZM166 100.5V99.5C165.131 99.5 164.282 99.4148 163.462 99.2525L163.268 100.234L163.074 101.215C164.021 101.402 164.999 101.5 166 101.5V100.5ZM158.221 98.1419L158.778 97.3109C157.36 96.3616 156.138 95.1404 155.189 93.7223L154.358 94.2786L153.527 94.8349C154.622 96.4703 156.03 97.8781 157.665 98.9729L158.221 98.1419ZM152.266 89.2323L153.247 89.0382C153.085 88.2181 153 87.3695 153 86.5H152H151C151 87.5005 151.098 88.4791 151.285 89.4263L152.266 89.2323ZM152 86.5H153C153 85.6305 153.085 84.7819 153.247 83.9618L152.266 83.7677L151.285 83.5737C151.098 84.5209 151 85.4995 151 86.5H152ZM154.358 78.7214L155.189 79.2777C156.138 77.8596 157.36 76.6384 158.778 75.6891L158.221 74.8581L157.665 74.0271C156.03 75.1219 154.622 76.5297 153.527 78.1651L154.358 78.7214ZM163.268 72.7665L163.462 73.7475C164.282 73.5852 165.131 73.5 166 73.5V72.5V71.5C165 71.5 164.021 71.5981 163.074 71.7855L163.268 72.7665ZM166 72.5V73.5C166.869 73.5 167.718 73.5852 168.538 73.7475L168.732 72.7665L168.926 71.7855C167.979 71.5981 167.001 71.5 166 71.5V72.5ZM173.779 74.8581L173.222 75.6891C174.64 76.6384 175.862 77.8596 176.811 79.2777L177.642 78.7214L178.473 78.1651C177.378 76.5297 175.97 75.1219 174.335 74.0271L173.779 74.8581ZM179.734 83.7677L178.753 83.9618C178.915 84.7819 179 85.6305 179 86.5H180H181C181 85.4995 180.902 84.5209 180.715 83.5737L179.734 83.7677ZM180 86.5H179C179 87.3695 178.915 88.2181 178.753 89.0382L179.734 89.2323L180.715 89.4263C180.902 88.4791 181 87.5005 181 86.5H180ZM177.642 94.2786L176.811 93.7223C175.862 95.1404 174.64 96.3616 173.222 97.3109L173.779 98.1419L174.335 98.9729C175.97 97.8781 177.378 96.4703 178.473 94.8349L177.642 94.2786ZM168.732 100.234L168.538 99.2525C167.718 99.4148 166.869 99.5 166 99.5V100.5V101.5C167 101.5 167.979 101.402 168.926 101.215L168.732 100.234ZM166 102.5C167.105 102.5 168 101.605 168 100.5C168 99.3954 167.105 98.5 166 98.5V102.5ZM154 86.5C154 85.3954 153.105 84.5 152 84.5C150.895 84.5 150 85.3954 150 86.5H154ZM182 86.5C182 85.3954 181.105 84.5 180 84.5C178.895 84.5 178 85.3954 178 86.5H182ZM166 98.5C164.895 98.5 164 99.3954 164 100.5C164 101.605 164.895 102.5 166 102.5V98.5ZM166 70.5C164.895 70.5 164 71.3954 164 72.5C164 73.6046 164.895 74.5 166 74.5V70.5ZM178 86.5C178 87.6046 178.895 88.5 180 88.5C181.105 88.5 182 87.6046 182 86.5H178ZM166 74.5C167.105 74.5 168 73.6046 168 72.5C168 71.3954 167.105 70.5 166 70.5V74.5ZM150 86.5C150 87.6046 150.895 88.5 152 88.5C153.105 88.5 154 87.6046 154 86.5H150ZM163.656 98.2715C162.572 98.0572 161.52 98.7618 161.306 99.8454C161.091 100.929 161.796 101.981 162.88 102.195L163.656 98.2715ZM157.109 99.8039C158.027 100.418 159.269 100.172 159.883 99.2546C160.498 98.3367 160.252 97.0945 159.334 96.48L157.109 99.8039ZM156.02 93.166C155.406 92.2481 154.163 92.0022 153.245 92.6167C152.328 93.2312 152.082 94.4734 152.696 95.3913L156.02 93.166ZM150.305 89.6204C150.519 90.704 151.571 91.4086 152.655 91.1942C153.738 90.9799 154.443 89.9277 154.228 88.8441L150.305 89.6204ZM154.228 84.1559C154.443 83.0723 153.738 82.0201 152.655 81.8058C151.571 81.5914 150.519 82.296 150.305 83.3796L154.228 84.1559ZM152.696 77.6087C152.082 78.5266 152.328 79.7688 153.245 80.3833C154.163 80.9978 155.406 80.7519 156.02 79.834L152.696 77.6087ZM159.334 76.52C160.252 75.9055 160.498 74.6633 159.883 73.7454C159.269 72.8276 158.027 72.5817 157.109 73.1961L159.334 76.52ZM162.88 70.8045C161.796 71.0189 161.091 72.071 161.306 73.1546C161.52 74.2382 162.572 74.9428 163.656 74.7285L162.88 70.8045ZM168.344 74.7285C169.428 74.9428 170.48 74.2382 170.694 73.1546C170.909 72.071 170.204 71.0189 169.12 70.8045L168.344 74.7285ZM174.891 73.1961C173.973 72.5817 172.731 72.8276 172.117 73.7454C171.502 74.6633 171.748 75.9055 172.666 76.52L174.891 73.1961ZM175.98 79.834C176.594 80.7519 177.837 80.9978 178.755 80.3833C179.672 79.7688 179.918 78.5266 179.304 77.6087L175.98 79.834ZM181.695 83.3796C181.481 82.296 180.429 81.5914 179.345 81.8058C178.262 82.0201 177.557 83.0723 177.772 84.1559L181.695 83.3796ZM177.772 88.8441C177.557 89.9277 178.262 90.9799 179.345 91.1942C180.429 91.4086 181.481 90.704 181.695 89.6204L177.772 88.8441ZM179.304 95.3913C179.918 94.4734 179.672 93.2312 178.755 92.6167C177.837 92.0022 176.594 92.2481 175.98 93.166L179.304 95.3913ZM172.666 96.48C171.748 97.0945 171.502 98.3367 172.117 99.2546C172.731 100.172 173.973 100.418 174.891 99.8039L172.666 96.48ZM169.12 102.195C170.204 101.981 170.909 100.929 170.694 99.8454C170.48 98.7618 169.428 98.0572 168.344 98.2715L169.12 102.195ZM166 100.5V98.5C165.196 98.5 164.412 98.4212 163.656 98.2715L163.268 100.234L162.88 102.195C163.89 102.395 164.934 102.5 166 102.5V100.5ZM158.221 98.1419L159.334 96.48C158.025 95.6033 156.897 94.4755 156.02 93.166L154.358 94.2786L152.696 95.3913C153.864 97.1352 155.365 98.6363 157.109 99.8039L158.221 98.1419ZM152.266 89.2323L154.228 88.8441C154.079 88.0876 154 87.304 154 86.5H152H150C150 87.566 150.105 88.6096 150.305 89.6204L152.266 89.2323ZM152 86.5H154C154 85.696 154.079 84.9124 154.228 84.1559L152.266 83.7677L150.305 83.3796C150.105 84.3904 150 85.434 150 86.5H152ZM154.358 78.7214L156.02 79.834C156.897 78.5245 158.025 77.3967 159.334 76.52L158.221 74.8581L157.109 73.1961C155.365 74.3637 153.864 75.8648 152.696 77.6087L154.358 78.7214ZM163.268 72.7665L163.656 74.7285C164.412 74.5788 165.196 74.5 166 74.5V72.5V70.5C164.934 70.5 163.89 70.6045 162.88 70.8045L163.268 72.7665ZM166 72.5V74.5C166.804 74.5 167.588 74.5788 168.344 74.7285L168.732 72.7665L169.12 70.8045C168.11 70.6045 167.066 70.5 166 70.5V72.5ZM173.779 74.8581L172.666 76.52C173.975 77.3967 175.103 78.5245 175.98 79.834L177.642 78.7214L179.304 77.6087C178.136 75.8648 176.635 74.3637 174.891 73.1961L173.779 74.8581ZM179.734 83.7677L177.772 84.1559C177.921 84.9124 178 85.696 178 86.5H180H182C182 85.434 181.895 84.3904 181.695 83.3796L179.734 83.7677ZM180 86.5H178C178 87.304 177.921 88.0876 177.772 88.8441L179.734 89.2323L181.695 89.6204C181.895 88.6096 182 87.566 182 86.5H180ZM177.642 94.2786L175.98 93.166C175.103 94.4755 173.975 95.6033 172.666 96.48L173.779 98.1419L174.891 99.8039C176.635 98.6363 178.136 97.1352 179.304 95.3913L177.642 94.2786ZM168.732 100.234L168.344 98.2715C167.588 98.4212 166.804 98.5 166 98.5V100.5V102.5C167.066 102.5 168.11 102.395 169.12 102.195L168.732 100.234Z" fill="#53EAFD" mask="url(#path-13-inside-2_1751_2280)"/>
<path d="M164 91C164 91 163.5 88 166 88C168.5 88 168 91 168 91M161.5 85.5L160 83.5M172 83.5L170.5 85.5" stroke="#53EAFD" stroke-width="2" stroke-linecap="round" stroke-linejoin="round"/>
<path d="M114 116.5C114 114.291 115.791 112.5 118 112.5H138C140.209 112.5 142 114.291 142 116.5V136.5C142 138.709 140.209 140.5 138 140.5H118C115.791 140.5 114 138.709 114 136.5V116.5Z" fill="#53EAFD"/>
<path d="M122.4 128.6C122.4 128.6 124.5 131.4 128 131.4C131.5 131.4 133.6 128.6 133.6 128.6M123.8 121.6H123.814M132.2 121.6H132.214" stroke="#62748E" stroke-width="2" stroke-linecap="round" stroke-linejoin="round"/>
<path d="M87 129.5L86 129.5C86 129.765 86.1054 130.02 86.2929 130.207C86.4804 130.395 86.7348 130.5 87 130.5L87 129.5ZM87.7071 105.793C87.3166 105.402 86.6834 105.402 86.2929 105.793L79.9289 112.157C79.5384 112.547 79.5384 113.181 79.9289 113.571C80.3195 113.962 80.9526 113.962 81.3431 113.571L87 107.914L92.6569 113.571C93.0474 113.962 93.6805 113.962 94.0711 113.571C94.4616 113.181 94.4616 112.547 94.0711 112.157L87.7071 105.793ZM87 129.5L88 129.5L88 106.5L87 106.5L86 106.5L86 129.5L87 129.5ZM87 129.5L87 130.5L103 130.5L103 129.5L103 128.5L87 128.5L87 129.5Z" fill="#1D293D"/>
<path d="M167 129.5L168 129.5C168 129.765 167.895 130.02 167.707 130.207C167.52 130.395 167.265 130.5 167 130.5L167 129.5ZM166.293 105.793C166.683 105.402 167.317 105.402 167.707 105.793L174.071 112.157C174.462 112.547 174.462 113.181 174.071 113.571C173.681 113.962 173.047 113.962 172.657 113.571L167 107.914L161.343 113.571C160.953 113.962 160.319 113.962 159.929 113.571C159.538 113.181 159.538 112.547 159.929 112.157L166.293 105.793ZM167 129.5L166 129.5L166 106.5L167 106.5L168 106.5L168 129.5L167 129.5ZM167 129.5L167 130.5L151 130.5L151 129.5L151 128.5L167 128.5L167 129.5Z" fill="#1D293D"/>
<g filter="url(#filter0_d_1751_2280)">
<path d="M68 77C68 72.5817 71.5817 69 76 69V69C80.4183 69 84 72.5817 84 77V77C84 81.4183 80.4183 85 76 85V85C71.5817 85 68 81.4183 68 77V77Z" fill="#EC003F"/>
<g clip-path="url(#clip0_1751_2280)">
<path d="M76 76V77.3333M76 78.6667H76.0033M79.2433 79L76.5766 74.3333C76.5185 74.2307 76.4342 74.1454 76.3323 74.086C76.2304 74.0266 76.1146 73.9954 75.9966 73.9954C75.8787 73.9954 75.7629 74.0266 75.661 74.086C75.5591 74.1454 75.4748 74.2307 75.4166 74.3333L72.75 79C72.6912 79.1018 72.6604 79.2173 72.6606 79.3348C72.6609 79.4524 72.6922 79.5677 72.7515 79.6693C72.8107 79.7708 72.8957 79.8549 72.9979 79.9129C73.1001 79.971 73.2158 80.0011 73.3333 80H78.6666C78.7836 79.9999 78.8985 79.969 78.9997 79.9104C79.101 79.8519 79.185 79.7677 79.2435 79.6664C79.3019 79.565 79.3327 79.4501 79.3326 79.3332C79.3326 79.2162 79.3018 79.1013 79.2433 79Z" stroke="white" stroke-linecap="round" stroke-linejoin="round"/>
</g>
</g>
<g filter="url(#filter1_d_1751_2280)">
<path d="M144 77C144 72.5817 147.582 69 152 69V69C156.418 69 160 72.5817 160 77V77C160 81.4183 156.418 85 152 85V85C147.582 85 144 81.4183 144 77V77Z" fill="#EC003F"/>
<g clip-path="url(#clip1_1751_2280)">
<path d="M152 76V77.3333M152 78.6667H152.003M155.243 79L152.577 74.3333C152.518 74.2307 152.434 74.1454 152.332 74.086C152.23 74.0266 152.115 73.9954 151.997 73.9954C151.879 73.9954 151.763 74.0266 151.661 74.086C151.559 74.1454 151.475 74.2307 151.417 74.3333L148.75 79C148.691 79.1018 148.66 79.2173 148.661 79.3348C148.661 79.4524 148.692 79.5677 148.751 79.6693C148.811 79.7708 148.896 79.8549 148.998 79.9129C149.1 79.971 149.216 80.0011 149.333 80H154.667C154.784 79.9999 154.898 79.969 155 79.9104C155.101 79.8519 155.185 79.7677 155.243 79.6664C155.302 79.565 155.333 79.4501 155.333 79.3332C155.333 79.2162 155.302 79.1013 155.243 79Z" stroke="white" stroke-linecap="round" stroke-linejoin="round"/>
</g>
</g>
<defs>
<filter id="filter0_d_1751_2280" x="66" y="68" width="20" height="20" filterUnits="userSpaceOnUse" color-interpolation-filters="sRGB">
<feFlood flood-opacity="0" result="BackgroundImageFix"/>
<feColorMatrix in="SourceAlpha" type="matrix" values="0 0 0 0 0 0 0 0 0 0 0 0 0 0 0 0 0 0 127 0" result="hardAlpha"/>
<feOffset dy="1"/>
<feGaussianBlur stdDeviation="1"/>
<feColorMatrix type="matrix" values="0 0 0 0 0 0 0 0 0 0 0 0 0 0 0 0 0 0 0.05 0"/>
<feBlend mode="normal" in2="BackgroundImageFix" result="effect1_dropShadow_1751_2280"/>
<feBlend mode="normal" in="SourceGraphic" in2="effect1_dropShadow_1751_2280" result="shape"/>
</filter>
<filter id="filter1_d_1751_2280" x="142" y="68" width="20" height="20" filterUnits="userSpaceOnUse" color-interpolation-filters="sRGB">
<feFlood flood-opacity="0" result="BackgroundImageFix"/>
<feColorMatrix in="SourceAlpha" type="matrix" values="0 0 0 0 0 0 0 0 0 0 0 0 0 0 0 0 0 0 127 0" result="hardAlpha"/>
<feOffset dy="1"/>
<feGaussianBlur stdDeviation="1"/>
<feColorMatrix type="matrix" values="0 0 0 0 0 0 0 0 0 0 0 0 0 0 0 0 0 0 0.05 0"/>
<feBlend mode="normal" in2="BackgroundImageFix" result="effect1_dropShadow_1751_2280"/>
<feBlend mode="normal" in="SourceGraphic" in2="effect1_dropShadow_1751_2280" result="shape"/>
</filter>
<clipPath id="clip0_1751_2280">
<rect width="8" height="8" fill="white" transform="translate(72 73)"/>
</clipPath>
<clipPath id="clip1_1751_2280">
<rect width="8" height="8" fill="white" transform="translate(148 73)"/>
</clipPath>
</defs>
</svg>
