<svg width="0" height="0" class="hidden">
  <symbol xmlns="http://www.w3.org/2000/svg" viewBox="0 0 24 24" id="copy">
    <path d="M4 16C2.9 16 2 15.1 2 14V4C2 2.9 2.9 2 4 2H14C15.1 2 16 2.9 16 4M10 8H20C21.1046 8 22 8.89543 22 10V20C22 21.1046 21.1046 22 20 22H10C8.89543 22 8 21.1046 8 20V10C8 8.89543 8.89543 8 10 8Z" />
  </symbol>

  <symbol xmlns="http://www.w3.org/2000/svg" viewBox="0 0 24 24" id="eye">
    <path d="M2.06202 12.348C1.97868 12.1235 1.97868 11.8765 2.06202 11.652C2.87372 9.68386 4.25153 8.00104 6.02079 6.8169C7.79004 5.63276 9.87106 5.00062 12 5.00062C14.129 5.00062 16.21 5.63276 17.9792 6.8169C19.7485 8.00104 21.1263 9.68386 21.938 11.652C22.0214 11.8765 22.0214 12.1235 21.938 12.348C21.1263 14.3161 19.7485 15.999 17.9792 17.1831C16.21 18.3672 14.129 18.9994 12 18.9994C9.87106 18.9994 7.79004 18.3672 6.02079 17.1831C4.25153 15.999 2.87372 14.3161 2.06202 12.348Z" />
    <path d="M12 15C13.6569 15 15 13.6569 15 12C15 10.3431 13.6569 9 12 9C10.3432 9 9.00002 10.3431 9.00002 12C9.00002 13.6569 10.3432 15 12 15Z" />
  </symbol>

  <symbol xmlns="http://www.w3.org/2000/svg" viewBox="0 0 24 24" id="eye-off">
    <path d="M10.733 5.076C13.0624 4.7984 15.4186 5.29082 17.4419 6.47805C19.4651 7.66528 21.0442 9.48208 21.938 11.651C22.0214 11.8755 22.0214 12.1225 21.938 12.347C21.5705 13.238 21.0848 14.0755 20.494 14.837M14.084 14.158C13.5182 14.7045 12.7604 15.0069 11.9738 15C11.1872 14.9932 10.4348 14.6777 9.87856 14.1215C9.32234 13.5652 9.00683 12.8128 9 12.0262C8.99316 11.2396 9.29554 10.4818 9.84202 9.916M17.479 17.499C16.1525 18.2848 14.6725 18.776 13.1394 18.9394C11.6063 19.1028 10.056 18.9345 8.59365 18.4459C7.13133 17.9573 5.79121 17.1599 4.66423 16.1077C3.53725 15.0556 2.64977 13.7734 2.06202 12.348C1.97868 12.1235 1.97868 11.8765 2.06202 11.652C2.94865 9.50186 4.50869 7.69725 6.50802 6.509M2.00002 2L22 22" />
  </symbol>

  <symbol xmlns="http://www.w3.org/2000/svg" viewBox="0 0 24 24" id="search">
    <path d="M21 21L16.66 16.66M19 11C19 15.4183 15.4183 19 11 19C6.58172 19 3 15.4183 3 11C3 6.58172 6.58172 3 11 3C15.4183 3 19 6.58172 19 11Z" />
  </symbol>

  <symbol xmlns="http://www.w3.org/2000/svg" viewBox="0 0 24 24" id="list-ordered">
    <path d="M10 12H21M10 18H21M10 6H21M4 10H6M4 6H5V10M6 18H4C4 17 6 16 6 15C6 14 5 13.5 4 14" />
  </symbol>

  <symbol xmlns="http://www.w3.org/2000/svg" viewBox="0 0 24 24" id="share-2">
    <path d="M8.59 13.51L15.42 17.49M15.41 6.51L8.59 10.49M21 5C21 6.65685 19.6569 8 18 8C16.3431 8 15 6.65685 15 5C15 3.34315 16.3431 2 18 2C19.6569 2 21 3.34315 21 5ZM9 12C9 13.6569 7.65685 15 6 15C4.34315 15 3 13.6569 3 12C3 10.3431 4.34315 9 6 9C7.65685 9 9 10.3431 9 12ZM21 19C21 20.6569 19.6569 22 18 22C16.3431 22 15 20.6569 15 19C15 17.3431 16.3431 16 18 16C19.6569 16 21 17.3431 21 19Z" />
  </symbol>

  <symbol xmlns="http://www.w3.org/2000/svg" viewBox="0 0 24 24" id="shapes">
    <path d="M8.3 10C8.17109 10.007 8.04274 9.97828 7.92916 9.91692C7.81557 9.85557 7.72116 9.76399 7.65637 9.65232C7.59159 9.54065 7.55894 9.41324 7.56205 9.28417C7.56517 9.15511 7.60391 9.02942 7.674 8.921L11.4 3C11.4585 2.89457 11.5433 2.80605 11.6462 2.74303C11.749 2.68001 11.8663 2.64462 11.9869 2.64029C12.1074 2.63597 12.227 2.66285 12.334 2.71834C12.4411 2.77383 12.532 2.85604 12.598 2.957L16.3 8.9C16.373 9.00479 16.4159 9.12755 16.4241 9.25498C16.4323 9.38241 16.4055 9.50966 16.3466 9.62295C16.2877 9.73624 16.1989 9.83126 16.0899 9.89772C15.9808 9.96418 15.8557 9.99955 15.728 10H8.3Z M9 14H4C3.44772 14 3 14.4477 3 15V20C3 20.5523 3.44772 21 4 21H9C9.55228 21 10 20.5523 10 20V15C10 14.4477 9.55228 14 9 14Z M17.5 21C19.433 21 21 19.433 21 17.5C21 15.567 19.433 14 17.5 14C15.567 14 14 15.567 14 17.5C14 19.433 15.567 21 17.5 21Z" />
  </symbol>

  <symbol xmlns="http://www.w3.org/2000/svg" viewBox="0 0 24 24" id="settings-2">
    <path d="M20 7H11M14 17H5M14 17C14 18.6569 15.3431 20 17 20C18.6569 20 20 18.6569 20 17C20 15.3431 18.6569 14 17 14C15.3431 14 14 15.3431 14 17ZM10 7C10 8.65685 8.65685 10 7 10C5.34315 10 4 8.65685 4 7C4 5.34315 5.34315 4 7 4C8.65685 4 10 5.34315 10 7Z" />
  </symbol>

  <symbol xmlns="http://www.w3.org/2000/svg" viewBox="0 0 24 24" id="scan-face">
    <path d="M3 7V5C3 4.46957 3.21071 3.96086 3.58579 3.58579C3.96086 3.21071 4.46957 3 5 3H7M17 3H19C19.5304 3 20.0391 3.21071 20.4142 3.58579C20.7893 3.96086 21 4.46957 21 5V7M21 17V19C21 19.5304 20.7893 20.0391 20.4142 20.4142C20.0391 20.7893 19.5304 21 19 21H17M7 21H5C4.46957 21 3.96086 20.7893 3.58579 20.4142C3.21071 20.0391 3 19.5304 3 19V17M8 14C8 14 9.5 16 12 16C14.5 16 16 14 16 14M9 9H9.01M15 9H15.01" />
  </symbol>

  <symbol xmlns="http://www.w3.org/2000/svg" viewBox="0 0 24 24" id="refresh-cw">
    <path d="M3 12C3 9.61305 3.94821 7.32387 5.63604 5.63604C7.32387 3.94821 9.61305 3 12 3C14.516 3.00947 16.931 3.99122 18.74 5.74L21 8M21 8V3M21 8H16M21 12C21 14.3869 20.0518 16.6761 18.364 18.364C16.6761 20.0518 14.3869 21 12 21C9.48395 20.9905 7.06897 20.0088 5.26 18.26L3 16M3 16H8M3 16V21" />
  </symbol>

  <symbol xmlns="http://www.w3.org/2000/svg" viewBox="0 0 24 24" id="plus">
    <path d="M5 12H19M12 5V19" />
  </symbol>

  <symbol xmlns="http://www.w3.org/2000/svg" viewBox="0 0 24 24" id="play">
    <path d="M6 3L20 12L6 21V3Z" />
  </symbol>

  <symbol xmlns="http://www.w3.org/2000/svg" viewBox="0 0 24 24" id="pipette">
    <path d="M12 9L3.586 17.414C3.2109 17.789 3.00011 18.2976 3 18.828V20.172C2.99989 20.7024 2.7891 21.211 2.414 21.586M2.414 21.586C2.78899 21.2109 3.29761 21.0001 3.828 21H5.172C5.70239 20.9999 6.21101 20.7891 6.586 20.414L15 12M2.414 21.586L2 22M18 9L18.4 9.4C18.597 9.59698 18.7532 9.83084 18.8598 10.0882C18.9665 10.3456 19.0213 10.6214 19.0213 10.9C19.0213 11.1786 18.9665 11.4544 18.8598 11.7118C18.7532 11.9692 18.597 12.203 18.4 12.4C18.203 12.597 17.9692 12.7532 17.7118 12.8598C17.4544 12.9665 17.1786 13.0213 16.9 13.0213C16.6214 13.0213 16.3456 12.9665 16.0882 12.8598C15.8308 12.7532 15.597 12.597 15.4 12.4L11.6 8.6C11.2022 8.20218 10.9787 7.66261 10.9787 7.1C10.9787 6.82142 11.0335 6.54558 11.1402 6.28821C11.2468 6.03084 11.403 5.79698 11.6 5.6C11.797 5.40302 12.0308 5.24676 12.2882 5.14016C12.5456 5.03355 12.8214 4.97868 13.1 4.97868C13.6626 4.97868 14.2022 5.20218 14.6 5.6L15 6L18.4 2.6C18.7978 2.20218 19.3374 1.97868 19.9 1.97868C20.4626 1.97868 21.0022 2.20218 21.4 2.6C21.7978 2.99782 22.0213 3.53739 22.0213 4.1C22.0213 4.66261 21.7978 5.20218 21.4 5.6L18 9Z" />
  </symbol>

  <symbol xmlns="http://www.w3.org/2000/svg" viewBox="0 0 24 24" id="pencil">
    <path d="M15 5L19 9M21.174 6.812C21.7027 6.28342 21.9998 5.56647 21.9999 4.81885C22 4.07124 21.7031 3.35421 21.1745 2.8255C20.6459 2.29679 19.929 1.99971 19.1813 1.99962C18.4337 1.99952 17.7167 2.29642 17.188 2.825L3.842 16.174C3.60981 16.4055 3.43811 16.6905 3.342 17.004L2.021 21.356C1.99515 21.4425 1.9932 21.5343 2.01535 21.6219C2.03749 21.7094 2.08292 21.7892 2.14679 21.853C2.21067 21.9168 2.29062 21.9621 2.37815 21.9841C2.46569 22.0061 2.55755 22.004 2.644 21.978L6.997 20.658C7.31017 20.5628 7.59517 20.3921 7.827 20.161L21.174 6.812Z" />
  </symbol>

  <symbol xmlns="http://www.w3.org/2000/svg" viewBox="0 0 24 24" id="pause">
    <path d="M17 4H15C14.4477 4 14 4.44772 14 5V19C14 19.5523 14.4477 20 15 20H17C17.5523 20 18 19.5523 18 19V5C18 4.44772 17.5523 4 17 4Z M9 4H7C6.44772 4 6 4.44772 6 5V19C6 19.5523 6.44772 20 7 20H9C9.55228 20 10 19.5523 10 19V5C10 4.44772 9.55228 4 9 4Z" />
  </symbol>

  <symbol xmlns="http://www.w3.org/2000/svg" viewBox="0 0 24 24" id="paintbrush-vertical">
    <path d="M10 2V4M14 2V6M18 12V3C18 2.73478 17.8946 2.48043 17.7071 2.29289C17.5196 2.10536 17.2652 2 17 2H7C6.73478 2 6.48043 2.10536 6.29289 2.29289C6.10536 2.48043 6 2.73478 6 3V12M18 12H6M18 12C18.2652 12 18.5196 12.1054 18.7071 12.2929C18.8946 12.4804 19 12.7348 19 13V14C19 14.5304 18.7893 15.0391 18.4142 15.4142C18.0391 15.7893 17.5304 16 17 16H15C14.7348 16 14.4804 16.1054 14.2929 16.2929C14.1054 16.4804 14 16.7348 14 17V19.9C14 20.4304 13.7893 20.9391 13.4142 21.3142C13.0391 21.6893 12.5304 21.9 12 21.9C11.4696 21.9 10.9609 21.6893 10.5858 21.3142C10.2107 20.9391 10 20.4304 10 19.9V17C10 16.7348 9.89464 16.4804 9.70711 16.2929C9.51957 16.1054 9.26522 16 9 16H7C6.46957 16 5.96086 15.7893 5.58579 15.4142C5.21071 15.0391 5 14.5304 5 14V13C5 12.7348 5.10536 12.4804 5.29289 12.2929C5.48043 12.1054 5.73478 12 6 12" />
  </symbol>

  <symbol xmlns="http://www.w3.org/2000/svg" viewBox="0 0 24 24" id="paint-bucket">
    <path d="M5.00002 2L10 7M2.00002 13H17M19 11L11 3L2.40002 11.6C2.03357 11.9739 1.82831 12.4765 1.82831 13C1.82831 13.5235 2.03357 14.0261 2.40002 14.4L7.60002 19.6C8.40002 20.4 9.60002 20.4 10.4 19.6L19 11ZM22 20C22 20.5304 21.7893 21.0391 21.4142 21.4142C21.0392 21.7893 20.5305 22 20 22C19.4696 22 18.9609 21.7893 18.5858 21.4142C18.2107 21.0391 18 20.5304 18 20C18 18.4 19.7 17.6 20 16C20.3 17.6 22 18.4 22 20Z" />
  </symbol>

  <symbol xmlns="http://www.w3.org/2000/svg" viewBox="0 0 24 24" id="minus">
    <path d="M5 12H19" />
  </symbol>
  
  <symbol xmlns="http://www.w3.org/2000/svg" viewBox="0 0 24 24" id="asterisk">
    <path id="shape" d="M12 6V18M17.196 9L6.80402 15M6.80402 9L17.196 15" />
  </symbol>

  <symbol xmlns="http://www.w3.org/2000/svg" viewBox="0 0 24 24" id="log-in">
    <path d="M10 17L15 12M15 12L10 7M15 12H3M15 3H19C19.5304 3 20.0391 3.21071 20.4142 3.58579C20.7893 3.96086 21 4.46957 21 5V19C21 19.5304 20.7893 20.0391 20.4142 20.4142C20.0391 20.7893 19.5304 21 19 21H15" />
  </symbol>

  <symbol xmlns="http://www.w3.org/2000/svg" viewBox="0 0 24 24" id="circle-help">
    <path d="M9.09 9C9.3251 8.33167 9.78915 7.76811 10.4 7.40913C11.0108 7.05016 11.7289 6.91894 12.4272 7.03871C13.1255 7.15849 13.7588 7.52152 14.2151 8.06353C14.6713 8.60553 14.9211 9.29152 14.92 10C14.92 12 11.92 13 11.92 13M12 17H12.01M22 12C22 17.5228 17.5228 22 12 22C6.47715 22 2 17.5228 2 12C2 6.47715 6.47715 2 12 2C17.5228 2 22 6.47715 22 12Z" />
  </symbol>

  <symbol xmlns="http://www.w3.org/2000/svg" viewBox="0 0 24 24" id="user-round">
    <path d="M12 13C14.7614 13 17 10.7614 17 8C17 5.23858 14.7614 3 12 3C9.23858 3 7 5.23858 7 8C7 10.7614 9.23858 13 12 13ZM12 13C14.1217 13 16.1566 13.8429 17.6569 15.3431C19.1571 16.8434 20 18.8783 20 21M12 13C9.87827 13 7.84344 13.8429 6.34315 15.3431C4.84285 16.8434 4 18.8783 4 21" />
  </symbol> 

  <symbol xmlns="http://www.w3.org/2000/svg" viewBox="0 0 24 24" id="circle-user-round"> 
    <path d="M18 20C18 18.4087 17.3679 16.8826 16.2426 15.7574C15.1174 14.6321 13.5913 14 12 14M12 14C10.4087 14 8.88258 14.6321 7.75736 15.7574C6.63214 16.8826 6 18.4087 6 20M12 14C14.2091 14 16 12.2091 16 10C16 7.79086 14.2091 6 12 6C9.79086 6 8 7.79086 8 10C8 12.2091 9.79086 14 12 14ZM22 12C22 17.5228 17.5228 22 12 22C6.47715 22 2 17.5228 2 12C2 6.47715 6.47715 2 12 2C17.5228 2 22 6.47715 22 12Z" />
  </symbol>

  <symbol xmlns="http://www.w3.org/2000/svg" viewBox="0 0 24 24" id="cross">
    <path d="M18 6L6 18M6 6L18 18" />
  </symbol>

  <symbol xmlns="http://www.w3.org/2000/svg" viewBox="0 0 24 24" id="globe">
    <path d="M22 12C22 17.5228 17.5228 22 12 22M22 12C22 6.47715 17.5228 2 12 2M22 12H2M12 22C6.47715 22 2 17.5228 2 12M12 22C9.43223 19.3038 8 15.7233 8 12C8 8.27674 9.43223 4.69615 12 2M12 22C14.5678 19.3038 16 15.7233 16 12C16 8.27674 14.5678 4.69615 12 2M2 12C2 6.47715 6.47715 2 12 2" />
  </symbol>

  <symbol xmlns="http://www.w3.org/2000/svg" viewBox="0 0 24 24" id="user-search">
    <path d="M10.3 15H7C5.93913 15 4.92172 15.4214 4.17157 16.1716C3.42143 16.9217 3 17.9391 3 19V21M21 21L19.1 19.1M14 7C14 9.20914 12.2091 11 10 11C7.79086 11 6 9.20914 6 7C6 4.79086 7.79086 3 10 3C12.2091 3 14 4.79086 14 7ZM20 17C20 18.6569 18.6569 20 17 20C15.3431 20 14 18.6569 14 17C14 15.3431 15.3431 14 17 14C18.6569 14 20 15.3431 20 17Z" />
  </symbol>

  <symbol xmlns="http://www.w3.org/2000/svg" viewBox="0 0 24 24" id="trophy">
    <path d="M6 9H4.5C3.83696 9 3.20107 8.73661 2.73223 8.26777C2.26339 7.79893 2 7.16304 2 6.5C2 5.83696 2.26339 5.20107 2.73223 4.73223C3.20107 4.26339 3.83696 4 4.5 4H6M6 9V2H18V9M6 9C6 10.5913 6.63214 12.1174 7.75736 13.2426C8.88258 14.3679 10.4087 15 12 15C13.5913 15 15.1174 14.3679 16.2426 13.2426C17.3679 12.1174 18 10.5913 18 9M18 9H19.5C20.163 9 20.7989 8.73661 21.2678 8.26777C21.7366 7.79893 22 7.16304 22 6.5C22 5.83696 21.7366 5.20107 21.2678 4.73223C20.7989 4.26339 20.163 4 19.5 4H18M4 22H20M10 14.66V17C10 17.55 9.53 17.98 9.03 18.21C7.85 18.75 7 20.24 7 22M14 14.66V17C14 17.55 14.47 17.98 14.97 18.21C16.15 18.75 17 20.24 17 22" />
  </symbol>

  <symbol xmlns="http://www.w3.org/2000/svg" viewBox="0 0 24 24" id="help">
    <path d="M8.50879 8.40431C8.79079 7.60267 9.3474 6.92669 10.08 6.49611C10.8127 6.06553 11.6741 5.90814 12.5116 6.0518C13.3492 6.19547 14.1089 6.63092 14.6562 7.28104C15.2035 7.93116 15.503 8.75399 15.5017 9.60379C15.5017 12.0027 11.9033 13.2022 11.9033 13.2022" />
    <path d="M12 18H12.01" />
  </symbol>

  <symbol xmlns="http://www.w3.org/2000/svg" viewBox="0 0 24 24" id="house">
    <path d="M15 21V13C15 12.7348 14.8946 12.4804 14.7071 12.2929C14.5196 12.1054 14.2652 12 14 12H10C9.73478 12 9.48043 12.1054 9.29289 12.2929C9.10536 12.4804 9 12.7348 9 13V21M3 10C2.99993 9.70907 3.06333 9.42162 3.18579 9.15771C3.30824 8.89381 3.4868 8.65979 3.709 8.472L10.709 2.473C11.07 2.16791 11.5274 2.00052 12 2.00052C12.4726 2.00052 12.93 2.16791 13.291 2.473L20.291 8.472C20.5132 8.65979 20.6918 8.89381 20.8142 9.15771C20.9367 9.42162 21.0001 9.70907 21 10V19C21 19.5304 20.7893 20.0391 20.4142 20.4142C20.0391 20.7893 19.5304 21 19 21H5C4.46957 21 3.96086 20.7893 3.58579 20.4142C3.21071 20.0391 3 19.5304 3 19V10Z" />
  </symbol>

  <symbol xmlns="http://www.w3.org/2000/svg" viewBox="0 0 24 24" id="triangle-alert">
  <path d="M12.0001 9V13M12.0001 17H12.0101M21.7301 18L13.7301 4C13.5556 3.6922 13.3027 3.43619 12.997 3.25807C12.6913 3.07995 12.3438 2.9861 11.9901 2.9861C11.6363 2.9861 11.2888 3.07995 10.9831 3.25807C10.6774 3.43619 10.4245 3.6922 10.2501 4L2.25005 18C2.07373 18.3054 1.98128 18.6519 1.98206 19.0045C1.98284 19.3571 2.07683 19.7032 2.2545 20.0078C2.43217 20.3124 2.6872 20.5646 2.99375 20.7388C3.30029 20.9131 3.64746 21.0032 4.00005 21H20.0001C20.351 20.9996 20.6956 20.907 20.9993 20.7313C21.3031 20.5556 21.5553 20.3031 21.7306 19.9991C21.9059 19.6951 21.9981 19.3504 21.998 18.9995C21.9979 18.6486 21.9055 18.3039 21.7301 18Z" />
  </symbol>

  <symbol xmlns="http://www.w3.org/2000/svg" viewBox="0 0 24 24" id="settings">
    <path d="M12.22 2H11.78C11.2496 2 10.7409 2.21071 10.3658 2.58579C9.99072 2.96086 9.78 3.46957 9.78 4V4.18C9.77964 4.53073 9.68706 4.87519 9.51154 5.17884C9.33602 5.48248 9.08374 5.73464 8.78 5.91L8.35 6.16C8.04596 6.33554 7.70108 6.42795 7.35 6.42795C6.99893 6.42795 6.65404 6.33554 6.35 6.16L6.2 6.08C5.74107 5.81526 5.19584 5.74344 4.684 5.88031C4.17217 6.01717 3.73555 6.35154 3.47 6.81L3.25 7.19C2.98526 7.64893 2.91345 8.19416 3.05031 8.706C3.18717 9.21783 3.52154 9.65445 3.98 9.92L4.13 10.02C4.43228 10.1945 4.68362 10.4451 4.85905 10.7468C5.03448 11.0486 5.1279 11.391 5.13 11.74V12.25C5.1314 12.6024 5.03965 12.949 4.86405 13.2545C4.68844 13.5601 4.43521 13.8138 4.13 13.99L3.98 14.08C3.52154 14.3456 3.18717 14.7822 3.05031 15.294C2.91345 15.8058 2.98526 16.3511 3.25 16.81L3.47 17.19C3.73555 17.6485 4.17217 17.9828 4.684 18.1197C5.19584 18.2566 5.74107 18.1847 6.2 17.92L6.35 17.84C6.65404 17.6645 6.99893 17.5721 7.35 17.5721C7.70108 17.5721 8.04596 17.6645 8.35 17.84L8.78 18.09C9.08374 18.2654 9.33602 18.5175 9.51154 18.8212C9.68706 19.1248 9.77964 19.4693 9.78 19.82V20C9.78 20.5304 9.99072 21.0391 10.3658 21.4142C10.7409 21.7893 11.2496 22 11.78 22H12.22C12.7504 22 13.2591 21.7893 13.6342 21.4142C14.0093 21.0391 14.22 20.5304 14.22 20V19.82C14.2204 19.4693 14.3129 19.1248 14.4885 18.8212C14.664 18.5175 14.9163 18.2654 15.22 18.09L15.65 17.84C15.954 17.6645 16.2989 17.5721 16.65 17.5721C17.0011 17.5721 17.346 17.6645 17.65 17.84L17.8 17.92C18.2589 18.1847 18.8042 18.2566 19.316 18.1197C19.8278 17.9828 20.2645 17.6485 20.53 17.19L20.75 16.8C21.0147 16.3411 21.0866 15.7958 20.9497 15.284C20.8128 14.7722 20.4785 14.3356 20.02 14.07L19.87 13.99C19.5648 13.8138 19.3116 13.5601 19.136 13.2545C18.9604 12.949 18.8686 12.6024 18.87 12.25V11.75C18.8686 11.3976 18.9604 11.051 19.136 10.7455C19.3116 10.4399 19.5648 10.1862 19.87 10.01L20.02 9.92C20.4785 9.65445 20.8128 9.21783 20.9497 8.706C21.0866 8.19416 21.0147 7.64893 20.75 7.19L20.53 6.81C20.2645 6.35154 19.8278 6.01717 19.316 5.88031C18.8042 5.74344 18.2589 5.81526 17.8 6.08L17.65 6.16C17.346 6.33554 17.0011 6.42795 16.65 6.42795C16.2989 6.42795 15.954 6.33554 15.65 6.16L15.22 5.91C14.9163 5.73464 14.664 5.48248 14.4885 5.17884C14.3129 4.87519 14.2204 4.53073 14.22 4.18V4C14.22 3.46957 14.0093 2.96086 13.6342 2.58579C13.2591 2.21071 12.7504 2 12.22 2Z" />
    <path d="M12 15C13.6569 15 15 13.6569 15 12C15 10.3431 13.6569 9 12 9C10.3431 9 9 10.3431 9 12C9 13.6569 10.3431 15 12 15Z" />
  </symbol>

  <symbol xmlns="http://www.w3.org/2000/svg" viewBox="0 0 24 24" id="chevron-up">
    <path d="M18 15L12 9L6 15" />
  </symbol>

  <symbol xmlns="http://www.w3.org/2000/svg" viewBox="0 0 24 24" id="chevron-right">
    <path d="M9 18L15 12L9 6" />
  </symbol>

  <symbol xmlns="http://www.w3.org/2000/svg" viewBox="0 0 24 24" id="chevron-left">
    <path d="M15 18L9 12L15 6" />
  </symbol>

  <symbol xmlns="http://www.w3.org/2000/svg" viewBox="0 0 24 24" id="chevron-down">
    <path d="M6 9L12 15L18 9" />
  </symbol>

  <symbol xmlns="http://www.w3.org/2000/svg" viewBox="0 0 24 24" id="check">
    <path d="M20 6L9 17L4 12" />
  </symbol>

  <symbol xmlns="http://www.w3.org/2000/svg" viewBox="0 0 24 24" id="award">
    <path d="M15.477 12.89L16.992 21.416C17.009 21.5164 16.9949 21.6196 16.9516 21.7118C16.9084 21.8039 16.838 21.8807 16.7499 21.9318C16.6619 21.9829 16.5603 22.0059 16.4588 21.9977C16.3573 21.9895 16.2607 21.9506 16.182 21.886L12.602 19.199C12.4292 19.0699 12.2192 19.0001 12.0035 19.0001C11.7878 19.0001 11.5778 19.0699 11.405 19.199L7.819 21.885C7.74032 21.9494 7.64386 21.9883 7.5425 21.9965C7.44113 22.0047 7.33967 21.9818 7.25166 21.9309C7.16365 21.8799 7.09328 21.8033 7.04992 21.7113C7.00656 21.6193 6.99229 21.5163 7.009 21.416L8.523 12.89M18 8C18 11.3137 15.3137 14 12 14C8.68629 14 6 11.3137 6 8C6 4.68629 8.68629 2 12 2C15.3137 2 18 4.68629 18 8Z" />
  </symbol>

  <symbol xmlns="http://www.w3.org/2000/svg" viewBox="0 0 24 24" id="arrow-up">
  <path d="M5 12L12 5M12 5L19 12M12 5V19" />
  </symbol>

  <symbol xmlns="http://www.w3.org/2000/svg" viewBox="0 0 24 24" id="arrow-right">
    <path d="M5 12H19M19 12L12 5M19 12L12 19" />
  </symbol>

  <symbol xmlns="http://www.w3.org/2000/svg" viewBox="0 0 24 24" id="arrow-left">
    <path d="M12 19L5 12M5 12L12 5M5 12H19" />
  </symbol>

  <symbol xmlns="http://www.w3.org/2000/svg" viewBox="0 0 24 24" id="arrow-down">
    <path d="M12 5V19M12 19L19 12M12 19L5 12" />
  </symbol>

  <symbol xmlns="http://www.w3.org/2000/svg" viewBox="0 0 24 24" id="user-search">
  <path d="M10.3 15H7C5.93913 15 4.92172 15.4214 4.17157 16.1716C3.42143 16.9217 3 17.9391 3 19V21M21 21L19.1 19.1M14 7C14 9.20914 12.2091 11 10 11C7.79086 11 6 9.20914 6 7C6 4.79086 7.79086 3 10 3C12.2091 3 14 4.79086 14 7ZM20 17C20 18.6569 18.6569 20 17 20C15.3431 20 14 18.6569 14 17C14 15.3431 15.3431 14 17 14C18.6569 14 20 15.3431 20 17Z" />
  </symbol>
</svg>