<svg width="256" height="160" viewBox="0 0 256 160" fill="none" xmlns="http://www.w3.org/2000/svg">
<path d="M76 33.5C76 25.768 82.268 19.5 90 19.5V19.5C97.732 19.5 104 25.768 104 33.5V33.5C104 41.232 97.732 47.5 90 47.5V47.5C82.268 47.5 76 41.232 76 33.5V33.5Z" fill="#53EAFD"/>
<path d="M84.4 35.6C84.4 35.6 86.5 38.4 90 38.4C93.5 38.4 95.6 35.6 95.6 35.6M85.8 28.6H85.814M94.2 28.6H94.214" stroke="#62748E" stroke-width="2" stroke-linecap="round" stroke-linejoin="round"/>
<path d="M152 23.5C152 21.2909 153.791 19.5 156 19.5H176C178.209 19.5 180 21.2909 180 23.5V43.5C180 45.7091 178.209 47.5 176 47.5H156C153.791 47.5 152 45.7091 152 43.5V23.5Z" fill="#BBF451"/>
<path d="M160.4 35.6C160.4 35.6 162.5 38.4 166 38.4C169.5 38.4 171.6 35.6 171.6 35.6M161.8 28.6H161.814M170.2 28.6H170.214" stroke="#62748E" stroke-width="2" stroke-linecap="round" stroke-linejoin="round"/>
<path d="M88.7071 50.7929C88.3166 50.4024 87.6834 50.4024 87.2929 50.7929L80.9289 57.1569C80.5384 57.5474 80.5384 58.1805 80.9289 58.5711C81.3195 58.9616 81.9526 58.9616 82.3431 58.5711L88 52.9142L93.6569 58.5711C94.0474 58.9616 94.6805 58.9616 95.0711 58.5711C95.4616 58.1805 95.4616 57.5474 95.0711 57.1569L88.7071 50.7929ZM88 68.5L89 68.5L89 51.5L88 51.5L87 51.5L87 68.5L88 68.5Z" fill="#1D293D"/>
<path d="M168.707 50.7929C168.317 50.4024 167.683 50.4024 167.293 50.7929L160.929 57.1569C160.538 57.5474 160.538 58.1805 160.929 58.5711C161.319 58.9616 161.953 58.9616 162.343 58.5711L168 52.9142L173.657 58.5711C174.047 58.9616 174.681 58.9616 175.071 58.5711C175.462 58.1805 175.462 57.5474 175.071 57.1569L168.707 50.7929ZM168 68.5L169 68.5L169 51.5L168 51.5L167 51.5L167 68.5L168 68.5Z" fill="#1D293D"/>
<mask id="path-8-inside-1_1751_2176" fill="white">
<path d="M76 86.5C76 78.768 82.268 72.5 90 72.5V72.5C97.732 72.5 104 78.768 104 86.5V86.5C104 94.232 97.732 100.5 90 100.5V100.5C82.268 100.5 76 94.232 76 86.5V86.5Z"/>
</mask>
<path d="M90 101.5C90.5523 101.5 91 101.052 91 100.5C91 99.9477 90.5523 99.5 90 99.5V101.5ZM77 86.5C77 85.9477 76.5523 85.5 76 85.5C75.4477 85.5 75 85.9477 75 86.5H77ZM105 86.5C105 85.9477 104.552 85.5 104 85.5C103.448 85.5 103 85.9477 103 86.5H105ZM90 99.5C89.4477 99.5 89 99.9477 89 100.5C89 101.052 89.4477 101.5 90 101.5V99.5ZM90 71.5C89.4477 71.5 89 71.9477 89 72.5C89 73.0523 89.4477 73.5 90 73.5V71.5ZM103 86.5C103 87.0523 103.448 87.5 104 87.5C104.552 87.5 105 87.0523 105 86.5H103ZM90 73.5C90.5523 73.5 91 73.0523 91 72.5C91 71.9477 90.5523 71.5 90 71.5V73.5ZM75 86.5C75 87.0523 75.4477 87.5 76 87.5C76.5523 87.5 77 87.0523 77 86.5H75ZM87.4618 99.2525C86.92 99.1454 86.3939 99.4977 86.2867 100.039C86.1796 100.581 86.5319 101.107 87.0737 101.215L87.4618 99.2525ZM81.6651 98.9729C82.124 99.2801 82.7451 99.1572 83.0523 98.6982C83.3596 98.2393 83.2366 97.6182 82.7777 97.3109L81.6651 98.9729ZM79.1891 93.7223C78.8818 93.2634 78.2607 93.1404 77.8018 93.4477C77.3428 93.7549 77.2199 94.376 77.5271 94.8349L79.1891 93.7223ZM75.2855 89.4263C75.3927 89.9681 75.9188 90.3204 76.4605 90.2133C77.0023 90.1061 77.3546 89.58 77.2475 89.0382L75.2855 89.4263ZM77.2475 83.9618C77.3546 83.42 77.0023 82.8939 76.4605 82.7867C75.9188 82.6796 75.3927 83.0319 75.2855 83.5737L77.2475 83.9618ZM77.5271 78.1651C77.2199 78.624 77.3428 79.2451 77.8018 79.5523C78.2607 79.8596 78.8818 79.7366 79.1891 79.2777L77.5271 78.1651ZM82.7777 75.6891C83.2366 75.3818 83.3596 74.7607 83.0523 74.3018C82.7451 73.8428 82.124 73.7199 81.6651 74.0271L82.7777 75.6891ZM87.0737 71.7855C86.5319 71.8927 86.1796 72.4188 86.2867 72.9605C86.3939 73.5023 86.92 73.8546 87.4618 73.7475L87.0737 71.7855ZM92.5382 73.7475C93.08 73.8546 93.6061 73.5023 93.7133 72.9605C93.8204 72.4188 93.4681 71.8927 92.9263 71.7855L92.5382 73.7475ZM98.3349 74.0271C97.876 73.7199 97.2549 73.8428 96.9477 74.3018C96.6404 74.7607 96.7634 75.3818 97.2223 75.6891L98.3349 74.0271ZM100.811 79.2777C101.118 79.7366 101.739 79.8596 102.198 79.5523C102.657 79.2451 102.78 78.624 102.473 78.1651L100.811 79.2777ZM104.715 83.5737C104.607 83.0319 104.081 82.6796 103.539 82.7867C102.998 82.8939 102.645 83.42 102.753 83.9618L104.715 83.5737ZM102.753 89.0382C102.645 89.58 102.998 90.1061 103.539 90.2133C104.081 90.3204 104.607 89.9681 104.715 89.4263L102.753 89.0382ZM102.473 94.8349C102.78 94.376 102.657 93.7549 102.198 93.4477C101.739 93.1404 101.118 93.2634 100.811 93.7223L102.473 94.8349ZM97.2223 97.3109C96.7634 97.6182 96.6404 98.2393 96.9477 98.6982C97.2549 99.1572 97.876 99.2801 98.3349 98.9729L97.2223 97.3109ZM92.9263 101.215C93.4681 101.107 93.8204 100.581 93.7133 100.039C93.6061 99.4977 93.08 99.1454 92.5382 99.2525L92.9263 101.215ZM90 100.5V99.5C89.1305 99.5 88.2819 99.4148 87.4618 99.2525L87.2677 100.234L87.0737 101.215C88.0209 101.402 88.9995 101.5 90 101.5V100.5ZM82.2214 98.1419L82.7777 97.3109C81.3596 96.3616 80.1384 95.1404 79.1891 93.7223L78.3581 94.2786L77.5271 94.8349C78.6219 96.4703 80.0297 97.8781 81.6651 98.9729L82.2214 98.1419ZM76.2665 89.2323L77.2475 89.0382C77.0852 88.2181 77 87.3695 77 86.5H76H75C75 87.5005 75.0981 88.4791 75.2855 89.4263L76.2665 89.2323ZM76 86.5H77C77 85.6305 77.0852 84.7819 77.2475 83.9618L76.2665 83.7677L75.2855 83.5737C75.0981 84.5209 75 85.4995 75 86.5H76ZM78.3581 78.7214L79.1891 79.2777C80.1384 77.8596 81.3596 76.6384 82.7777 75.6891L82.2214 74.8581L81.6651 74.0271C80.0297 75.1219 78.6219 76.5297 77.5271 78.1651L78.3581 78.7214ZM87.2677 72.7665L87.4618 73.7475C88.2819 73.5852 89.1305 73.5 90 73.5V72.5V71.5C88.9995 71.5 88.0209 71.5981 87.0737 71.7855L87.2677 72.7665ZM90 72.5V73.5C90.8695 73.5 91.7181 73.5852 92.5382 73.7475L92.7323 72.7665L92.9263 71.7855C91.9791 71.5981 91.0005 71.5 90 71.5V72.5ZM97.7786 74.8581L97.2223 75.6891C98.6404 76.6384 99.8616 77.8596 100.811 79.2777L101.642 78.7214L102.473 78.1651C101.378 76.5297 99.9703 75.1219 98.3349 74.0271L97.7786 74.8581ZM103.734 83.7677L102.753 83.9618C102.915 84.7819 103 85.6305 103 86.5H104H105C105 85.4995 104.902 84.5209 104.715 83.5737L103.734 83.7677ZM104 86.5H103C103 87.3695 102.915 88.2181 102.753 89.0382L103.734 89.2323L104.715 89.4263C104.902 88.4791 105 87.5005 105 86.5H104ZM101.642 94.2786L100.811 93.7223C99.8616 95.1404 98.6404 96.3616 97.2223 97.3109L97.7786 98.1419L98.3349 98.9729C99.9703 97.8781 101.378 96.4703 102.473 94.8349L101.642 94.2786ZM92.7323 100.234L92.5382 99.2525C91.7181 99.4148 90.8695 99.5 90 99.5V100.5V101.5C91.0005 101.5 91.9791 101.402 92.9263 101.215L92.7323 100.234ZM90 102.5C91.1046 102.5 92 101.605 92 100.5C92 99.3954 91.1046 98.5 90 98.5V102.5ZM78 86.5C78 85.3954 77.1046 84.5 76 84.5C74.8954 84.5 74 85.3954 74 86.5H78ZM106 86.5C106 85.3954 105.105 84.5 104 84.5C102.895 84.5 102 85.3954 102 86.5H106ZM90 98.5C88.8954 98.5 88 99.3954 88 100.5C88 101.605 88.8954 102.5 90 102.5V98.5ZM90 70.5C88.8954 70.5 88 71.3954 88 72.5C88 73.6046 88.8954 74.5 90 74.5V70.5ZM102 86.5C102 87.6046 102.895 88.5 104 88.5C105.105 88.5 106 87.6046 106 86.5H102ZM90 74.5C91.1046 74.5 92 73.6046 92 72.5C92 71.3954 91.1046 70.5 90 70.5V74.5ZM74 86.5C74 87.6046 74.8954 88.5 76 88.5C77.1046 88.5 78 87.6046 78 86.5H74ZM87.6559 98.2715C86.5723 98.0572 85.5201 98.7618 85.3058 99.8454C85.0914 100.929 85.796 101.981 86.8796 102.195L87.6559 98.2715ZM81.1087 99.8039C82.0266 100.418 83.2688 100.172 83.8833 99.2546C84.4978 98.3367 84.2519 97.0945 83.334 96.48L81.1087 99.8039ZM80.02 93.166C79.4055 92.2481 78.1633 92.0022 77.2454 92.6167C76.3276 93.2312 76.0817 94.4734 76.6961 95.3913L80.02 93.166ZM74.3045 89.6204C74.5189 90.704 75.571 91.4086 76.6546 91.1942C77.7382 90.9799 78.4428 89.9277 78.2285 88.8441L74.3045 89.6204ZM78.2285 84.1559C78.4428 83.0723 77.7382 82.0201 76.6546 81.8058C75.571 81.5914 74.5189 82.296 74.3045 83.3796L78.2285 84.1559ZM76.6961 77.6087C76.0817 78.5266 76.3276 79.7688 77.2454 80.3833C78.1633 80.9978 79.4055 80.7519 80.02 79.834L76.6961 77.6087ZM83.334 76.52C84.2519 75.9055 84.4978 74.6633 83.8833 73.7454C83.2688 72.8276 82.0266 72.5817 81.1087 73.1961L83.334 76.52ZM86.8796 70.8045C85.796 71.0189 85.0914 72.071 85.3058 73.1546C85.5201 74.2382 86.5723 74.9428 87.6559 74.7285L86.8796 70.8045ZM92.3441 74.7285C93.4277 74.9428 94.4799 74.2382 94.6942 73.1546C94.9086 72.071 94.204 71.0189 93.1204 70.8045L92.3441 74.7285ZM98.8913 73.1961C97.9734 72.5817 96.7312 72.8276 96.1167 73.7454C95.5022 74.6633 95.7481 75.9055 96.666 76.52L98.8913 73.1961ZM99.98 79.834C100.594 80.7519 101.837 80.9978 102.755 80.3833C103.672 79.7688 103.918 78.5266 103.304 77.6087L99.98 79.834ZM105.695 83.3796C105.481 82.296 104.429 81.5914 103.345 81.8058C102.262 82.0201 101.557 83.0723 101.772 84.1559L105.695 83.3796ZM101.772 88.8441C101.557 89.9277 102.262 90.9799 103.345 91.1942C104.429 91.4086 105.481 90.704 105.695 89.6204L101.772 88.8441ZM103.304 95.3913C103.918 94.4734 103.672 93.2312 102.755 92.6167C101.837 92.0022 100.594 92.2481 99.98 93.166L103.304 95.3913ZM96.666 96.48C95.7481 97.0945 95.5022 98.3367 96.1167 99.2546C96.7312 100.172 97.9734 100.418 98.8913 99.8039L96.666 96.48ZM93.1204 102.195C94.204 101.981 94.9086 100.929 94.6942 99.8454C94.4799 98.7618 93.4277 98.0572 92.3441 98.2715L93.1204 102.195ZM90 100.5V98.5C89.196 98.5 88.4124 98.4212 87.6559 98.2715L87.2677 100.234L86.8796 102.195C87.8904 102.395 88.934 102.5 90 102.5V100.5ZM82.2214 98.1419L83.334 96.48C82.0245 95.6033 80.8967 94.4755 80.02 93.166L78.3581 94.2786L76.6961 95.3913C77.8637 97.1352 79.3648 98.6363 81.1087 99.8039L82.2214 98.1419ZM76.2665 89.2323L78.2285 88.8441C78.0788 88.0876 78 87.304 78 86.5H76H74C74 87.566 74.1045 88.6096 74.3045 89.6204L76.2665 89.2323ZM76 86.5H78C78 85.696 78.0788 84.9124 78.2285 84.1559L76.2665 83.7677L74.3045 83.3796C74.1045 84.3904 74 85.434 74 86.5H76ZM78.3581 78.7214L80.02 79.834C80.8967 78.5245 82.0245 77.3967 83.334 76.52L82.2214 74.8581L81.1087 73.1961C79.3648 74.3637 77.8637 75.8648 76.6961 77.6087L78.3581 78.7214ZM87.2677 72.7665L87.6559 74.7285C88.4124 74.5788 89.196 74.5 90 74.5V72.5V70.5C88.934 70.5 87.8904 70.6045 86.8796 70.8045L87.2677 72.7665ZM90 72.5V74.5C90.804 74.5 91.5876 74.5788 92.3441 74.7285L92.7323 72.7665L93.1204 70.8045C92.1096 70.6045 91.066 70.5 90 70.5V72.5ZM97.7786 74.8581L96.666 76.52C97.9755 77.3967 99.1033 78.5245 99.98 79.834L101.642 78.7214L103.304 77.6087C102.136 75.8648 100.635 74.3637 98.8913 73.1961L97.7786 74.8581ZM103.734 83.7677L101.772 84.1559C101.921 84.9124 102 85.696 102 86.5H104H106C106 85.434 105.895 84.3904 105.695 83.3796L103.734 83.7677ZM104 86.5H102C102 87.304 101.921 88.0876 101.772 88.8441L103.734 89.2323L105.695 89.6204C105.895 88.6096 106 87.566 106 86.5H104ZM101.642 94.2786L99.98 93.166C99.1033 94.4755 97.9755 95.6033 96.666 96.48L97.7786 98.1419L98.8913 99.8039C100.635 98.6363 102.136 97.1352 103.304 95.3913L101.642 94.2786ZM92.7323 100.234L92.3441 98.2715C91.5876 98.4212 90.804 98.5 90 98.5V100.5V102.5C91.066 102.5 92.1096 102.395 93.1204 102.195L92.7323 100.234Z" fill="#CAD5E2" mask="url(#path-8-inside-1_1751_2176)"/>
<path d="M85.5 83.5L84 81.5L82.5 83.5M97.5 83.5L96 81.5L94.5 83.5M88 89C88 89 87.5 91 90 91C92.5 91 92 89 92 89H88Z" stroke="#CAD5E2" stroke-width="2" stroke-linecap="round" stroke-linejoin="round"/>
<mask id="path-11-inside-2_1751_2176" fill="white">
<path d="M152 76.5C152 74.2909 153.791 72.5 156 72.5H176C178.209 72.5 180 74.2909 180 76.5V96.5C180 98.7091 178.209 100.5 176 100.5H156C153.791 100.5 152 98.7091 152 96.5V76.5Z"/>
</mask>
<path d="M152 76.5C152 74.2909 153.791 72.5 156 72.5H176C178.209 72.5 180 74.2909 180 76.5V96.5C180 98.7091 178.209 100.5 176 100.5H156C153.791 100.5 152 98.7091 152 96.5V76.5Z" fill="#ECFCCA"/>
<path d="M154.852 99.2728C154.342 99.0612 153.757 99.3033 153.545 99.8134C153.334 100.324 153.576 100.909 154.086 101.12L154.852 99.2728ZM151.38 98.4142C151.591 98.9244 152.176 99.1664 152.687 98.9549C153.197 98.7433 153.439 98.1583 153.227 97.6481L151.38 98.4142ZM153 94C153 93.4477 152.552 93 152 93C151.448 93 151 93.4477 151 94H153ZM151 89C151 89.5523 151.448 90 152 90C152.552 90 153 89.5523 153 89H151ZM153 84C153 83.4477 152.552 83 152 83C151.448 83 151 83.4477 151 84H153ZM151 79C151 79.5523 151.448 80 152 80C152.552 80 153 79.5523 153 79H151ZM153.227 75.3519C153.439 74.8417 153.197 74.2567 152.687 74.0451C152.176 73.8336 151.591 74.0756 151.38 74.5858L153.227 75.3519ZM154.086 71.8798C153.576 72.0914 153.334 72.6764 153.545 73.1866C153.757 73.6967 154.342 73.9388 154.852 73.7272L154.086 71.8798ZM158.5 73.5C159.052 73.5 159.5 73.0523 159.5 72.5C159.5 71.9477 159.052 71.5 158.5 71.5V73.5ZM163.5 71.5C162.948 71.5 162.5 71.9477 162.5 72.5C162.5 73.0523 162.948 73.5 163.5 73.5V71.5ZM168.5 73.5C169.052 73.5 169.5 73.0523 169.5 72.5C169.5 71.9477 169.052 71.5 168.5 71.5V73.5ZM173.5 71.5C172.948 71.5 172.5 71.9477 172.5 72.5C172.5 73.0523 172.948 73.5 173.5 73.5V71.5ZM177.148 73.7272C177.658 73.9388 178.243 73.6967 178.455 73.1866C178.666 72.6764 178.424 72.0914 177.914 71.8798L177.148 73.7272ZM180.62 74.5858C180.409 74.0756 179.824 73.8336 179.313 74.0451C178.803 74.2567 178.561 74.8417 178.773 75.3519L180.62 74.5858ZM179 79C179 79.5523 179.448 80 180 80C180.552 80 181 79.5523 181 79H179ZM181 84C181 83.4477 180.552 83 180 83C179.448 83 179 83.4477 179 84H181ZM179 89C179 89.5523 179.448 90 180 90C180.552 90 181 89.5523 181 89H179ZM181 94C181 93.4477 180.552 93 180 93C179.448 93 179 93.4477 179 94H181ZM178.773 97.6481C178.561 98.1583 178.803 98.7433 179.313 98.9549C179.824 99.1664 180.409 98.9244 180.62 98.4142L178.773 97.6481ZM177.914 101.12C178.424 100.909 178.666 100.324 178.455 99.8134C178.243 99.3033 177.658 99.0612 177.148 99.2728L177.914 101.12ZM173.5 99.5C172.948 99.5 172.5 99.9477 172.5 100.5C172.5 101.052 172.948 101.5 173.5 101.5V99.5ZM168.5 101.5C169.052 101.5 169.5 101.052 169.5 100.5C169.5 99.9477 169.052 99.5 168.5 99.5V101.5ZM163.5 99.5C162.948 99.5 162.5 99.9477 162.5 100.5C162.5 101.052 162.948 101.5 163.5 101.5V99.5ZM158.5 101.5C159.052 101.5 159.5 101.052 159.5 100.5C159.5 99.9477 159.052 99.5 158.5 99.5V101.5ZM156 100.5V99.5C155.591 99.5 155.204 99.4189 154.852 99.2728L154.469 100.196L154.086 101.12C154.677 101.365 155.324 101.5 156 101.5V100.5ZM152.304 98.0312L153.227 97.6481C153.081 97.2958 153 96.9086 153 96.5H152H151C151 97.1761 151.135 97.8233 151.38 98.4142L152.304 98.0312ZM152 96.5H153V94H152H151V96.5H152ZM152 89H153V84H152H151V89H152ZM152 79H153V76.5H152H151V79H152ZM152 76.5H153C153 76.0914 153.081 75.7042 153.227 75.3519L152.304 74.9688L151.38 74.5858C151.135 75.1767 151 75.8239 151 76.5H152ZM154.469 72.8035L154.852 73.7272C155.204 73.5811 155.591 73.5 156 73.5V72.5V71.5C155.324 71.5 154.677 71.6347 154.086 71.8798L154.469 72.8035ZM156 72.5V73.5H158.5V72.5V71.5H156V72.5ZM163.5 72.5V73.5H168.5V72.5V71.5H163.5V72.5ZM173.5 72.5V73.5H176V72.5V71.5H173.5V72.5ZM176 72.5V73.5C176.409 73.5 176.796 73.5811 177.148 73.7272L177.531 72.8035L177.914 71.8798C177.323 71.6347 176.676 71.5 176 71.5V72.5ZM179.696 74.9688L178.773 75.3519C178.919 75.7042 179 76.0914 179 76.5H180H181C181 75.8239 180.865 75.1767 180.62 74.5858L179.696 74.9688ZM180 76.5H179V79H180H181V76.5H180ZM180 84H179V89H180H181V84H180ZM180 94H179V96.5H180H181V94H180ZM180 96.5H179C179 96.9086 178.919 97.2958 178.773 97.6481L179.696 98.0312L180.62 98.4142C180.865 97.8233 181 97.1761 181 96.5H180ZM177.531 100.196L177.148 99.2728C176.796 99.4189 176.409 99.5 176 99.5V100.5V101.5C176.676 101.5 177.323 101.365 177.914 101.12L177.531 100.196ZM176 100.5V99.5H173.5V100.5V101.5H176V100.5ZM168.5 100.5V99.5H163.5V100.5V101.5H168.5V100.5ZM158.5 100.5V99.5H156V100.5V101.5H158.5V100.5ZM155.235 98.349C154.215 97.9259 153.045 98.4101 152.621 99.4304C152.198 100.451 152.682 101.621 153.703 102.044L155.235 98.349ZM150.456 98.7973C150.879 99.8176 152.049 100.302 153.07 99.8786C154.09 99.4555 154.574 98.2854 154.151 97.265L150.456 98.7973ZM154 94C154 92.8954 153.105 92 152 92C150.895 92 150 92.8954 150 94H154ZM150 89C150 90.1046 150.895 91 152 91C153.105 91 154 90.1046 154 89H150ZM154 84C154 82.8954 153.105 82 152 82C150.895 82 150 82.8954 150 84H154ZM150 79C150 80.1046 150.895 81 152 81C153.105 81 154 80.1046 154 79H150ZM154.151 75.735C154.574 74.7146 154.09 73.5445 153.07 73.1214C152.049 72.6983 150.879 73.1824 150.456 74.2027L154.151 75.735ZM153.703 70.9561C152.682 71.3792 152.198 72.5493 152.621 73.5696C153.045 74.5899 154.215 75.0741 155.235 74.651L153.703 70.9561ZM158.5 74.5C159.605 74.5 160.5 73.6046 160.5 72.5C160.5 71.3954 159.605 70.5 158.5 70.5V74.5ZM163.5 70.5C162.395 70.5 161.5 71.3954 161.5 72.5C161.5 73.6046 162.395 74.5 163.5 74.5V70.5ZM168.5 74.5C169.605 74.5 170.5 73.6046 170.5 72.5C170.5 71.3954 169.605 70.5 168.5 70.5V74.5ZM173.5 70.5C172.395 70.5 171.5 71.3954 171.5 72.5C171.5 73.6046 172.395 74.5 173.5 74.5V70.5ZM176.765 74.651C177.785 75.0741 178.955 74.5899 179.379 73.5696C179.802 72.5493 179.318 71.3792 178.297 70.9561L176.765 74.651ZM181.544 74.2027C181.121 73.1824 179.951 72.6983 178.93 73.1214C177.91 73.5445 177.426 74.7146 177.849 75.735L181.544 74.2027ZM178 79C178 80.1046 178.895 81 180 81C181.105 81 182 80.1046 182 79H178ZM182 84C182 82.8954 181.105 82 180 82C178.895 82 178 82.8954 178 84H182ZM178 89C178 90.1046 178.895 91 180 91C181.105 91 182 90.1046 182 89H178ZM182 94C182 92.8954 181.105 92 180 92C178.895 92 178 92.8954 178 94H182ZM177.849 97.265C177.426 98.2854 177.91 99.4555 178.93 99.8786C179.951 100.302 181.121 99.8176 181.544 98.7973L177.849 97.265ZM178.297 102.044C179.318 101.621 179.802 100.451 179.379 99.4304C178.955 98.4101 177.785 97.9259 176.765 98.349L178.297 102.044ZM173.5 98.5C172.395 98.5 171.5 99.3954 171.5 100.5C171.5 101.605 172.395 102.5 173.5 102.5V98.5ZM168.5 102.5C169.605 102.5 170.5 101.605 170.5 100.5C170.5 99.3954 169.605 98.5 168.5 98.5V102.5ZM163.5 98.5C162.395 98.5 161.5 99.3954 161.5 100.5C161.5 101.605 162.395 102.5 163.5 102.5V98.5ZM158.5 102.5C159.605 102.5 160.5 101.605 160.5 100.5C160.5 99.3954 159.605 98.5 158.5 98.5V102.5ZM156 100.5V98.5C155.725 98.5 155.468 98.4457 155.235 98.349L154.469 100.196L153.703 102.044C154.413 102.338 155.19 102.5 156 102.5V100.5ZM152.304 98.0312L154.151 97.265C154.054 97.032 154 96.7749 154 96.5H152H150C150 97.3099 150.162 98.087 150.456 98.7973L152.304 98.0312ZM152 96.5H154V94H152H150V96.5H152ZM152 89H154V84H152H150V89H152ZM152 79H154V76.5H152H150V79H152ZM152 76.5H154C154 76.2251 154.054 75.968 154.151 75.735L152.304 74.9688L150.456 74.2027C150.162 74.913 150 75.6901 150 76.5H152ZM154.469 72.8035L155.235 74.651C155.468 74.5543 155.725 74.5 156 74.5V72.5V70.5C155.19 70.5 154.413 70.6616 153.703 70.9561L154.469 72.8035ZM156 72.5V74.5H158.5V72.5V70.5H156V72.5ZM163.5 72.5V74.5H168.5V72.5V70.5H163.5V72.5ZM173.5 72.5V74.5H176V72.5V70.5H173.5V72.5ZM176 72.5V74.5C176.275 74.5 176.532 74.5543 176.765 74.651L177.531 72.8035L178.297 70.9561C177.587 70.6616 176.81 70.5 176 70.5V72.5ZM179.696 74.9688L177.849 75.735C177.946 75.968 178 76.2251 178 76.5H180H182C182 75.6901 181.838 74.913 181.544 74.2027L179.696 74.9688ZM180 76.5H178V79H180H182V76.5H180ZM180 84H178V89H180H182V84H180ZM180 94H178V96.5H180H182V94H180ZM180 96.5H178C178 96.7749 177.946 97.032 177.849 97.265L179.696 98.0312L181.544 98.7973C181.838 98.087 182 97.3099 182 96.5H180ZM177.531 100.196L176.765 98.349C176.532 98.4457 176.275 98.5 176 98.5V100.5V102.5C176.81 102.5 177.587 102.338 178.297 102.044L177.531 100.196ZM176 100.5V98.5H173.5V100.5V102.5H176V100.5ZM168.5 100.5V98.5H163.5V100.5V102.5H168.5V100.5ZM158.5 100.5V98.5H156V100.5V102.5H158.5V100.5Z" fill="#BBF451" mask="url(#path-11-inside-2_1751_2176)"/>
<path d="M161.5 83.5L160 81.5L158.5 83.5M173.5 83.5L172 81.5L170.5 83.5M164 89C164 89 163.5 91 166 91C168.5 91 168 89 168 89H164Z" stroke="#BBF451" stroke-width="2" stroke-linecap="round" stroke-linejoin="round"/>
<path d="M114 116.5C114 114.291 115.791 112.5 118 112.5H138C140.209 112.5 142 114.291 142 116.5V136.5C142 138.709 140.209 140.5 138 140.5H118C115.791 140.5 114 138.709 114 136.5V116.5Z" fill="#53EAFD"/>
<path d="M122.4 128.6C122.4 128.6 124.5 131.4 128 131.4C131.5 131.4 133.6 128.6 133.6 128.6M123.8 121.6H123.814M132.2 121.6H132.214" stroke="#62748E" stroke-width="2" stroke-linecap="round" stroke-linejoin="round"/>
<path d="M87 129.5L86 129.5C86 129.765 86.1054 130.02 86.2929 130.207C86.4804 130.395 86.7348 130.5 87 130.5L87 129.5ZM87.7071 105.793C87.3166 105.402 86.6834 105.402 86.2929 105.793L79.9289 112.157C79.5384 112.547 79.5384 113.181 79.9289 113.571C80.3195 113.962 80.9526 113.962 81.3431 113.571L87 107.914L92.6569 113.571C93.0474 113.962 93.6805 113.962 94.0711 113.571C94.4616 113.181 94.4616 112.547 94.0711 112.157L87.7071 105.793ZM87 129.5L88 129.5L88 106.5L87 106.5L86 106.5L86 129.5L87 129.5ZM87 129.5L87 130.5L103 130.5L103 129.5L103 128.5L87 128.5L87 129.5Z" fill="#1D293D"/>
<path d="M167 129.5L168 129.5C168 129.765 167.895 130.02 167.707 130.207C167.52 130.395 167.265 130.5 167 130.5L167 129.5ZM166.293 105.793C166.683 105.402 167.317 105.402 167.707 105.793L174.071 112.157C174.462 112.547 174.462 113.181 174.071 113.571C173.681 113.962 173.047 113.962 172.657 113.571L167 107.914L161.343 113.571C160.953 113.962 160.319 113.962 159.929 113.571C159.538 113.181 159.538 112.547 159.929 112.157L166.293 105.793ZM167 129.5L166 129.5L166 106.5L167 106.5L168 106.5L168 129.5L167 129.5ZM167 129.5L167 130.5L151 130.5L151 129.5L151 128.5L167 128.5L167 129.5Z" fill="#1D293D"/>
</svg>
