<svg width="256" height="160" viewBox="0 0 256 160" fill="none" xmlns="http://www.w3.org/2000/svg">
<path d="M114 16C114 13.7909 115.791 12 118 12H138C140.209 12 142 13.7909 142 16V36C142 38.2091 140.209 40 138 40H118C115.791 40 114 38.2091 114 36V16Z" fill="#E2E8F0"/>
<path d="M124 19.5L120 23.5M120 19.5L124 23.5" stroke="#62748E" stroke-width="2" stroke-linecap="round" stroke-linejoin="round"/>
<path d="M122.4 30.9C122.4 30.9 124.5 28.1 128 28.1C131.5 28.1 133.6 30.9 133.6 30.9" stroke="#62748E" stroke-width="2" stroke-linecap="round" stroke-linejoin="round"/>
<path d="M136 19.5L132 23.5M132 19.5L136 23.5" stroke="#62748E" stroke-width="2" stroke-linecap="round" stroke-linejoin="round"/>
<path d="M128.707 43.2929C128.317 42.9024 127.683 42.9024 127.293 43.2929L120.929 49.6569C120.538 50.0474 120.538 50.6805 120.929 51.0711C121.319 51.4616 121.953 51.4616 122.343 51.0711L128 45.4142L133.657 51.0711C134.047 51.4616 134.681 51.4616 135.071 51.0711C135.462 50.6805 135.462 50.0474 135.071 49.6569L128.707 43.2929ZM128 61L129 61L129 44L128 44L127 44L127 61L128 61Z" fill="#1D293D"/>
<path d="M114 79C114 71.268 120.268 65 128 65V65C135.732 65 142 71.268 142 79V79C142 86.732 135.732 93 128 93V93C120.268 93 114 86.732 114 79V79Z" fill="#BBF451"/>
<path d="M123.5 78L122 76M134 76L132.5 78" stroke="#008236" stroke-width="2" stroke-linecap="round" stroke-linejoin="round"/>
<circle cx="128" cy="83.5" r="2" fill="#008236"/>
<path d="M128.707 96.2929C128.317 95.9024 127.683 95.9024 127.293 96.2929L120.929 102.657C120.538 103.047 120.538 103.681 120.929 104.071C121.319 104.462 121.953 104.462 122.343 104.071L128 98.4142L133.657 104.071C134.047 104.462 134.681 104.462 135.071 104.071C135.462 103.681 135.462 103.047 135.071 102.657L128.707 96.2929ZM128 114L129 114L129 97L128 97L127 97L127 114L128 114Z" fill="#1D293D"/>
<path d="M114 124C114 121.791 115.791 120 118 120H138C140.209 120 142 121.791 142 124V144C142 146.209 140.209 148 138 148H118C115.791 148 114 146.209 114 144V124Z" fill="#53EAFD"/>
<path d="M122.4 136.1C122.4 136.1 124.5 138.9 128 138.9C131.5 138.9 133.6 136.1 133.6 136.1M123.8 129.1H123.814M132.2 129.1H132.214" stroke="#62748E" stroke-width="2" stroke-linecap="round" stroke-linejoin="round"/>
<g filter="url(#filter0_d_1751_2280)">
<path d="M106 70C106 65.5817 109.582 62 114 62C118.418 62 122 65.5817 122 70C122 74.4183 118.418 78 114 78C109.582 78 106 74.4183 106 70Z" fill="#EC003F"/>
<g clip-path="url(#clip0_1751_2280)">
<path d="M114 69V70.3333M114 71.6667H114.003M117.243 72L114.577 67.3333C114.518 67.2307 114.434 67.1454 114.332 67.086C114.23 67.0266 114.115 66.9954 113.997 66.9954C113.879 66.9954 113.763 67.0266 113.661 67.086C113.559 67.1454 113.475 67.2307 113.417 67.3333L110.75 72C110.691 72.1018 110.66 72.2173 110.661 72.3348C110.661 72.4524 110.692 72.5677 110.751 72.6693C110.811 72.7708 110.896 72.8549 110.998 72.9129C111.1 72.971 111.216 73.0011 111.333 73H116.667C116.784 72.9999 116.898 72.969 117 72.9104C117.101 72.8519 117.185 72.7677 117.243 72.6664C117.302 72.565 117.333 72.4501 117.333 72.3332C117.333 72.2162 117.302 72.1013 117.243 72Z" stroke="white" stroke-linecap="round" stroke-linejoin="round"/>
</g>
</g>
<defs>
<filter id="filter0_d_1751_2280" x="104" y="61" width="20" height="20" filterUnits="userSpaceOnUse" color-interpolation-filters="sRGB">
<feFlood flood-opacity="0" result="BackgroundImageFix"/>
<feColorMatrix in="SourceAlpha" type="matrix" values="0 0 0 0 0 0 0 0 0 0 0 0 0 0 0 0 0 0 127 0" result="hardAlpha"/>
<feOffset dy="1"/>
<feGaussianBlur stdDeviation="1"/>
<feColorMatrix type="matrix" values="0 0 0 0 0 0 0 0 0 0 0 0 0 0 0 0 0 0 0.05 0"/>
<feBlend mode="normal" in2="BackgroundImageFix" result="effect1_dropShadow_1751_2280"/>
<feBlend mode="normal" in="SourceGraphic" in2="effect1_dropShadow_1751_2280" result="shape"/>
</filter>
<clipPath id="clip0_1751_2280">
<rect width="8" height="8" fill="white" transform="translate(110 66)"/>
</clipPath>
</defs>
</svg>
