<svg width="256" height="160" viewBox="0 0 256 160" fill="none" xmlns="http://www.w3.org/2000/svg">
<rect x="84.5" y="27.5" width="87" height="105" fill="#E2E8F0"/>
<rect x="84.5" y="27.5" width="87" height="105" stroke="white" stroke-dasharray="2 2"/>
<path d="M102.625 61.875C102.625 57.8709 105.871 54.625 109.875 54.625H146.125C150.129 54.625 153.375 57.8709 153.375 61.875V98.125C153.375 102.129 150.129 105.375 146.125 105.375H109.875C105.871 105.375 102.625 102.129 102.625 98.125V61.875Z" fill="white"/>
<path d="M117.85 83.8063C117.85 83.8063 121.656 88.8813 128 88.8813C134.344 88.8813 138.15 83.8063 138.15 83.8063M120.387 71.1188H120.413M135.612 71.1188H135.638" stroke="black" stroke-width="4.14286" stroke-linecap="round" stroke-linejoin="round"/>
<g filter="url(#filter0_dd_2641_659)">
<path d="M92 54.5C92 48.1487 97.1487 43 103.5 43V43C109.851 43 115 48.1487 115 54.5V54.5C115 60.8513 109.851 66 103.5 66V66C97.1487 66 92 60.8513 92 54.5V54.5Z" fill="#7CCF00"/>
<g clip-path="url(#clip0_2641_659)">
<path d="M103.272 49.8498C103.293 49.8074 103.326 49.7717 103.366 49.7467C103.406 49.7217 103.453 49.7085 103.5 49.7085C103.547 49.7085 103.594 49.7217 103.634 49.7467C103.674 49.7717 103.707 49.8074 103.728 49.8498L104.834 52.0918C104.907 52.2394 105.015 52.3671 105.148 52.4639C105.281 52.5607 105.436 52.6237 105.599 52.6477L108.074 53.0099C108.121 53.0167 108.165 53.0365 108.201 53.067C108.238 53.0976 108.264 53.1376 108.279 53.1827C108.294 53.2278 108.296 53.276 108.284 53.322C108.273 53.3681 108.249 53.41 108.215 53.4431L106.425 55.1863C106.307 55.3013 106.218 55.4433 106.167 55.6001C106.116 55.7569 106.104 55.9237 106.132 56.0862L106.555 58.5491C106.563 58.596 106.558 58.6442 106.54 58.6884C106.522 58.7325 106.492 58.7707 106.454 58.7987C106.415 58.8267 106.37 58.8433 106.322 58.8466C106.275 58.8499 106.227 58.8398 106.185 58.8174L103.972 57.654C103.827 57.5774 103.664 57.5374 103.5 57.5374C103.335 57.5374 103.173 57.5774 103.027 57.654L100.815 58.8174C100.773 58.8396 100.725 58.8496 100.678 58.8463C100.63 58.8429 100.585 58.8263 100.546 58.7983C100.508 58.7704 100.478 58.7322 100.46 58.6881C100.443 58.6441 100.438 58.5959 100.446 58.5491L100.868 56.0866C100.896 55.9241 100.884 55.7572 100.833 55.6003C100.782 55.4434 100.693 55.3014 100.575 55.1863L98.7849 53.4435C98.7507 53.4105 98.7265 53.3685 98.715 53.3224C98.7034 53.2762 98.7051 53.2277 98.7198 53.1825C98.7345 53.1372 98.7616 53.097 98.798 53.0664C98.8344 53.0358 98.8787 53.0161 98.9258 53.0094L101.401 52.6477C101.564 52.6239 101.719 52.561 101.852 52.4641C101.985 52.3673 102.093 52.2395 102.166 52.0918L103.272 49.8498Z" fill="white" stroke="white" stroke-width="1.4375" stroke-linecap="round" stroke-linejoin="round"/>
</g>
</g>
<path d="M156.887 30.861C156.711 30.7383 156.506 30.6649 156.292 30.6485C156.078 30.6321 155.864 30.6733 155.671 30.7679L152.26 32.4437C152.2 32.4711 152.134 32.4783 152.07 32.4644C152.006 32.4505 151.949 32.4162 151.906 32.3666C151.864 32.3171 151.838 32.255 151.834 32.1899C151.83 32.1247 151.848 32.06 151.884 32.0056L154.059 28.8883C154.182 28.7126 154.256 28.5072 154.272 28.2934C154.288 28.0797 154.247 27.8655 154.153 27.673L152.477 24.2611C152.45 24.2017 152.442 24.135 152.456 24.071C152.47 24.007 152.504 23.9493 152.554 23.9066C152.603 23.864 152.666 23.8388 152.731 23.8349C152.796 23.831 152.861 23.8485 152.916 23.8849L156.032 26.0614C156.208 26.1841 156.413 26.2575 156.627 26.2739C156.841 26.2903 157.055 26.2491 157.248 26.1546L160.659 24.4783C160.719 24.4503 160.786 24.4426 160.85 24.4564C160.914 24.4701 160.972 24.5046 161.015 24.5544C161.058 24.6042 161.083 24.6667 161.087 24.7323C161.09 24.7978 161.073 24.8628 161.036 24.9173L158.859 28.0337C158.737 28.2095 158.663 28.415 158.647 28.6288C158.631 28.8426 158.672 29.0569 158.766 29.2494L160.442 32.6614C160.47 32.7207 160.477 32.7875 160.463 32.8515C160.45 32.9154 160.415 32.9732 160.366 33.0158C160.316 33.0584 160.254 33.0836 160.188 33.0875C160.123 33.0914 160.058 33.0739 160.004 33.0375L156.887 30.861Z" fill="#74D4FF"/>
<path d="M206.045 74.3132C205.832 74.2966 205.617 74.3375 205.425 74.4318C205.232 74.5261 205.068 74.6702 204.95 74.8493L202.859 78.0237C202.822 78.0774 202.768 78.1174 202.706 78.1377C202.644 78.1581 202.577 78.1576 202.515 78.1365C202.454 78.1153 202.401 78.0746 202.364 78.0205C202.328 77.9664 202.31 77.9018 202.313 77.8366L202.608 74.0466C202.625 73.8329 202.584 73.6186 202.49 73.4261C202.395 73.2335 202.251 73.0697 202.072 72.9517L198.898 70.8605C198.844 70.8234 198.804 70.7696 198.783 70.7074C198.763 70.6453 198.763 70.5781 198.784 70.5162C198.806 70.4542 198.846 70.4009 198.901 70.3644C198.955 70.3279 199.02 70.3102 199.085 70.3139L202.875 70.6098C203.089 70.6265 203.303 70.5855 203.496 70.4912C203.688 70.3969 203.852 70.2528 203.97 70.0737L206.061 66.8991C206.098 66.8449 206.151 66.8043 206.214 66.7836C206.276 66.7629 206.343 66.7632 206.406 66.7845C206.468 66.8058 206.521 66.8469 206.558 66.9015C206.594 66.956 206.612 67.0211 206.608 67.0866L206.312 70.8762C206.295 71.09 206.336 71.3044 206.43 71.497C206.525 71.6895 206.669 71.8534 206.848 71.9713L210.022 74.0625C210.076 74.0997 210.117 74.1534 210.137 74.2156C210.158 74.2778 210.157 74.3449 210.136 74.4069C210.115 74.4688 210.074 74.5221 210.02 74.5586C209.965 74.5951 209.9 74.6129 209.835 74.6091L206.045 74.3132Z" fill="#74D4FF"/>
<path d="M75.206 82.4737C74.9922 82.4571 74.7779 82.498 74.5853 82.5923C74.3927 82.6866 74.2288 82.8308 74.1109 83.0098L72.0197 86.1842C71.9825 86.2379 71.9288 86.2779 71.8667 86.2983C71.8047 86.3186 71.7377 86.3182 71.676 86.297C71.6142 86.2758 71.5611 86.2351 71.5245 86.181C71.488 86.1269 71.4702 86.0623 71.4737 85.9971L71.7684 82.2071C71.7851 81.9934 71.7442 81.7792 71.65 81.5866C71.5559 81.394 71.4118 81.2302 71.2329 81.1122L68.0585 79.021C68.0046 78.9839 67.9643 78.9301 67.9437 78.868C67.9232 78.8058 67.9236 78.7386 67.9448 78.6767C67.966 78.6147 68.0069 78.5615 68.0613 78.5249C68.1156 78.4884 68.1804 78.4707 68.2458 78.4744L72.0354 78.7704C72.2492 78.787 72.4635 78.746 72.6561 78.6518C72.8487 78.5575 73.0125 78.4133 73.1305 78.2342L75.2211 75.0596C75.2582 75.0054 75.312 74.9648 75.3743 74.9441C75.4366 74.9234 75.504 74.9238 75.5661 74.945C75.6282 74.9663 75.6816 75.0074 75.7182 75.062C75.7547 75.1165 75.7723 75.1816 75.7683 75.2471L75.4724 79.0368C75.4557 79.2505 75.4967 79.4649 75.591 79.6575C75.6853 79.8501 75.8294 80.0139 76.0085 80.1319L79.1829 82.2231C79.2368 82.2602 79.2771 82.3139 79.2977 82.3761C79.3182 82.4383 79.3178 82.5055 79.2966 82.5674C79.2754 82.6293 79.2344 82.6826 79.1801 82.7191C79.1258 82.7556 79.061 82.7734 78.9956 82.7696L75.206 82.4737Z" fill="#74D4FF"/>
<path d="M174.709 43.7383C174.664 43.4384 174.54 43.156 174.349 42.9206C174.158 42.6851 173.907 42.5052 173.623 42.3995L168.584 40.526C168.499 40.4917 168.426 40.4304 168.379 40.3514C168.331 40.2724 168.31 40.18 168.32 40.0882C168.329 39.9964 168.369 39.9102 168.432 39.8427C168.495 39.7752 168.578 39.7301 168.669 39.7142L173.985 38.9168C174.285 38.8719 174.567 38.7476 174.802 38.5566C175.038 38.3657 175.218 38.1152 175.324 37.8312L177.197 32.7929C177.231 32.7068 177.292 32.6342 177.372 32.5862C177.451 32.5382 177.543 32.5174 177.635 32.527C177.728 32.5365 177.814 32.576 177.882 32.6392C177.949 32.7025 177.994 32.7862 178.01 32.8774L178.805 38.1933C178.85 38.4932 178.975 38.7756 179.166 39.011C179.357 39.2465 179.608 39.4264 179.892 39.5321L184.93 41.4048C185.017 41.4386 185.09 41.4998 185.138 41.5791C185.186 41.6584 185.207 41.7514 185.198 41.8437C185.188 41.9361 185.148 42.0227 185.085 42.0904C185.021 42.158 184.937 42.203 184.846 42.2183L179.53 43.0139C179.23 43.0589 178.947 43.1834 178.712 43.3745C178.477 43.5655 178.297 43.8162 178.191 44.1004L176.317 49.1387C176.283 49.2248 176.222 49.2974 176.143 49.3454C176.064 49.3934 175.971 49.4142 175.879 49.4046C175.787 49.3951 175.701 49.3556 175.633 49.2924C175.565 49.2291 175.52 49.1454 175.505 49.0542L174.709 43.7383Z" fill="#74D4FF"/>
<path d="M76.1804 122.221C76.0107 121.97 75.7767 121.769 75.5029 121.638C75.229 121.508 74.9253 121.454 74.6233 121.481L69.2693 121.96C69.1772 121.966 69.0856 121.941 69.0085 121.891C68.9314 121.84 68.873 121.765 68.8421 121.678C68.8111 121.591 68.8094 121.497 68.8372 121.409C68.865 121.321 68.9207 121.244 68.9959 121.191L73.4504 118.182C73.7016 118.012 73.9028 117.778 74.033 117.504C74.1633 117.231 74.2178 116.927 74.191 116.625L73.7121 111.271C73.7058 111.179 73.7298 111.087 73.7805 111.01C73.8313 110.932 73.906 110.873 73.9932 110.842C74.0805 110.811 74.1754 110.81 74.2637 110.838C74.3519 110.866 74.4286 110.922 74.4819 110.998L77.4894 115.453C77.6591 115.704 77.893 115.905 78.1669 116.035C78.4407 116.165 78.7445 116.22 79.0465 116.193L84.4002 115.713C84.4928 115.707 84.585 115.73 84.6628 115.781C84.7405 115.832 84.7995 115.907 84.8306 115.994C84.8617 116.082 84.8632 116.177 84.835 116.265C84.8067 116.354 84.7502 116.431 84.6741 116.484L80.2191 119.491C79.9678 119.661 79.7666 119.895 79.6364 120.169C79.5062 120.443 79.4518 120.746 79.4787 121.048L79.9577 126.402C79.964 126.495 79.94 126.587 79.8892 126.664C79.8385 126.741 79.7638 126.8 79.6765 126.831C79.5893 126.862 79.4943 126.864 79.4061 126.836C79.3178 126.808 79.2412 126.752 79.1878 126.676L76.1804 122.221Z" fill="#74D4FF"/>
<path d="M61.2404 59.0511C61.264 58.8763 61.2405 58.6983 61.172 58.5358C61.1036 58.3732 60.9929 58.2319 60.8513 58.1266L58.3421 56.2603C58.2998 56.2272 58.2694 56.1813 58.2556 56.1294C58.2418 56.0775 58.2453 56.0225 58.2656 55.9728C58.2859 55.923 58.3218 55.8813 58.368 55.8538C58.4141 55.8264 58.468 55.8147 58.5214 55.8206L61.6204 56.2403C61.7951 56.264 61.973 56.2405 62.1356 56.1721C62.2981 56.1038 62.4394 55.9932 62.5447 55.8517L64.411 53.3425C64.444 53.2999 64.49 53.2694 64.542 53.2554C64.5941 53.2415 64.6492 53.2449 64.6991 53.2653C64.749 53.2856 64.7908 53.3217 64.8183 53.368C64.8457 53.4144 64.8572 53.4684 64.8511 53.5219L64.4305 56.6206C64.4069 56.7954 64.4304 56.9733 64.4989 57.1359C64.5673 57.2985 64.678 57.4398 64.8196 57.5451L67.329 59.4109C67.3718 59.4439 67.4026 59.4899 67.4167 59.5421C67.4307 59.5942 67.4273 59.6496 67.4069 59.6996C67.3865 59.7496 67.3503 59.7916 67.3038 59.819C67.2572 59.8464 67.203 59.8579 67.1493 59.8515L64.0507 59.4309C63.8759 59.4072 63.698 59.4308 63.5354 59.4993C63.3728 59.5677 63.2315 59.6784 63.1262 59.8199L61.2599 62.3292C61.2269 62.3717 61.1809 62.4023 61.1289 62.4163C61.0768 62.4302 61.0217 62.4267 60.9718 62.4064C60.9219 62.3861 60.8801 62.35 60.8526 62.3036C60.8252 62.2573 60.8136 62.2033 60.8198 62.1497L61.2404 59.0511Z" fill="#74D4FF"/>
<path d="M41.899 67.4573C41.7037 67.236 41.4526 67.0711 41.1719 66.9798C40.8912 66.8884 40.5911 66.874 40.3029 66.9379L35.1945 68.0721C35.1063 68.0894 35.0149 68.0775 34.9341 68.0382C34.8533 67.9989 34.7875 67.9343 34.7467 67.8542C34.706 67.7741 34.6924 67.6829 34.7082 67.5944C34.724 67.506 34.7681 67.425 34.8341 67.364L38.7567 63.9002C38.9779 63.705 39.1428 63.454 39.2342 63.1734C39.3256 62.8929 39.3401 62.5929 39.2764 62.3048L38.1423 57.1964C38.1245 57.108 38.1362 57.0163 38.1755 56.9352C38.2148 56.8541 38.2795 56.788 38.3598 56.7472C38.4402 56.7063 38.5316 56.6928 38.6203 56.7088C38.709 56.7247 38.7901 56.7693 38.8511 56.8356L42.3134 60.759C42.5087 60.9803 42.7598 61.1451 43.0405 61.2365C43.3212 61.3278 43.6213 61.3423 43.9095 61.2783L49.0175 60.1435C49.1061 60.1254 49.1981 60.1368 49.2796 60.176C49.361 60.2153 49.4273 60.2802 49.4683 60.3607C49.5093 60.4413 49.5227 60.5331 49.5066 60.622C49.4904 60.7109 49.4455 60.7921 49.3787 60.853L45.4553 64.3153C45.2341 64.5107 45.0692 64.7618 44.9778 65.0425C44.8865 65.3232 44.8721 65.6232 44.936 65.9114L46.0701 71.0198C46.0879 71.1082 46.0762 71.1999 46.0369 71.2811C45.9976 71.3622 45.9329 71.4282 45.8526 71.4691C45.7722 71.51 45.6808 71.5235 45.5921 71.5075C45.5034 71.4915 45.4223 71.447 45.3613 71.3806L41.899 67.4573Z" fill="#74D4FF"/>
<path d="M174.899 121.457C174.704 121.236 174.453 121.071 174.172 120.98C173.891 120.888 173.591 120.874 173.303 120.938L168.194 122.072C168.106 122.089 168.015 122.078 167.934 122.038C167.853 121.999 167.787 121.934 167.747 121.854C167.706 121.774 167.692 121.683 167.708 121.594C167.724 121.506 167.768 121.425 167.834 121.364L171.757 117.9C171.978 117.705 172.143 117.454 172.234 117.173C172.326 116.893 172.34 116.593 172.276 116.305L171.142 111.196C171.125 111.108 171.136 111.016 171.175 110.935C171.215 110.854 171.28 110.788 171.36 110.747C171.44 110.706 171.532 110.693 171.62 110.709C171.709 110.725 171.79 110.769 171.851 110.836L175.313 114.759C175.509 114.98 175.76 115.145 176.041 115.236C176.321 115.328 176.621 115.342 176.909 115.278L182.018 114.143C182.106 114.125 182.198 114.137 182.28 114.176C182.361 114.215 182.427 114.28 182.468 114.361C182.509 114.441 182.523 114.533 182.507 114.622C182.49 114.711 182.445 114.792 182.379 114.853L178.455 118.315C178.234 118.511 178.069 118.762 177.978 119.042C177.887 119.323 177.872 119.623 177.936 119.911L179.07 125.02C179.088 125.108 179.076 125.2 179.037 125.281C178.998 125.362 178.933 125.428 178.853 125.469C178.772 125.51 178.681 125.523 178.592 125.507C178.503 125.492 178.422 125.447 178.361 125.381L174.899 121.457Z" fill="#74D4FF"/>
<path d="M87.082 99.7149C87.0669 99.5511 87.0082 99.3944 86.912 99.2611C86.8158 99.1277 86.6856 99.0226 86.535 98.9566L83.865 97.787C83.8196 97.7658 83.7824 97.7304 83.759 97.6861C83.7356 97.6419 83.7273 97.5912 83.7353 97.5418C83.7433 97.4924 83.7672 97.4469 83.8034 97.4123C83.8395 97.3777 83.886 97.3559 83.9357 97.3501L86.8384 97.0822C87.0021 97.0671 87.1588 97.0085 87.2921 96.9124C87.4255 96.8163 87.5306 96.6862 87.5967 96.5357L88.7663 93.8657C88.7873 93.8201 88.8228 93.7827 88.8671 93.7592C88.9114 93.7356 88.9622 93.7272 89.0118 93.7352C89.0614 93.7432 89.1069 93.7672 89.1416 93.8036C89.1762 93.8399 89.198 93.8866 89.2036 93.9365L89.4706 96.8391C89.4857 97.0028 89.5444 97.1595 89.6406 97.2929C89.7368 97.4262 89.8669 97.5314 90.0176 97.5974L92.6876 98.7665C92.7334 98.7875 92.771 98.8229 92.7947 98.8673C92.8185 98.9117 92.8269 98.9627 92.8189 99.0124C92.8108 99.0621 92.7867 99.1078 92.7502 99.1425C92.7137 99.1771 92.6668 99.1989 92.6167 99.2043L89.7142 99.4713C89.5504 99.4864 89.3937 99.5451 89.2604 99.6413C89.127 99.7375 89.0219 99.8676 88.9559 100.018L87.7863 102.688C87.7652 102.734 87.7298 102.771 87.6855 102.795C87.6411 102.818 87.5903 102.827 87.5407 102.819C87.4912 102.811 87.4456 102.787 87.411 102.75C87.3763 102.714 87.3545 102.667 87.3489 102.617L87.082 99.7149Z" fill="#74D4FF"/>
<path d="M97.082 130.715C97.0669 130.551 97.0082 130.394 96.912 130.261C96.8158 130.128 96.6856 130.023 96.535 129.957L93.865 128.787C93.8196 128.766 93.7824 128.73 93.759 128.686C93.7356 128.642 93.7273 128.591 93.7353 128.542C93.7433 128.492 93.7672 128.447 93.8034 128.412C93.8395 128.378 93.886 128.356 93.9357 128.35L96.8384 128.082C97.0021 128.067 97.1588 128.009 97.2921 127.912C97.4255 127.816 97.5306 127.686 97.5967 127.536L98.7663 124.866C98.7873 124.82 98.8228 124.783 98.8671 124.759C98.9114 124.736 98.9622 124.727 99.0118 124.735C99.0614 124.743 99.1069 124.767 99.1416 124.804C99.1762 124.84 99.198 124.887 99.2036 124.936L99.4706 127.839C99.4857 128.003 99.5444 128.16 99.6406 128.293C99.7368 128.426 99.8669 128.531 100.018 128.597L102.688 129.767C102.733 129.787 102.771 129.823 102.795 129.867C102.818 129.912 102.827 129.963 102.819 130.012C102.811 130.062 102.787 130.108 102.75 130.142C102.714 130.177 102.667 130.199 102.617 130.204L99.7142 130.471C99.5504 130.486 99.3937 130.545 99.2604 130.641C99.127 130.737 99.0219 130.868 98.9559 131.018L97.7863 133.688C97.7652 133.734 97.7298 133.771 97.6855 133.795C97.6411 133.818 97.5903 133.827 97.5407 133.819C97.4912 133.811 97.4456 133.787 97.411 133.75C97.3763 133.714 97.3545 133.667 97.3489 133.617L97.082 130.715Z" fill="#74D4FF"/>
<path d="M168.284 63.8827C168.195 63.8211 168.092 63.7843 167.985 63.7761C167.878 63.7678 167.77 63.7885 167.673 63.8359L165.961 64.6769C165.932 64.6906 165.898 64.6943 165.866 64.6873C165.834 64.6803 165.805 64.6631 165.784 64.6382C165.763 64.6134 165.75 64.5822 165.748 64.5495C165.746 64.5168 165.755 64.4844 165.773 64.457L166.865 62.8928C166.926 62.8046 166.963 62.7015 166.971 62.5942C166.979 62.487 166.959 62.3795 166.912 62.2829L166.071 60.5708C166.057 60.541 166.053 60.5075 166.06 60.4754C166.067 60.4432 166.084 60.4143 166.109 60.3929C166.134 60.3715 166.165 60.3589 166.198 60.3569C166.231 60.3549 166.263 60.3637 166.291 60.382L167.854 61.4742C167.943 61.5358 168.046 61.5726 168.153 61.5808C168.26 61.589 168.368 61.5684 168.465 61.5209L170.177 60.6797C170.206 60.6657 170.24 60.6619 170.272 60.6688C170.304 60.6757 170.333 60.6929 170.355 60.718C170.376 60.743 170.389 60.7743 170.391 60.8072C170.393 60.8401 170.384 60.8727 170.365 60.9001L169.273 62.4639C169.212 62.5521 169.175 62.6552 169.167 62.7625C169.158 62.8698 169.179 62.9774 169.227 63.074L170.067 64.7861C170.081 64.8159 170.085 64.8494 170.078 64.8815C170.071 64.9136 170.054 64.9426 170.029 64.964C170.004 64.9854 169.973 64.998 169.94 65C169.907 65.0019 169.875 64.9931 169.847 64.9749L168.284 63.8827Z" fill="#74D4FF"/>
<path d="M212.46 101.45C212.371 101.389 212.268 101.352 212.161 101.344C212.054 101.335 211.946 101.356 211.85 101.403L210.137 102.244C210.108 102.258 210.074 102.262 210.042 102.255C210.01 102.248 209.981 102.231 209.96 102.206C209.939 102.181 209.926 102.15 209.924 102.117C209.922 102.084 209.931 102.052 209.949 102.025L211.041 100.46C211.102 100.372 211.139 100.269 211.147 100.162C211.156 100.055 211.135 99.947 211.088 99.8504L210.247 98.1383C210.233 98.1085 210.229 98.075 210.236 98.0429C210.243 98.0108 210.26 97.9818 210.285 97.9604C210.31 97.939 210.341 97.9264 210.374 97.9244C210.407 97.9224 210.439 97.9313 210.467 97.9495L212.031 99.0417C212.119 99.1033 212.222 99.1401 212.329 99.1483C212.437 99.1565 212.544 99.1359 212.641 99.0884L214.353 98.2472C214.382 98.2332 214.416 98.2294 214.448 98.2363C214.48 98.2432 214.51 98.2604 214.531 98.2855C214.552 98.3105 214.565 98.3418 214.567 98.3747C214.569 98.4076 214.56 98.4402 214.542 98.4676L213.449 100.031C213.388 100.12 213.351 100.223 213.343 100.33C213.335 100.437 213.355 100.545 213.403 100.641L214.244 102.354C214.258 102.383 214.261 102.417 214.254 102.449C214.247 102.481 214.23 102.51 214.205 102.531C214.18 102.553 214.149 102.566 214.116 102.567C214.083 102.569 214.051 102.561 214.024 102.542L212.46 101.45Z" fill="#74D4FF"/>
<path d="M63.4597 38.4502C63.3715 38.3886 63.2684 38.3518 63.1611 38.3436C63.0538 38.3353 62.9462 38.356 62.8496 38.4034L61.1375 39.2444C61.1077 39.2581 61.0743 39.2618 61.0423 39.2548C61.0103 39.2478 60.9815 39.2306 60.9601 39.2057C60.9388 39.1809 60.9262 39.1497 60.9241 39.117C60.9221 39.0843 60.9308 39.0519 60.9489 39.0246L62.0407 37.4603C62.1023 37.3721 62.1391 37.269 62.1474 37.1617C62.1556 37.0545 62.135 36.947 62.0877 36.8504L61.2467 35.1383C61.2328 35.1085 61.2291 35.075 61.236 35.0429C61.2429 35.0108 61.2602 34.9818 61.2851 34.9604C61.3101 34.939 61.3413 34.9264 61.3741 34.9244C61.4069 34.9224 61.4395 34.9313 61.4668 34.9495L63.0306 36.0417C63.1188 36.1033 63.222 36.1401 63.3293 36.1483C63.4366 36.1565 63.5441 36.1359 63.6407 36.0884L65.3526 35.2472C65.3825 35.2332 65.4161 35.2294 65.4483 35.2363C65.4805 35.2432 65.5096 35.2604 65.531 35.2855C65.5525 35.3105 65.5651 35.3418 65.567 35.3747C65.5689 35.4076 65.56 35.4402 65.5416 35.4676L64.4494 37.0314C64.3878 37.1196 64.351 37.2228 64.3428 37.33C64.3346 37.4373 64.3552 37.5449 64.4027 37.6415L65.2436 39.3536C65.2575 39.3834 65.2613 39.4169 65.2543 39.449C65.2474 39.4811 65.2301 39.5101 65.2052 39.5315C65.1802 39.5529 65.149 39.5655 65.1162 39.5675C65.0834 39.5694 65.0509 39.5606 65.0235 39.5424L63.4597 38.4502Z" fill="#74D4FF"/>
<path d="M30.4597 110.45C30.3715 110.389 30.2684 110.352 30.1611 110.344C30.0538 110.335 29.9462 110.356 29.8496 110.403L28.1375 111.244C28.1077 111.258 28.0743 111.262 28.0423 111.255C28.0103 111.248 27.9815 111.231 27.9601 111.206C27.9388 111.181 27.9262 111.15 27.9241 111.117C27.9221 111.084 27.9308 111.052 27.9489 111.025L29.0407 109.46C29.1023 109.372 29.1391 109.269 29.1474 109.162C29.1556 109.055 29.135 108.947 29.0877 108.85L28.2467 107.138C28.2328 107.108 28.2291 107.075 28.236 107.043C28.2429 107.011 28.2602 106.982 28.2851 106.96C28.3101 106.939 28.3413 106.926 28.3741 106.924C28.4069 106.922 28.4395 106.931 28.4668 106.95L30.0306 108.042C30.1188 108.103 30.222 108.14 30.3293 108.148C30.4366 108.157 30.5441 108.136 30.6407 108.088L32.3526 107.247C32.3825 107.233 32.4161 107.229 32.4483 107.236C32.4805 107.243 32.5096 107.26 32.531 107.285C32.5525 107.31 32.5651 107.342 32.567 107.375C32.5689 107.408 32.56 107.44 32.5416 107.468L31.4494 109.031C31.3878 109.12 31.351 109.223 31.3428 109.33C31.3346 109.437 31.3552 109.545 31.4027 109.641L32.2436 111.354C32.2575 111.383 32.2613 111.417 32.2543 111.449C32.2474 111.481 32.2301 111.51 32.2052 111.531C32.1802 111.553 32.149 111.566 32.1162 111.567C32.0834 111.569 32.0509 111.561 32.0235 111.542L30.4597 110.45Z" fill="#74D4FF"/>
<path d="M38.4597 85.4502C38.3715 85.3886 38.2684 85.3518 38.1611 85.3436C38.0538 85.3353 37.9462 85.356 37.8496 85.4034L36.1375 86.2444C36.1077 86.2581 36.0743 86.2618 36.0423 86.2548C36.0103 86.2478 35.9815 86.2306 35.9601 86.2057C35.9388 86.1809 35.9262 86.1497 35.9241 86.117C35.9221 86.0843 35.9308 86.0519 35.9489 86.0246L37.0407 84.4603C37.1023 84.3721 37.1391 84.269 37.1474 84.1617C37.1556 84.0545 37.135 83.947 37.0877 83.8504L36.2467 82.1383C36.2328 82.1085 36.2291 82.075 36.236 82.0429C36.2429 82.0108 36.2602 81.9818 36.2851 81.9604C36.3101 81.939 36.3413 81.9264 36.3741 81.9244C36.4069 81.9224 36.4395 81.9313 36.4668 81.9495L38.0306 83.0417C38.1188 83.1033 38.222 83.1401 38.3293 83.1483C38.4366 83.1565 38.5441 83.1359 38.6407 83.0884L40.3526 82.2472C40.3825 82.2332 40.4161 82.2294 40.4483 82.2363C40.4805 82.2432 40.5096 82.2604 40.531 82.2855C40.5525 82.3105 40.5651 82.3418 40.567 82.3747C40.5689 82.4076 40.56 82.4402 40.5416 82.4676L39.4494 84.0314C39.3878 84.1196 39.351 84.2228 39.3428 84.33C39.3346 84.4373 39.3552 84.5449 39.4027 84.6415L40.2436 86.3536C40.2575 86.3834 40.2613 86.4169 40.2543 86.449C40.2474 86.4811 40.2301 86.5101 40.2052 86.5315C40.1802 86.5529 40.149 86.5655 40.1162 86.5675C40.0834 86.5694 40.0509 86.5606 40.0235 86.5424L38.4597 85.4502Z" fill="#74D4FF"/>
<path d="M223.46 61.4502C223.371 61.3886 223.268 61.3518 223.161 61.3436C223.054 61.3353 222.946 61.356 222.85 61.4034L221.137 62.2444C221.108 62.2581 221.074 62.2618 221.042 62.2548C221.01 62.2478 220.981 62.2306 220.96 62.2057C220.939 62.1809 220.926 62.1497 220.924 62.117C220.922 62.0843 220.931 62.0519 220.949 62.0246L222.041 60.4603C222.102 60.3721 222.139 60.269 222.147 60.1617C222.156 60.0545 222.135 59.947 222.088 59.8504L221.247 58.1383C221.233 58.1085 221.229 58.075 221.236 58.0429C221.243 58.0108 221.26 57.9818 221.285 57.9604C221.31 57.939 221.341 57.9264 221.374 57.9244C221.407 57.9224 221.439 57.9313 221.467 57.9495L223.031 59.0417C223.119 59.1033 223.222 59.1401 223.329 59.1483C223.437 59.1565 223.544 59.1359 223.641 59.0884L225.353 58.2472C225.382 58.2332 225.416 58.2294 225.448 58.2363C225.48 58.2432 225.51 58.2604 225.531 58.2855C225.552 58.3105 225.565 58.3418 225.567 58.3747C225.569 58.4076 225.56 58.4402 225.542 58.4676L224.449 60.0314C224.388 60.1196 224.351 60.2228 224.343 60.33C224.335 60.4373 224.355 60.5449 224.403 60.6415L225.244 62.3536C225.258 62.3834 225.261 62.4169 225.254 62.449C225.247 62.4811 225.23 62.5101 225.205 62.5315C225.18 62.5529 225.149 62.5655 225.116 62.5675C225.083 62.5694 225.051 62.5606 225.024 62.5424L223.46 61.4502Z" fill="#74D4FF"/>
<path d="M194.46 110.45C194.371 110.389 194.268 110.352 194.161 110.344C194.054 110.335 193.946 110.356 193.85 110.403L192.137 111.244C192.108 111.258 192.074 111.262 192.042 111.255C192.01 111.248 191.981 111.231 191.96 111.206C191.939 111.181 191.926 111.15 191.924 111.117C191.922 111.084 191.931 111.052 191.949 111.025L193.041 109.46C193.102 109.372 193.139 109.269 193.147 109.162C193.156 109.055 193.135 108.947 193.088 108.85L192.247 107.138C192.233 107.108 192.229 107.075 192.236 107.043C192.243 107.011 192.26 106.982 192.285 106.96C192.31 106.939 192.341 106.926 192.374 106.924C192.407 106.922 192.439 106.931 192.467 106.95L194.031 108.042C194.119 108.103 194.222 108.14 194.329 108.148C194.437 108.157 194.544 108.136 194.641 108.088L196.353 107.247C196.382 107.233 196.416 107.229 196.448 107.236C196.48 107.243 196.51 107.26 196.531 107.285C196.552 107.31 196.565 107.342 196.567 107.375C196.569 107.408 196.56 107.44 196.542 107.468L195.449 109.031C195.388 109.12 195.351 109.223 195.343 109.33C195.335 109.437 195.355 109.545 195.403 109.641L196.244 111.354C196.258 111.383 196.261 111.417 196.254 111.449C196.247 111.481 196.23 111.51 196.205 111.531C196.18 111.553 196.149 111.566 196.116 111.567C196.083 111.569 196.051 111.561 196.024 111.542L194.46 110.45Z" fill="#74D4FF"/>
<defs>
<filter id="filter0_dd_2641_659" x="84.8125" y="41.5625" width="37.375" height="37.375" filterUnits="userSpaceOnUse" color-interpolation-filters="sRGB">
<feFlood flood-opacity="0" result="BackgroundImageFix"/>
<feColorMatrix in="SourceAlpha" type="matrix" values="0 0 0 0 0 0 0 0 0 0 0 0 0 0 0 0 0 0 127 0" result="hardAlpha"/>
<feMorphology radius="1.4375" operator="erode" in="SourceAlpha" result="effect1_dropShadow_2641_659"/>
<feOffset dy="2.875"/>
<feGaussianBlur stdDeviation="2.875"/>
<feColorMatrix type="matrix" values="0 0 0 0 0 0 0 0 0 0 0 0 0 0 0 0 0 0 0.06 0"/>
<feBlend mode="normal" in2="BackgroundImageFix" result="effect1_dropShadow_2641_659"/>
<feColorMatrix in="SourceAlpha" type="matrix" values="0 0 0 0 0 0 0 0 0 0 0 0 0 0 0 0 0 0 127 0" result="hardAlpha"/>
<feMorphology radius="1.4375" operator="erode" in="SourceAlpha" result="effect2_dropShadow_2641_659"/>
<feOffset dy="5.75"/>
<feGaussianBlur stdDeviation="4.3125"/>
<feColorMatrix type="matrix" values="0 0 0 0 0 0 0 0 0 0 0 0 0 0 0 0 0 0 0.1 0"/>
<feBlend mode="normal" in2="effect1_dropShadow_2641_659" result="effect2_dropShadow_2641_659"/>
<feBlend mode="normal" in="SourceGraphic" in2="effect2_dropShadow_2641_659" result="shape"/>
</filter>
<clipPath id="clip0_2641_659">
<rect width="11.5" height="11.5" fill="white" transform="translate(97.75 48.75)"/>
</clipPath>
</defs>
</svg>
