<svg width="256" height="160" viewBox="0 0 256 160" fill="none" xmlns="http://www.w3.org/2000/svg">
<g clip-path="url(#clip0_2427_1127)">
<path opacity="0.5" fill-rule="evenodd" clip-rule="evenodd" d="M156.086 -119L128 79.9739L128.004 80L210.917 -99.8691L156.086 -119ZM28.5 -99.3796L127.988 80L128 79.9908L93.1379 -119L28.5 -99.3796ZM128 79.9936L128.002 80L310.417 -16.362L272.483 -69.25L128 79.9936ZM-54.4161 -15.3664L127.977 80L128.001 79.9741L-17.0373 -69.25L-54.4161 -15.3664ZM128 81.0589L128.002 81.0638L327 113.167L326.782 46.8335L128 81.0589ZM-70.7848 113.167L127.962 78.9569L128 78.9164L-71 46.8335L-70.7848 113.167ZM127.946 80.0138L127.97 80.0092L127.94 80.0261L45.0839 259.915L99.9203 279L128.001 80.0077L127.953 80L127.946 80.0138ZM127.996 79.9642L127.908 80.0521L128.085 79.9609L128.092 79.9476L127.996 79.9642ZM128.002 80.0113L273.037 229.25L310.417 175.361L128 80L128.002 80.0113ZM162.796 279L227.5 259.391L128 80L162.796 279ZM-54.4161 176.304L-16.4442 229.25L128.001 80L-54.4161 176.304Z" fill="url(#paint0_radial_2427_1127)"/>
<g filter="url(#filter0_d_2427_1127)">
<mask id="path-3-inside-1_2427_1127" fill="white">
<path d="M94 80C94 61.2223 109.222 46 128 46V46C146.778 46 162 61.2223 162 80V80C162 98.7777 146.778 114 128 114V114C109.222 114 94 98.7777 94 80V80Z"/>
</mask>
<path d="M94 80C94 61.2223 109.222 46 128 46V46C146.778 46 162 61.2223 162 80V80C162 98.7777 146.778 114 128 114V114C109.222 114 94 98.7777 94 80V80Z" fill="#F7FEE7"/>
<path d="M92.3 80C92.3 60.2834 108.283 44.3 128 44.3H128C147.717 44.3 163.7 60.2834 163.7 80L160.3 80C160.3 62.1612 145.839 47.7 128 47.7H128C110.161 47.7 95.7 62.1612 95.7 80L92.3 80ZM163.7 81.7C163.7 101.417 147.717 117.4 128 117.4H128C108.283 117.4 92.3 101.417 92.3 81.7L95.7 80C95.7 96.8999 110.161 110.6 128 110.6H128C145.839 110.6 160.3 96.8999 160.3 80L163.7 81.7ZM128 117.4C108.283 117.4 92.3 101.417 92.3 81.7V80C92.3 60.2834 108.283 44.3 128 44.3L128 47.7C110.161 47.7 95.7 62.1612 95.7 80V80C95.7 96.8999 110.161 110.6 128 110.6L128 117.4ZM128 44.3C147.717 44.3 163.7 60.2834 163.7 80V81.7C163.7 101.417 147.717 117.4 128 117.4L128 110.6C145.839 110.6 160.3 96.8999 160.3 80V80C160.3 62.1612 145.839 47.7 128 47.7L128 44.3Z" fill="#5EA500" mask="url(#path-3-inside-1_2427_1127)"/>
<path d="M117.8 64.7L141.6 80L117.8 95.3V64.7Z" fill="#D8F999" stroke="#3D6300" stroke-width="3.4" stroke-linecap="round" stroke-linejoin="round"/>
</g>
<path d="M51.3945 24.5874C52.8657 20.5634 57.773 19.9559 60.2276 23.4939L79.9024 51.8534C82.357 55.3915 80.5179 60.4215 76.5921 60.9074L45.1242 64.8028C41.1984 65.2887 38.1302 60.8662 39.6014 56.8422L51.3945 24.5874Z" fill="#FFD230"/>
<path d="M50.4257 47.0704C50.6813 46.8146 51.0495 46.7088 51.3658 46.954C51.627 47.1565 51.7424 47.6374 51.4878 47.8924C50.8824 48.4978 50.2288 49.0582 49.6997 49.7344C49.1698 50.4124 48.1077 49.5901 48.6376 48.9124C49.1677 48.2345 49.8195 47.6764 50.4257 47.0704ZM53.3438 46.7092C53.5995 46.4534 53.9667 46.3476 54.283 46.5929C54.5445 46.7953 54.6601 47.2762 54.405 47.5313C53.7995 48.1367 53.146 48.6969 52.6169 49.3733C52.087 50.0512 51.0258 49.2288 51.5557 48.5512C52.0859 47.8732 52.7376 47.3152 53.3438 46.7092Z" fill="#FB64B6"/>
<path d="M50.1706 44.2734C49.7497 43.1388 49.266 40.2627 51.1319 40.17C52.6855 40.0925 52.674 42.9921 52.6976 44.0849C52.7164 44.9446 54.0449 44.7738 54.0263 43.9204C53.9827 41.9095 53.5746 38.2552 50.6969 38.8946C48.0462 39.4837 48.1732 42.7313 48.9352 44.7854C49.2351 45.5939 50.4706 45.0829 50.1706 44.2734Z" fill="#0F172B"/>
<path d="M66.196 45.1183C66.4517 44.8625 66.8189 44.7567 67.1352 45.002C67.3965 45.2045 67.5121 45.6854 67.2572 45.9404C66.6517 46.5458 65.9982 47.1061 65.4691 47.7824C64.9392 48.4603 63.8775 47.638 64.407 46.9604C64.9372 46.2824 65.5897 45.7244 66.196 45.1183ZM69.1132 44.7572C69.3689 44.5014 69.7371 44.3955 70.0533 44.6408C70.3144 44.8434 70.4299 45.3242 70.1753 45.5792C69.57 46.1845 68.9164 46.7449 68.3872 47.4212C67.8573 48.0991 66.7953 47.2768 67.3251 46.5992C67.8552 45.9213 68.507 45.3632 69.1132 44.7572Z" fill="#FB64B6"/>
<path d="M67.5275 42.1248C67.6447 40.9236 67.377 38.0208 65.5465 38.3856C64.0222 38.6891 64.7755 41.494 65.0324 42.5579C65.2342 43.3951 63.904 43.5533 63.7037 42.7224C63.2312 40.7646 62.6911 37.1266 65.6412 37.0447C68.3587 36.9692 69.067 40.1449 68.8548 42.3196C68.7714 43.1756 67.4442 42.9817 67.5275 42.1248Z" fill="#0F172B"/>
<path d="M61.2819 45.0163C61.6403 46.3028 62.0112 48.7025 59.4313 48.8349C57.0548 48.9568 56.5242 46.8684 56.77 45.4198C56.7716 45.4101 61.2208 44.7969 61.2819 45.0163Z" fill="#EC003F"/>
<path d="M57.9243 45.5138C57.7885 46.314 57.9418 48.2331 59.5513 47.9426C60.8916 47.7009 60.3113 45.8596 60.1164 45.1605C59.9634 44.6103 61.1299 44.4702 61.2819 45.0162C61.6404 46.3028 62.0112 48.7024 59.4313 48.8348C57.0548 48.9568 56.5242 46.8683 56.77 45.4197C56.8667 44.8495 58.0209 44.9431 57.9243 45.5138Z" fill="#0F172B"/>
<line y1="-0.52501" x2="8.08516" y2="-0.52501" transform="matrix(0.992425 -0.122849 0.128946 0.991652 55.067 45.7444)" stroke="#0F172B" stroke-width="1.05002"/>
<line y1="-0.262505" x2="1.47003" y2="-0.262505" transform="matrix(0.128946 0.991652 -0.992425 0.122849 58.7142 45.293)" stroke="#0F172B" stroke-width="0.52501"/>
<path d="M64.8132 109.456C64.9989 107.78 66.8881 106.993 68.2257 108.034L72.1206 111.068C72.6106 111.449 73.2278 111.607 73.8212 111.504L78.5388 110.679C80.1589 110.395 81.534 112.019 81.0227 113.612L79.5339 118.25C79.3467 118.834 79.4101 119.479 79.7089 120.029L82.0838 124.4C82.8994 125.901 81.8601 127.692 80.2065 127.635L75.3914 127.468C74.7856 127.447 74.2077 127.688 73.7989 128.132L70.5491 131.658C69.4331 132.869 67.4156 132.352 66.9049 130.724L65.4178 125.983C65.2308 125.386 64.8101 124.889 64.2587 124.614L59.8753 122.422C58.37 121.669 58.1624 119.559 59.5004 118.61L63.3964 115.847C63.8865 115.499 64.2044 114.951 64.2725 114.337L64.8132 109.456Z" fill="#7CCF00"/>
<path d="M68.2595 122.33C68.361 122.15 68.5473 122.035 68.7589 122.122C68.934 122.193 69.0714 122.44 68.97 122.62C68.7296 123.046 68.4561 123.454 68.2685 123.908C68.0807 124.362 67.3701 124.072 67.558 123.617C67.7459 123.163 68.0188 122.756 68.2595 122.33ZM69.8109 121.683C69.9125 121.504 70.0987 121.389 70.3103 121.475C70.4851 121.547 70.6225 121.794 70.5215 121.974C70.281 122.4 70.0067 122.808 69.819 123.262C69.6312 123.716 68.9207 123.426 69.1085 122.972C69.2964 122.517 69.5701 122.11 69.8109 121.683Z" fill="#FB64B6"/>
<path d="M67.6905 120.829C67.2849 120.269 66.5778 118.76 67.5907 118.423C68.4341 118.142 68.8722 119.74 69.0527 120.338C69.1949 120.808 69.9 120.511 69.7589 120.044C69.4267 118.944 68.6419 116.994 67.1558 117.788C65.7869 118.518 66.3546 120.286 67.0889 121.3C67.378 121.699 67.9797 121.229 67.6905 120.829Z" fill="#0F172B"/>
<path d="M74.7031 119.645C74.8046 119.465 74.9909 119.351 75.2025 119.437C75.3776 119.509 75.515 119.756 75.4136 119.936C75.1732 120.361 74.8997 120.77 74.7121 121.223C74.5243 121.678 73.8137 121.387 74.0016 120.933C74.1895 120.479 74.4624 120.072 74.7031 119.645ZM76.2545 118.999C76.3561 118.819 76.5416 118.705 76.7531 118.791C76.9281 118.863 77.0655 119.11 76.9642 119.29C76.7237 119.716 76.4502 120.124 76.2626 120.577C76.0749 121.032 75.3643 120.742 75.5521 120.287C75.74 119.833 76.0137 119.426 76.2545 118.999Z" fill="#FB64B6"/>
<path d="M74.9777 117.793C74.858 117.114 74.2657 115.557 73.314 116.039C72.5214 116.439 73.366 117.868 73.6705 118.414C73.9099 118.844 73.2019 119.135 72.9643 118.709C72.4041 117.703 71.5491 115.783 73.1606 115.286C74.645 114.828 75.5216 116.468 75.7382 117.697C75.8234 118.181 75.0631 118.278 74.9777 117.793Z" fill="#0F172B"/>
<path d="M71.3223 120.575C71.3615 120.909 71.6386 121.659 72.2205 121.376C72.705 121.14 72.2737 120.465 72.1196 120.206C71.9985 120.002 72.4282 119.825 72.5485 120.027C72.8319 120.504 73.2468 121.424 72.2762 121.745C71.3821 122.04 70.9416 121.261 70.8706 120.657C70.8426 120.419 71.2942 120.337 71.3223 120.575Z" fill="#0F172B"/>
<rect width="42.0008" height="42.0008" rx="8" transform="matrix(0.968901 0.247448 -0.241489 0.970404 177.88 4.36426)" fill="#FDA5D5"/>
<path d="M184.482 31.9077C184.813 31.7627 185.195 31.7984 185.4 32.1421C185.569 32.4259 185.501 32.9157 185.171 33.0604C184.387 33.4033 183.574 33.6869 182.834 34.1236C182.094 34.5618 181.405 33.4088 182.145 32.9709C182.886 32.533 183.696 32.251 184.482 31.9077ZM187.331 32.6353C187.662 32.4904 188.043 32.5258 188.248 32.8695C188.417 33.1533 188.35 33.6432 188.019 33.7877C187.235 34.1307 186.422 34.4141 185.682 34.851C184.942 35.2891 184.254 34.1364 184.994 33.6986C185.735 33.2606 186.545 32.9786 187.331 32.6353Z" fill="#FB64B6"/>
<path d="M185.264 29.2104C185.286 28.0004 185.884 25.146 187.655 25.7399C189.13 26.2342 188.062 28.93 187.686 29.9562C187.39 30.7636 188.689 31.0889 188.983 30.2874C189.675 28.3991 190.628 24.8475 187.715 24.3937C185.032 23.9758 183.966 27.0461 183.927 29.2367C183.911 30.0989 185.248 30.0735 185.264 29.2104Z" fill="#0F172B"/>
<path d="M199.165 35.6575C199.496 35.5125 199.878 35.5482 200.083 35.8919C200.252 36.1756 200.184 36.6654 199.854 36.8101C199.07 37.1531 198.257 37.4366 197.518 37.8734C196.777 38.3115 196.088 37.1585 196.828 36.7207C197.569 36.2827 198.38 36.0007 199.165 35.6575ZM202.014 36.3851C202.345 36.2401 202.726 36.2756 202.931 36.6192C203.101 36.9031 203.033 37.393 202.702 37.5375C201.918 37.8805 201.105 38.1639 200.366 38.6007C199.625 39.0389 198.937 37.8861 199.677 37.4483C200.418 37.0104 201.229 36.7284 202.014 36.3851Z" fill="#FB64B6"/>
<path d="M201.497 33.356C202.044 32.2802 202.853 29.4796 201.016 29.1519C199.486 28.8788 199.164 31.7653 199.016 32.8496C198.898 33.7027 197.602 33.3651 197.719 32.5183C197.992 30.523 198.816 26.9385 201.593 27.9378C204.151 28.8584 203.652 32.0736 202.662 34.0213C202.272 34.7879 201.107 34.1236 201.497 33.356Z" fill="#0F172B"/>
<path d="M190.642 33.3075C190.633 32.772 191.205 32.4918 191.724 32.6232C192.638 32.8548 193.555 33.0754 194.468 33.3092C195.004 33.4465 195.364 34.0062 195.071 34.4747C193.902 36.3449 190.681 35.422 190.642 33.3075Z" fill="#0F172B"/>
<path d="M182.643 112.773C184.361 105.802 191.397 101.579 198.358 103.341V103.341C205.318 105.102 209.567 112.181 207.849 119.152V119.152C206.13 126.123 199.094 130.347 192.134 128.585V128.585C185.173 126.824 180.924 119.745 182.643 112.773V112.773Z" fill="#53EAFD"/>
<path d="M189.658 117.137C189.863 117.047 190.099 117.068 190.226 117.281C190.332 117.456 190.29 117.759 190.086 117.849C189.601 118.063 189.098 118.24 188.641 118.511C188.184 118.783 187.755 118.071 188.213 117.798C188.671 117.526 189.172 117.35 189.658 117.137ZM191.423 117.583C191.628 117.493 191.863 117.515 191.991 117.727C192.096 117.903 192.055 118.206 191.851 118.296C191.365 118.509 190.862 118.686 190.405 118.958C189.947 119.23 189.52 118.517 189.977 118.245C190.435 117.973 190.937 117.797 191.423 117.583Z" fill="#FB64B6"/>
<path d="M190.139 115.466C190.15 114.717 190.517 112.949 191.614 113.315C192.528 113.619 191.87 115.289 191.639 115.925C191.457 116.425 192.261 116.625 192.442 116.128C192.868 114.958 193.453 112.758 191.649 112.481C189.988 112.226 189.332 114.128 189.311 115.484C189.302 116.018 190.13 116.001 190.139 115.466Z" fill="#0F172B"/>
<path d="M199.194 119.55C199.399 119.46 199.635 119.481 199.762 119.694C199.868 119.869 199.826 120.173 199.622 120.263C199.137 120.476 198.634 120.653 198.177 120.925C197.72 121.197 197.291 120.484 197.749 120.212C198.207 119.939 198.708 119.764 199.194 119.55ZM200.959 119.997C201.164 119.906 201.399 119.928 201.527 120.14C201.632 120.316 201.591 120.619 201.387 120.709C200.901 120.923 200.398 121.099 199.941 121.371C199.483 121.643 199.056 120.93 199.513 120.658C199.971 120.386 200.473 120.21 200.959 119.997Z" fill="#FB64B6"/>
<path d="M200.634 118.123C200.972 117.456 201.469 115.721 200.331 115.521C199.383 115.354 199.188 117.141 199.098 117.812C199.026 118.341 198.223 118.133 198.294 117.609C198.461 116.373 198.966 114.153 200.686 114.768C202.271 115.335 201.967 117.326 201.356 118.533C201.116 119.008 200.394 118.598 200.634 118.123Z" fill="#0F172B"/>
<ellipse cx="1.13752" cy="1.25128" rx="1.13752" ry="1.25128" transform="matrix(0.969437 0.24534 -0.239377 0.970927 194.12 117.086)" fill="#82181A"/>
<path fill-rule="evenodd" clip-rule="evenodd" d="M195.262 116.912C196.536 117.139 196.52 118.133 196.303 118.909C196.134 119.698 195.687 120.584 194.458 120.176C193.365 119.815 193.225 118.927 193.439 118.184C193.595 117.427 194.131 116.711 195.262 116.912ZM195.274 117.471C194.797 117.322 194.485 117.527 194.294 117.833C193.995 118.463 193.835 119.532 194.761 119.712C195.713 119.898 195.773 118.396 195.767 118.182C195.758 117.866 195.636 117.584 195.274 117.471Z" fill="#0F172B"/>
</g>
<defs>
<filter id="filter0_d_2427_1127" x="92.3" y="45.15" width="71.4" height="71.4" filterUnits="userSpaceOnUse" color-interpolation-filters="sRGB">
<feFlood flood-opacity="0" result="BackgroundImageFix"/>
<feColorMatrix in="SourceAlpha" type="matrix" values="0 0 0 0 0 0 0 0 0 0 0 0 0 0 0 0 0 0 127 0" result="hardAlpha"/>
<feOffset dy="0.85"/>
<feGaussianBlur stdDeviation="0.85"/>
<feColorMatrix type="matrix" values="0 0 0 0 0 0 0 0 0 0 0 0 0 0 0 0 0 0 0.05 0"/>
<feBlend mode="normal" in2="BackgroundImageFix" result="effect1_dropShadow_2427_1127"/>
<feBlend mode="normal" in="SourceGraphic" in2="effect1_dropShadow_2427_1127" result="shape"/>
</filter>
<radialGradient id="paint0_radial_2427_1127" cx="0" cy="0" r="1" gradientUnits="userSpaceOnUse" gradientTransform="translate(125.67 80) rotate(88.0456) scale(184.103)">
<stop stop-color="#5EA500"/>
<stop offset="0.658654" stop-color="#D8F999" stop-opacity="0"/>
</radialGradient>
<clipPath id="clip0_2427_1127">
<path d="M0 8C0 3.58172 3.58172 0 8 0H248C252.418 0 256 3.58172 256 8V152C256 156.418 252.418 160 248 160H8C3.58172 160 0 156.418 0 152V8Z" fill="white"/>
</clipPath>
</defs>
</svg>
