<svg width="256" height="160" viewBox="0 0 256 160" fill="none" xmlns="http://www.w3.org/2000/svg">
<g clip-path="url(#clip0_2424_1362)">
<path opacity="0.5" fill-rule="evenodd" clip-rule="evenodd" d="M156.086 -99L128 99.9739L128.004 100L210.917 -79.8691L156.086 -99ZM28.5 -79.3796L127.988 100L128 99.9908L93.1379 -99L28.5 -79.3796ZM128 99.9936L128.002 100L310.417 3.63798L272.483 -49.25L128 99.9936ZM-54.4161 4.63356L127.977 100L128.001 99.9741L-17.0373 -49.25L-54.4161 4.63356ZM128 101.059L128.002 101.064L327 133.167L326.782 66.8335L128 101.059ZM-70.7848 133.167L127.962 98.9569L128 98.9164L-71 66.8335L-70.7848 133.167ZM127.946 100.014L127.97 100.009L127.94 100.026L45.0839 279.915L99.9203 299L128.001 100.008L127.953 100L127.946 100.014ZM127.996 99.9642L127.908 100.052L128.085 99.9609L128.092 99.9476L127.996 99.9642ZM128.002 100.011L273.037 249.25L310.417 195.361L128 100L128.002 100.011ZM162.796 299L227.5 279.391L128 100L162.796 299ZM-54.4161 196.304L-16.4442 249.25L128.001 100L-54.4161 196.304Z" fill="url(#paint0_radial_2424_1362)"/>
<path d="M185.189 85.0703L172.276 106.171L168.598 100.694L168.232 100.149L167.548 100.123L160.682 99.8554L173.595 78.7548L185.189 85.0703Z" fill="#FF2056" stroke="#A50036" stroke-width="2.63633"/>
<path d="M184.34 85.0703L197.253 106.171L200.932 100.694L201.298 100.149L201.982 100.123L208.848 99.8554L195.935 78.7548L184.34 85.0703Z" fill="#FF2056" stroke="#A50036" stroke-width="2.63633"/>
<g filter="url(#filter0_d_2424_1362)">
<path d="M180.659 53.8724C182.646 50.0432 187.612 50.0432 189.598 53.8724L205.52 84.566C207.507 88.3952 205.024 93.1817 201.051 93.1817H169.207C165.234 93.1817 162.751 88.3952 164.737 84.566L180.659 53.8724Z" fill="#FFDF20"/>
<path d="M185.129 52.3188C186.361 52.3189 187.655 52.9896 188.428 54.479L204.35 85.1733C205.131 86.6801 205.036 88.3799 204.35 89.7026C203.665 91.0229 202.459 91.8638 201.051 91.8638H169.207C167.799 91.8638 166.592 91.0229 165.907 89.7026C165.221 88.38 165.126 86.68 165.907 85.1733L181.829 54.479C182.602 52.9893 183.897 52.3188 185.129 52.3188Z" stroke="#733E0A" stroke-width="2.63633"/>
</g>
<path d="M197.217 74.9108L187.167 90.5455H172.192C172.162 90.5455 172.133 90.5445 172.103 90.5446L190.49 61.942L197.217 74.9108Z" fill="#FFF085"/>
<path d="M185.129 55.2716C185.343 55.4905 185.599 55.84 185.884 56.3126C186.486 57.3144 186.958 58.3961 187.427 59.299L200.363 84.2374L200.396 84.3009L200.435 84.3605C201.52 86.0413 201.919 87.1273 202.001 87.7794C202.069 88.3223 201.918 88.44 201.836 88.507C201.633 88.6727 201.201 88.8466 200.438 88.9454C199.705 89.0402 198.891 89.0431 198.065 89.0431H172.192C171.328 89.0431 170.633 89.0461 170.061 88.9259C169.523 88.8131 169.388 88.6519 169.327 88.5353C168.971 87.8489 168.811 87.4788 168.808 87.0079C168.805 86.5311 168.974 85.7331 169.839 84.3361L169.868 84.2882L169.895 84.2374L182.831 59.299C183.299 58.3961 183.771 57.3144 184.374 56.3126C184.658 55.84 184.915 55.4905 185.129 55.2716Z" stroke="#FEFCE8" stroke-width="3.00541"/>
<path d="M190.401 74.3633L187.765 69.7412" stroke="#733E0A" stroke-width="3.3301" stroke-linecap="round" stroke-linejoin="round"/>
<path d="M179.856 74.3633L182.492 69.7412" stroke="#733E0A" stroke-width="3.3301" stroke-linecap="round" stroke-linejoin="round"/>
<path d="M190.037 80.9542C190.037 83.1382 187.677 84.9087 184.765 84.9087C181.853 84.9087 179.492 83.1382 179.492 80.9542C179.492 78.7702 181.853 79.636 184.765 79.636C187.677 79.636 190.037 78.7702 190.037 80.9542Z" fill="#733E0A"/>
<path d="M72.0604 85.0703L59.1474 106.171L55.4689 100.694L55.1031 100.149L54.4192 100.123L47.5528 99.8554L60.4657 78.7548L72.0604 85.0703Z" fill="#FF2056" stroke="#A50036" stroke-width="2.63633"/>
<path d="M71.2115 85.0703L84.1244 106.171L87.8029 100.694L88.1687 100.149L88.8526 100.123L95.7191 99.8554L82.8062 78.7548L71.2115 85.0703Z" fill="#FF2056" stroke="#A50036" stroke-width="2.63633"/>
<g filter="url(#filter1_d_2424_1362)">
<path d="M68.7513 52.9461C70.2015 50.352 73.7983 50.352 75.2485 52.9461L79.471 60.4996C80.0023 61.4499 80.8924 62.1237 81.924 62.3564L90.1237 64.2065C92.9397 64.8418 94.0512 68.406 92.1314 70.6446L86.5414 77.163C85.8381 77.983 85.4981 79.0733 85.6044 80.1674L86.4496 88.8643C86.7398 91.8511 83.8299 94.0539 81.1933 92.8433L73.5159 89.3183C72.5501 88.8749 71.4498 88.8749 70.4839 89.3183L62.8065 92.8433C60.1699 94.0539 57.26 91.8511 57.5502 88.8643L58.3954 80.1674C58.5017 79.0733 58.1617 77.983 57.4584 77.163L51.8684 70.6446C49.9486 68.406 51.0601 64.8418 53.8761 64.2065L62.0759 62.3564C63.1074 62.1237 63.9976 61.4499 64.5288 60.4996L68.7513 52.9461Z" fill="#5EE9B5"/>
<path d="M69.9015 53.5894C70.8485 51.8952 73.1507 51.8952 74.0978 53.5894L78.3204 61.1431C79.0281 62.4089 80.2253 63.3243 81.6339 63.6421L89.8331 65.4927C91.6216 65.8962 92.4436 68.256 91.131 69.7866L85.5411 76.3052C84.5998 77.4029 84.1519 78.8504 84.2921 80.2944L85.1378 88.9917C85.3398 91.0702 83.3626 92.3885 81.7433 91.645L74.0656 88.1206C72.7506 87.5169 71.2486 87.5169 69.9337 88.1206L62.257 91.645C60.6377 92.3885 58.6604 91.0702 58.8624 88.9917L59.7072 80.2944C59.8474 78.8504 59.4004 77.4029 58.4591 76.3052L52.8693 69.7866C51.5567 68.2561 52.3778 65.8963 54.1661 65.4927L62.3663 63.6421C63.7748 63.3242 64.9722 62.4089 65.6798 61.1431L69.9015 53.5894Z" stroke="#004F3B" stroke-width="2.63633"/>
</g>
<path d="M66.7604 91.0277L62.8649 92.8177H62.8629L66.7604 91.0267V91.0277ZM77.1686 61.7865L77.5289 62.3597C78.4332 63.6456 79.7799 64.5773 81.3414 64.9301L83.2594 65.3617L69.403 86.9154L69.3834 86.9242L61.7057 90.4486C61.345 90.6137 60.9838 90.5645 60.6705 90.3275C60.3496 90.0844 60.121 89.6625 60.1735 89.1195L61.0182 80.4232L61.0494 79.7513C61.0465 78.8903 60.876 78.04 60.5533 77.2484L74.0631 56.2328L77.1686 61.7865ZM57.5328 89.3978C57.5382 89.5659 57.5541 89.7308 57.5787 89.892C57.555 89.7367 57.5383 89.5781 57.5328 89.4164V89.3978ZM81.1373 62.0804C81.2106 62.1159 81.2844 62.1505 81.36 62.181C81.2991 62.1566 81.2387 62.1307 81.1793 62.1029L81.1373 62.0804ZM80.4889 61.681C80.5479 61.7264 80.6081 61.7702 80.6696 61.8119C80.6156 61.7755 80.5624 61.7379 80.5104 61.6986L80.4889 61.681ZM79.4703 60.4984L79.6862 60.8441C79.609 60.7344 79.5367 60.6171 79.4703 60.4984Z" fill="#A4F4CF"/>
<mask id="path-17-inside-1_2424_1362" fill="white">
<path d="M81.1924 92.8428C81.5161 92.9915 81.8453 93.0857 82.1708 93.1363C82.0111 93.1115 81.8493 93.0786 81.6893 93.0308L81.1924 92.8428ZM62.6455 92.9046C62.5115 92.9591 62.3784 93.0061 62.2438 93.0437C62.2648 93.0378 62.2872 93.037 62.3082 93.0308L62.6455 92.9046ZM62.8051 92.8454L62.6455 92.9046C62.6983 92.8832 62.755 92.867 62.8077 92.8428L67.8151 90.5438L62.8051 92.8454ZM71.1414 54.0935C71.6194 53.4427 72.5299 53.4888 72.9462 54.2325L77.1684 61.7862L77.5289 62.3603C78.4331 63.6462 79.7801 64.577 81.3418 64.9297L89.5417 66.7782L89.8146 66.8812C90.0721 67.019 90.2782 67.2639 90.3861 67.6098C90.5125 68.0155 90.4629 68.44 90.2368 68.7864L90.1286 68.9305L84.5393 75.4467C83.3603 76.8222 82.8049 78.6294 82.9792 80.4233L83.8236 89.1201L83.8313 89.3183C83.8182 89.7657 83.6077 90.1148 83.3267 90.3275C83.0918 90.5048 82.8297 90.5782 82.5621 90.5335L82.2918 90.4485L74.6145 86.924C73.1584 86.2556 71.5182 86.1702 70.0164 86.6717L69.383 86.924L61.7058 90.4485C61.345 90.6136 60.9841 90.5645 60.6708 90.3275C60.3498 90.0844 60.1215 89.6631 60.1739 89.1201L61.0184 80.4233L61.0493 79.7513C61.0447 78.408 60.637 77.0897 59.8701 75.9822L59.4582 75.4467L53.8689 68.9305C53.5531 68.5623 53.4673 68.0731 53.6114 67.6098C53.755 67.1495 54.0732 66.8651 54.4559 66.7782L62.6558 64.9297L63.3097 64.7443C64.8061 64.2315 66.0552 63.1699 66.8291 61.7862L71.0513 54.2325L71.1414 54.0935ZM71.229 89.0686C70.9753 89.1239 70.726 89.2077 70.4849 89.3183C70.6054 89.263 70.7264 89.2131 70.8505 89.1716L71.229 89.0686ZM57.5505 88.8652C57.516 89.2203 57.5286 89.5639 57.5788 89.8924C57.555 89.7369 57.5379 89.5781 57.5324 89.4161L57.5505 88.8652ZM72.7711 89.0686C73.0249 89.124 73.274 89.2076 73.5152 89.3183C73.3942 89.2628 73.2716 89.2131 73.147 89.1716L72.7711 89.0686ZM72.3875 89.0068C72.2583 88.9928 72.1285 88.9861 71.9988 88.9862L71.6126 89.0068C71.741 88.9929 71.8698 88.9862 71.9988 88.9862L72.3875 89.0068ZM57.7049 77.4832C57.8537 77.6983 57.9775 77.9285 58.0808 78.168C58.0306 78.0516 57.9772 77.9367 57.916 77.8256L57.7049 77.4832ZM92.456 70.2101C92.3594 70.3594 92.2517 70.5052 92.1316 70.6452L86.5423 77.1639C86.2829 77.4664 86.0731 77.8053 85.9167 78.168C86.0199 77.9286 86.1439 77.6983 86.2926 77.4832L86.5423 77.1639L92.1316 70.6452L92.456 70.2101ZM92.904 66.8246C93.1475 67.6056 93.1604 68.4652 92.9014 69.273L92.7109 69.7518C93.0809 68.9692 93.1693 68.1088 93.0199 67.3009L92.904 66.8246ZM90.1235 64.2063C91.3555 64.4845 92.2611 65.323 92.7289 66.3663C92.3273 65.4721 91.6053 64.7274 90.6307 64.3582L90.1235 64.2063ZM53.3668 64.3607C53.3239 64.3771 53.2827 64.397 53.2407 64.4148C53.3947 64.3497 53.5551 64.2951 53.7221 64.25L53.3668 64.3607ZM53.8766 64.2063C53.8242 64.2181 53.7733 64.2362 53.7221 64.25L53.8766 64.2063ZM81.5451 62.2496C81.6687 62.2919 81.7953 62.3262 81.9236 62.3552L81.5451 62.2496ZM62.4318 62.2548C62.3148 62.294 62.1951 62.3304 62.0739 62.3577L56.603 63.591L62.0765 62.3552C62.1971 62.3279 62.3154 62.2938 62.4318 62.2548ZM80.8346 61.9175C81.0586 62.0528 81.2966 62.1644 81.5451 62.2496C81.4206 62.207 81.2983 62.1584 81.1796 62.1029L80.8346 61.9175ZM80.209 61.4438C80.4013 61.6236 80.611 61.7825 80.8346 61.9175C80.723 61.8501 80.6144 61.7775 80.5102 61.6987L80.209 61.4438ZM64.2134 60.9675C64.2452 60.9259 64.2809 60.887 64.3112 60.8439L64.5275 60.5015L68.7497 52.9478C68.84 52.7862 68.9398 52.6336 69.0458 52.4921L69.0483 52.4895C68.942 52.6313 68.8429 52.7832 68.7523 52.9452L64.53 60.4989C64.4372 60.665 64.3269 60.8192 64.2134 60.9675ZM74.6119 52.0956C74.8516 52.3386 75.0667 52.6214 75.2478 52.9452L79.4701 60.4989L79.6863 60.8439C79.6091 60.7342 79.5364 60.6176 79.4701 60.4989L75.2478 52.9452C75.1572 52.7832 75.0581 52.6339 74.9518 52.4921L74.6119 52.0956ZM73.8267 51.4881C74.1081 51.65 74.3723 51.8529 74.6119 52.0956C74.4917 51.9738 74.3652 51.8624 74.2335 51.761L73.8267 51.4881ZM86.4496 88.8652L86.4702 89.3801C86.47 89.3896 86.4654 89.3989 86.4651 89.4084C86.4708 89.2307 86.4675 89.0495 86.4496 88.8652Z"/>
</mask>
<path d="M59.2599 92.5468L58.4217 93.7939L59.2599 92.5468ZM58.951 92.3176L57.992 93.4745L57.992 93.4745L58.951 92.3176ZM58.3949 80.1684L56.8992 80.0231L56.8992 80.0232L58.3949 80.1684ZM85.6052 80.1684L87.1009 80.0233L87.1008 80.0231L85.6052 80.1684ZM52.8262 64.6208L53.5816 65.9198L53.5816 65.9198L52.8262 64.6208ZM71.9988 51.0015L71.9983 49.4988L71.9983 49.4988L71.9988 51.0015ZM82.6419 93.1775L82.6727 91.6751C82.6839 91.6754 82.6834 91.6759 82.6569 91.6734C82.6435 91.6722 82.6293 91.6707 82.6065 91.6684C82.5861 91.6663 82.5579 91.6634 82.5281 91.6606L82.3896 93.1569L82.2511 94.6532C82.2577 94.6539 82.4552 94.6767 82.6111 94.6799L82.6419 93.1775ZM61.6568 93.1544L61.4986 91.66C61.414 91.669 61.3732 91.6721 61.345 91.6729L61.3891 93.175L61.4332 94.677C61.5832 94.6726 61.7202 94.6588 61.8151 94.6487L61.6568 93.1544ZM61.1548 93.1724L61.2108 91.6707C61.1499 91.6684 61.1083 91.6657 61.0764 91.6623L60.9205 93.1569L60.7647 94.6515C60.8882 94.6644 61.0025 94.6705 61.0988 94.674L61.1548 93.1724ZM83.1208 93.1544L82.9475 91.6617C82.9633 91.6598 82.9673 91.6603 82.9422 91.6613C82.929 91.6619 82.917 91.6623 82.8935 91.6631C82.8731 91.6638 82.8448 91.6649 82.8143 91.6664L82.889 93.1672L82.9638 94.6681C83.0046 94.666 82.9871 94.6675 83.0683 94.6641C83.1205 94.6619 83.2015 94.6578 83.294 94.647L83.1208 93.1544ZM73.5152 89.3183L72.8882 90.684L80.5655 94.2085L81.1924 92.8428L81.8194 91.4772L74.1421 87.9526L73.5152 89.3183ZM62.2438 93.0437L61.8398 91.5963C61.7442 91.623 61.6685 91.6398 61.6057 91.6498L61.8422 93.1338L62.0788 94.6177C62.2838 94.585 62.475 94.5393 62.6479 94.491L62.2438 93.0437ZM60.73 93.1312L60.9667 91.6472C60.9156 91.6391 60.8637 91.6287 60.8102 91.6159L60.4597 93.0771L60.1092 94.5384C60.2343 94.5684 60.3621 94.5942 60.4933 94.6151L60.73 93.1312ZM83.5739 93.0694L83.2096 91.6115C83.1875 91.617 83.1562 91.6233 83.069 91.6388L83.3319 93.1183L83.5948 94.5978C83.6702 94.5844 83.8005 94.5617 83.9382 94.5273L83.5739 93.0694ZM60.2795 93.0308L60.7049 91.5896C60.6752 91.5808 60.635 91.5669 60.56 91.5388L60.0323 92.9458L59.5046 94.3528C59.5929 94.3859 59.7162 94.4313 59.854 94.472L60.2795 93.0308ZM84.0193 92.9278L83.4711 91.5287C83.4547 91.5351 83.4398 91.5397 83.3356 91.5727L83.7901 93.005L84.2446 94.4374C84.2945 94.4215 84.4336 94.3794 84.5675 94.327L84.0193 92.9278ZM59.8495 92.8737L60.4515 91.4969C60.4281 91.4867 60.3969 91.4713 60.3229 91.4331L59.6333 92.7682L58.9436 94.1033C59.0124 94.1388 59.1237 94.1965 59.2476 94.2506L59.8495 92.8737ZM84.4466 92.727L83.7257 91.4085C83.6749 91.4363 83.6299 91.459 83.5887 91.478L84.2175 92.8428L84.8463 94.2077C84.9608 94.1549 85.0679 94.1 85.1676 94.0454L84.4466 92.727ZM59.4402 92.6678L60.2058 91.3748C60.2206 91.3835 60.2249 91.3871 60.2043 91.3729C60.1923 91.3646 60.1851 91.3595 60.1644 91.3451C60.1474 91.3332 60.1242 91.317 60.0982 91.2996L59.2599 92.5468L58.4217 93.7939C58.4422 93.8077 58.4392 93.8063 58.4942 93.8443C58.5331 93.8712 58.5974 93.9152 58.6745 93.9608L59.4402 92.6678ZM84.8303 92.485L83.9572 91.2619C83.9294 91.2818 83.8926 91.3059 83.8337 91.3425L84.6269 92.6189L85.42 93.8952C85.4991 93.846 85.5986 93.7828 85.7033 93.708L84.8303 92.485ZM58.951 92.3176L57.992 93.4745C58.1382 93.5958 58.2837 93.7012 58.4217 93.7939L59.2599 92.5468L60.0982 91.2996C60.0233 91.2493 59.962 91.2038 59.91 91.1607L58.951 92.3176ZM85.1984 92.1838L84.1813 91.0776C84.134 91.1211 84.0963 91.1538 84.0635 91.1802L85.0053 92.3511L85.9471 93.5221C86.0472 93.4416 86.137 93.3622 86.2156 93.2899L85.1984 92.1838ZM58.951 92.3176L59.91 91.1607C59.844 91.106 59.808 91.0746 59.7819 91.0496L58.7425 92.1348L57.7031 93.2201C57.8109 93.3233 57.9158 93.4114 57.992 93.4745L58.951 92.3176ZM85.5357 91.8336L84.3885 90.863C84.3409 90.9192 84.3032 90.9611 84.2702 90.9946L85.3426 92.0473L86.4149 93.1C86.5165 92.9966 86.6058 92.8953 86.6829 92.8042L85.5357 91.8336ZM58.5777 91.9624L59.6817 90.9429C59.6291 90.886 59.608 90.8625 59.5925 90.8437L58.4335 91.8002L57.2745 92.7566C57.3514 92.8498 57.4282 92.9325 57.4737 92.9818L58.5777 91.9624ZM85.8086 91.4706L84.5564 90.6398C84.5158 90.7011 84.4865 90.7427 84.4618 90.7748L85.6541 91.6895L86.8464 92.6041C86.9303 92.4947 87.0022 92.3897 87.0607 92.3014L85.8086 91.4706ZM58.3099 91.6405L59.5168 90.7452C59.4749 90.6888 59.4463 90.648 59.4245 90.614L58.1606 91.4268L56.8967 92.2397C56.9693 92.3526 57.0416 92.4529 57.1031 92.5358L58.3099 91.6405ZM86.0351 91.0767L84.695 90.3969C84.6832 90.4201 84.6722 90.4423 84.664 90.4588C84.6549 90.477 84.6489 90.4891 84.6431 90.5005C84.6317 90.5231 84.6292 90.527 84.6316 90.523L85.9296 91.2801L87.2276 92.0372C87.2956 91.9206 87.3684 91.7701 87.3753 91.7565L86.0351 91.0767ZM58.037 91.2209L59.3485 90.4872C59.3221 90.4402 59.3016 90.4011 59.2848 90.3668L57.9341 91.0252L56.5833 91.6837C56.6314 91.7824 56.6801 91.8732 56.7256 91.9546L58.037 91.2209ZM86.2565 90.5541L84.8321 90.0754C84.7999 90.1712 84.7811 90.2224 84.765 90.2599L86.1458 90.8527L87.5267 91.4455C87.594 91.2888 87.645 91.1398 87.681 91.0328L86.2565 90.5541ZM57.8465 90.8347L59.2306 90.2495C59.2151 90.2129 59.1971 90.164 59.1695 90.0825L57.7461 90.5644L56.3228 91.0463C56.3573 91.1481 56.4034 91.2801 56.4624 91.4199L57.8465 90.8347ZM70.4849 89.3183L69.858 87.9526L67.1883 89.1781L67.8151 90.5438L68.442 91.9095L71.1118 90.684L70.4849 89.3183ZM86.4059 89.98L84.9258 89.7198C84.9097 89.8118 84.8883 89.902 84.8619 89.9914L86.3029 90.4176L87.7439 90.8438C87.8017 90.6484 87.8495 90.4473 87.8859 90.2401L86.4059 89.98ZM57.6869 90.3764L59.1326 89.9664C59.125 89.9396 59.1176 89.9064 59.0956 89.8016L57.6251 90.1113L56.1547 90.4209C56.1703 90.4953 56.1995 90.6395 56.2412 90.7865L57.6869 90.3764ZM86.4471 89.5989L84.949 89.4807C84.9462 89.5161 84.9439 89.5498 84.9422 89.5752C84.9403 89.6031 84.939 89.6218 84.9376 89.6396C84.9349 89.675 84.9335 89.682 84.9344 89.6765L86.4187 89.9104L87.9031 90.1444C87.9313 89.9654 87.9434 89.7394 87.9451 89.7171L86.4471 89.5989ZM58.3949 80.1684L56.8992 80.0232L56.0548 88.72L57.5505 88.8652L59.0461 89.0104L59.8906 80.3136L58.3949 80.1684ZM85.6052 80.1684L84.1095 80.3135L84.7248 86.6546L86.2205 86.5095L87.7162 86.3643L87.1009 80.0233L85.6052 80.1684ZM85.6052 80.1684L87.1008 80.0231C87.0917 79.9294 87.0874 79.8472 87.0873 79.7754L85.5846 79.7771L84.0819 79.7788C84.0821 79.9665 84.0933 80.1468 84.1095 80.3137L85.6052 80.1684ZM58.4129 79.7771L56.9102 79.7754C56.9101 79.8668 56.9064 79.9492 56.8992 80.0231L58.3949 80.1684L59.8906 80.3137C59.9087 80.127 59.9154 79.9469 59.9156 79.7788L58.4129 79.7771ZM58.3923 79.3832L56.8965 79.5266C56.903 79.5941 56.9068 79.654 56.9081 79.7087L58.4104 79.6715L59.9126 79.6343C59.9092 79.4957 59.9001 79.3637 59.8882 79.2397L58.3923 79.3832ZM85.5872 79.6715L87.0894 79.7087C87.0908 79.6541 87.0946 79.5941 87.101 79.5266L85.6052 79.3832L84.1093 79.2398C84.0975 79.3636 84.0883 79.4957 84.0849 79.6343L85.5872 79.6715ZM58.3357 78.9944L56.8607 79.2815C56.8709 79.3341 56.8795 79.3875 56.8866 79.4422L58.3769 79.2493L59.8672 79.0564C59.8521 78.9399 59.8334 78.8237 59.8107 78.7073L58.3357 78.9944ZM85.6232 79.2493L87.1135 79.4422C87.1253 79.3512 87.1309 79.3119 87.1369 79.2813L85.6618 78.9944L84.1868 78.7075C84.1599 78.8456 84.1433 78.9765 84.1329 79.0564L85.6232 79.2493ZM58.243 78.616L56.8024 79.0434C56.8233 79.1139 56.8386 79.1721 56.8497 79.223L58.3177 78.9017L59.7856 78.5804C59.7546 78.4385 59.7187 78.3068 59.6836 78.1885L58.243 78.616ZM85.6798 78.9017L87.1478 79.2228C87.1589 79.1723 87.1742 79.1141 87.1952 79.0432L85.7545 78.616L84.3138 78.1887C84.2789 78.3065 84.243 78.4384 84.2119 78.5806L85.6798 78.9017ZM58.1066 78.2298L56.7169 78.8016C56.7428 78.8645 56.7647 78.9237 56.7831 78.9804L58.2121 78.5155L59.6411 78.0507C59.5966 77.9139 59.5477 77.783 59.4962 77.658L58.1066 78.2298ZM85.7854 78.5155L87.2145 78.9801C87.2327 78.924 87.2547 78.8647 87.2808 78.8012L85.891 78.2298L84.5012 77.6583C84.45 77.7827 84.401 77.9136 84.3563 78.051L85.7854 78.5155ZM92.1316 70.6452L90.9909 69.6671L85.4015 76.1858L86.5423 77.1639L87.6831 78.142L93.2724 71.6233L92.1316 70.6452ZM51.8685 70.6452L53.0092 69.667C52.9407 69.5871 52.8749 69.4983 52.8105 69.3996L51.5518 70.2204L50.293 71.0412C50.4184 71.2335 50.5619 71.43 50.7277 71.6234L51.8685 70.6452ZM51.4591 70.0582L52.7551 69.2976C52.6884 69.1839 52.6722 69.1562 52.6595 69.1299L51.3072 69.7853L49.9549 70.4407C50.0325 70.6006 50.1235 70.7512 50.1631 70.8188L51.4591 70.0582ZM51.1836 69.4918L52.5846 68.9483C52.5757 68.9253 52.5674 68.9048 52.5613 68.8897C52.5583 68.8824 52.5552 68.8746 52.553 68.8692C52.5506 68.8632 52.5487 68.8587 52.5471 68.8546C52.5398 68.8366 52.5421 68.8414 52.5467 68.855L51.1244 69.3399L49.7021 69.8248C49.7242 69.8897 49.7462 69.9451 49.7593 69.9774C49.7774 70.0223 49.7772 70.0213 49.7827 70.0353L51.1836 69.4918ZM51.0111 68.9305L52.4773 68.6013C52.4751 68.5913 52.473 68.5825 52.4716 68.5762C52.4708 68.573 52.4701 68.57 52.4696 68.5677C52.469 68.5652 52.4686 68.5635 52.4683 68.5619C52.4666 68.5549 52.4676 68.5587 52.4691 68.5662L50.9983 68.8739L49.5274 69.1816C49.5329 69.2081 49.5382 69.2307 49.5409 69.2425C49.5416 69.2457 49.5424 69.2487 49.5429 69.2509C49.5434 69.2534 49.5438 69.255 49.5442 69.2566C49.5449 69.2597 49.545 69.2603 49.5449 69.2598L51.0111 68.9305ZM50.9493 68.583L52.4389 68.3847C52.425 68.2802 52.4231 68.27 52.4216 68.251L50.9236 68.3693L49.4256 68.4876C49.4353 68.6114 49.4547 68.7432 49.4598 68.7812L50.9493 68.583ZM50.9159 68.1299L52.4183 68.1003C52.4164 68.0022 52.416 67.9678 52.4172 67.9392L50.9159 67.875L49.4145 67.8107C49.4085 67.9519 49.412 68.0872 49.4135 68.1595L50.9159 68.1299ZM50.9313 67.669L52.4275 67.8087C52.4348 67.7304 52.4405 67.6816 52.4465 67.6435L50.9622 67.409L49.4779 67.1745C49.4567 67.3087 49.4441 67.4334 49.4351 67.5293L50.9313 67.669ZM51.0111 67.1593L52.4782 67.4848C52.4854 67.452 52.4956 67.412 52.5112 67.3556L51.0626 66.9559L49.614 66.5562C49.5924 66.6346 49.5672 66.7297 49.5441 66.8338L51.0111 67.1593ZM51.1321 66.7242L52.5547 67.2083C52.5721 67.1572 52.5926 67.1032 52.6167 67.0455L51.23 66.4667L49.8432 65.8879C49.7966 65.9997 49.7514 66.1171 49.7096 66.24L51.1321 66.7242ZM51.3021 66.3019L52.6618 66.9416C52.6816 66.8994 52.7078 66.8494 52.7445 66.7838L51.4334 66.0496L50.1222 65.3155C50.0663 65.4154 50.0033 65.5327 49.9423 65.6623L51.3021 66.3019ZM51.5441 65.8643L52.8134 66.6686C52.8235 66.6526 52.8331 66.6395 52.8889 66.5612L51.6651 65.6892L50.4412 64.8172C50.4145 64.8547 50.3406 64.9559 50.2748 65.0599L51.5441 65.8643ZM51.8221 65.4781L52.9838 66.4313C53.0044 66.4062 53.0335 66.3738 53.0889 66.3148L51.9946 65.285L50.9003 64.2552C50.8371 64.3222 50.7493 64.4165 50.6604 64.5249L51.8221 65.4781ZM52.1336 65.1382L53.1711 66.2254C53.1883 66.2089 53.2069 66.194 53.3121 66.109L52.3679 64.94L51.4237 63.771C51.3691 63.8151 51.2267 63.9266 51.0962 64.0511L52.1336 65.1382ZM52.8262 64.6208L53.5816 65.9198C53.6538 65.8778 53.7346 65.8375 53.826 65.7988L53.2407 64.4148L52.6553 63.0308C52.4586 63.114 52.2629 63.21 52.0707 63.3218L52.8262 64.6208ZM53.8766 64.2063L54.2074 65.6721L56.9338 65.0568L56.603 63.591L56.2722 62.1251L53.5458 62.7404L53.8766 64.2063ZM81.9236 62.3552L81.5927 63.821L89.7926 65.6721L90.1235 64.2063L90.4544 62.7404L82.2545 60.8894L81.9236 62.3552ZM62.7587 62.126L62.1459 60.754C62.1549 60.75 62.156 60.7499 62.1374 60.757C62.1277 60.7607 62.1184 60.7642 62.1017 60.7705C62.087 60.7761 62.0668 60.7837 62.0451 60.7921L62.5888 62.193L63.1325 63.5939C63.166 63.5809 63.1498 63.5875 63.2111 63.5641C63.2493 63.5495 63.307 63.527 63.3715 63.4981L62.7587 62.126ZM63.1063 61.9458L62.3517 60.6463C62.3191 60.6652 62.2838 60.6844 62.2446 60.7044L62.9261 62.0437L63.6076 63.383C63.6905 63.3408 63.7751 63.2952 63.8609 63.2453L63.1063 61.9458ZM63.4358 61.7321L62.5491 60.5189C62.5108 60.5469 62.4694 60.5751 62.4241 60.6037L63.2273 61.8737L64.0305 63.1438C64.1273 63.0826 64.2249 63.0167 64.3226 62.9453L63.4358 61.7321ZM63.701 61.5159L62.7083 60.3878C62.6345 60.4527 62.62 60.4655 62.6049 60.4772L63.5285 61.6626L64.4521 62.848C64.5562 62.7669 64.6539 62.6791 64.6938 62.644L63.701 61.5159ZM63.9276 61.2996L62.8457 60.2567C62.8276 60.2754 62.8121 60.2921 62.8013 60.3039C62.7958 60.3098 62.7908 60.3153 62.787 60.3194C62.7828 60.324 62.7804 60.3266 62.7779 60.3293C62.7731 60.3346 62.773 60.3346 62.7751 60.3325C62.7774 60.33 62.7839 60.3233 62.7935 60.314L63.84 61.3923L64.8866 62.4706C64.9343 62.4244 64.9728 62.3825 64.9904 62.3634C64.9951 62.3583 64.9999 62.353 65.0028 62.3498C65.0063 62.3461 65.0084 62.3438 65.0102 62.3419C65.0137 62.338 65.0127 62.3391 65.0094 62.3426L63.9276 61.2996ZM75.2478 52.9452L73.9361 53.6784L78.1584 61.2321L79.4701 60.4989L80.7818 59.7657L76.5595 52.212L75.2478 52.9452ZM71.9988 51.0015L71.9983 49.4988C71.5567 49.4989 71.1126 49.5548 70.6781 49.6695L71.0616 51.1225L71.4452 52.5754C71.6242 52.5281 71.8105 52.5042 71.9992 52.5042L71.9988 51.0015ZM71.9988 51.0015L71.9992 52.5042C72.1888 52.5041 72.3755 52.528 72.5546 52.5753L72.9385 51.1225L73.3223 49.6696C72.8861 49.5544 72.4408 49.4986 71.9983 49.4988L71.9988 51.0015ZM52.5018 64.8293L53.3898 66.0415C53.433 66.0099 53.492 65.9719 53.5816 65.9198L52.8262 64.6208L52.0707 63.3218C51.9363 63.3999 51.7768 63.4976 51.6138 63.6171L52.5018 64.8293ZM73.5152 89.3183L72.2617 92.0498L74.7687 86.5868L73.5152 89.3183ZM81.1924 92.8428L82.2557 90.0318L79.9384 95.5741L81.1924 92.8428ZM82.1708 93.1363L81.7091 96.1061L82.6327 90.1666L82.1708 93.1363ZM81.6893 93.0308L80.6261 95.8418L80.7262 95.8797L80.8288 95.9104L81.6893 93.0308ZM62.2438 93.0437L61.4358 90.1489L63.0519 95.9384L62.2438 93.0437ZM62.3082 93.0308L63.1676 95.9107L63.2655 95.8815L63.3611 95.8457L62.3082 93.0308ZM62.8051 92.8454L63.8504 95.6632L63.9567 95.6238L64.0597 95.5764L62.8051 92.8454ZM62.8077 92.8428L61.5537 90.1115L61.5536 90.1116L62.8077 92.8428ZM67.8151 90.5438L69.0698 93.2748L66.5611 87.8125L67.8151 90.5438ZM71.1414 54.0935L68.7192 52.3144L68.6672 52.3852L68.6194 52.4589L71.1414 54.0935ZM72.9462 54.2325L75.5696 52.7661L75.5687 52.7645L72.9462 54.2325ZM77.1684 61.7862L74.545 63.2526L74.5824 63.3194L74.6231 63.3842L77.1684 61.7862ZM77.5289 62.3603L74.9835 63.9583L75.0253 64.0249L75.0705 64.0892L77.5289 62.3603ZM81.3418 64.9297L80.6795 67.8613L80.6808 67.8615L81.3418 64.9297ZM89.5417 66.7782L90.6027 63.9664L90.4068 63.8924L90.2026 63.8464L89.5417 66.7782ZM89.8146 66.8812L91.232 64.2311L91.0591 64.1386L90.8756 64.0693L89.8146 66.8812ZM90.3861 67.6098L93.2555 66.716L93.2551 66.7148L90.3861 67.6098ZM90.2368 68.7864L92.6411 70.5896L92.6999 70.5113L92.7534 70.4293L90.2368 68.7864ZM90.1286 68.9305L92.4098 70.8873L92.4739 70.8125L92.533 70.7338L90.1286 68.9305ZM84.5393 75.4467L82.2581 73.49L82.2575 73.4907L84.5393 75.4467ZM82.9792 80.4233L85.9705 80.1328L85.9705 80.1326L82.9792 80.4233ZM83.8236 89.1201L86.8267 89.0031L86.8234 88.9162L86.8149 88.8296L83.8236 89.1201ZM83.8313 89.3183L86.8354 89.4067L86.8385 89.304L86.8345 89.2013L83.8313 89.3183ZM83.3267 90.3275L85.1372 92.7264L85.1407 92.7238L83.3267 90.3275ZM82.5621 90.5335L81.661 93.4006L81.8607 93.4634L82.0673 93.4979L82.5621 90.5335ZM82.2918 90.4485L81.0378 93.1799L81.21 93.2589L81.3907 93.3157L82.2918 90.4485ZM74.6145 86.924L75.8684 84.1926L75.8682 84.1926L74.6145 86.924ZM70.0164 86.6717L69.0645 83.821L68.9835 83.848L68.9041 83.8797L70.0164 86.6717ZM69.383 86.924L68.2708 84.132L68.1992 84.1605L68.1291 84.1926L69.383 86.924ZM61.7058 90.4485L62.9565 93.1813L62.9597 93.1799L61.7058 90.4485ZM60.6708 90.3275L58.8561 92.7232L58.8576 92.7243L60.6708 90.3275ZM60.1739 89.1201L57.1826 88.8296L57.1824 88.8312L60.1739 89.1201ZM61.0184 80.4233L64.0097 80.7137L64.0171 80.6377L64.0206 80.5613L61.0184 80.4233ZM61.0493 79.7513L64.0515 79.8894L64.0549 79.8153L64.0546 79.7412L61.0493 79.7513ZM59.8701 75.9822L62.341 74.2713L62.2982 74.2094L62.2523 74.1498L59.8701 75.9822ZM59.4582 75.4467L61.8403 73.6143L61.7915 73.5508L61.7394 73.49L59.4582 75.4467ZM53.8689 68.9305L51.5874 70.8869L51.5877 70.8873L53.8689 68.9305ZM53.6114 67.6098L50.7424 66.7148L50.7416 66.7173L53.6114 67.6098ZM54.4559 66.7782L53.7949 63.8464L53.7909 63.8473L54.4559 66.7782ZM62.6558 64.9297L63.3167 67.8615L63.3966 67.8435L63.4754 67.8212L62.6558 64.9297ZM63.3097 64.7443L64.1293 67.6358L64.2073 67.6137L64.284 67.5874L63.3097 64.7443ZM66.8291 61.7862L69.4521 63.2532L69.4525 63.2526L66.8291 61.7862ZM71.0513 54.2325L68.5293 52.5979L68.4759 52.6803L68.4279 52.7661L71.0513 54.2325ZM71.229 89.0686L72.0181 91.9685L70.5881 86.1323L71.229 89.0686ZM70.4849 89.3183L69.2309 86.587L71.7383 92.0499L70.4849 89.3183ZM70.8505 89.1716L70.0614 86.2716L69.9787 86.2941L69.8975 86.3212L70.8505 89.1716ZM57.5505 88.8652L60.5543 88.9634L54.5591 88.5751L57.5505 88.8652ZM57.5788 89.8924L54.6078 90.3463L60.5498 89.4388L57.5788 89.8924ZM57.5324 89.4161L54.5286 89.3179L54.5254 89.4178L54.5287 89.5177L57.5324 89.4161ZM72.7711 89.0686L73.4119 86.1323L71.977 91.9672L72.7711 89.0686ZM73.147 89.1716L74.0985 86.3208L74.0205 86.2947L73.9411 86.273L73.147 89.1716ZM72.3875 89.0068L72.2285 92.008L72.7101 86.0187L72.3875 89.0068ZM71.9988 88.9862L71.9978 85.9808L71.9978 85.9808L71.9988 88.9862ZM71.6126 89.0068L71.2904 86.0187L71.7726 92.0079L71.6126 89.0068ZM57.7049 77.4832L60.1767 75.7736L55.1467 79.0604L57.7049 77.4832ZM58.0808 78.168L55.3213 79.3586L60.8406 76.978L58.0808 78.168ZM57.916 77.8256L60.5494 76.3771L60.5134 76.3118L60.4743 76.2483L57.916 77.8256ZM92.456 70.2101L94.9788 71.8435L90.0466 68.4137L92.456 70.2101ZM92.1316 70.6452L89.7222 68.8488L94.413 72.6017L92.1316 70.6452ZM86.5423 77.1639L88.9095 79.0157L84.2609 75.2075L86.5423 77.1639ZM85.9167 78.168L83.1566 76.9787L88.6765 79.358L85.9167 78.168ZM86.2926 77.4832L83.9254 75.6314L83.8707 75.7013L83.8202 75.7744L86.2926 77.4832ZM92.904 66.8246L95.7732 65.9301L89.9837 67.5349L92.904 66.8246ZM92.9014 69.273L95.6939 70.384L95.732 70.2884L95.7634 70.1904L92.9014 69.273ZM92.7109 69.7518L89.9184 68.6408L95.428 71.0363L92.7109 69.7518ZM93.0199 67.3009L95.9751 66.7543L95.9599 66.6719L95.9401 66.5905L93.0199 67.3009ZM90.1235 64.2063L90.7855 61.2747L89.2612 67.0853L90.1235 64.2063ZM92.7289 66.3663L89.9873 67.5976L95.4712 65.1365L92.7289 66.3663ZM90.6307 64.3582L91.6954 61.5477L91.5954 61.5098L91.4929 61.4791L90.6307 64.3582ZM53.2407 64.4148L52.07 61.6468L54.4114 67.1828L53.2407 64.4148ZM53.3668 64.3607L52.4728 61.4914L52.3854 61.5186L52.2998 61.5511L53.3668 64.3607ZM53.8766 64.2063L54.6959 67.0979L53.2151 61.2745L53.8766 64.2063ZM56.603 63.591L55.9411 60.6593L57.2639 66.5228L56.603 63.591ZM81.5451 62.2496L80.5712 65.0928L81.5451 62.2496ZM81.9236 62.3552L81.2616 65.2868L82.731 59.4603L81.9236 62.3552ZM62.4318 62.2548L63.3885 65.1038L61.476 59.4054L62.4318 62.2548ZM62.0739 62.3577L62.7348 65.2896L62.7354 65.2895L62.0739 62.3577ZM62.0765 62.3552L62.7384 65.2868L62.7387 65.2867L62.0765 62.3552ZM80.8346 61.9175L79.2811 64.4903L80.8346 61.9175ZM81.1796 62.1029L79.757 64.7503L79.8306 64.7899L79.9063 64.8252L81.1796 62.1029ZM80.209 61.4438L82.1503 59.1495L78.1567 63.6394L80.209 61.4438ZM80.5102 61.6987L78.5689 63.993L78.6317 64.0461L78.6973 64.0957L80.5102 61.6987ZM64.2134 60.9675L61.8274 59.1401L66.5993 62.795L64.2134 60.9675ZM64.3112 60.8439L66.769 62.5735L66.8122 62.5122L66.8522 62.4488L64.3112 60.8439ZM64.5275 60.5015L67.0685 62.1064L67.1115 62.0382L67.1508 61.9679L64.5275 60.5015ZM68.7497 52.9478L66.1264 51.4813L66.1263 51.4814L68.7497 52.9478ZM69.0458 52.4921L66.9206 50.367L66.769 50.5186L66.6404 50.6902L69.0458 52.4921ZM69.0483 52.4895L71.4525 54.293L66.9232 50.3644L69.0483 52.4895ZM68.7523 52.9452L66.1293 51.478L66.1289 51.4789L68.7523 52.9452ZM64.53 60.4989L67.1534 61.9654L67.1534 61.9653L64.53 60.4989ZM75.2478 52.9452L72.6249 54.4124L77.8712 51.4787L75.2478 52.9452ZM79.4701 60.4989L82.0165 58.9027L76.8471 61.9662L79.4701 60.4989ZM79.6863 60.8439L77.2281 62.573L82.2328 59.2476L79.6863 60.8439ZM74.9518 52.4921L77.3565 50.6894L77.2976 50.6108L77.2336 50.5362L74.9518 52.4921ZM73.8267 51.4881L75.3255 48.8831L72.1523 53.9838L73.8267 51.4881ZM74.2335 51.761L76.0674 49.3799L75.9895 49.3199L75.9078 49.2652L74.2335 51.761ZM86.4496 88.8652L89.441 88.5751L83.4466 88.9853L86.4496 88.8652ZM86.4702 89.3801L89.4747 89.4556L89.4772 89.3578L89.4732 89.26L86.4702 89.3801ZM86.4651 89.4084L83.4612 89.3124L89.469 89.5046L86.4651 89.4084ZM81.1924 92.8428L79.9384 95.5741C80.5284 95.845 81.126 96.0154 81.7091 96.1061L82.1708 93.1363L82.6324 90.1666C82.5646 90.1561 82.5038 90.1379 82.4465 90.1116L81.1924 92.8428ZM82.1708 93.1363L82.6327 90.1666C82.5637 90.1559 82.5425 90.149 82.5498 90.1512L81.6893 93.0308L80.8288 95.9104C81.1562 96.0082 81.4585 96.0671 81.7088 96.106L82.1708 93.1363ZM81.6893 93.0308L82.7526 90.2197L82.2557 90.0318L81.1924 92.8428L80.1292 95.6539L80.6261 95.8418L81.6893 93.0308ZM62.6455 92.9046L61.514 90.1203C61.4633 90.1409 61.4395 90.1479 61.4358 90.1489L62.2438 93.0437L63.0519 95.9384C63.3172 95.8643 63.5598 95.7772 63.7769 95.6889L62.6455 92.9046ZM62.2438 93.0437L63.0519 95.9384C62.9424 95.969 62.8539 95.9866 62.8051 95.9956C62.78 96.0002 62.7604 96.0035 62.7507 96.005C62.743 96.0063 62.7348 96.0076 62.7425 96.0064C62.746 96.0058 62.7616 96.0034 62.7804 96.0002C62.8001 95.9969 62.8293 95.9919 62.8643 95.9851C62.933 95.9718 63.0399 95.9488 63.1676 95.9107L62.3082 93.0308L61.4488 90.1509C61.5083 90.1331 61.5616 90.1193 61.6067 90.1086C61.6517 90.0979 61.6904 90.0899 61.7202 90.0841C61.7498 90.0784 61.7736 90.0743 61.7879 90.0719C61.7952 90.0707 61.801 90.0697 61.8045 90.0692C61.8078 90.0687 61.8101 90.0683 61.8095 90.0684C61.8087 90.0685 61.8095 90.0684 61.8077 90.0687C61.8067 90.0688 61.805 90.0691 61.8031 90.0694C61.7992 90.07 61.7928 90.071 61.7851 90.0723C61.77 90.0747 61.745 90.0789 61.7145 90.0845C61.6837 90.0902 61.6439 90.098 61.5978 90.1083C61.5515 90.1186 61.4968 90.1319 61.4358 90.1489L62.2438 93.0437ZM62.3082 93.0308L63.3611 95.8457L63.6984 95.7196L62.6455 92.9046L61.5925 90.0897L61.2553 90.2158L62.3082 93.0308ZM62.8051 92.8454L61.7598 90.0276L61.6002 90.0869L62.6455 92.9046L63.6908 95.7224L63.8504 95.6632L62.8051 92.8454ZM62.6455 92.9046L63.7769 95.6889C63.74 95.7039 63.7134 95.7135 63.7084 95.7154C63.7056 95.7164 63.7049 95.7166 63.7099 95.7149C63.7116 95.7142 63.7251 95.7095 63.7347 95.7061C63.7566 95.6983 63.8009 95.6824 63.8533 95.6621C63.9069 95.6413 63.9789 95.6121 64.0617 95.5741L62.8077 92.8428L61.5536 90.1116C61.6101 90.0857 61.6553 90.0675 61.6818 90.0572C61.6953 90.052 61.7058 90.0481 61.7117 90.0459C61.7174 90.0438 61.7206 90.0427 61.7186 90.0434C61.7177 90.0438 61.7162 90.0443 61.7134 90.0453C61.7116 90.0459 61.7061 90.0479 61.7024 90.0492C61.6937 90.0522 61.6794 90.0573 61.6629 90.0633C61.6462 90.0693 61.6247 90.0772 61.6002 90.0865C61.5755 90.0959 61.5464 90.1072 61.514 90.1203L62.6455 92.9046ZM62.8077 92.8428L64.0617 95.5741L69.0691 93.2751L67.8151 90.5438L66.5611 87.8125L61.5537 90.1115L62.8077 92.8428ZM67.8151 90.5438L66.5605 87.8128L61.5505 90.1144L62.8051 92.8454L64.0597 95.5764L69.0698 93.2748L67.8151 90.5438ZM71.1414 54.0935L73.5637 55.8726C73.2179 56.3434 72.59 56.6881 71.8625 56.6385C71.1276 56.5884 70.5804 56.1592 70.3237 55.7005L72.9462 54.2325L75.5687 52.7645C74.8956 51.5621 73.6851 50.738 72.2714 50.6416C70.8651 50.5457 69.543 51.1928 68.7192 52.3144L71.1414 54.0935ZM72.9462 54.2325L70.3228 55.6989L74.545 63.2526L77.1684 61.7862L79.7918 60.3198L75.5696 52.7661L72.9462 54.2325ZM77.1684 61.7862L74.6231 63.3842L74.9835 63.9583L77.5289 62.3603L80.0742 60.7623L79.7138 60.1882L77.1684 61.7862ZM77.5289 62.3603L75.0705 64.0892C76.3886 65.9635 78.3658 67.3386 80.6795 67.8613L81.3418 64.9297L82.004 61.9982C81.1945 61.8153 80.4777 61.3288 79.9872 60.6315L77.5289 62.3603ZM81.3418 64.9297L80.6808 67.8615L88.8807 69.7101L89.5417 66.7782L90.2026 63.8464L82.0027 61.9979L81.3418 64.9297ZM89.5417 66.7782L88.4806 69.5901L88.7535 69.6931L89.8146 66.8812L90.8756 64.0693L90.6027 63.9664L89.5417 66.7782ZM89.8146 66.8812L88.3971 69.5314C87.8956 69.2631 87.6216 68.8399 87.5171 68.5048L90.3861 67.6098L93.2551 66.7148C92.9348 65.688 92.2487 64.7749 91.232 64.2311L89.8146 66.8812ZM90.3861 67.6098L87.5167 68.5036C87.396 68.1161 87.4214 67.601 87.7202 67.1434L90.2368 68.7864L92.7534 70.4293C93.5043 69.279 93.629 67.9149 93.2555 66.716L90.3861 67.6098ZM90.2368 68.7864L87.8324 66.9831L87.7243 67.1273L90.1286 68.9305L92.533 70.7338L92.6411 70.5896L90.2368 68.7864ZM90.1286 68.9305L87.8475 66.9738L82.2581 73.49L84.5393 75.4467L86.8205 77.4034L92.4098 70.8873L90.1286 68.9305ZM84.5393 75.4467L82.2575 73.4907C80.5359 75.4992 79.736 78.1215 79.9878 80.7139L82.9792 80.4233L85.9705 80.1326C85.8738 79.1373 86.1847 78.1452 86.8212 77.4027L84.5393 75.4467ZM82.9792 80.4233L79.9878 80.7137L80.8323 89.4105L83.8236 89.1201L86.8149 88.8296L85.9705 80.1328L82.9792 80.4233ZM83.8236 89.1201L80.8205 89.2371L80.8282 89.4353L83.8313 89.3183L86.8345 89.2013L86.8267 89.0031L83.8236 89.1201ZM83.8313 89.3183L80.8272 89.2299C80.8419 88.7303 81.0982 88.2451 81.5128 87.9313L83.3267 90.3275L85.1407 92.7238C86.1172 91.9846 86.7944 90.8011 86.8354 89.4067L83.8313 89.3183ZM83.3267 90.3275L81.5162 87.9286C81.8499 87.6768 82.4064 87.4605 83.0569 87.5691L82.5621 90.5335L82.0673 93.4979C83.253 93.6958 84.3337 93.3328 85.1372 92.7264L83.3267 90.3275ZM82.5621 90.5335L83.4632 87.6663L83.1929 87.5814L82.2918 90.4485L81.3907 93.3157L81.661 93.4006L82.5621 90.5335ZM82.2918 90.4485L83.5457 87.7172L75.8684 84.1926L74.6145 86.924L73.3606 89.6553L81.0378 93.1799L82.2918 90.4485ZM74.6145 86.924L75.8682 84.1926C73.719 83.2061 71.2903 83.0778 69.0645 83.821L70.0164 86.6717L70.9682 89.5224C71.7461 89.2626 72.5978 89.3052 73.3608 89.6554L74.6145 86.924ZM70.0164 86.6717L68.9041 83.8797L68.2708 84.132L69.383 86.924L70.4953 89.716L71.1286 89.4637L70.0164 86.6717ZM69.383 86.924L68.1291 84.1926L60.4518 87.7172L61.7058 90.4485L62.9597 93.1799L70.6369 89.6553L69.383 86.924ZM61.7058 90.4485L60.455 87.7157C60.7361 87.5871 61.1123 87.5041 61.534 87.5555C61.9497 87.6061 62.2719 87.7703 62.484 87.9307L60.6708 90.3275L58.8576 92.7243C60.0074 93.5942 61.5398 93.8297 62.9565 93.1813L61.7058 90.4485ZM60.6708 90.3275L62.4855 87.9318C62.9749 88.3025 63.2158 88.8872 63.1654 89.4089L60.1739 89.1201L57.1824 88.8312C57.0272 90.439 57.7248 91.8663 58.8561 92.7232L60.6708 90.3275ZM60.1739 89.1201L63.1653 89.4105L64.0097 80.7137L61.0184 80.4233L58.027 80.1328L57.1826 88.8296L60.1739 89.1201ZM61.0184 80.4233L64.0206 80.5613L64.0515 79.8894L61.0493 79.7513L58.047 79.6133L58.0161 80.2852L61.0184 80.4233ZM61.0493 79.7513L64.0546 79.7412C64.0481 77.799 63.459 75.886 62.341 74.2713L59.8701 75.9822L57.3992 77.6931C57.8149 78.2934 58.0413 79.0171 58.0439 79.7615L61.0493 79.7513ZM59.8701 75.9822L62.2523 74.1498L61.8403 73.6143L59.4582 75.4467L57.076 77.2791L57.488 77.8146L59.8701 75.9822ZM59.4582 75.4467L61.7394 73.49L56.15 66.9738L53.8689 68.9305L51.5877 70.8873L57.177 77.4034L59.4582 75.4467ZM53.8689 68.9305L56.1504 66.9742C56.5555 67.4467 56.6219 68.0501 56.4812 68.5023L53.6114 67.6098L50.7416 66.7173C50.3128 68.0962 50.5507 69.6779 51.5874 70.8869L53.8689 68.9305ZM53.6114 67.6098L56.4805 68.5048C56.415 68.7145 56.2777 68.9798 56.0252 69.2221C55.7714 69.4657 55.4552 69.6333 55.1209 69.7091L54.4559 66.7782L53.7909 63.8473C52.2779 64.1906 51.1782 65.3176 50.7424 66.7148L53.6114 67.6098ZM54.4559 66.7782L55.1168 69.7101L63.3167 67.8615L62.6558 64.9297L61.9948 61.9979L53.7949 63.8464L54.4559 66.7782ZM62.6558 64.9297L63.4754 67.8212L64.1293 67.6358L63.3097 64.7443L62.4901 61.8529L61.8361 62.0382L62.6558 64.9297ZM63.3097 64.7443L64.284 67.5874C66.5005 66.8279 68.3272 65.2645 69.4521 63.2532L66.8291 61.7862L64.2061 60.3192C63.7831 61.0753 63.1117 61.6352 62.3354 61.9012L63.3097 64.7443ZM66.8291 61.7862L69.4525 63.2526L73.6747 55.6989L71.0513 54.2325L68.4279 52.7661L64.2057 60.3198L66.8291 61.7862ZM71.0513 54.2325L73.5733 55.8671L73.6634 55.7281L71.1414 54.0935L68.6194 52.4589L68.5293 52.5979L71.0513 54.2325ZM71.229 89.0686L70.5881 86.1323C70.1182 86.2348 69.6639 86.3883 69.2316 86.5867L70.4849 89.3183L71.7383 92.0499C71.7882 92.027 71.8324 92.013 71.8698 92.0049L71.229 89.0686ZM70.4849 89.3183L71.7389 92.0496C71.791 92.0257 71.8087 92.0201 71.8035 92.0219L70.8505 89.1716L69.8975 86.3212C69.6441 86.406 69.4198 86.5003 69.2309 86.587L70.4849 89.3183ZM70.8505 89.1716L71.6396 92.0715L72.0181 91.9685L71.229 89.0686L70.4399 86.1686L70.0614 86.2716L70.8505 89.1716ZM57.5505 88.8652L54.5591 88.5751C54.4997 89.1874 54.5215 89.7811 54.6078 90.3463L57.5788 89.8924L60.5497 89.4385C60.5357 89.3467 60.5323 89.2531 60.5418 89.1553L57.5505 88.8652ZM57.5788 89.8924L60.5498 89.4388C60.5394 89.3707 60.5367 89.3324 60.5361 89.3146L57.5324 89.4161L54.5287 89.5177C54.5391 89.8238 54.5707 90.1031 54.6078 90.346L57.5788 89.8924ZM57.5324 89.4161L60.5362 89.5144L60.5543 88.9634L57.5505 88.8652L54.5466 88.7669L54.5286 89.3179L57.5324 89.4161ZM72.7711 89.0686L72.1304 92.0049C72.1678 92.0131 72.2118 92.027 72.2617 92.0498L73.5152 89.3183L74.7686 86.5868C74.3362 86.3883 73.882 86.2348 73.4119 86.1323L72.7711 89.0686ZM73.5152 89.3183L74.7687 86.5868C74.5663 86.4939 74.3422 86.4021 74.0985 86.3208L73.147 89.1716L72.1955 92.0224C72.201 92.0242 72.2221 92.0317 72.2616 92.0498L73.5152 89.3183ZM73.147 89.1716L73.9411 86.273L73.5653 86.17L72.7711 89.0686L71.977 91.9672L72.3529 92.0701L73.147 89.1716ZM72.3875 89.0068L72.7101 86.0187C72.4693 85.9927 72.2314 85.9807 71.9978 85.9808L71.9988 88.9862L71.9997 91.9916C72.0256 91.9916 72.0473 91.9929 72.0649 91.9948L72.3875 89.0068ZM71.9988 88.9862L71.8387 85.985L71.4525 86.0056L71.6126 89.0068L71.7726 92.0079L72.1588 91.9873L71.9988 88.9862ZM71.6126 89.0068L71.9348 91.9949C71.9529 91.9929 71.9744 91.9916 71.9997 91.9916L71.9988 88.9862L71.9978 85.9808C71.7652 85.9809 71.5291 85.993 71.2904 86.0187L71.6126 89.0068ZM71.9988 88.9862L71.8398 91.9874L72.2285 92.008L72.3875 89.0068L72.5465 86.0056L72.1578 85.985L71.9988 88.9862ZM57.7049 77.4832L55.2331 79.1928C55.2552 79.2246 55.2861 79.2769 55.321 79.3579L58.0808 78.168L60.8406 76.978C60.669 76.58 60.4523 76.172 60.1767 75.7736L57.7049 77.4832ZM58.0808 78.168L60.8403 76.9773C60.7696 76.8134 60.6738 76.6034 60.5494 76.3771L57.916 77.8256L55.2827 79.274C55.2808 79.2707 55.2832 79.2747 55.29 79.289C55.297 79.3035 55.307 79.3255 55.3213 79.3586L58.0808 78.168ZM57.916 77.8256L60.4743 76.2483L60.2632 75.9059L57.7049 77.4832L55.1467 79.0604L55.3578 79.4028L57.916 77.8256ZM92.456 70.2101L89.9332 68.5767C89.9048 68.6206 89.877 68.6576 89.8503 68.6887L92.1316 70.6452L94.413 72.6017C94.6264 72.3529 94.814 72.0981 94.9788 71.8435L92.456 70.2101ZM86.5423 77.1639L84.2609 75.2075C83.8004 75.7444 83.4308 76.3427 83.1569 76.978L85.9167 78.168L88.6765 79.358C88.7153 79.2679 88.7654 79.1884 88.8238 79.1203L86.5423 77.1639ZM85.9167 78.168L88.6768 79.3573C88.7109 79.278 88.742 79.2251 88.765 79.1919L86.2926 77.4832L83.8202 75.7744C83.5458 76.1714 83.3288 76.5792 83.1566 76.9787L85.9167 78.168ZM86.2926 77.4832L88.6598 79.3349L88.9095 79.0157L86.5423 77.1639L84.1751 75.3122L83.9254 75.6314L86.2926 77.4832ZM92.1316 70.6452L94.5411 72.4416L94.8655 72.0065L92.456 70.2101L90.0466 68.4137L89.7222 68.8488L92.1316 70.6452ZM92.904 66.8246L90.0348 67.719C90.1032 67.9386 90.1006 68.1648 90.0395 68.3555L92.9014 69.273L95.7634 70.1904C96.2201 68.7656 96.1917 67.2726 95.7732 65.9301L92.904 66.8246ZM92.9014 69.273L90.1089 68.162L89.9184 68.6408L92.7109 69.7518L95.5034 70.8628L95.6939 70.384L92.9014 69.273ZM92.7109 69.7518L95.428 71.0363C96.0852 69.6462 96.2316 68.1407 95.9751 66.7543L93.0199 67.3009L90.0646 67.8474C90.107 68.0769 90.0766 68.2922 89.9938 68.4674L92.7109 69.7518ZM93.0199 67.3009L95.9401 66.5905L95.8243 66.1142L92.904 66.8246L89.9837 67.5349L90.0996 68.0112L93.0199 67.3009ZM90.1235 64.2063L89.4615 67.1379C89.589 67.1667 89.6833 67.2184 89.7609 67.2847C89.8437 67.3554 89.925 67.4587 89.9866 67.5961L92.7289 66.3663L95.4712 65.1365C94.656 63.3186 93.0307 61.7816 90.7855 61.2747L90.1235 64.2063ZM92.7289 66.3663L95.4705 65.135C94.7744 63.585 93.4876 62.2266 91.6954 61.5477L90.6307 64.3582L89.566 67.1687C89.723 67.2281 89.8803 67.3593 89.9873 67.5976L92.7289 66.3663ZM90.6307 64.3582L91.4929 61.4791L90.9858 61.3272L90.1235 64.2063L89.2612 67.0853L89.7684 67.2372L90.6307 64.3582ZM53.3668 64.3607L52.2998 61.5511C52.2007 61.5888 52.1202 61.6243 52.0872 61.6389C52.0781 61.6429 52.0697 61.6466 52.0647 61.6489C52.0586 61.6516 52.0563 61.6526 52.0543 61.6535C52.0503 61.6553 52.0576 61.652 52.07 61.6468L53.2407 64.4148L54.4114 67.1828C54.4285 67.1756 54.4438 67.169 54.4568 67.1633C54.4696 67.1577 54.481 67.1527 54.4898 67.1488C54.4982 67.1451 54.5063 67.1415 54.5107 67.1395C54.5161 67.1371 54.5182 67.1362 54.5196 67.1356C54.5207 67.1351 54.5193 67.1357 54.5164 67.137C54.5134 67.1383 54.5081 67.1405 54.5011 67.1435C54.4873 67.1493 54.464 67.1589 54.4339 67.1704L53.3668 64.3607ZM53.2407 64.4148L54.4114 67.1828C54.4299 67.175 54.46 67.1638 54.5053 67.1516L53.7221 64.25L52.9389 61.3485C52.6501 61.4264 52.3595 61.5243 52.07 61.6468L53.2407 64.4148ZM53.7221 64.25L52.828 61.3807L52.4728 61.4914L53.3668 64.3607L54.2609 67.2301L54.6162 67.1194L53.7221 64.25ZM53.8766 64.2063L53.2151 61.2745C53.0795 61.3051 52.969 61.3386 52.9316 61.3498C52.9212 61.353 52.9106 61.3562 52.9062 61.3576C52.9033 61.3584 52.9016 61.359 52.9002 61.3594C52.8989 61.3598 52.8986 61.3599 52.8988 61.3598C52.8991 61.3597 52.9031 61.3585 52.9096 61.3566C52.9161 61.3548 52.9261 61.3519 52.9389 61.3485L53.7221 64.25L54.5053 67.1516C54.5309 67.1447 54.5538 67.1383 54.5731 67.1327C54.5923 67.1272 54.6091 67.1222 54.6222 67.1183C54.635 67.1144 54.6464 67.111 54.6532 67.1089C54.6616 67.1064 54.6638 67.1057 54.6662 67.1049C54.6678 67.1045 54.6657 67.1051 54.6614 67.1064C54.6569 67.1077 54.649 67.11 54.6386 67.1129C54.6181 67.1185 54.5831 67.1278 54.5381 67.138L53.8766 64.2063ZM53.7221 64.25L54.5414 67.1416L54.6959 67.0979L53.8766 64.2063L53.0573 61.3147L52.9028 61.3584L53.7221 64.25ZM81.5451 62.2496L80.5712 65.0928C80.8185 65.1776 81.0525 65.2395 81.2616 65.2868L81.9236 62.3552L82.5856 59.4236C82.538 59.4128 82.5189 59.4063 82.5191 59.4064L81.5451 62.2496ZM81.9236 62.3552L82.731 59.4603L82.3526 59.3547L81.5451 62.2496L80.7377 65.1445L81.1162 65.2501L81.9236 62.3552ZM62.4318 62.2548L61.475 59.4057C61.4439 59.4162 61.4242 59.4222 61.4126 59.4256C61.4012 59.429 61.4019 59.4284 61.4125 59.426L62.0739 62.3577L62.7354 65.2895C62.9946 65.231 63.2208 65.1602 63.3885 65.1038L62.4318 62.2548ZM62.0739 62.3577L61.413 59.4259L55.9422 60.6591L56.603 63.591L57.2639 66.5228L62.7348 65.2896L62.0739 62.3577ZM56.603 63.591L57.2649 66.5226L62.7384 65.2868L62.0765 62.3552L61.4146 59.4236L55.9411 60.6593L56.603 63.591ZM62.0765 62.3552L62.7387 65.2867C62.9731 65.2338 63.1901 65.1704 63.3875 65.1042L62.4318 62.2548L61.476 59.4054C61.4406 59.4172 61.4211 59.4221 61.4143 59.4236L62.0765 62.3552ZM80.8346 61.9175L79.2811 64.4903C79.685 64.7342 80.1168 64.9371 80.5706 65.0926L81.5451 62.2496L82.5197 59.4066C82.4764 59.3918 82.4322 59.3714 82.388 59.3447L80.8346 61.9175ZM81.5451 62.2496L82.5191 59.4064C82.4847 59.3946 82.4635 59.3855 82.4528 59.3805L81.1796 62.1029L79.9063 64.8252C80.1332 64.9314 80.3565 65.0193 80.5712 65.0928L81.5451 62.2496ZM81.1796 62.1029L82.6021 59.4554L82.2571 59.2701L80.8346 61.9175L79.4121 64.5649L79.757 64.7503L81.1796 62.1029ZM80.209 61.4438L78.1567 63.6394C78.4995 63.9598 78.8759 64.2456 79.2811 64.4903L80.8346 61.9175L82.3881 59.3447C82.346 59.3193 82.3032 59.2874 82.2612 59.2482L80.209 61.4438ZM80.8346 61.9175L82.388 59.3447C82.3558 59.3253 82.335 59.3106 82.3231 59.3016L80.5102 61.6987L78.6973 64.0957C78.8938 64.2443 79.0902 64.375 79.2811 64.4903L80.8346 61.9175ZM80.5102 61.6987L82.4515 59.4044L82.1503 59.1495L80.209 61.4438L78.2676 63.7381L78.5689 63.993L80.5102 61.6987ZM64.2134 60.9675L66.5994 62.7949C66.5812 62.8186 66.5681 62.8346 66.5666 62.8365C66.5657 62.8376 66.5659 62.8374 66.5693 62.8332C66.5713 62.8308 66.5787 62.8218 66.585 62.8141C66.6084 62.7857 66.6853 62.6925 66.769 62.5735L64.3112 60.8439L61.8533 59.1143C61.8823 59.0731 61.9064 59.0417 61.9208 59.0233C61.9282 59.0139 61.9339 59.0068 61.9371 59.0028C61.9402 58.999 61.9419 58.997 61.9407 58.9984C61.9402 58.999 61.9393 59.0001 61.9376 59.0021C61.9368 59.003 61.936 59.0041 61.9349 59.0054C61.9339 59.0066 61.9326 59.0081 61.9314 59.0097C61.9264 59.0157 61.9183 59.0256 61.9091 59.0368C61.8997 59.0484 61.8877 59.0631 61.8742 59.0801C61.8606 59.0971 61.8448 59.1173 61.8274 59.1401L64.2134 60.9675ZM64.3112 60.8439L66.8522 62.4488L67.0685 62.1064L64.5275 60.5015L61.9864 58.8966L61.7701 59.2391L64.3112 60.8439ZM64.5275 60.5015L67.1508 61.9679L71.3731 54.4142L68.7497 52.9478L66.1263 51.4814L61.9041 59.0351L64.5275 60.5015ZM68.7497 52.9478L71.373 54.4143C71.3972 54.371 71.4239 54.3304 71.4511 54.294L69.0458 52.4921L66.6404 50.6902C66.4557 50.9369 66.2829 51.2013 66.1264 51.4813L68.7497 52.9478ZM69.0458 52.4921L71.1709 54.6173L71.1735 54.6147L69.0483 52.4895L66.9232 50.3644L66.9206 50.367L69.0458 52.4921ZM69.0483 52.4895L66.6441 50.6861C66.4571 50.9355 66.285 51.1997 66.1293 51.478L68.7523 52.9452L71.3752 54.4125C71.4008 54.3667 71.4269 54.3272 71.4525 54.293L69.0483 52.4895ZM68.7523 52.9452L66.1289 51.4789L61.9066 59.0325L64.53 60.4989L67.1534 61.9653L71.3757 54.4116L68.7523 52.9452ZM64.53 60.4989L61.9067 59.0324C61.9138 59.0198 61.9138 59.0213 61.9006 59.0406C61.887 59.0604 61.8649 59.0911 61.8274 59.14L64.2134 60.9675L66.5993 62.795C66.7473 62.6018 66.9575 62.3158 67.1534 61.9654L64.53 60.4989ZM74.6119 52.0956L72.4725 54.2064C72.5232 54.2578 72.5756 54.3242 72.6249 54.4124L75.2478 52.9452L77.8708 51.4781C77.5578 50.9186 77.18 50.4193 76.7513 49.9848L74.6119 52.0956ZM79.4701 60.4989L76.9236 62.0952L77.1399 62.4402L79.6863 60.8439L82.2328 59.2476L82.0165 58.9027L79.4701 60.4989ZM79.6863 60.8439L82.1445 59.1148C82.1316 59.0965 82.1134 59.0681 82.093 59.0317L79.4701 60.4989L76.8471 61.9662C76.9595 62.1671 77.0866 62.3719 77.2281 62.573L79.6863 60.8439ZM75.2478 52.9452L77.8712 51.4787C77.7073 51.1857 77.5327 50.9245 77.3565 50.6894L74.9518 52.4921L72.547 54.2949C72.5834 54.3434 72.6071 54.3806 72.6245 54.4117L75.2478 52.9452ZM74.9518 52.4921L77.2336 50.5362L76.8938 50.1397L74.6119 52.0956L72.33 54.0515L72.6699 54.448L74.9518 52.4921ZM73.8267 51.4881L72.3278 54.093C72.3723 54.1186 72.4217 54.1549 72.4732 54.2071L74.6119 52.0956L76.7507 49.9842C76.3229 49.5509 75.8439 49.1813 75.3255 48.8831L73.8267 51.4881ZM74.6119 52.0956L76.7513 49.9848C76.5337 49.7643 76.3048 49.5628 76.0674 49.3799L74.2335 51.761L72.3996 54.142C72.4256 54.162 72.4498 54.1834 72.4725 54.2064L74.6119 52.0956ZM74.2335 51.761L75.9078 49.2652L75.5011 48.9923L73.8267 51.4881L72.1523 53.9838L72.5591 54.2567L74.2335 51.761ZM86.4496 88.8652L83.4466 88.9853L83.4672 89.5002L86.4702 89.3801L89.4732 89.26L89.4526 88.7451L86.4496 88.8652ZM86.4702 89.3801L83.4658 89.3046C83.4686 89.1909 83.4777 89.0906 83.4882 89.007C83.4935 88.9651 83.4993 88.9267 83.505 88.8923C83.5107 88.8579 83.5165 88.8269 83.5219 88.7999C83.5273 88.7729 83.5324 88.7491 83.5369 88.7292C83.5414 88.7094 83.5454 88.6925 83.5485 88.6795C83.5517 88.6666 83.5543 88.6563 83.5558 88.6502C83.5573 88.6445 83.5585 88.6399 83.5583 88.6408C83.5581 88.6413 83.5584 88.6404 83.5582 88.641C83.5582 88.6411 83.5581 88.6413 83.5581 88.6415C83.558 88.6419 83.5578 88.6426 83.5576 88.6435C83.5571 88.6451 83.5564 88.6478 83.5556 88.6512C83.5539 88.6576 83.5512 88.6683 83.548 88.6815C83.5447 88.6948 83.5406 88.712 83.536 88.7321C83.5314 88.7523 83.5261 88.7764 83.5206 88.8037C83.515 88.831 83.5091 88.8623 83.5032 88.8969C83.4972 88.9316 83.4912 88.9703 83.4857 89.0126C83.4746 89.0967 83.4649 89.1977 83.4612 89.3122L86.4651 89.4084L89.469 89.5046C89.4654 89.6167 89.4558 89.7153 89.4451 89.7972C89.4344 89.8786 89.4219 89.9473 89.4114 89.9989C89.401 90.0501 89.3913 90.0908 89.3856 90.1141C89.3826 90.1261 89.3802 90.1356 89.3789 90.1409C89.3777 90.1455 89.3766 90.1497 89.3771 90.1478C89.3772 90.1475 89.3787 90.1417 89.3804 90.1348C89.3823 90.1275 89.3852 90.116 89.3886 90.1019C89.3953 90.0745 89.4058 90.0299 89.4168 89.9745C89.428 89.9187 89.4409 89.8459 89.4517 89.7603C89.4625 89.6743 89.4718 89.5717 89.4747 89.4556L86.4702 89.3801ZM86.4651 89.4084L89.469 89.5044C89.4779 89.2255 89.4737 88.9125 89.441 88.5751L86.4496 88.8652L83.4583 89.1553C83.4613 89.1864 83.4636 89.2359 83.4612 89.3124L86.4651 89.4084Z" fill="#ECFDF5" mask="url(#path-17-inside-1_2424_1362)"/>
<path d="M68.4353 76.3059C68.4353 76.3059 67.5442 79.636 71.9999 79.636C76.4557 79.636 75.5645 76.3059 75.5645 76.3059" fill="#004F3B"/>
<path d="M69.4379 69.7844H66.7273H64.0909M79.9089 69.7844H77.2726H74.562M68.4353 76.3059C68.4353 76.3059 67.5442 79.636 71.9999 79.636C76.4557 79.636 75.5645 76.3059 75.5645 76.3059L71.9999 76.9996L68.4353 76.3059Z" stroke="#004F3B" stroke-width="3.3301" stroke-linecap="round" stroke-linejoin="round"/>
<path d="M129.06 46.0703L116.147 67.171L112.469 61.6944L112.103 61.1486L111.419 61.1226L104.553 60.8554L117.466 39.7548L129.06 46.0703Z" fill="#FF2056" stroke="#A50036" stroke-width="2.63633"/>
<path d="M128.211 46.0703L141.124 67.171L144.803 61.6944L145.169 61.1486L145.853 61.1226L152.719 60.8554L139.806 39.7548L128.211 46.0703Z" fill="#FF2056" stroke="#A50036" stroke-width="2.63633"/>
<g filter="url(#filter2_d_2424_1362)">
<path d="M122.673 14.4703C125.966 11.1772 131.306 11.1772 134.599 14.4703L147.257 27.1283C150.55 30.4215 150.55 35.7607 147.257 39.0539L134.599 51.7119C131.306 55.005 125.966 55.005 122.673 51.7119L110.015 39.0539C106.722 35.7607 106.722 30.4215 110.015 27.1283L122.673 14.4703Z" fill="#D1D5DC"/>
<path d="M123.605 15.4028C126.383 12.6245 130.888 12.6245 133.666 15.4028L146.325 28.0601C149.103 30.8384 149.103 35.3432 146.325 38.1216L133.666 50.7798C130.888 53.558 126.383 53.5581 123.605 50.7798L110.948 38.1216C108.169 35.3432 108.169 30.8384 110.948 28.0601L123.605 15.4028Z" stroke="#1E2939" stroke-width="2.63633"/>
</g>
<path d="M132.157 15.5308C132.766 15.8616 133.339 16.2836 133.854 16.7983L141.495 24.4399L124.773 50.4526C124.291 50.1563 123.835 49.8014 123.418 49.3843L115.492 41.4565L132.157 15.5308Z" fill="#E5E7EB"/>
<path d="M124.483 17.8634C126.777 15.5702 130.495 15.5702 132.788 17.8634L143.864 28.9386C146.157 31.2317 146.157 34.9501 143.864 37.2433L132.788 48.3195C130.495 50.6124 126.777 50.6125 124.483 48.3195L113.408 37.2433C111.115 34.9501 111.115 31.2318 113.408 28.9386L124.483 17.8634Z" stroke="#F9FAFB" stroke-width="3.01294"/>
<path d="M126.052 36.6814C126.052 36.6814 125.406 41.954 128.636 41.954C131.865 41.954 131.22 36.6814 131.22 36.6814" stroke="#101828" stroke-width="3.3301" stroke-linecap="round" stroke-linejoin="round"/>
<path d="M135.544 32.4913L131.272 28.6527L135.544 25.9667" stroke="#101828" stroke-width="3.3301" stroke-linecap="round" stroke-linejoin="round"/>
<path d="M120.887 32.4913L125.158 28.6527L120.887 25.9667" stroke="#101828" stroke-width="3.3301" stroke-linecap="round" stroke-linejoin="round"/>
<g filter="url(#filter3_dd_2424_1362)">
<path d="M128.699 119.488L113.515 144.3L109.19 137.86L108.759 137.218L107.956 137.187L99.8807 136.874L115.065 112.061L128.699 119.488Z" fill="#FF2056" stroke="#A50036" stroke-width="3.10001"/>
<path d="M127.701 119.488L142.885 144.3L147.21 137.86L147.641 137.218L148.444 137.187L156.519 136.874L141.335 112.061L127.701 119.488Z" fill="#FF2056" stroke="#A50036" stroke-width="3.10001"/>
<g filter="url(#filter4_d_2424_1362)">
<path d="M103.2 85.1979C103.2 81.7738 105.976 78.9979 109.4 78.9979H146.6C150.024 78.9979 152.8 81.7738 152.8 85.1979V122.398C152.8 125.822 150.024 128.598 146.6 128.598H109.4C105.976 128.598 103.2 125.822 103.2 122.398V85.1979Z" fill="#FFB86A"/>
<path d="M109.4 80.7694H146.6C149.046 80.7696 151.029 82.7524 151.029 85.1981V122.398C151.029 124.844 149.046 126.827 146.6 126.827H109.4C106.954 126.827 104.971 124.844 104.971 122.398V85.1981C104.971 82.7523 106.954 80.7694 109.4 80.7694Z" stroke="#7E2A0C" stroke-width="3.54286"/>
</g>
<mask id="mask0_2424_1362" style="mask-type:alpha" maskUnits="userSpaceOnUse" x="106" y="82" width="44" height="43">
<rect x="106.743" y="82.3409" width="42.5144" height="42.5144" rx="2.325" fill="black"/>
</mask>
<g mask="url(#mask0_2424_1362)">
<path d="M135.286 78.9982H153L121.114 128.598H103.4L135.286 78.9982Z" fill="#FFD6A8"/>
</g>
<mask id="path-36-inside-2_2424_1362" fill="white">
<rect x="106.743" y="82.5409" width="42.5144" height="42.5144" rx="2.325"/>
</mask>
<rect x="106.743" y="82.5409" width="42.5144" height="42.5144" rx="2.325" stroke="#FFF7ED" stroke-width="7.08573" mask="url(#path-36-inside-2_2424_1362)"/>
<path d="M124.009 106.082C124.009 106.082 122.961 114.648 128.2 114.648C133.44 114.648 132.392 106.082 132.392 106.082" fill="#7E2A0C"/>
<path d="M122.087 98.4138L118.944 94.498L115.8 98.4138M140.6 98.4138L137.456 94.498L134.313 98.4138M124.009 106.082C124.009 106.082 122.961 114.648 128.2 114.648C133.44 114.648 132.392 106.082 132.392 106.082H124.009Z" stroke="#7E2A0C" stroke-width="3.9158" stroke-linecap="round" stroke-linejoin="round"/>
</g>
</g>
<defs>
<filter id="filter0_d_2424_1362" x="164.038" y="51.0005" width="42.1813" height="45.1942" filterUnits="userSpaceOnUse" color-interpolation-filters="sRGB">
<feFlood flood-opacity="0" result="BackgroundImageFix"/>
<feColorMatrix in="SourceAlpha" type="matrix" values="0 0 0 0 0 0 0 0 0 0 0 0 0 0 0 0 0 0 127 0" result="hardAlpha"/>
<feOffset dy="3.01294"/>
<feComposite in2="hardAlpha" operator="out"/>
<feColorMatrix type="matrix" values="0 0 0 0 0 0 0 0 0 0 0 0 0 0 0 0 0 0 0.25 0"/>
<feBlend mode="normal" in2="BackgroundImageFix" result="effect1_dropShadow_2424_1362"/>
<feBlend mode="normal" in="SourceGraphic" in2="effect1_dropShadow_2424_1362" result="shape"/>
</filter>
<filter id="filter1_d_2424_1362" x="50.9093" y="51.0005" width="42.1813" height="45.1942" filterUnits="userSpaceOnUse" color-interpolation-filters="sRGB">
<feFlood flood-opacity="0" result="BackgroundImageFix"/>
<feColorMatrix in="SourceAlpha" type="matrix" values="0 0 0 0 0 0 0 0 0 0 0 0 0 0 0 0 0 0 127 0" result="hardAlpha"/>
<feOffset dy="3.01294"/>
<feComposite in2="hardAlpha" operator="out"/>
<feColorMatrix type="matrix" values="0 0 0 0 0 0 0 0 0 0 0 0 0 0 0 0 0 0 0.25 0"/>
<feBlend mode="normal" in2="BackgroundImageFix" result="effect1_dropShadow_2424_1362"/>
<feBlend mode="normal" in="SourceGraphic" in2="effect1_dropShadow_2424_1362" result="shape"/>
</filter>
<filter id="filter2_d_2424_1362" x="107.545" y="12.0005" width="42.1813" height="45.1942" filterUnits="userSpaceOnUse" color-interpolation-filters="sRGB">
<feFlood flood-opacity="0" result="BackgroundImageFix"/>
<feColorMatrix in="SourceAlpha" type="matrix" values="0 0 0 0 0 0 0 0 0 0 0 0 0 0 0 0 0 0 127 0" result="hardAlpha"/>
<feOffset dy="3.01294"/>
<feComposite in2="hardAlpha" operator="out"/>
<feColorMatrix type="matrix" values="0 0 0 0 0 0 0 0 0 0 0 0 0 0 0 0 0 0 0.25 0"/>
<feBlend mode="normal" in2="BackgroundImageFix" result="effect1_dropShadow_2424_1362"/>
<feBlend mode="normal" in="SourceGraphic" in2="effect1_dropShadow_2424_1362" result="shape"/>
</filter>
<filter id="filter3_dd_2424_1362" x="28.9999" y="75.8979" width="198.4" height="198.4" filterUnits="userSpaceOnUse" color-interpolation-filters="sRGB">
<feFlood flood-opacity="0" result="BackgroundImageFix"/>
<feColorMatrix in="SourceAlpha" type="matrix" values="0 0 0 0 0 0 0 0 0 0 0 0 0 0 0 0 0 0 127 0" result="hardAlpha"/>
<feMorphology radius="15.5" operator="erode" in="SourceAlpha" result="effect1_dropShadow_2424_1362"/>
<feOffset dy="31.0001"/>
<feGaussianBlur stdDeviation="15.5"/>
<feColorMatrix type="matrix" values="0 0 0 0 0 0 0 0 0 0 0 0 0 0 0 0 0 0 0.04 0"/>
<feBlend mode="normal" in2="BackgroundImageFix" result="effect1_dropShadow_2424_1362"/>
<feColorMatrix in="SourceAlpha" type="matrix" values="0 0 0 0 0 0 0 0 0 0 0 0 0 0 0 0 0 0 127 0" result="hardAlpha"/>
<feMorphology radius="15.5" operator="erode" in="SourceAlpha" result="effect2_dropShadow_2424_1362"/>
<feOffset dy="62.0001"/>
<feGaussianBlur stdDeviation="38.7501"/>
<feColorMatrix type="matrix" values="0 0 0 0 0 0 0 0 0 0 0 0 0 0 0 0 0 0 0.1 0"/>
<feBlend mode="normal" in2="effect1_dropShadow_2424_1362" result="effect2_dropShadow_2424_1362"/>
<feBlend mode="normal" in="SourceGraphic" in2="effect2_dropShadow_2424_1362" result="shape"/>
</filter>
<filter id="filter4_d_2424_1362" x="103.2" y="78.9979" width="49.6001" height="53.143" filterUnits="userSpaceOnUse" color-interpolation-filters="sRGB">
<feFlood flood-opacity="0" result="BackgroundImageFix"/>
<feColorMatrix in="SourceAlpha" type="matrix" values="0 0 0 0 0 0 0 0 0 0 0 0 0 0 0 0 0 0 127 0" result="hardAlpha"/>
<feOffset dy="3.54286"/>
<feComposite in2="hardAlpha" operator="out"/>
<feColorMatrix type="matrix" values="0 0 0 0 0 0 0 0 0 0 0 0 0 0 0 0 0 0 0.25 0"/>
<feBlend mode="normal" in2="BackgroundImageFix" result="effect1_dropShadow_2424_1362"/>
<feBlend mode="normal" in="SourceGraphic" in2="effect1_dropShadow_2424_1362" result="shape"/>
</filter>
<radialGradient id="paint0_radial_2424_1362" cx="0" cy="0" r="1" gradientUnits="userSpaceOnUse" gradientTransform="translate(125.67 100) rotate(88.0456) scale(184.103)">
<stop stop-color="#193CB8"/>
<stop offset="0.658654" stop-color="#193CB8" stop-opacity="0"/>
</radialGradient>
<clipPath id="clip0_2424_1362">
<path d="M0 8C0 3.58172 3.58172 0 8 0H248C252.418 0 256 3.58172 256 8V152C256 156.418 252.418 160 248 160H8C3.58172 160 0 156.418 0 152V8Z" fill="white"/>
</clipPath>
</defs>
</svg>
