<svg width="256" height="160" viewBox="0 0 256 160" fill="none" xmlns="http://www.w3.org/2000/svg">
<g clip-path="url(#clip0_2424_1362)">
<path opacity="0.5" fill-rule="evenodd" clip-rule="evenodd" d="M156.086 -99L128 99.9739L128.004 100L210.917 -79.8691L156.086 -99ZM28.5 -79.3796L127.988 100L128 99.9908L93.1379 -99L28.5 -79.3796ZM128 99.9936L128.002 100L310.417 3.63798L272.483 -49.25L128 99.9936ZM-54.4161 4.63356L127.977 100L128.001 99.9741L-17.0373 -49.25L-54.4161 4.63356ZM128 101.059L128.002 101.064L327 133.167L326.782 66.8335L128 101.059ZM-70.7848 133.167L127.962 98.9569L128 98.9164L-71 66.8335L-70.7848 133.167ZM127.946 100.014L127.97 100.009L127.94 100.026L45.0839 279.915L99.9203 299L128.001 100.008L127.953 100L127.946 100.014ZM127.996 99.9642L127.908 100.052L128.085 99.9609L128.092 99.9476L127.996 99.9642ZM128.002 100.011L273.037 249.25L310.417 195.361L128 100L128.002 100.011ZM162.796 299L227.5 279.391L128 100L162.796 299ZM-54.4161 196.304L-16.4442 249.25L128.001 100L-54.4161 196.304Z" fill="url(#paint0_radial_2424_1362)"/>
<path d="M186.335 84.7637L172.299 107.7L167.892 101.138L167.753 100.932L167.494 100.922L159.267 100.602L173.303 77.6653L186.335 84.7637Z" fill="#FF2056" stroke="#A50036"/>
<path d="M183.195 84.7637L197.231 107.7L201.638 101.138L201.777 100.932L202.036 100.922L210.263 100.602L196.227 77.6653L183.195 84.7637Z" fill="#FF2056" stroke="#A50036"/>
<g filter="url(#filter0_d_2424_1362)">
<path d="M180.659 53.8722C182.646 50.0429 187.612 50.0429 189.598 53.8722L205.52 84.5657C207.507 88.3949 205.024 93.1815 201.051 93.1815H169.207C165.234 93.1815 162.751 88.3949 164.737 84.5657L180.659 53.8722Z" fill="#FFDF20"/>
<path d="M185.129 52.3186C186.361 52.3187 187.655 52.9893 188.428 54.4788L204.35 85.1731C205.131 86.6799 205.036 88.3797 204.35 89.7024C203.665 91.0226 202.459 91.8635 201.051 91.8635H169.207C167.799 91.8635 166.592 91.0227 165.907 89.7024C165.221 88.3798 165.126 86.6798 165.907 85.1731L181.829 54.4788C182.602 52.9891 183.897 52.3186 185.129 52.3186Z" stroke="#733E0A" stroke-width="2.63633"/>
</g>
<path d="M197.217 74.9098L187.167 90.5455H172.192C172.162 90.5455 172.133 90.5445 172.103 90.5446L190.49 61.942L197.217 74.9098Z" fill="#FFF085"/>
<path d="M185.129 54.1366C185.281 54.1366 185.512 54.2343 185.824 54.5477C186.126 54.85 186.436 55.2852 186.743 55.7958C187.364 56.8284 187.891 58.0174 188.316 58.8368L201.253 83.7753L201.265 83.7958L201.277 83.8163C202.393 85.5432 202.885 86.7804 202.995 87.6542C203.1 88.4915 202.856 88.9689 202.472 89.2831C202.047 89.6302 201.385 89.8344 200.566 89.9403C199.759 90.0448 198.878 90.0448 198.065 90.0448H172.192C171.366 90.0448 170.552 90.0535 169.854 89.9071C169.169 89.7632 168.692 89.4898 168.437 88.9969C168.082 88.3144 167.809 87.7515 167.805 87.0145C167.8 86.2756 168.069 85.2896 168.986 83.8085L168.996 83.7919L169.005 83.7753L181.941 58.8368C182.366 58.0174 182.893 56.8284 183.515 55.7958C183.822 55.2852 184.132 54.85 184.434 54.5477C184.746 54.2343 184.977 54.1366 185.129 54.1366Z" stroke="#FEFCE8"/>
<path d="M190.401 74.3634L187.765 69.7413" stroke="#733E0A" stroke-width="3.3301" stroke-linecap="round" stroke-linejoin="round"/>
<path d="M179.856 74.3634L182.492 69.7413" stroke="#733E0A" stroke-width="3.3301" stroke-linecap="round" stroke-linejoin="round"/>
<path d="M190.037 80.9542C190.037 83.1382 187.677 84.9087 184.765 84.9087C181.853 84.9087 179.492 83.1382 179.492 80.9542C179.492 78.7702 181.853 79.636 184.765 79.636C187.677 79.636 190.037 78.7702 190.037 80.9542Z" fill="#733E0A"/>
<path d="M73.2062 84.7637L59.1698 107.7L54.7628 101.138L54.624 100.932L54.3648 100.922L46.1378 100.602L60.1742 77.6653L73.2062 84.7637Z" fill="#FF2056" stroke="#A50036"/>
<path d="M70.0656 84.7637L84.1021 107.7L88.5091 101.138L88.6479 100.932L88.907 100.922L97.1341 100.602L83.0977 77.6653L70.0656 84.7637Z" fill="#FF2056" stroke="#A50036"/>
<g filter="url(#filter1_d_2424_1362)">
<path d="M68.7513 52.9458C70.2015 50.3517 73.7983 50.3517 75.2485 52.9458L79.471 60.4994C80.0023 61.4496 80.8924 62.1235 81.924 62.3562L90.1237 64.2062C92.9397 64.8416 94.0512 68.4058 92.1314 70.6443L86.5414 77.1627C85.8381 77.9828 85.4981 79.073 85.6044 80.1672L86.4496 88.8641C86.7398 91.8508 83.8299 94.0536 81.1933 92.843L73.5159 89.3181C72.5501 88.8746 71.4498 88.8746 70.4839 89.3181L62.8065 92.843C60.1699 94.0536 57.26 91.8508 57.5502 88.8641L58.3954 80.1672C58.5017 79.073 58.1617 77.9828 57.4584 77.1627L51.8684 70.6443C49.9486 68.4058 51.0601 64.8416 53.8761 64.2062L62.0759 62.3562C63.1074 62.1235 63.9976 61.4496 64.5288 60.4994L68.7513 52.9458Z" fill="#5EE9B5"/>
<path d="M69.9015 53.5891C70.8485 51.895 73.1507 51.895 74.0978 53.5891L78.3204 61.1428C79.0281 62.4087 80.2253 63.324 81.6339 63.6418L89.8331 65.4924C91.6216 65.8959 92.4436 68.2558 91.131 69.7864L85.5411 76.3049C84.5998 77.4026 84.1519 78.8501 84.2921 80.2942L85.1378 88.9915C85.3398 91.0699 83.3626 92.3882 81.7433 91.6448L74.0656 88.1204C72.7506 87.5167 71.2486 87.5166 69.9337 88.1204L62.257 91.6448C60.6377 92.3882 58.6604 91.0699 58.8624 88.9915L59.7072 80.2942C59.8474 78.8502 59.4004 77.4026 58.4591 76.3049L52.8693 69.7864C51.5567 68.2558 52.3778 65.8961 54.1661 65.4924L62.3663 63.6418C63.7748 63.3239 64.9722 62.4086 65.6798 61.1428L69.9015 53.5891Z" stroke="#004F3B" stroke-width="2.63633"/>
</g>
<path d="M66.7604 91.0277L62.8649 92.8177H62.86L66.7604 91.0267V91.0277ZM77.1686 61.7855L77.5289 62.3597C78.4331 63.6455 79.78 64.5763 81.3414 64.9291L83.2594 65.3607L69.403 86.9154L69.3834 86.9242L61.7057 90.4486C61.345 90.6136 60.9838 90.5645 60.6705 90.3275C60.3496 90.0844 60.121 89.6625 60.1735 89.1195L61.0182 80.4232L61.0494 79.7513C61.0465 78.8903 60.876 78.04 60.5533 77.2484L74.0631 56.2328L77.1686 61.7855ZM57.5328 89.3978C57.5382 89.5659 57.5541 89.7308 57.5787 89.892C57.555 89.7367 57.5383 89.5781 57.5328 89.4164V89.3978ZM81.1373 62.0804C81.2106 62.1159 81.2844 62.1505 81.36 62.181C81.299 62.1566 81.2387 62.1307 81.1793 62.1029L81.1373 62.0804ZM80.4889 61.681C80.5359 61.7171 80.5839 61.7517 80.6324 61.7855C80.5914 61.7571 80.5503 61.7288 80.5104 61.6986L80.4889 61.681ZM79.4703 60.4984L79.6862 60.8441C79.609 60.7344 79.5367 60.6171 79.4703 60.4984Z" fill="#A4F4CF"/>
<mask id="path-17-inside-1_2424_1362" fill="white">
<path d="M81.1924 92.8426C81.5161 92.9912 81.8453 93.0855 82.1708 93.1361C82.0111 93.1113 81.8493 93.0784 81.6893 93.0305L81.1924 92.8426ZM62.6455 92.9044C62.5115 92.9588 62.3784 93.0059 62.2438 93.0434C62.2648 93.0376 62.2872 93.0368 62.3082 93.0305L62.6455 92.9044ZM62.8051 92.8452L62.6455 92.9044C62.6983 92.8829 62.755 92.8668 62.8077 92.8426L67.8151 90.5435L62.8051 92.8452ZM71.1414 54.0932C71.6194 53.4424 72.5299 53.4886 72.9462 54.2323L77.1684 61.786L77.5289 62.3601C78.4331 63.6459 79.7801 64.5767 81.3418 64.9295L89.5417 66.778L89.8146 66.881C90.0721 67.0187 90.2782 67.2637 90.3861 67.6096C90.5125 68.0153 90.4629 68.4398 90.2368 68.7861L90.1286 68.9303L84.5393 75.4465C83.3603 76.8219 82.8049 78.6292 82.9792 80.423L83.8236 89.1198L83.8313 89.3181C83.8182 89.7655 83.6077 90.1146 83.3267 90.3273C83.0918 90.5046 82.8297 90.5779 82.5621 90.5332L82.2918 90.4483L74.6145 86.9237C73.1584 86.2554 71.5182 86.17 70.0164 86.6714L69.383 86.9237L61.7058 90.4483C61.345 90.6134 60.9841 90.5643 60.6708 90.3273C60.3498 90.0841 60.1215 89.6629 60.1739 89.1198L61.0184 80.423L61.0493 79.7511C61.0447 78.4078 60.637 77.0895 59.8701 75.982L59.4582 75.4465L53.8689 68.9303C53.5531 68.5621 53.4673 68.0729 53.6114 67.6096C53.755 67.1492 54.0732 66.8648 54.4559 66.778L62.6558 64.9295L63.3097 64.7441C64.8061 64.2313 66.0552 63.1697 66.8291 61.786L71.0513 54.2323L71.1414 54.0932ZM71.229 89.0683C70.9753 89.1237 70.726 89.2074 70.4849 89.3181C70.6054 89.2627 70.7264 89.2128 70.8505 89.1713L71.229 89.0683ZM57.5505 88.8649C57.516 89.22 57.5286 89.5637 57.5788 89.8922C57.555 89.7367 57.5379 89.5779 57.5324 89.4159L57.5505 88.8649ZM72.7711 89.0683C73.0249 89.1237 73.274 89.2074 73.5152 89.3181C73.3942 89.2626 73.2716 89.2129 73.147 89.1713L72.7711 89.0683ZM72.3875 89.0065C72.2583 88.9926 72.1285 88.9859 71.9988 88.9859L71.6126 89.0065C71.741 88.9927 71.8698 88.986 71.9988 88.9859L72.3875 89.0065ZM57.7049 77.4829C57.8537 77.6981 57.9775 77.9282 58.0808 78.1677C58.0306 78.0513 57.9772 77.9365 57.916 77.8253L57.7049 77.4829ZM92.456 70.2098C92.3594 70.3591 92.2517 70.505 92.1316 70.6449L86.5423 77.1637C86.2829 77.4662 86.0731 77.8051 85.9167 78.1677C86.0199 77.9283 86.1439 77.698 86.2926 77.4829L86.5423 77.1637L92.1316 70.6449L92.456 70.2098ZM92.904 66.8243C93.1475 67.6054 93.1604 68.4649 92.9014 69.2727L92.7109 69.7516C93.0809 68.9689 93.1693 68.1086 93.0199 67.3006L92.904 66.8243ZM90.1235 64.206C91.3555 64.4842 92.2611 65.3228 92.7289 66.3661C92.3273 65.4719 91.6053 64.7271 90.6307 64.3579L90.1235 64.206ZM53.3668 64.3605C53.3239 64.3768 53.2827 64.3968 53.2407 64.4146C53.3947 64.3494 53.5551 64.2949 53.7221 64.2498L53.3668 64.3605ZM53.8766 64.206C53.8242 64.2178 53.7733 64.236 53.7221 64.2498L53.8766 64.206ZM81.5451 62.2494C81.6687 62.2917 81.7953 62.3259 81.9236 62.3549L81.5451 62.2494ZM62.4318 62.2545C62.3148 62.2938 62.1951 62.3302 62.0739 62.3575L56.603 63.5907L62.0765 62.3549C62.1971 62.3277 62.3154 62.2936 62.4318 62.2545ZM80.8346 61.9173C81.0586 62.0525 81.2966 62.1642 81.5451 62.2494C81.4206 62.2067 81.2983 62.1582 81.1796 62.1026L80.8346 61.9173ZM80.209 61.4435C80.4013 61.6234 80.611 61.7822 80.8346 61.9173C80.723 61.8499 80.6144 61.7772 80.5102 61.6984L80.209 61.4435ZM64.2134 60.9673C64.2452 60.9256 64.2809 60.8868 64.3112 60.8437L64.5275 60.5013L68.7497 52.9476C68.84 52.7859 68.9398 52.6334 69.0458 52.4919L69.0483 52.4893C68.942 52.6311 68.8429 52.7829 68.7523 52.945L64.53 60.4987C64.4372 60.6647 64.3269 60.819 64.2134 60.9673ZM74.6119 52.0954C74.8516 52.3383 75.0667 52.6212 75.2478 52.945L79.4701 60.4987L79.6863 60.8437C79.6091 60.734 79.5364 60.6173 79.4701 60.4987L75.2478 52.945C75.1572 52.7829 75.0581 52.6337 74.9518 52.4919L74.6119 52.0954ZM73.8267 51.4878C74.1081 51.6497 74.3723 51.8527 74.6119 52.0954C74.4917 51.9736 74.3652 51.8622 74.2335 51.7607L73.8267 51.4878ZM86.4496 88.8649L86.4702 89.3798C86.47 89.3893 86.4654 89.3987 86.4651 89.4082C86.4708 89.2305 86.4675 89.0492 86.4496 88.8649Z"/>
</mask>
<path d="M59.2599 92.5465L58.981 92.9615L59.2599 92.5465ZM58.951 92.3174L58.6319 92.7023L58.6319 92.7023L58.951 92.3174ZM58.3949 80.1682L57.8972 80.1198L57.8972 80.1198L58.3949 80.1682ZM85.6052 80.1682L86.1028 80.1199L86.1028 80.1198L85.6052 80.1682ZM52.8262 64.6205L53.0775 65.0527L53.0775 65.0527L52.8262 64.6205ZM71.9988 51.0012L71.9986 50.5012L71.9986 50.5012L71.9988 51.0012ZM82.6419 93.1773L82.6521 92.6774C82.592 92.6762 82.5463 92.6691 82.4357 92.6588L82.3896 93.1567L82.3435 93.6546C82.4022 93.66 82.5237 93.675 82.6317 93.6772L82.6419 93.1773ZM61.6568 93.1541L61.6042 92.6569C61.5161 92.6662 61.4432 92.6729 61.3744 92.6749L61.3891 93.1747L61.4038 93.6745C61.5131 93.6713 61.618 93.661 61.7095 93.6513L61.6568 93.1541ZM61.1548 93.1721L61.1734 92.6725C61.1007 92.6698 61.0349 92.6659 60.9724 92.6594L60.9205 93.1567L60.8687 93.654C60.9616 93.6637 61.0517 93.6686 61.1362 93.6718L61.1548 93.1721ZM83.1208 93.1541L83.0631 92.6575C83.0076 92.6639 82.9748 92.6621 82.8642 92.6676L82.889 93.167L82.9139 93.6664C82.9586 93.6641 83.0805 93.6621 83.1784 93.6508L83.1208 93.1541ZM73.5152 89.3181L73.3065 89.7725L80.9838 93.297L81.1924 92.8426L81.401 92.3882L73.7238 88.8637L73.5152 89.3181ZM62.2438 93.0434L62.1094 92.5618C61.988 92.5957 61.8738 92.6222 61.7635 92.6398L61.8422 93.1335L61.9209 93.6273C62.0785 93.6022 62.2312 93.5661 62.3783 93.525L62.2438 93.0434ZM60.73 93.1309L60.8088 92.6372C60.731 92.6248 60.6537 92.6092 60.5763 92.5907L60.4597 93.0769L60.3431 93.5631C60.4443 93.5874 60.5468 93.608 60.6513 93.6247L60.73 93.1309ZM83.5739 93.0692L83.4527 92.5841C83.392 92.5992 83.3277 92.611 83.2444 92.6258L83.3319 93.1181L83.4193 93.6104C83.4987 93.5963 83.596 93.579 83.6951 93.5542L83.5739 93.0692ZM60.2795 93.0305L60.421 92.551C60.3552 92.5316 60.2873 92.5072 60.2079 92.4774L60.0323 92.9456L59.8567 93.4137C59.9406 93.4452 60.0362 93.48 60.1379 93.5101L60.2795 93.0305ZM84.0193 92.9276L83.8369 92.462C83.7813 92.4838 83.725 92.5009 83.6389 92.5282L83.7901 93.0048L83.9414 93.4814C84.0094 93.4598 84.107 93.4302 84.2017 93.3931L84.0193 92.9276ZM59.8495 92.8735L60.0498 92.4154C59.9929 92.3905 59.935 92.361 59.8627 92.3237L59.6333 92.7679L59.4038 93.2122C59.4743 93.2486 59.5589 93.2921 59.6492 93.3316L59.8495 92.8735ZM84.4466 92.7267L84.2068 92.2881C84.1397 92.3247 84.0739 92.3582 84.0083 92.3885L84.2175 92.8426L84.4267 93.2967C84.5168 93.2552 84.6031 93.211 84.6865 93.1654L84.4466 92.7267ZM59.4402 92.6675L59.6949 92.2373C59.6472 92.2091 59.6316 92.1939 59.5389 92.1316L59.2599 92.5465L58.981 92.9615C59.0086 92.98 59.1086 93.0523 59.1854 93.0978L59.4402 92.6675ZM84.8303 92.4847L84.5397 92.0778C84.4863 92.116 84.4286 92.1531 84.3629 92.1939L84.6269 92.6186L84.8908 93.0433C84.9632 92.9983 85.0417 92.9481 85.1208 92.8917L84.8303 92.4847ZM58.951 92.3174L58.6319 92.7023C58.7467 92.7975 58.8641 92.8829 58.981 92.9615L59.2599 92.5465L59.5389 92.1316C59.4429 92.0671 59.3535 92.0016 59.2701 91.9325L58.951 92.3174ZM85.1984 92.1835L84.86 91.8155C84.8022 91.8685 84.7472 91.9168 84.6919 91.9612L85.0053 92.3509L85.3187 92.7405C85.3963 92.6781 85.4687 92.6142 85.5368 92.5516L85.1984 92.1835ZM58.951 92.3174L59.2701 91.9325C59.2007 91.8749 59.1417 91.8246 59.0883 91.7735L58.7425 92.1346L58.3966 92.4957C58.4772 92.5728 58.5591 92.642 58.6319 92.7023L58.951 92.3174ZM85.5357 91.8334L85.154 91.5104C85.0966 91.5782 85.0416 91.6399 84.9858 91.6968L85.3426 92.0471L85.6994 92.3973C85.778 92.3172 85.8502 92.2357 85.9174 92.1563L85.5357 91.8334ZM58.5777 91.9621L58.945 91.6229C58.8948 91.5685 58.8552 91.5253 58.8192 91.4817L58.4335 91.7999L58.0479 92.1182C58.1043 92.1865 58.1625 92.2495 58.2104 92.3013L58.5777 91.9621ZM85.8086 91.4704L85.3919 91.1939C85.3453 91.2642 85.3018 91.327 85.2574 91.3849L85.6541 91.6892L86.0508 91.9935C86.115 91.9099 86.1726 91.826 86.2252 91.7468L85.8086 91.4704ZM58.3099 91.6403L58.7115 91.3424C58.6631 91.2771 58.6199 91.2164 58.5812 91.1561L58.1606 91.4266L57.7401 91.6971C57.7957 91.7836 57.8534 91.8641 57.9084 91.9382L58.3099 91.6403ZM86.0351 91.0765L85.5892 90.8503C85.5452 90.937 85.5263 90.9789 85.4977 91.0279L85.9296 91.2799L86.3615 91.5318C86.4098 91.449 86.4556 91.3529 86.4811 91.3026L86.0351 91.0765ZM58.037 91.2206L58.4734 90.9765C58.4407 90.918 58.4107 90.8617 58.3835 90.8059L57.9341 91.025L57.4846 91.2441C57.5223 91.3213 57.5616 91.3949 57.6007 91.4648L58.037 91.2206ZM86.2565 90.5538L85.7826 90.3946C85.7491 90.4941 85.7196 90.5779 85.6864 90.6552L86.1458 90.8525L86.6053 91.0497C86.6555 90.9327 86.6958 90.8164 86.7305 90.7131L86.2565 90.5538ZM57.8465 90.8345L58.3071 90.6398C58.277 90.5688 58.2496 90.4921 58.2197 90.4038L57.7461 90.5641L57.2725 90.7245C57.3047 90.8195 57.3415 90.9238 57.386 91.0292L57.8465 90.8345ZM70.4849 89.3181L70.2763 88.8636L67.6066 90.0891L67.8151 90.5435L68.0237 90.998L70.6935 89.7725L70.4849 89.3181ZM86.4059 89.9797L85.9134 89.8932C85.8905 90.0235 85.8603 90.1508 85.8234 90.2756L86.3029 90.4174L86.7824 90.5592C86.8297 90.3991 86.8687 90.235 86.8983 90.0663L86.4059 89.9797ZM57.6869 90.3762L58.1679 90.2398C58.149 90.1729 58.1343 90.1026 58.1144 90.008L57.6251 90.111L57.1358 90.214C57.1536 90.2985 57.1756 90.4057 57.2059 90.5126L57.6869 90.3762ZM86.4471 89.5987L85.9486 89.5594C85.9381 89.692 85.9369 89.7557 85.9248 89.8324L86.4187 89.9102L86.9126 89.988C86.9328 89.8603 86.9394 89.7156 86.9455 89.638L86.4471 89.5987ZM58.3949 80.1682L57.8972 80.1198L57.0528 88.8166L57.5505 88.8649L58.0481 88.9133L58.8926 80.2165L58.3949 80.1682ZM85.6052 80.1682L85.1075 80.2164L85.7228 86.5575L86.2205 86.5092L86.7182 86.4609L86.1028 80.1199L85.6052 80.1682ZM85.6052 80.1682L86.1028 80.1198C86.0914 80.0017 86.0847 79.8868 86.0846 79.7763L85.5846 79.7768L85.0846 79.7774C85.0848 79.9265 85.0937 80.074 85.1075 80.2165L85.6052 80.1682ZM58.4129 79.7768L57.9129 79.7763C57.9128 79.8933 57.9081 80.0082 57.8972 80.1198L58.3949 80.1682L58.8926 80.2165C58.907 80.0674 58.9128 79.92 58.9129 79.7774L58.4129 79.7768ZM58.3923 79.3829L57.8946 79.4307C57.9029 79.517 57.9085 79.601 57.9105 79.6836L58.4104 79.6713L58.9102 79.6589C58.9075 79.5483 58.9001 79.4403 58.89 79.3352L58.3923 79.3829ZM85.5872 79.6713L86.087 79.6836C86.0891 79.601 86.0946 79.517 86.1029 79.4306L85.6052 79.3829L85.1075 79.3352C85.0974 79.4403 85.0901 79.5483 85.0873 79.6589L85.5872 79.6713ZM58.3357 78.9942L57.8449 79.0897C57.8593 79.1635 57.8713 79.2379 57.881 79.3132L58.3769 79.249L58.8727 79.1849C58.8603 79.089 58.845 78.9937 58.8265 78.8986L58.3357 78.9942ZM85.6232 79.249L86.1191 79.3132C86.1304 79.2259 86.1397 79.156 86.1526 79.0896L85.6618 78.9942L85.171 78.8987C85.1511 79.0009 85.1382 79.1013 85.1273 79.1849L85.6232 79.249ZM58.243 78.6157L57.7637 78.7579C57.7893 78.8444 57.8114 78.9271 57.8292 79.0084L58.3177 78.9015L58.8061 78.7946C58.7817 78.683 58.7527 78.5758 58.7223 78.4735L58.243 78.6157ZM85.6798 78.9015L86.1683 79.0083C86.186 78.9272 86.2082 78.8444 86.2339 78.7579L85.7545 78.6157L85.2751 78.4736C85.2449 78.5757 85.2158 78.683 85.1914 78.7946L85.6798 78.9015ZM58.1066 78.2295L57.6442 78.4198C57.6786 78.5034 57.7095 78.5865 57.7366 78.67L58.2121 78.5153L58.6876 78.3606C58.6518 78.2505 58.6119 78.1436 58.5689 78.0393L58.1066 78.2295ZM85.7854 78.5153L86.2609 78.6699C86.288 78.5867 86.3189 78.5035 86.3534 78.4197L85.891 78.2295L85.4285 78.0394C85.3857 78.1435 85.3457 78.2505 85.3099 78.3607L85.7854 78.5153ZM92.1316 70.6449L91.7521 70.3195L86.1627 76.8382L86.5423 77.1637L86.9219 77.4891L92.5112 70.9704L92.1316 70.6449ZM51.8685 70.6449L52.248 70.3195C52.147 70.2017 52.0554 70.077 51.9706 69.947L51.5518 70.2201L51.133 70.4932C51.238 70.6543 51.3555 70.8149 51.4889 70.9704L51.8685 70.6449ZM51.4591 70.0579L51.8903 69.8049C51.8326 69.7066 51.7915 69.6378 51.7571 69.567L51.3072 69.785L50.8573 70.0031C50.9132 70.1184 50.9792 70.2281 51.0279 70.311L51.4591 70.0579ZM51.1836 69.4915L51.6498 69.3107C51.6179 69.2286 51.6115 69.219 51.5977 69.1783L51.1244 69.3396L50.6512 69.501C50.6723 69.5629 50.7099 69.6528 50.7175 69.6724L51.1836 69.4915ZM51.0111 68.9303L51.499 68.8208C51.4909 68.7847 51.4912 68.788 51.4877 68.7713L50.9983 68.8737L50.5089 68.9761C50.5133 68.9972 50.5229 69.0381 50.5233 69.0398L51.0111 68.9303ZM50.9493 68.5827L51.445 68.5168C51.434 68.4344 51.4263 68.3837 51.422 68.3297L50.9236 68.369L50.4251 68.4084C50.4322 68.4973 50.4457 68.5885 50.4537 68.6487L50.9493 68.5827ZM50.9159 68.1296L51.4158 68.1198C51.414 68.0303 51.4126 67.9622 51.4154 67.8961L50.9159 67.8747L50.4163 67.8534C50.4119 67.9569 50.4144 68.0586 50.416 68.1395L50.9159 68.1296ZM50.9313 67.6688L51.4292 67.7153C51.437 67.6311 51.445 67.557 51.4561 67.4868L50.9622 67.4087L50.4683 67.3307C50.4522 67.4329 50.4419 67.5323 50.4335 67.6223L50.9313 67.6688ZM51.0111 67.159L51.4993 67.2673C51.5118 67.2108 51.527 67.1524 51.5446 67.0886L51.0626 66.9556L50.5806 66.8226C50.561 66.8937 50.5408 66.9705 50.523 67.0507L51.0111 67.159ZM51.1321 66.7239L51.6055 66.885C51.631 66.8099 51.6598 66.7348 51.6914 66.659L51.23 66.4665L50.7685 66.2739C50.7294 66.3676 50.6925 66.4638 50.6588 66.5628L51.1321 66.7239ZM51.3021 66.3017L51.7545 66.5145C51.788 66.4432 51.8265 66.3707 51.8696 66.2937L51.4334 66.0494L50.9971 65.8051C50.9476 65.8936 50.8969 65.9884 50.8496 66.0889L51.3021 66.3017ZM51.5441 65.864L51.9664 66.1317C51.9951 66.0863 52.0262 66.0437 52.0723 65.9791L51.6651 65.689L51.2579 65.3988C51.2215 65.4499 51.169 65.5218 51.1217 65.5964L51.5441 65.864ZM51.8221 65.4778L52.2087 65.795C52.252 65.7421 52.3007 65.6891 52.3587 65.6274L51.9946 65.2848L51.6305 64.9421C51.5699 65.0064 51.5017 65.0801 51.4356 65.1607L51.8221 65.4778ZM52.1336 65.138L52.4788 65.4997C52.5338 65.4472 52.5937 65.4001 52.6821 65.3287L52.3679 64.9398L52.0537 64.5508C51.9823 64.6085 51.8811 64.6878 51.7884 64.7763L52.1336 65.138ZM52.8262 64.6205L53.0775 65.0527C53.1897 64.9875 53.3089 64.9286 53.4354 64.8751L53.2407 64.4146L53.0459 63.9541C52.8843 64.0224 52.7269 64.0998 52.5748 64.1883L52.8262 64.6205ZM53.8766 64.206L53.9867 64.6938L56.7131 64.0784L56.603 63.5907L56.493 63.103L53.7665 63.7183L53.8766 64.206ZM81.9236 62.3549L81.8135 62.8427L90.0134 64.6937L90.1235 64.206L90.2336 63.7183L82.0337 61.8672L81.9236 62.3549ZM62.7587 62.1258L62.5548 61.6693C62.5141 61.6875 62.4866 61.6961 62.4079 61.7266L62.5888 62.1927L62.7697 62.6589C62.8048 62.6453 62.8921 62.6138 62.9626 62.5823L62.7587 62.1258ZM63.1063 61.9456L62.8552 61.5132C62.8049 61.5424 62.7531 61.5704 62.6993 61.5978L62.9261 62.0434L63.1528 62.489C63.2211 62.4543 63.2893 62.4175 63.3574 62.378L63.1063 61.9456ZM63.4358 61.7319L63.1408 61.3282C63.0827 61.3707 63.0225 61.4114 62.9601 61.4509L63.2273 61.8735L63.4945 62.2961C63.5742 62.2457 63.653 62.1925 63.7309 62.1356L63.4358 61.7319ZM63.701 61.5156L63.3707 61.1403C63.3082 61.1953 63.266 61.2331 63.2212 61.268L63.5285 61.6624L63.8358 62.0568C63.9102 61.9989 63.9801 61.936 64.0313 61.891L63.701 61.5156ZM63.9276 61.2994L63.5676 60.9523C63.5006 61.0218 63.5224 61.0035 63.4918 61.0333L63.84 61.3921L64.1883 61.7509C64.2143 61.7256 64.2368 61.7013 64.2523 61.6845C64.2704 61.6647 64.2782 61.6561 64.2875 61.6464L63.9276 61.2994ZM75.2478 52.945L74.8114 53.189L79.0336 60.7426L79.4701 60.4987L79.9065 60.2547L75.6843 52.701L75.2478 52.945ZM71.9988 51.0012L71.9986 50.5012C71.6414 50.5013 71.2833 50.5466 70.934 50.6388L71.0616 51.1222L71.1892 51.6057C71.4535 51.5359 71.7259 51.5013 71.9989 51.5012L71.9988 51.0012ZM71.9988 51.0012L71.9989 51.5012C72.2729 51.5011 72.5459 51.5357 72.8107 51.6056L72.9385 51.1222L73.0662 50.6388C72.7158 50.5462 72.3567 50.5011 71.9986 50.5012L71.9988 51.0012ZM52.5018 64.8291L52.7973 65.2324C52.8804 65.1715 52.973 65.1135 53.0775 65.0527L52.8262 64.6205L52.5748 64.1883C52.4554 64.2578 52.3294 64.3356 52.2063 64.4257L52.5018 64.8291ZM73.5152 89.3181L73.0981 90.2269L73.9322 88.4092L73.5152 89.3181ZM81.1924 92.8426L81.5462 91.9073L80.7752 93.7514L81.1924 92.8426ZM82.1708 93.1361L82.0171 94.1242L82.3245 92.148L82.1708 93.1361ZM81.6893 93.0305L81.3355 93.9659L81.3689 93.9785L81.403 93.9887L81.6893 93.0305ZM62.2438 93.0434L61.975 92.0802L62.5127 94.0066L62.2438 93.0434ZM62.3082 93.0305L62.5942 93.9888L62.6267 93.9791L62.6585 93.9672L62.3082 93.0305ZM62.8051 92.8452L63.1529 93.7827L63.1883 93.7696L63.2225 93.7539L62.8051 92.8452ZM62.8077 92.8426L62.3904 91.9338L62.3904 91.9338L62.8077 92.8426ZM67.8151 90.5435L68.2326 91.4522L67.3979 89.6347L67.8151 90.5435ZM71.1414 54.0932L70.3355 53.5013L70.3182 53.5248L70.3023 53.5493L71.1414 54.0932ZM72.9462 54.2323L73.8191 53.7444L73.8188 53.7438L72.9462 54.2323ZM77.1684 61.786L76.2955 62.2739L76.308 62.2961L76.3215 62.3177L77.1684 61.786ZM77.5289 62.3601L76.6819 62.8918L76.6958 62.9139L76.7109 62.9353L77.5289 62.3601ZM81.3418 64.9295L81.1214 65.9049L81.1218 65.905L81.3418 64.9295ZM89.5417 66.778L89.8947 65.8424L89.8295 65.8178L89.7616 65.8025L89.5417 66.778ZM89.8146 66.881L90.2862 65.9992L90.2287 65.9684L90.1676 65.9454L89.8146 66.881ZM90.3861 67.6096L91.3409 67.3122L91.3407 67.3118L90.3861 67.6096ZM90.2368 68.7861L91.0368 69.3861L91.0563 69.3601L91.0741 69.3328L90.2368 68.7861ZM90.1286 68.9303L90.8877 69.5814L90.909 69.5565L90.9286 69.5303L90.1286 68.9303ZM84.5393 75.4465L83.7803 74.7954L83.7801 74.7956L84.5393 75.4465ZM82.9792 80.423L83.9745 80.3264L83.9745 80.3263L82.9792 80.423ZM83.8236 89.1198L84.8228 89.0809L84.8217 89.052L84.8189 89.0232L83.8236 89.1198ZM83.8313 89.3181L84.8309 89.3475L84.8319 89.3133L84.8306 89.2791L83.8313 89.3181ZM83.3267 90.3273L83.9291 91.1255L83.9303 91.1246L83.3267 90.3273ZM82.5621 90.5332L82.2623 91.4872L82.3287 91.5081L82.3975 91.5196L82.5621 90.5332ZM82.2918 90.4483L81.8745 91.3571L81.9318 91.3834L81.9919 91.4023L82.2918 90.4483ZM74.6145 86.9237L75.0317 86.0149L75.0316 86.0149L74.6145 86.9237ZM70.0164 86.6714L69.6997 85.7229L69.6727 85.7319L69.6463 85.7424L70.0164 86.6714ZM69.383 86.9237L69.0129 85.9947L68.9891 86.0042L68.9658 86.0149L69.383 86.9237ZM61.7058 90.4483L62.1219 91.3576L62.123 91.3571L61.7058 90.4483ZM60.6708 90.3273L60.067 91.1244L60.0675 91.1248L60.6708 90.3273ZM60.1739 89.1198L59.1786 89.0232L59.1785 89.0237L60.1739 89.1198ZM61.0184 80.423L62.0137 80.5197L62.0161 80.4944L62.0173 80.469L61.0184 80.423ZM61.0493 79.7511L62.0482 79.797L62.0493 79.7724L62.0492 79.7477L61.0493 79.7511ZM59.8701 75.982L60.6923 75.4127L60.678 75.3921L60.6627 75.3722L59.8701 75.982ZM59.4582 75.4465L60.2508 74.8367L60.2346 74.8156L60.2172 74.7954L59.4582 75.4465ZM53.8689 68.9303L53.1097 69.5812L53.1098 69.5814L53.8689 68.9303ZM53.6114 67.6096L52.6568 67.3118L52.6565 67.3126L53.6114 67.6096ZM54.4559 66.778L54.2359 65.8025L54.2346 65.8028L54.4559 66.778ZM62.6558 64.9295L62.8757 65.905L62.9023 65.899L62.9285 65.8916L62.6558 64.9295ZM63.3097 64.7441L63.5824 65.7062L63.6084 65.6988L63.6339 65.6901L63.3097 64.7441ZM66.8291 61.786L67.7019 62.2741L67.702 62.2739L66.8291 61.786ZM71.0513 54.2323L70.2122 53.6884L70.1944 53.7158L70.1784 53.7444L71.0513 54.2323ZM71.229 89.0683L71.4915 90.0332L71.0157 88.0913L71.229 89.0683ZM70.4849 89.3181L70.0677 88.4093L70.902 90.227L70.4849 89.3181ZM70.8505 89.1713L70.588 88.2064L70.5604 88.2139L70.5334 88.2229L70.8505 89.1713ZM57.5505 88.8649L58.5499 88.8976L56.5551 88.7684L57.5505 88.8649ZM57.5788 89.8922L56.5902 90.0432L58.5673 89.7413L57.5788 89.8922ZM57.5324 89.4159L56.533 89.3832L56.5319 89.4164L56.533 89.4497L57.5324 89.4159ZM72.7711 89.0683L72.9843 88.0913L72.5069 90.0328L72.7711 89.0683ZM73.147 89.1713L73.4636 88.2228L73.4376 88.2141L73.4112 88.2069L73.147 89.1713ZM72.3875 89.0065L72.3346 90.0051L72.4949 88.0123L72.3875 89.0065ZM71.9988 88.9859L71.9984 87.9859L71.9984 87.9859L71.9988 88.9859ZM71.6126 89.0065L71.5054 88.0123L71.6658 90.0051L71.6126 89.0065ZM57.7049 77.4829L58.5274 76.9141L56.8537 78.0077L57.7049 77.4829ZM58.0808 78.1677L57.1626 78.5639L58.9991 77.7718L58.0808 78.1677ZM57.916 77.8253L58.7922 77.3434L58.7803 77.3216L58.7673 77.3005L57.916 77.8253ZM92.456 70.2098L93.2954 70.7533L91.6543 69.6121L92.456 70.2098ZM92.1316 70.6449L91.3299 70.0472L92.8907 71.2959L92.1316 70.6449ZM86.5423 77.1637L87.33 77.7798L85.7832 76.5127L86.5423 77.1637ZM85.9167 78.1677L84.9983 77.772L86.835 78.5637L85.9167 78.1677ZM86.2926 77.4829L85.5049 76.8668L85.4867 76.89L85.4699 76.9144L86.2926 77.4829ZM92.904 66.8243L93.8587 66.5267L91.9323 67.0607L92.904 66.8243ZM92.9014 69.2727L93.8306 69.6424L93.8432 69.6106L93.8537 69.578L92.9014 69.2727ZM92.7109 69.7516L91.7817 69.3819L93.615 70.179L92.7109 69.7516ZM93.0199 67.3006L94.0032 67.1188L93.9981 67.0913L93.9915 67.0643L93.0199 67.3006ZM90.1235 64.206L90.3438 63.2306L89.8366 65.164L90.1235 64.206ZM92.7289 66.3661L91.8167 66.7758L93.6414 65.9569L92.7289 66.3661ZM90.6307 64.3579L90.9849 63.4228L90.9517 63.4102L90.9176 63.4L90.6307 64.3579ZM53.2407 64.4146L52.8511 63.4935L53.6302 65.3356L53.2407 64.4146ZM53.3668 64.3605L53.0693 63.4058L53.0403 63.4148L53.0118 63.4256L53.3668 64.3605ZM53.8766 64.206L54.1492 65.1681L53.6565 63.2305L53.8766 64.206ZM56.603 63.5907L56.3828 62.6153L56.8229 64.5662L56.603 63.5907ZM81.5451 62.2494L81.2211 63.1954L81.5451 62.2494ZM81.9236 62.3549L81.7033 63.3304L82.1923 61.3917L81.9236 62.3549ZM62.4318 62.2545L62.7501 63.2025L62.1138 61.3064L62.4318 62.2545ZM62.0739 62.3575L62.2938 63.333L62.294 63.333L62.0739 62.3575ZM62.0765 62.3549L62.2967 63.3304L62.2968 63.3304L62.0765 62.3549ZM80.8346 61.9173L80.3177 62.7733L80.8346 61.9173ZM81.1796 62.1026L80.7062 62.9835L80.7307 62.9967L80.7559 63.0084L81.1796 62.1026ZM80.209 61.4435L80.8549 60.6802L79.5261 62.1741L80.209 61.4435ZM80.5102 61.6984L79.8642 62.4618L79.8851 62.4795L79.907 62.496L80.5102 61.6984ZM64.2134 60.9673L63.4195 60.3592L65.0072 61.5753L64.2134 60.9673ZM64.3112 60.8437L65.129 61.4192L65.1434 61.3988L65.1567 61.3777L64.3112 60.8437ZM64.5275 60.5013L65.3729 61.0353L65.3873 61.0126L65.4003 60.9892L64.5275 60.5013ZM68.7497 52.9476L67.8768 52.4596L67.8768 52.4597L68.7497 52.9476ZM69.0458 52.4919L68.3387 51.7848L68.2882 51.8352L68.2454 51.8923L69.0458 52.4919ZM69.0483 52.4893L69.8483 53.0894L68.3412 51.7822L69.0483 52.4893ZM68.7523 52.945L67.8795 52.4568L67.8794 52.4571L68.7523 52.945ZM64.53 60.4987L65.4029 60.9866L65.4029 60.9866L64.53 60.4987ZM75.2478 52.945L74.3751 53.4332L76.1207 52.457L75.2478 52.945ZM79.4701 60.4987L80.3174 59.9676L78.5973 60.9869L79.4701 60.4987ZM79.6863 60.8437L78.8684 61.419L80.5336 60.3125L79.6863 60.8437ZM74.9518 52.4919L75.7519 51.892L75.7323 51.8659L75.711 51.8411L74.9518 52.4919ZM73.8267 51.4878L74.3254 50.621L73.2696 52.3182L73.8267 51.4878ZM74.2335 51.7607L74.8437 50.9685L74.8177 50.9485L74.7906 50.9303L74.2335 51.7607ZM86.4496 88.8649L87.445 88.7684L85.4504 88.9049L86.4496 88.8649ZM86.4702 89.3798L87.4699 89.405L87.4707 89.3724L87.4694 89.3399L86.4702 89.3798ZM86.4651 89.4082L85.4656 89.3762L87.4646 89.4402L86.4651 89.4082ZM81.1924 92.8426L80.7752 93.7514C81.1875 93.9407 81.6059 94.0603 82.0171 94.1242L82.1708 93.1361L82.3244 92.148C82.0846 92.1107 81.8447 92.0417 81.6097 91.9338L81.1924 92.8426ZM82.1708 93.1361L82.3245 92.148C82.195 92.1278 82.08 92.1036 81.9756 92.0724L81.6893 93.0305L81.403 93.9887C81.6187 94.0531 81.8272 94.0947 82.0171 94.1242L82.1708 93.1361ZM81.6893 93.0305L82.0431 92.0952L81.5462 91.9073L81.1924 92.8426L80.8387 93.7779L81.3355 93.9659L81.6893 93.0305ZM62.6455 92.9044L62.269 91.978C62.1628 92.0211 62.066 92.0548 61.975 92.0802L62.2438 93.0434L62.5127 94.0066C62.6907 93.9569 62.8603 93.8965 63.0219 93.8308L62.6455 92.9044ZM62.2438 93.0434L62.5127 94.0066C62.4798 94.0158 62.4539 94.0209 62.4412 94.0232C62.4307 94.0252 62.4213 94.0266 62.4312 94.025C62.4359 94.0243 62.4576 94.0209 62.4826 94.0161C62.509 94.011 62.5482 94.0025 62.5942 93.9888L62.3082 93.0305L62.0222 92.0723C62.0578 92.0617 62.0862 92.0557 62.1019 92.0526C62.11 92.0511 62.1161 92.05 62.119 92.0495C62.1217 92.0491 62.1233 92.0489 62.1208 92.0492C62.1197 92.0494 62.1134 92.0504 62.1072 92.0514C62.1004 92.0525 62.0903 92.0542 62.0784 92.0564C62.0549 92.0607 62.0184 92.0681 61.975 92.0802L62.2438 93.0434ZM62.3082 93.0305L62.6585 93.9672L62.9958 93.841L62.6455 92.9044L62.2951 91.9678L61.9579 92.0939L62.3082 93.0305ZM62.8051 92.8452L62.4573 91.9076L62.2977 91.9668L62.6455 92.9044L62.9933 93.842L63.1529 93.7827L62.8051 92.8452ZM62.6455 92.9044L63.0219 93.8308C63.0185 93.8322 63.0186 93.8321 63.026 93.8294C63.0368 93.8255 63.0407 93.8242 63.062 93.8166C63.0924 93.8058 63.1555 93.7833 63.2249 93.7514L62.8077 92.8426L62.3904 91.9338C62.4072 91.9261 62.4156 91.9238 62.3912 91.9324C62.3852 91.9346 62.3617 91.9429 62.3454 91.9488C62.3256 91.9559 62.2989 91.9658 62.269 91.978L62.6455 92.9044ZM62.8077 92.8426L63.2249 93.7514L68.2324 91.4523L67.8151 90.5435L67.3979 89.6347L62.3904 91.9338L62.8077 92.8426ZM67.8151 90.5435L67.3977 89.6348L62.3876 91.9365L62.8051 92.8452L63.2225 93.7539L68.2326 91.4522L67.8151 90.5435ZM71.1414 54.0932L71.9474 54.6852C71.9727 54.6508 71.9916 54.641 71.9957 54.6391C72.0005 54.6368 72.001 54.6376 71.9989 54.6375C71.9966 54.6373 72 54.6366 72.0094 54.6428C72.0183 54.6486 72.0442 54.6682 72.0736 54.7207L72.9462 54.2323L73.8188 53.7438C73.4559 53.0956 72.8318 52.6896 72.135 52.6421C71.4406 52.5948 70.7691 52.9109 70.3355 53.5013L71.1414 54.0932ZM72.9462 54.2323L72.0733 54.7202L76.2955 62.2739L77.1684 61.786L78.0413 61.298L73.8191 53.7444L72.9462 54.2323ZM77.1684 61.786L76.3215 62.3177L76.6819 62.8918L77.5289 62.3601L78.3758 61.8284L78.0154 61.2543L77.1684 61.786ZM77.5289 62.3601L76.7109 62.9353C77.7529 64.417 79.3095 65.4956 81.1214 65.9049L81.3418 64.9295L81.5621 63.954C80.2507 63.6578 79.1134 62.8749 78.3468 61.7848L77.5289 62.3601ZM81.3418 64.9295L81.1218 65.905L89.3217 67.7535L89.5417 66.778L89.7616 65.8025L81.5617 63.9539L81.3418 64.9295ZM89.5417 66.778L89.1886 67.7136L89.4615 67.8166L89.8146 66.881L90.1676 65.9454L89.8947 65.8424L89.5417 66.778ZM89.8146 66.881L89.3429 67.7628C89.3505 67.7668 89.3615 67.7743 89.3751 67.7913C89.389 67.8088 89.4117 67.8439 89.4315 67.9074L90.3861 67.6096L91.3407 67.3118C91.1622 66.7393 90.7964 66.2721 90.2862 65.9992L89.8146 66.881ZM90.3861 67.6096L89.4313 67.907C89.4755 68.0487 89.4509 68.1606 89.3994 68.2395L90.2368 68.7861L91.0741 69.3328C91.4749 68.7189 91.5494 67.9818 91.3409 67.3122L90.3861 67.6096ZM90.2368 68.7861L89.4368 68.1861L89.3286 68.3303L90.1286 68.9303L90.9286 69.5303L91.0368 69.3861L90.2368 68.7861ZM90.1286 68.9303L89.3696 68.2792L83.7803 74.7954L84.5393 75.4465L85.2984 76.0975L90.8877 69.5814L90.1286 68.9303ZM84.5393 75.4465L83.7801 74.7956C82.4205 76.3817 81.7837 78.4602 81.9838 80.5197L82.9792 80.423L83.9745 80.3263C83.826 78.7982 84.3 77.2621 85.2986 76.0973L84.5393 75.4465ZM82.9792 80.423L81.9838 80.5197L82.8283 89.2165L83.8236 89.1198L84.8189 89.0232L83.9745 80.3264L82.9792 80.423ZM83.8236 89.1198L82.8244 89.1587L82.8321 89.357L83.8313 89.3181L84.8306 89.2791L84.8228 89.0809L83.8236 89.1198ZM83.8313 89.3181L82.8318 89.2886C82.8296 89.3605 82.8128 89.4103 82.7946 89.4449C82.7754 89.4813 82.7499 89.5097 82.7232 89.53L83.3267 90.3273L83.9303 91.1246C84.4427 90.7367 84.8085 90.11 84.8309 89.3475L83.8313 89.3181ZM83.3267 90.3273L82.7243 89.5291C82.7105 89.5395 82.7009 89.5449 82.6961 89.5474C82.6914 89.5497 82.6908 89.5495 82.6942 89.5486C82.6977 89.5476 82.7034 89.5465 82.7104 89.5461C82.7175 89.5458 82.7232 89.5463 82.7267 89.5469L82.5621 90.5332L82.3975 91.5196C82.9705 91.6152 83.505 91.4455 83.9291 91.1255L83.3267 90.3273ZM82.5621 90.5332L82.8619 89.5792L82.5916 89.4943L82.2918 90.4483L81.9919 91.4023L82.2623 91.4872L82.5621 90.5332ZM82.2918 90.4483L82.709 89.5395L75.0317 86.0149L74.6145 86.9237L74.1973 87.8325L81.8745 91.3571L82.2918 90.4483ZM74.6145 86.9237L75.0316 86.0149C73.3449 85.2407 71.4424 85.141 69.6997 85.7229L70.0164 86.6714L70.3331 87.62C71.5941 87.1989 72.9719 87.2701 74.1973 87.8326L74.6145 86.9237ZM70.0164 86.6714L69.6463 85.7424L69.0129 85.9947L69.383 86.9237L69.7531 87.8527L70.3865 87.6004L70.0164 86.6714ZM69.383 86.9237L68.9658 86.0149L61.2885 89.5395L61.7058 90.4483L62.123 91.3571L69.8002 87.8325L69.383 86.9237ZM61.7058 90.4483L61.2896 89.539C61.2742 89.546 61.2684 89.5465 61.2715 89.546C61.2728 89.5457 61.2755 89.5454 61.2794 89.5453C61.2832 89.5452 61.2873 89.5454 61.2914 89.5459C61.2956 89.5464 61.299 89.5471 61.3014 89.5478C61.3038 89.5484 61.3046 89.5488 61.3037 89.5485C61.3021 89.5478 61.292 89.5433 61.2741 89.5298L60.6708 90.3273L60.0675 91.1248C60.6591 91.5724 61.4098 91.6835 62.1219 91.3576L61.7058 90.4483ZM60.6708 90.3273L61.2746 89.5301C61.2443 89.5072 61.2157 89.4738 61.1959 89.4292C61.1774 89.3877 61.1592 89.3203 61.1693 89.2159L60.1739 89.1198L59.1785 89.0237C59.0919 89.921 59.4764 90.677 60.067 91.1244L60.6708 90.3273ZM60.1739 89.1198L61.1692 89.2165L62.0137 80.5197L61.0184 80.423L60.023 80.3264L59.1786 89.0232L60.1739 89.1198ZM61.0184 80.423L62.0173 80.469L62.0482 79.797L61.0493 79.7511L60.0503 79.7051L60.0194 80.3771L61.0184 80.423ZM61.0493 79.7511L62.0492 79.7477C62.044 78.2051 61.576 76.689 60.6923 75.4127L59.8701 75.982L59.048 76.5512C59.698 77.49 60.0454 78.6104 60.0493 79.7545L61.0493 79.7511ZM59.8701 75.982L60.6627 75.3722L60.2508 74.8367L59.4582 75.4465L58.6656 76.0562L59.0775 76.5917L59.8701 75.982ZM59.4582 75.4465L60.2172 74.7954L54.6279 68.2792L53.8689 68.9303L53.1098 69.5814L58.6992 76.0975L59.4582 75.4465ZM53.8689 68.9303L54.628 68.2794C54.5521 68.1909 54.517 68.0652 54.5663 67.9065L53.6114 67.6096L52.6565 67.3126C52.4177 68.0806 52.5541 68.9333 53.1097 69.5812L53.8689 68.9303ZM53.6114 67.6096L54.566 67.9074C54.5922 67.8236 54.6235 67.7876 54.6365 67.7751C54.649 67.7631 54.6607 67.7569 54.6771 67.7532L54.4559 66.778L54.2346 65.8028C53.4758 65.9749 52.8976 66.5397 52.6568 67.3118L53.6114 67.6096ZM54.4559 66.778L54.6758 67.7535L62.8757 65.905L62.6558 64.9295L62.4358 63.9539L54.2359 65.8025L54.4559 66.778ZM62.6558 64.9295L62.9285 65.8916L63.5824 65.7062L63.3097 64.7441L63.037 63.782L62.383 63.9674L62.6558 64.9295ZM63.3097 64.7441L63.6339 65.6901C65.3699 65.0952 66.8112 63.8666 67.7019 62.2741L66.8291 61.786L65.9563 61.2978C65.2992 62.4727 64.2423 63.3674 62.9855 63.7981L63.3097 64.7441ZM66.8291 61.786L67.702 62.2739L71.9242 54.7202L71.0513 54.2323L70.1784 53.7444L65.9562 61.298L66.8291 61.786ZM71.0513 54.2323L71.8905 54.7762L71.9806 54.6371L71.1414 54.0932L70.3023 53.5493L70.2122 53.6884L71.0513 54.2323ZM71.229 89.0683L71.0157 88.0913C70.6901 88.1624 70.3726 88.2693 70.0679 88.4092L70.4849 89.3181L70.902 90.227C71.0795 90.1455 71.2605 90.085 71.4422 90.0453L71.229 89.0683ZM70.4849 89.3181L70.9022 90.2269C70.9999 90.182 71.0865 90.1468 71.1676 90.1197L70.8505 89.1713L70.5334 88.2229C70.3662 88.2788 70.2109 88.3435 70.0677 88.4093L70.4849 89.3181ZM70.8505 89.1713L71.1131 90.1362L71.4915 90.0332L71.229 89.0683L70.9664 88.1034L70.588 88.2064L70.8505 89.1713ZM57.5505 88.8649L56.5551 88.7684C56.5124 89.2091 56.528 89.6359 56.5902 90.0432L57.5788 89.8922L58.5673 89.7412C58.5292 89.4914 58.5196 89.231 58.5458 88.9615L57.5505 88.8649ZM57.5788 89.8922L58.5673 89.7413C58.548 89.6148 58.5357 89.4961 58.5319 89.3821L57.5324 89.4159L56.533 89.4497C56.5401 89.6596 56.562 89.8585 56.5902 90.0431L57.5788 89.8922ZM57.5324 89.4159L58.5319 89.4486L58.5499 88.8976L57.5505 88.8649L56.551 88.8322L56.533 89.3832L57.5324 89.4159ZM72.7711 89.0683L72.5579 90.0453C72.7397 90.085 72.9206 90.1455 73.0981 90.2269L73.5152 89.3181L73.9322 88.4092C73.6275 88.2693 73.3101 88.1624 72.9843 88.0913L72.7711 89.0683ZM73.5152 89.3181L73.9322 88.4092C73.7842 88.3413 73.6278 88.2776 73.4636 88.2228L73.147 89.1713L72.8304 90.1199C72.9154 90.1482 73.0042 90.1839 73.0981 90.2269L73.5152 89.3181ZM73.147 89.1713L73.4112 88.2069L73.0354 88.1039L72.7711 89.0683L72.5069 90.0328L72.8828 90.1358L73.147 89.1713ZM72.3875 89.0065L72.4949 88.0123C72.3285 87.9944 72.1628 87.9859 71.9984 87.9859L71.9988 88.9859L71.9991 89.9859C72.0943 89.9859 72.1881 89.9908 72.2802 90.0008L72.3875 89.0065ZM71.9988 88.9859L71.9455 87.9874L71.5593 88.008L71.6126 89.0065L71.6658 90.0051L72.052 89.9845L71.9988 88.9859ZM71.6126 89.0065L71.7198 90.0008C71.8115 89.9909 71.9046 89.986 71.9991 89.9859L71.9988 88.9859L71.9984 87.9859C71.835 87.986 71.6705 87.9945 71.5054 88.0123L71.6126 89.0065ZM71.9988 88.9859L71.9459 89.9845L72.3346 90.0051L72.3875 89.0065L72.4404 88.0079L72.0517 87.9873L71.9988 88.9859ZM57.7049 77.4829L56.8825 78.0518C56.9891 78.2059 57.082 78.3769 57.1625 78.5637L58.0808 78.1677L58.9991 77.7718C58.8731 77.4796 58.7184 77.1902 58.5274 76.9141L57.7049 77.4829ZM58.0808 78.1677L58.999 77.7716C58.9419 77.6393 58.8744 77.4928 58.7922 77.3434L57.916 77.8253L57.0398 78.3073C57.0799 78.3801 57.1192 78.4633 57.1626 78.5639L58.0808 78.1677ZM57.916 77.8253L58.7673 77.3005L58.5561 76.9581L57.7049 77.4829L56.8537 78.0077L57.0648 78.3501L57.916 77.8253ZM92.456 70.2098L91.6166 69.6664C91.5427 69.7806 91.4615 69.8902 91.3725 69.994L92.1316 70.6449L92.8907 71.2959C93.0418 71.1198 93.1761 70.9377 93.2954 70.7533L92.456 70.2098ZM86.5423 77.1637L85.7832 76.5127C85.4569 76.8932 85.1939 77.3184 84.9984 77.7718L85.9167 78.1677L86.835 78.5637C86.9522 78.2917 87.1089 78.0391 87.3014 77.8146L86.5423 77.1637ZM85.9167 78.1677L86.8351 78.5635C86.9153 78.3773 87.0084 78.206 87.1152 78.0515L86.2926 77.4829L85.4699 76.9144C85.2795 77.19 85.1244 77.4793 84.9983 77.772L85.9167 78.1677ZM86.2926 77.4829L87.0802 78.099L87.33 77.7798L86.5423 77.1637L85.7547 76.5475L85.5049 76.8668L86.2926 77.4829ZM92.1316 70.6449L92.9333 71.2427L93.2577 70.8076L92.456 70.2098L91.6543 69.6121L91.3299 70.0472L92.1316 70.6449ZM92.904 66.8243L91.9493 67.1219C92.1346 67.7162 92.1423 68.365 91.9492 68.9675L92.9014 69.2727L93.8537 69.578C94.1784 68.5649 94.1604 67.4945 93.8587 66.5267L92.904 66.8243ZM92.9014 69.2727L91.9723 68.903L91.7817 69.3819L92.7109 69.7516L93.6401 70.1212L93.8306 69.6424L92.9014 69.2727ZM92.7109 69.7516L93.615 70.179C94.0805 69.1942 94.1882 68.1192 94.0032 67.1188L93.0199 67.3006L92.0365 67.4825C92.1504 68.098 92.0813 68.7437 91.8068 69.3242L92.7109 69.7516ZM93.0199 67.3006L93.9915 67.0643L93.8757 66.588L92.904 66.8243L91.9323 67.0607L92.0482 67.537L93.0199 67.3006ZM90.1235 64.206L89.9032 65.1815C90.7981 65.3835 91.4642 65.9897 91.8165 66.7753L92.7289 66.3661L93.6414 65.9569C93.0579 64.6558 91.9129 63.5849 90.3438 63.2306L90.1235 64.206ZM92.7289 66.3661L93.6411 65.9564C93.1416 64.844 92.2316 63.895 90.9849 63.4228L90.6307 64.3579L90.2764 65.2931C90.979 65.5592 91.5131 66.0998 91.8167 66.7758L92.7289 66.3661ZM90.6307 64.3579L90.9176 63.4L90.4104 63.2481L90.1235 64.206L89.8366 65.164L90.3438 65.3159L90.6307 64.3579ZM53.3668 64.3605L53.0118 63.4256C52.9645 63.4436 52.9236 63.4615 52.8987 63.4725C52.8663 63.4869 52.862 63.4889 52.8512 63.4935L53.2407 64.4146L53.6302 65.3356C53.6483 65.3279 53.6647 65.3207 53.6772 65.3151C53.6835 65.3124 53.6897 65.3096 53.6946 65.3074C53.6999 65.3051 53.7041 65.3032 53.708 65.3015C53.725 65.294 53.7262 65.2937 53.7219 65.2953L53.3668 64.3605ZM53.2407 64.4146L53.6302 65.3356C53.7392 65.2895 53.8562 65.2494 53.9827 65.2152L53.7221 64.2498L53.4615 63.2843C53.254 63.3404 53.0502 63.4093 52.8511 63.4935L53.2407 64.4146ZM53.7221 64.2498L53.4246 63.2951L53.0693 63.4058L53.3668 64.3605L53.6643 65.3152L54.0196 65.2045L53.7221 64.2498ZM53.8766 64.206L53.6565 63.2305C53.5939 63.2447 53.5399 63.2608 53.5103 63.2697C53.4877 63.2765 53.4884 63.2764 53.4738 63.2808C53.4696 63.282 53.4667 63.2829 53.4646 63.2835C53.4635 63.2838 53.4628 63.284 53.4623 63.2841C53.4617 63.2843 53.4615 63.2843 53.4615 63.2843L53.7221 64.2498L53.9827 65.2152C54.0079 65.2084 54.0303 65.2019 54.0472 65.1968C54.0557 65.1942 54.0638 65.1918 54.0703 65.1898C54.0774 65.1877 54.0824 65.1861 54.0875 65.1846C54.1093 65.178 54.1069 65.1792 54.0967 65.1815L53.8766 64.206ZM53.7221 64.2498L53.9947 65.2119L54.1492 65.1681L53.8766 64.206L53.604 63.2439L53.4495 63.2877L53.7221 64.2498ZM81.5451 62.2494L81.2211 63.1954C81.3858 63.2518 81.5481 63.2953 81.7033 63.3304L81.9236 62.3549L82.1439 61.3795C82.0424 61.3566 81.9516 61.3316 81.8692 61.3033L81.5451 62.2494ZM81.9236 62.3549L82.1923 61.3917L81.8138 61.2861L81.5451 62.2494L81.2765 63.2126L81.6549 63.3182L81.9236 62.3549ZM62.4318 62.2545L62.1134 61.3065C62.0134 61.3401 61.9291 61.365 61.8538 61.382L62.0739 62.3575L62.294 63.333C62.4611 63.2953 62.6163 63.2474 62.7501 63.2025L62.4318 62.2545ZM62.0739 62.3575L61.854 61.382L56.3831 62.6152L56.603 63.5907L56.8229 64.5662L62.2938 63.333L62.0739 62.3575ZM56.603 63.5907L56.8233 64.5662L62.2967 63.3304L62.0765 62.3549L61.8563 61.3795L56.3828 62.6153L56.603 63.5907ZM62.0765 62.3549L62.2968 63.3304C62.4553 63.2946 62.6064 63.2507 62.7498 63.2026L62.4318 62.2545L62.1138 61.3064C62.0243 61.3364 61.9389 61.3608 61.8562 61.3795L62.0765 62.3549ZM80.8346 61.9173L80.3177 62.7733C80.6016 62.9447 80.9041 63.0867 81.2209 63.1953L81.5451 62.2494L81.8694 61.3034C81.6892 61.2416 81.5157 61.1604 81.3514 61.0612L80.8346 61.9173ZM81.5451 62.2494L81.8692 61.3033C81.7747 61.271 81.686 61.2355 81.6032 61.1968L81.1796 62.1026L80.7559 63.0084C80.9107 63.0808 81.0666 63.1425 81.2211 63.1954L81.5451 62.2494ZM81.1796 62.1026L81.6529 61.2217L81.3079 61.0364L80.8346 61.9173L80.3613 62.7982L80.7062 62.9835L81.1796 62.1026ZM80.209 61.4435L79.5261 62.1741C79.7685 62.4007 80.0337 62.6018 80.3177 62.7733L80.8346 61.9173L81.3515 61.0612C81.1883 60.9627 81.0341 60.846 80.8918 60.713L80.209 61.4435ZM80.8346 61.9173L81.3514 61.0612C81.2663 61.0098 81.1869 60.9564 81.1134 60.9008L80.5102 61.6984L79.907 62.496C80.0419 62.5981 80.1797 62.69 80.3177 62.7733L80.8346 61.9173ZM80.5102 61.6984L81.1561 60.935L80.8549 60.6802L80.209 61.4435L79.563 62.2069L79.8642 62.4618L80.5102 61.6984ZM64.2134 60.9673L65.0073 61.5753C65.0065 61.5762 65.0077 61.5747 65.0127 61.5686C65.0202 61.5594 65.0222 61.557 65.0355 61.5408C65.0544 61.5178 65.091 61.4731 65.129 61.4192L64.3112 60.8437L63.4934 60.2682C63.501 60.2573 63.5047 60.2536 63.4902 60.2712C63.4868 60.2753 63.4721 60.2932 63.463 60.3043C63.4514 60.3185 63.4361 60.3375 63.4195 60.3592L64.2134 60.9673ZM64.3112 60.8437L65.1567 61.3777L65.3729 61.0353L64.5275 60.5013L63.682 59.9673L63.4657 60.3097L64.3112 60.8437ZM64.5275 60.5013L65.4003 60.9892L69.6226 53.4355L68.7497 52.9476L67.8768 52.4597L63.6546 60.0133L64.5275 60.5013ZM68.7497 52.9476L69.6226 53.4355C69.6909 53.3133 69.7663 53.1979 69.8461 53.0914L69.0458 52.4919L68.2454 51.8923C68.1132 52.0688 67.9892 52.2586 67.8768 52.4596L68.7497 52.9476ZM69.0458 52.4919L69.7529 53.199L69.7554 53.1964L69.0483 52.4893L68.3412 51.7822L68.3387 51.7848L69.0458 52.4919ZM69.0483 52.4893L68.2484 51.8892C68.1152 52.0668 67.9918 52.2561 67.8795 52.4568L68.7523 52.945L69.625 53.4332C69.694 53.3098 69.7688 53.1954 69.8483 53.0894L69.0483 52.4893ZM68.7523 52.945L67.8794 52.4571L63.6571 60.0108L64.53 60.4987L65.4029 60.9866L69.6252 53.4329L68.7523 52.945ZM64.53 60.4987L63.6572 60.0107C63.5986 60.1154 63.5216 60.2258 63.4195 60.3592L64.2134 60.9673L65.0072 61.5753C65.1323 61.4121 65.2758 61.214 65.4029 60.9866L64.53 60.4987ZM74.6119 52.0954L73.9001 52.7977C74.0769 52.9769 74.2378 53.1878 74.3751 53.4332L75.2478 52.945L76.1206 52.4568C75.8956 52.0546 75.6263 51.6997 75.3238 51.3931L74.6119 52.0954ZM79.4701 60.4987L78.6228 61.0298L78.839 61.3748L79.6863 60.8437L80.5336 60.3125L80.3174 59.9676L79.4701 60.4987ZM79.6863 60.8437L80.5042 60.2683C80.4485 60.189 80.3939 60.1018 80.3428 60.0105L79.4701 60.4987L78.5973 60.9869C78.679 61.1329 78.7698 61.2789 78.8684 61.419L79.6863 60.8437ZM75.2478 52.945L76.1207 52.457C76.0057 52.2514 75.8815 52.0649 75.7519 51.892L74.9518 52.4919L74.1516 53.0917C74.2347 53.2025 74.3087 53.3145 74.375 53.4329L75.2478 52.945ZM74.9518 52.4919L75.711 51.8411L75.3712 51.4446L74.6119 52.0954L73.8527 52.7462L74.1925 53.1427L74.9518 52.4919ZM73.8267 51.4878L73.328 52.3546C73.5306 52.4711 73.7233 52.6186 73.9003 52.7979L74.6119 52.0954L75.3235 51.3929C75.0213 51.0867 74.6857 50.8283 74.3254 50.621L73.8267 51.4878ZM74.6119 52.0954L75.3238 51.3931C75.1712 51.2384 75.0106 51.097 74.8437 50.9685L74.2335 51.7607L73.6233 52.553C73.7198 52.6273 73.8123 52.7088 73.9001 52.7977L74.6119 52.0954ZM74.2335 51.7607L74.7906 50.9303L74.3838 50.6574L73.8267 51.4878L73.2696 52.3182L73.6763 52.5911L74.2335 51.7607ZM86.4496 88.8649L85.4504 88.9049L85.471 89.4198L86.4702 89.3798L87.4694 89.3399L87.4488 88.825L86.4496 88.8649ZM86.4702 89.3798L85.4705 89.3547C85.4715 89.3177 85.4744 89.2851 85.4778 89.2581C85.4812 89.2312 85.4853 89.2085 85.4886 89.1915C85.492 89.1747 85.4951 89.1614 85.497 89.1538C85.4979 89.1499 85.4987 89.1469 85.4991 89.1453C85.4995 89.1437 85.4998 89.1426 85.4996 89.1433C85.4996 89.1434 85.499 89.1456 85.4984 89.1479C85.4978 89.1505 85.4968 89.1544 85.4956 89.1592C85.4933 89.1685 85.4897 89.1836 85.486 89.2022C85.4821 89.221 85.4777 89.2454 85.4739 89.2741C85.4701 89.3029 85.4668 89.3373 85.4656 89.3762L86.4651 89.4082L87.4646 89.4402C87.4634 89.4767 87.4603 89.5087 87.4568 89.5351C87.4534 89.5615 87.4493 89.5835 87.446 89.5999C87.4427 89.6162 87.4397 89.6289 87.438 89.6359C87.4364 89.6421 87.4351 89.6474 87.4357 89.6447C87.4358 89.6443 87.4379 89.6364 87.4402 89.6271C87.4426 89.6172 87.4463 89.6016 87.4501 89.5824C87.4539 89.563 87.4584 89.538 87.4621 89.5087C87.4658 89.4793 87.4689 89.4444 87.4699 89.405L86.4702 89.3798ZM86.4651 89.4082L87.4646 89.4401C87.4713 89.2287 87.4678 89.0037 87.445 88.7684L86.4496 88.8649L85.4543 88.9615C85.4672 89.0948 85.4702 89.2322 85.4656 89.3762L86.4651 89.4082Z" fill="#ECFDF5" mask="url(#path-17-inside-1_2424_1362)"/>
<path d="M68.4353 76.3059C68.4353 76.3059 67.5442 79.636 71.9999 79.636C76.4557 79.636 75.5645 76.3059 75.5645 76.3059" fill="#004F3B"/>
<path d="M69.4379 69.7844H66.7273H64.0909M79.9089 69.7844H77.2726H74.562M68.4353 76.3059C68.4353 76.3059 67.5442 79.636 71.9999 79.636C76.4557 79.636 75.5645 76.3059 75.5645 76.3059L71.9999 76.9996L68.4353 76.3059Z" stroke="#004F3B" stroke-width="3.3301" stroke-linecap="round" stroke-linejoin="round"/>
<path d="M130.206 45.7637L116.17 68.7002L111.763 62.1383L111.624 61.9316L111.365 61.9215L103.138 61.6018L117.174 38.6653L130.206 45.7637Z" fill="#FF2056" stroke="#A50036"/>
<path d="M127.066 45.7637L141.102 68.7002L145.509 62.1383L145.648 61.9316L145.907 61.9215L154.134 61.6018L140.098 38.6653L127.066 45.7637Z" fill="#FF2056" stroke="#A50036"/>
<g filter="url(#filter2_d_2424_1362)">
<path d="M122.673 14.4701C125.966 11.177 131.306 11.177 134.599 14.4701L147.257 27.1281C150.55 30.4212 150.55 35.7605 147.257 39.0536L134.599 51.7116C131.306 55.0047 125.966 55.0047 122.673 51.7116L110.015 39.0536C106.722 35.7605 106.722 30.4212 110.015 27.1281L122.673 14.4701Z" fill="#D1D5DC"/>
<path d="M123.605 15.4026C126.383 12.6242 130.888 12.6242 133.666 15.4026L146.325 28.0598C149.103 30.8381 149.103 35.343 146.325 38.1213L133.666 50.7795C130.888 53.5578 126.383 53.5579 123.605 50.7795L110.948 38.1213C108.169 35.343 108.169 30.8382 110.948 28.0598L123.605 15.4026Z" stroke="#1E2939" stroke-width="2.63633"/>
</g>
<path d="M132.157 15.5308C132.766 15.8616 133.339 16.2826 133.854 16.7974L141.495 24.4399L124.773 50.4526C124.291 50.1563 123.835 49.8014 123.418 49.3843L115.492 41.4565L132.157 15.5308Z" fill="#E5E7EB"/>
<path d="M123.772 17.1512C126.459 14.4652 130.814 14.4651 133.5 17.1512L144.575 28.2274C147.261 30.9137 147.261 35.2687 144.575 37.955L133.5 49.0302C130.814 51.7164 126.459 51.7164 123.772 49.0302L112.696 37.955C110.01 35.2688 110.01 30.9137 112.696 28.2274L123.772 17.1512Z" stroke="#F9FAFB"/>
<path d="M126.052 36.6814C126.052 36.6814 125.406 41.954 128.636 41.954C131.865 41.954 131.22 36.6814 131.22 36.6814" stroke="#101828" stroke-width="3.3301" stroke-linecap="round" stroke-linejoin="round"/>
<path d="M135.544 32.4913L131.272 28.6527L135.544 25.9667" stroke="#101828" stroke-width="3.3301" stroke-linecap="round" stroke-linejoin="round"/>
<path d="M120.887 32.4913L125.158 28.6527L120.887 25.9667" stroke="#101828" stroke-width="3.3301" stroke-linecap="round" stroke-linejoin="round"/>
<g filter="url(#filter3_dd_2424_1362)">
<path d="M130.17 119.095L113.543 146.264L108.283 138.43L108.144 138.223L107.885 138.214L98.0647 137.833L114.691 110.664L130.17 119.095Z" fill="#FF2056" stroke="#A50036"/>
<path d="M126.23 119.095L142.857 146.264L148.117 138.43L148.256 138.223L148.515 138.214L158.335 137.833L141.709 110.664L126.23 119.095Z" fill="#FF2056" stroke="#A50036"/>
<g filter="url(#filter4_d_2424_1362)">
<path d="M103.2 85.1979C103.2 81.7738 105.976 78.9979 109.4 78.9979H146.6C150.024 78.9979 152.8 81.7738 152.8 85.1979V122.398C152.8 125.822 150.024 128.598 146.6 128.598H109.4C105.976 128.598 103.2 125.822 103.2 122.398V85.1979Z" fill="#FFB86A"/>
<path d="M109.4 80.7694H146.6C149.046 80.7696 151.029 82.7524 151.029 85.1981V122.398C151.029 124.844 149.046 126.827 146.6 126.827H109.4C106.954 126.827 104.971 124.844 104.971 122.398V85.1981C104.971 82.7523 106.954 80.7694 109.4 80.7694Z" stroke="#7E2A0C" stroke-width="3.54286"/>
</g>
<mask id="mask0_2424_1362" style="mask-type:alpha" maskUnits="userSpaceOnUse" x="106" y="82" width="44" height="43">
<rect x="106.743" y="82.3406" width="42.5144" height="42.5144" rx="2.325" fill="black"/>
</mask>
<g mask="url(#mask0_2424_1362)">
<path d="M135.286 78.9979H153L121.114 128.598H103.4L135.286 78.9979Z" fill="#FFD6A8"/>
</g>
<rect x="107.243" y="83.0408" width="41.5144" height="41.5144" rx="1.825" stroke="#FFF7ED"/>
<path d="M124.009 106.082C124.009 106.082 122.961 114.648 128.2 114.648C133.44 114.648 132.392 106.082 132.392 106.082" fill="#7E2A0C"/>
<path d="M122.087 98.4138L118.944 94.498L115.8 98.4138M140.6 98.4138L137.456 94.498L134.313 98.4138M124.009 106.082C124.009 106.082 122.961 114.648 128.2 114.648C133.44 114.648 132.392 106.082 132.392 106.082H124.009Z" stroke="#7E2A0C" stroke-width="3.9158" stroke-linecap="round" stroke-linejoin="round"/>
</g>
</g>
<defs>
<filter id="filter0_d_2424_1362" x="164.038" y="51.0002" width="42.1813" height="45.1942" filterUnits="userSpaceOnUse" color-interpolation-filters="sRGB">
<feFlood flood-opacity="0" result="BackgroundImageFix"/>
<feColorMatrix in="SourceAlpha" type="matrix" values="0 0 0 0 0 0 0 0 0 0 0 0 0 0 0 0 0 0 127 0" result="hardAlpha"/>
<feOffset dy="3.01294"/>
<feComposite in2="hardAlpha" operator="out"/>
<feColorMatrix type="matrix" values="0 0 0 0 0 0 0 0 0 0 0 0 0 0 0 0 0 0 0.25 0"/>
<feBlend mode="normal" in2="BackgroundImageFix" result="effect1_dropShadow_2424_1362"/>
<feBlend mode="normal" in="SourceGraphic" in2="effect1_dropShadow_2424_1362" result="shape"/>
</filter>
<filter id="filter1_d_2424_1362" x="50.9093" y="51.0002" width="42.1813" height="45.1942" filterUnits="userSpaceOnUse" color-interpolation-filters="sRGB">
<feFlood flood-opacity="0" result="BackgroundImageFix"/>
<feColorMatrix in="SourceAlpha" type="matrix" values="0 0 0 0 0 0 0 0 0 0 0 0 0 0 0 0 0 0 127 0" result="hardAlpha"/>
<feOffset dy="3.01294"/>
<feComposite in2="hardAlpha" operator="out"/>
<feColorMatrix type="matrix" values="0 0 0 0 0 0 0 0 0 0 0 0 0 0 0 0 0 0 0.25 0"/>
<feBlend mode="normal" in2="BackgroundImageFix" result="effect1_dropShadow_2424_1362"/>
<feBlend mode="normal" in="SourceGraphic" in2="effect1_dropShadow_2424_1362" result="shape"/>
</filter>
<filter id="filter2_d_2424_1362" x="107.545" y="12.0002" width="42.1813" height="45.1942" filterUnits="userSpaceOnUse" color-interpolation-filters="sRGB">
<feFlood flood-opacity="0" result="BackgroundImageFix"/>
<feColorMatrix in="SourceAlpha" type="matrix" values="0 0 0 0 0 0 0 0 0 0 0 0 0 0 0 0 0 0 127 0" result="hardAlpha"/>
<feOffset dy="3.01294"/>
<feComposite in2="hardAlpha" operator="out"/>
<feColorMatrix type="matrix" values="0 0 0 0 0 0 0 0 0 0 0 0 0 0 0 0 0 0 0.25 0"/>
<feBlend mode="normal" in2="BackgroundImageFix" result="effect1_dropShadow_2424_1362"/>
<feBlend mode="normal" in="SourceGraphic" in2="effect1_dropShadow_2424_1362" result="shape"/>
</filter>
<filter id="filter3_dd_2424_1362" x="28.9999" y="75.8979" width="198.4" height="198.4" filterUnits="userSpaceOnUse" color-interpolation-filters="sRGB">
<feFlood flood-opacity="0" result="BackgroundImageFix"/>
<feColorMatrix in="SourceAlpha" type="matrix" values="0 0 0 0 0 0 0 0 0 0 0 0 0 0 0 0 0 0 127 0" result="hardAlpha"/>
<feMorphology radius="15.5" operator="erode" in="SourceAlpha" result="effect1_dropShadow_2424_1362"/>
<feOffset dy="31.0001"/>
<feGaussianBlur stdDeviation="15.5"/>
<feColorMatrix type="matrix" values="0 0 0 0 0 0 0 0 0 0 0 0 0 0 0 0 0 0 0.04 0"/>
<feBlend mode="normal" in2="BackgroundImageFix" result="effect1_dropShadow_2424_1362"/>
<feColorMatrix in="SourceAlpha" type="matrix" values="0 0 0 0 0 0 0 0 0 0 0 0 0 0 0 0 0 0 127 0" result="hardAlpha"/>
<feMorphology radius="15.5" operator="erode" in="SourceAlpha" result="effect2_dropShadow_2424_1362"/>
<feOffset dy="62.0001"/>
<feGaussianBlur stdDeviation="38.7501"/>
<feColorMatrix type="matrix" values="0 0 0 0 0 0 0 0 0 0 0 0 0 0 0 0 0 0 0.1 0"/>
<feBlend mode="normal" in2="effect1_dropShadow_2424_1362" result="effect2_dropShadow_2424_1362"/>
<feBlend mode="normal" in="SourceGraphic" in2="effect2_dropShadow_2424_1362" result="shape"/>
</filter>
<filter id="filter4_d_2424_1362" x="103.2" y="78.9979" width="49.6001" height="53.143" filterUnits="userSpaceOnUse" color-interpolation-filters="sRGB">
<feFlood flood-opacity="0" result="BackgroundImageFix"/>
<feColorMatrix in="SourceAlpha" type="matrix" values="0 0 0 0 0 0 0 0 0 0 0 0 0 0 0 0 0 0 127 0" result="hardAlpha"/>
<feOffset dy="3.54286"/>
<feComposite in2="hardAlpha" operator="out"/>
<feColorMatrix type="matrix" values="0 0 0 0 0 0 0 0 0 0 0 0 0 0 0 0 0 0 0.25 0"/>
<feBlend mode="normal" in2="BackgroundImageFix" result="effect1_dropShadow_2424_1362"/>
<feBlend mode="normal" in="SourceGraphic" in2="effect1_dropShadow_2424_1362" result="shape"/>
</filter>
<radialGradient id="paint0_radial_2424_1362" cx="0" cy="0" r="1" gradientUnits="userSpaceOnUse" gradientTransform="translate(125.67 100) rotate(88.0456) scale(184.103)">
<stop stop-color="#193CB8"/>
<stop offset="0.658654" stop-color="#193CB8" stop-opacity="0"/>
</radialGradient>
<clipPath id="clip0_2424_1362">
<path d="M0 8C0 3.58172 3.58172 0 8 0H248C252.418 0 256 3.58172 256 8V152C256 156.418 252.418 160 248 160H8C3.58172 160 0 156.418 0 152V8Z" fill="white"/>
</clipPath>
</defs>
</svg>
