<svg width="24" height="24" viewBox="0 0 24 24" fill="none" xmlns="http://www.w3.org/2000/svg">
<mask id="mask0_1624_3793" style="mask-type:alpha" maskUnits="userSpaceOnUse" x="1" y="1" width="22" height="22">
<circle cx="12" cy="12" r="11" fill="#D9D9D9"/>
</mask>
<g mask="url(#mask0_1624_3793)">
<rect x="1" y="1" width="22" height="22" fill="#155DFC"/>
<path d="M24 4V6.09632L13.8093 12L24 17.9037V20L12 13.0481L0 20V17.9037L10.1907 12L0 6.09632V4L12 10.9519L24 4Z" fill="#E7000B"/>
<path d="M14.0638 0V9.9362H24V14.0637H14.0638V24H11.9273H9.9362V14.0637H0V9.9362H9.9362V0H11.9273H14.0638Z" fill="#E7000B"/>
<path d="M14.4651 0V9.0688L24 3.56376V4.4906L15.263 9.53489H17.2762L24 5.6529V6.5798L18.8816 9.53489H24V10.3375H17.4914H15.8861H15.0514C14.505 10.3375 14.1703 10.3147 13.6625 10.3147V9.53219V0H14.4651ZM10.3375 0V9.53219V10.3409C9.8477 10.3409 9.39097 10.3375 8.9486 10.3375H8.11394H6.50863H0V9.53489H5.1184L0 6.5798V5.6529L6.72377 9.53489H8.73697L0 4.4906V3.56376L9.53489 9.0688V0H10.3375ZM13.6625 13.6721C14.1252 13.6721 14.6091 13.6624 15.0515 13.6624H15.8861H17.4915H24V14.465H18.8817L24 17.4201V18.347L17.2763 14.465H15.263L24 19.5093V20.4362L14.4651 14.9311V24H13.6625V14.4677V13.6721ZM10.3375 13.6721V14.4677V24H9.53489V14.9311L0 20.4362V19.5093L8.73697 14.465H6.72371L0 18.347V17.4201L5.11834 14.465H0V13.6624H6.5085H8.11387H8.94847C9.45599 13.6624 10.3375 13.6721 10.3375 13.6721Z" fill="white"/>
<circle cx="12" cy="12" r="10.5" stroke="#E2E8F0"/>
</g>
</svg>
