<svg width="80" height="80" viewBox="0 0 80 80" fill="none" xmlns="http://www.w3.org/2000/svg">
<path d="M17.0117 51.0281C17.7913 50.4228 18.8206 50.26 19.5879 51.0281C20.2225 51.6621 20.3653 53.0005 19.5879 53.6042C17.7417 55.0368 15.7815 56.3315 14.1162 57.9812C12.4485 59.6349 9.87252 57.059 11.54 55.406C13.2086 53.7522 15.1631 52.4623 17.0117 51.0281ZM25.0117 51.0281C25.7913 50.4228 26.8206 50.26 27.5879 51.0281C28.2225 51.6621 28.3653 53.0005 27.5879 53.6042C25.7417 55.0368 23.7815 56.3315 22.1162 57.9812C20.4485 59.6349 17.8725 57.059 19.54 55.406C21.2086 53.7522 23.1631 52.4623 25.0117 51.0281Z" fill="#FB64B6"/>
<path d="M17.3037 43.3908C16.5661 40.1861 16.27 32.2577 21.3374 32.631C25.557 32.9411 24.5085 40.7675 24.1886 43.7264C23.9378 46.0545 27.5825 46.0372 27.8316 43.7264C28.4196 38.2815 28.6006 28.2766 20.6113 29.0414C13.252 29.7462 12.4551 38.5586 13.7906 44.3604C14.3161 46.6441 17.8292 45.677 17.3037 43.3908Z" fill="#0F172B"/>
<path d="M58.2489 51.0281C59.0285 50.4228 60.0578 50.26 60.8251 51.0281C61.4597 51.6621 61.6025 53.0005 60.8251 53.6042C58.9789 55.0368 57.0187 56.3315 55.3534 57.9812C53.6857 59.6349 51.1097 57.059 52.7772 55.406C54.4458 53.7522 56.4002 52.4623 58.2489 51.0281ZM66.2489 51.0281C67.0285 50.4228 68.0578 50.26 68.8251 51.0281C69.4597 51.6621 69.6025 53.0005 68.8251 53.6042C66.9789 55.0368 65.0187 56.3315 63.3534 57.9812C61.6857 59.6349 59.1097 57.059 60.7772 55.406C62.4458 53.7522 64.4002 52.4623 66.2489 51.0281Z" fill="#FB64B6"/>
<path d="M62.8932 43.3909C63.6308 40.1861 63.9269 32.2577 58.8595 32.6311C54.6399 32.9411 55.6884 40.7675 56.0083 43.7264C56.2591 46.0545 52.6144 46.0372 52.3653 43.7264C51.7773 38.2815 51.5963 28.2767 59.5856 29.0415C66.9449 29.7462 67.7418 38.5587 66.4063 44.3604C65.8808 46.6442 62.3677 45.677 62.8932 43.3909Z" fill="#0F172B"/>
<path d="M34.0487 49.8203C33.9137 48.8106 34.8188 48.0388 35.8375 48.0397C38.9266 48.0423 42.0164 47.9897 45.1051 48.0018C46.1594 48.0059 47.0591 48.854 46.8597 49.8893C45.5535 56.6683 34.9208 56.3466 34.0487 49.8203Z" fill="#0F172B"/>
</svg>
