<svg width="80" height="80" viewBox="0 0 80 80" fill="none" xmlns="http://www.w3.org/2000/svg">
<path d="M21.0115 51.0283C21.7911 50.423 22.8204 50.2602 23.5877 51.0283C24.2223 51.6623 24.3651 53.0007 23.5877 53.6044C21.7415 55.037 19.7813 56.3317 18.116 57.9814C16.4483 59.6351 13.8723 57.0592 15.5399 55.4062C17.2084 53.7524 19.1629 52.4625 21.0115 51.0283ZM29.0115 51.0283C29.7911 50.423 30.8204 50.2602 31.5877 51.0283C32.2223 51.6623 32.3651 53.0007 31.5877 53.6044C29.7415 55.037 27.7813 56.3317 26.116 57.9814C24.4483 59.6351 21.8723 57.0592 23.5399 55.4062C25.2084 53.7524 27.1629 52.4625 29.0115 51.0283Z" fill="#FB64B6"/>
<path d="M21.3038 43.3908C20.5661 40.1861 20.2701 32.2577 25.3375 32.631C29.5571 32.9411 28.5086 40.7675 28.1887 43.7264C27.9378 46.0545 31.5825 46.0372 31.8317 43.7264C32.4197 38.2815 32.6006 28.2766 24.6114 29.0414C17.252 29.7462 16.4551 38.5586 17.7907 44.3604C18.3162 46.6441 21.8293 45.677 21.3038 43.3908Z" fill="#0F172B"/>
<path d="M54.2487 51.0283C55.0283 50.423 56.0576 50.2602 56.8249 51.0283C57.4595 51.6623 57.6023 53.0007 56.8249 53.6044C54.9787 55.037 53.0185 56.3317 51.3532 57.9814C49.6855 59.6351 47.1095 57.0592 48.777 55.4062C50.4456 53.7524 52.4001 52.4625 54.2487 51.0283ZM62.2487 51.0283C63.0283 50.423 64.0576 50.2602 64.8249 51.0283C65.4595 51.6623 65.6023 53.0007 64.8249 53.6044C62.9787 55.037 61.0185 56.3317 59.3532 57.9814C57.6855 59.6351 55.1095 57.0592 56.777 55.4062C58.4456 53.7524 60.4001 52.4625 62.2487 51.0283Z" fill="#FB64B6"/>
<path d="M58.8932 43.3909C59.6309 40.1861 59.9269 32.2577 54.8595 32.6311C50.64 32.9411 51.6885 40.7675 52.0084 43.7264C52.2592 46.0545 48.6145 46.0372 48.3653 43.7264C47.7773 38.2815 47.5964 28.2767 55.5857 29.0415C62.945 29.7462 63.7419 38.5587 62.4064 44.3604C61.8809 46.6442 58.3677 45.677 58.8932 43.3909Z" fill="#0F172B"/>
<path d="M37.6991 48.9234C37.2511 50.4619 37.0713 54.2681 40.1486 54.0889C42.711 53.9401 42.0743 50.1828 41.88 48.7623C41.7277 47.6447 43.9411 47.6529 44.0924 48.7623C44.4494 51.3763 44.5593 56.1793 39.7076 55.8122C35.2385 55.4738 34.7546 51.2432 35.5656 48.4579C35.8847 47.3616 38.0182 47.8259 37.6991 48.9234Z" fill="#0F172B"/>
</svg>
