<svg width="80" height="80" viewBox="0 0 80 80" fill="none" xmlns="http://www.w3.org/2000/svg">
<path d="M16.0115 51.0283C16.7911 50.423 17.8204 50.2602 18.5877 51.0283C19.2223 51.6623 19.3651 53.0007 18.5877 53.6044C16.7415 55.037 14.7813 56.3317 13.116 57.9814C11.4483 59.6351 8.87234 57.0592 10.5399 55.4062C12.2084 53.7524 14.1629 52.4625 16.0115 51.0283ZM24.0115 51.0283C24.7911 50.423 25.8204 50.2602 26.5877 51.0283C27.2223 51.6623 27.3651 53.0007 26.5877 53.6044C24.7415 55.037 22.7813 56.3317 21.116 57.9814C19.4483 59.6351 16.8723 57.0592 18.5399 55.4062C20.2084 53.7524 22.1629 52.4625 24.0115 51.0283Z" fill="#FB64B6"/>
<path d="M16.3038 43.3908C15.5661 40.1861 15.2701 32.2577 20.3375 32.631C24.5571 32.9411 23.5086 40.7675 23.1887 43.7264C22.9378 46.0545 26.5825 46.0372 26.8317 43.7264C27.4197 38.2815 27.6006 28.2766 19.6114 29.0414C12.252 29.7462 11.4551 38.5586 12.7907 44.3604C13.3162 46.6441 16.8293 45.677 16.3038 43.3908Z" fill="#0F172B"/>
<path d="M59.2487 51.0283C60.0283 50.423 61.0576 50.2602 61.8249 51.0283C62.4595 51.6623 62.6023 53.0007 61.8249 53.6044C59.9787 55.037 58.0185 56.3317 56.3532 57.9814C54.6855 59.6351 52.1095 57.0592 53.777 55.4062C55.4456 53.7524 57.4001 52.4625 59.2487 51.0283ZM67.2487 51.0283C68.0283 50.423 69.0576 50.2602 69.8249 51.0283C70.4595 51.6623 70.6023 53.0007 69.8249 53.6044C67.9787 55.037 66.0185 56.3317 64.3532 57.9814C62.6855 59.6351 60.1095 57.0592 61.777 55.4062C63.4456 53.7524 65.4001 52.4625 67.2487 51.0283Z" fill="#FB64B6"/>
<path d="M63.8932 43.3909C64.6309 40.1861 64.9269 32.2577 59.8595 32.6311C55.64 32.9411 56.6885 40.7675 57.0084 43.7264C57.2592 46.0545 53.6145 46.0372 53.3653 43.7264C52.7773 38.2815 52.5964 28.2767 60.5857 29.0415C67.945 29.7462 68.7419 38.5587 67.4064 44.3604C66.8809 46.6442 63.3677 45.677 63.8932 43.3909Z" fill="#0F172B"/>
<ellipse cx="40" cy="51.5" rx="5" ry="5.5" fill="#82181A"/>
<path fill-rule="evenodd" clip-rule="evenodd" d="M39.6927 44.0273C45.368 43.6187 46.3431 47.8726 46.2347 51.4141C46.3439 54.9563 45.3701 59.2135 39.6927 58.8047C34.6492 58.4412 33.1186 54.811 33.2493 51.4141C33.1199 48.0182 34.6512 44.3907 39.6927 44.0273ZM40.3294 46.3965C38.1392 46.275 37.0215 47.485 36.5276 48.9961C35.9134 52.0023 36.3579 56.7297 40.5003 56.5C44.7574 56.2644 43.4338 49.798 43.1819 48.8926C42.8103 47.5563 41.9927 46.4885 40.3294 46.3965Z" fill="#0F172B"/>
</svg>
