<svg width="80" height="80" viewBox="0 0 80 80" fill="none" xmlns="http://www.w3.org/2000/svg">
<path d="M21.0115 51.0283C21.7911 50.423 22.8204 50.2602 23.5877 51.0283C24.2223 51.6623 24.3651 53.0007 23.5877 53.6044C21.7415 55.037 19.7813 56.3317 18.116 57.9814C16.4483 59.6351 13.8723 57.0592 15.5399 55.4062C17.2084 53.7524 19.1629 52.4625 21.0115 51.0283ZM29.0115 51.0283C29.7911 50.423 30.8204 50.2602 31.5877 51.0283C32.2223 51.6623 32.3651 53.0007 31.5877 53.6044C29.7415 55.037 27.7813 56.3317 26.116 57.9814C24.4483 59.6351 21.8723 57.0592 23.5399 55.4062C25.2084 53.7524 27.1629 52.4625 29.0115 51.0283Z" fill="#FB64B6"/>
<path d="M21.3038 43.3908C20.5661 40.1861 20.2701 32.2577 25.3375 32.631C29.5571 32.9411 28.5086 40.7675 28.1887 43.7264C27.9378 46.0545 31.5825 46.0372 31.8317 43.7264C32.4197 38.2815 32.6006 28.2766 24.6114 29.0414C17.252 29.7462 16.4551 38.5586 17.7907 44.3604C18.3162 46.6441 21.8293 45.677 21.3038 43.3908Z" fill="#0F172B"/>
<path d="M29.3346 30.1995C26.7006 28.518 24.225 26.6554 21.6325 24.9187C19.7041 23.6269 17.9016 26.7415 19.817 28.0251C21.4214 29.0993 22.9178 30.3197 24.5246 31.389C24.998 31.7032 27.0717 33.4391 28.3513 34.1325C28.3415 34.1382 28.3343 34.148 28.3253 34.1528C31.3328 36.3151 33.7686 36.3151 32.6911 33.6795C32.5336 31.9703 30.6036 31.0098 29.3346 30.1995Z" fill="#0F172B"/>
<path d="M49.6162 30.1995C52.2502 28.518 54.7258 26.6554 57.3183 24.9187C59.2467 23.6269 61.0492 26.7415 59.1338 28.0251C57.5294 29.0993 56.033 30.3197 54.4262 31.389C53.9528 31.7032 51.8791 33.4391 50.5995 34.1325C50.6093 34.1382 50.6165 34.148 50.6255 34.1528C47.618 36.3151 45.1822 36.3151 46.2597 33.6795C46.4172 31.9703 48.3472 31.0098 49.6162 30.1995Z" fill="#0F172B"/>
<path d="M54.2487 51.0283C55.0283 50.423 56.0576 50.2602 56.8249 51.0283C57.4595 51.6623 57.6023 53.0007 56.8249 53.6044C54.9787 55.037 53.0185 56.3317 51.3532 57.9814C49.6855 59.6351 47.1095 57.0592 48.777 55.4062C50.4456 53.7524 52.4001 52.4625 54.2487 51.0283ZM62.2487 51.0283C63.0283 50.423 64.0576 50.2602 64.8249 51.0283C65.4595 51.6623 65.6023 53.0007 64.8249 53.6044C62.9787 55.037 61.0185 56.3317 59.3532 57.9814C57.6855 59.6351 55.1095 57.0592 56.777 55.4062C58.4456 53.7524 60.4001 52.4625 62.2487 51.0283Z" fill="#FB64B6"/>
<path d="M58.8932 43.3909C59.6309 40.1861 59.9269 32.2577 54.8595 32.6311C50.64 32.9411 51.6885 40.7675 52.0084 43.7264C52.2592 46.0545 48.6145 46.0372 48.3653 43.7264C47.7773 38.2815 47.5964 28.2767 55.5857 29.0415C62.945 29.7462 63.7419 38.5587 62.4064 44.3604C61.8809 46.6442 58.3677 45.677 58.8932 43.3909Z" fill="#0F172B"/>
<path d="M37.6991 54.7407C37.2511 53.2022 37.0713 49.396 40.1486 49.5752C42.711 49.7241 42.0743 53.4813 41.88 54.9018C41.7277 56.0195 43.9411 56.0112 44.0924 54.9018C44.4494 52.2879 44.5593 47.4848 39.7076 47.852C35.2385 48.1903 34.7546 52.4209 35.5656 55.2062C35.8847 56.3025 38.0182 55.8383 37.6991 54.7407Z" fill="#0F172B"/>
</svg>
