<svg width="80" height="80" viewBox="0 0 80 80" fill="none" xmlns="http://www.w3.org/2000/svg">
<path d="M21.0115 51.0283C21.7911 50.423 22.8204 50.2602 23.5877 51.0283C24.2223 51.6623 24.3651 53.0008 23.5877 53.6045C21.7415 55.037 19.7813 56.3318 18.116 57.9814C16.4483 59.6351 13.8723 57.0592 15.5399 55.4062C17.2084 53.7525 19.1629 52.4625 21.0115 51.0283ZM29.0115 51.0283C29.7911 50.423 30.8204 50.2602 31.5877 51.0283C32.2223 51.6623 32.3651 53.0008 31.5877 53.6045C29.7415 55.037 27.7813 56.3318 26.116 57.9814C24.4483 59.6351 21.8723 57.0592 23.5399 55.4062C25.2084 53.7525 27.1629 52.4625 29.0115 51.0283Z" fill="#FB64B6"/>
<path d="M28.3346 38.5884C25.7006 36.9069 23.225 35.0443 20.6325 33.3076C18.7041 32.0158 16.9016 35.1304 18.817 36.4141C20.4214 37.4883 21.9178 38.7086 23.5246 39.7779C23.998 40.0922 26.0717 41.8281 27.3513 42.5215C27.3415 42.5272 27.3343 42.5369 27.3253 42.5418C30.3328 44.704 32.7686 44.704 31.6911 42.0684C31.5336 40.3593 29.6036 39.3988 28.3346 38.5884Z" fill="#0F172B"/>
<path d="M58.3346 38.5884C55.7006 36.9069 53.225 35.0443 50.6325 33.3076C48.7041 32.0158 46.9016 35.1304 48.817 36.4141C50.4214 37.4883 51.9178 38.7086 53.5246 39.7779C53.998 40.0922 56.0717 41.8281 57.3513 42.5215C57.3415 42.5272 57.3343 42.5369 57.3253 42.5418C60.3328 44.704 62.7686 44.704 61.6911 42.0684C61.5336 40.3593 59.6036 39.3988 58.3346 38.5884Z" fill="#0F172B"/>
<path d="M21.6162 38.5884C24.2502 36.9069 26.7258 35.0443 29.3183 33.3076C31.2467 32.0158 33.0492 35.1304 31.1338 36.4141C29.5294 37.4883 28.033 38.7086 26.4262 39.7779C25.9528 40.0922 23.8791 41.8281 22.5995 42.5215C22.6093 42.5272 22.6165 42.5369 22.6255 42.5418C19.618 44.704 17.1822 44.704 18.2597 42.0684C18.4172 40.3593 20.3472 39.3988 21.6162 38.5884Z" fill="#0F172B"/>
<path d="M51.6162 38.5884C54.2502 36.9069 56.7258 35.0443 59.3183 33.3076C61.2467 32.0158 63.0492 35.1304 61.1338 36.4141C59.5294 37.4883 58.033 38.7086 56.4262 39.7779C55.9528 40.0922 53.8791 41.8281 52.5995 42.5215C52.6093 42.5272 52.6165 42.5369 52.6255 42.5418C49.618 44.704 47.1822 44.704 48.2597 42.0684C48.4172 40.3593 50.3472 39.3988 51.6162 38.5884Z" fill="#0F172B"/>
<path d="M54.2487 51.0283C55.0283 50.423 56.0576 50.2602 56.8249 51.0283C57.4595 51.6623 57.6023 53.0007 56.8249 53.6044C54.9787 55.037 53.0185 56.3317 51.3532 57.9814C49.6855 59.6351 47.1095 57.0592 48.777 55.4062C50.4456 53.7524 52.4001 52.4625 54.2487 51.0283ZM62.2487 51.0283C63.0283 50.423 64.0576 50.2602 64.8249 51.0283C65.4595 51.6623 65.6023 53.0007 64.8249 53.6044C62.9787 55.037 61.0185 56.3317 59.3532 57.9814C57.6855 59.6351 55.1095 57.0592 56.777 55.4062C58.4456 53.7524 60.4001 52.4625 62.2487 51.0283Z" fill="#FB64B6"/>
<path d="M37.6991 53.0902C37.2511 50.3978 37.0713 43.7369 40.1486 44.0506C42.711 44.311 42.0743 50.8862 41.88 53.372C41.7277 55.328 43.9411 55.3134 44.0924 53.372C44.4494 48.7977 44.5593 40.3923 39.7076 41.0348C35.2385 41.6269 34.7546 49.0305 35.5656 53.9047C35.8847 55.8233 38.0182 55.0108 37.6991 53.0902Z" fill="#0F172B"/>
</svg>
