<svg width="80" height="80" viewBox="0 0 80 80" fill="none" xmlns="http://www.w3.org/2000/svg">
<path d="M33.8388 3.68992C36.5892 -1.22998 43.4108 -1.22997 46.1612 3.68993L54.1696 18.0158C55.1771 19.8181 56.8653 21.096 58.8217 21.5375L74.3732 25.0462C79.7139 26.2512 81.822 33.0109 78.181 37.2566L67.579 49.6192C66.2453 51.1745 65.6004 53.2423 65.8021 55.3173L67.4049 71.8117C67.9554 77.4764 62.4365 81.6541 57.436 79.3582L42.8752 72.6728C41.0434 71.8318 38.9566 71.8318 37.1248 72.6728L22.564 79.3582C17.5635 81.6541 12.0446 77.4764 12.5951 71.8117L14.1979 55.3173C14.3996 53.2423 13.7547 51.1745 12.421 49.6192L1.81903 37.2566C-1.82196 33.0109 0.286059 26.2512 5.62684 25.0462L21.1783 21.5375C23.1347 21.096 24.8229 19.8181 25.8304 18.0158L33.8388 3.68992Z" fill="#00A63E"/>
</svg>
